<svg width="100%" height="1137" viewBox="0 0 1280 1137" fill="none" preserveAspectRatio="none" xmlns="http://www.w3.org/2000/svg">
    <mask id="mask0" mask-type="alpha" maskUnits="userSpaceOnUse" x="0" y="0" width="100%" height="1137">
        <rect width="1280" height="1137" fill="#C4C4C4"/>
    </mask>
    <g mask="url(#mask0)">
        <rect width="1280" height="1137" fill="#FBFBFB"/>
        <path d="M666 974C1231.15 897.477 1639 1226.5 1639 1525.5L1835.5 2292.5H-556L-528 788C-424.5 936 -187 1089.5 666 974Z" fill="white"/>
        <path d="M586.5 886.5C-74 1069 -375 954 -642.5 722.5V-99H1749V959.5C1484.5 801 1247 704 586.5 886.5Z" fill="url(#paint0_linear)" fill-opacity="0.9"/>
        <path d="M574.5 840.5C-66.4761 1082.81 -375.5 785.5 -643 554V-121H1748.5V647.5C1432 454.5 998 680.4 574.5 840.5Z" fill="#F6F6F6"/>
        <path d="M574.5 840.5C-66.4761 1082.81 -375.5 785.5 -643 554V-121H1748.5V647.5C1432 454.5 998 680.4 574.5 840.5Z" fill="url(#paint1_linear)"/>
    </g>
    <defs>
        <linearGradient id="paint0_linear" x1="-396.5" y1="956" x2="1669" y2="-98.9999" gradientUnits="userSpaceOnUse">
            <stop stop-color="#0538FB"/>
            <stop offset="1" stop-color="#37D9FC"/>
        </linearGradient>
        <linearGradient id="paint1_linear" x1="-385.5" y1="787" x2="1627.5" y2="-142.5" gradientUnits="userSpaceOnUse">
            <stop stop-color="#0538FB"/>
            <stop offset="1" stop-color="#37D9FC"/>
        </linearGradient>
    </defs>
</svg>
