<svg width="50" height="50" viewBox="0 0 50 50" fill="none" xmlns="http://www.w3.org/2000/svg">
<path fill-rule="evenodd" clip-rule="evenodd" d="M25 49C38.2548 49 49 38.2548 49 25C49 11.7452 38.2548 1 25 1C11.7452 1 1 11.7452 1 25C1 38.2548 11.7452 49 25 49Z" stroke="#EEEEEE"/>
<path fill-rule="evenodd" clip-rule="evenodd" d="M28.7565 13.6964L29.0614 13.2481L29.3663 12.8062L30.0456 11.8128C30.1302 11.6902 30.0954 11.5257 29.9694 11.4451C29.8452 11.3628 29.6745 11.3967 29.5933 11.5193L28.556 13.0304L28.2445 13.4851C27.2586 13.1126 26.16 12.9046 25.0001 12.9046C23.8418 12.9046 22.7416 13.1126 21.7557 13.4851L21.4458 13.0304L21.1393 12.5836L20.4102 11.5193C20.3257 11.3967 20.1567 11.3644 20.0307 11.4451C19.9065 11.5257 19.8717 11.6902 19.9545 11.8128L20.6339 12.8062L20.9388 13.2481L21.2453 13.6964C18.9305 14.7463 17.3646 16.7347 17.3646 19.0102H32.6355C32.6355 16.7347 31.0697 14.7463 28.7565 13.6964Z" fill="#C4C4C4"/>
<path fill-rule="evenodd" clip-rule="evenodd" d="M17.4823 20.0713H17.3646V31.7505C17.3646 32.6778 18.1384 33.4325 19.0929 33.4325H20.3389C20.2959 33.5728 20.2727 33.7196 20.2727 33.8744V37.2369C20.2727 38.1158 21.0067 38.8286 21.9098 38.8286C22.8128 38.8286 23.5469 38.1158 23.5469 37.2369V33.8744C23.5469 33.7196 23.522 33.5728 23.4806 33.4325H26.5196C26.4781 33.5728 26.4549 33.7196 26.4549 33.8744V37.2369C26.4549 38.1158 27.1873 38.8286 28.0904 38.8286C28.9951 38.8286 29.7292 38.1158 29.7292 37.2369V33.8744C29.7292 33.7196 29.7043 33.5728 29.6612 33.4325H30.9089C31.8634 33.4325 32.6355 32.6778 32.6355 31.7505V20.0713H17.4823Z" fill="#C4C4C4"/>
<path fill-rule="evenodd" clip-rule="evenodd" d="M14.6371 20.0713C13.7324 20.0713 13 20.7841 13 21.6631V28.4767C13 29.3556 13.7324 30.0684 14.6371 30.0684C15.5402 30.0684 16.2726 29.3556 16.2726 28.4767V21.6631C16.2726 20.7841 15.5402 20.0713 14.6371 20.0713Z" fill="#C4C4C4"/>
<path fill-rule="evenodd" clip-rule="evenodd" d="M35.3647 20.0713C34.4599 20.0713 33.7275 20.7841 33.7275 21.6631V28.4767C33.7275 29.3556 34.4599 30.0684 35.3647 30.0684C36.2677 30.0684 37.0001 29.3556 37.0001 28.4767V21.6631C37.0001 20.7841 36.2677 20.0713 35.3647 20.0713Z" fill="#C4C4C4"/>
<path fill-rule="evenodd" clip-rule="evenodd" d="M21.7274 16.8863C21.275 16.8863 20.9088 16.5299 20.9088 16.0897C20.9088 15.6494 21.275 15.2946 21.7274 15.2946C22.1797 15.2946 22.5459 15.6494 22.5459 16.0897C22.5459 16.5299 22.1797 16.8863 21.7274 16.8863Z" fill="white"/>
<path fill-rule="evenodd" clip-rule="evenodd" d="M28.2727 16.8863C27.8203 16.8863 27.4541 16.5299 27.4541 16.0897C27.4541 15.6494 27.8203 15.2946 28.2727 15.2946C28.725 15.2946 29.0912 15.6494 29.0912 16.0897C29.0912 16.5299 28.725 16.8863 28.2727 16.8863Z" fill="white"/>
</svg>
