<svg width="50" height="50" viewBox="0 0 50 50" fill="none" xmlns="http://www.w3.org/2000/svg">
<path fill-rule="evenodd" clip-rule="evenodd" d="M1 25C1 11.7452 11.7452 1 25 1C38.2548 1 49 11.7452 49 25C49 38.2548 38.2548 49 25 49C11.7452 49 1 38.2548 1 25Z" stroke="#EEEEEE"/>
<path fill-rule="evenodd" clip-rule="evenodd" d="M28.907 15.1614C29.8234 13.9785 30.5181 12.3065 30.2668 10.5999C28.7691 10.704 27.0185 11.6622 25.997 12.9112C25.0659 14.0429 24.3006 15.7264 24.5995 17.3603C26.2368 17.4115 27.9266 16.4302 28.907 15.1614Z" fill="#C4C4C4"/>
<path fill-rule="evenodd" clip-rule="evenodd" d="M37 31.2148C36.3448 32.6753 36.0295 33.3279 35.1854 34.6215C34.0079 36.4272 32.3476 38.6757 30.2883 38.6922C28.4605 38.7121 27.9892 37.4945 25.5078 37.5093C23.0264 37.5226 22.5091 38.7154 20.678 38.6972C18.6203 38.679 17.0471 36.6502 15.8696 34.8445C12.5753 29.799 12.2288 23.8762 14.2602 20.7256C15.7054 18.4887 17.9848 17.1802 20.1262 17.1802C22.3055 17.1802 23.6767 18.3829 25.4815 18.3829C27.2321 18.3829 28.2979 17.1769 30.8187 17.1769C32.727 17.1769 34.7485 18.2227 36.1871 20.0268C31.4707 22.6272 32.2343 29.4025 37 31.2148Z" fill="#C4C4C4"/>
</svg>
