<svg width="280" height="472" viewBox="0 0 280 472" fill="none" xmlns="http://www.w3.org/2000/svg">
<path fill-rule="evenodd" clip-rule="evenodd" d="M279.357 235.677C279.357 105.397 173.679 -4.61931e-06 43.6788 -1.03018e-05C-86.3218 -1.59843e-05 -192 105.677 -192 235.677C-192 365.678 -86.3218 471.356 43.6788 471.356C173.679 471.356 279.357 365.958 279.357 235.677ZM-88.8385 369.312C-105.612 352.538 -118.752 332.409 -128.536 309.764C-138.322 286.839 -143.074 262.516 -143.074 236.796C-143.074 210.516 -138.322 185.914 -128.536 162.989C-118.752 140.064 -105.612 120.215 -88.8385 103.162C-72.0634 86.3865 -52.2138 72.967 -29.5692 63.1827C-6.92328 53.397 17.399 48.365 43.3992 48.365C69.3993 48.365 93.7216 53.397 116.368 63.1827C139.012 72.967 158.582 86.3865 175.357 103.162C192.131 119.935 204.991 140.065 214.777 162.989C224.281 185.914 229.314 210.516 229.314 236.796C229.314 262.516 224.561 286.839 214.777 309.764C205.271 332.689 192.131 352.538 175.357 369.312C158.582 386.087 139.012 399.506 116.368 409.291C93.7216 419.076 69.3993 424.108 43.3992 424.108C17.399 424.108 -6.9233 419.076 -29.5692 409.291C-52.2138 399.506 -72.0634 386.367 -88.8385 369.312ZM192.973 235.68C192.973 153.207 126.156 86.3888 43.6817 86.3888C-38.7913 86.3888 -105.608 153.207 -105.608 235.68C-105.608 318.153 -38.7913 384.971 43.6817 384.971C126.156 384.971 192.973 318.153 192.973 235.68ZM-61.4359 235.68C-61.4359 177.809 -14.469 130.84 43.4035 130.84C101.275 130.84 148.241 177.809 148.241 235.68C148.241 293.551 101.275 340.519 43.4035 340.519C-14.469 340.519 -61.4359 293.551 -61.4359 235.68ZM44.5176 296.906C11.4762 296.906 -15.3096 270.121 -15.3096 237.078C-15.3095 204.037 11.4762 177.249 44.5176 177.249C77.5603 177.249 104.346 204.037 104.346 237.078C104.346 270.121 77.5603 296.906 44.5176 296.906Z" fill="url(#paint0_linear)" fill-opacity="0.1"/>
<defs>
<linearGradient id="paint0_linear" x1="279.357" y1="235.678" x2="-192" y2="235.678" gradientUnits="userSpaceOnUse">
<stop stop-color="white"/>
<stop offset="1" stop-color="white" stop-opacity="0"/>
</linearGradient>
</defs>
</svg>
