<svg width="50" height="50" viewBox="0 0 50 50" fill="none" xmlns="http://www.w3.org/2000/svg">
<path fill-rule="evenodd" clip-rule="evenodd" d="M25 49C38.2548 49 49 38.2548 49 25C49 11.7452 38.2548 1 25 1C11.7452 1 1 11.7452 1 25C1 38.2548 11.7452 49 25 49Z" stroke="#EEEEEE"/>
<path d="M25 21.7997C24.1513 21.7997 23.3374 22.1368 22.7373 22.7369C22.1372 23.337 21.8 24.151 21.8 24.9997C21.8 25.8484 22.1372 26.6623 22.7373 27.2624C23.3374 27.8625 24.1513 28.1997 25 28.1997C25.8487 28.1997 26.6627 27.8625 27.2628 27.2624C27.8629 26.6623 28.2 25.8484 28.2 24.9997C28.2 24.151 27.8629 23.337 27.2628 22.7369C26.6627 22.1368 25.8487 21.7997 25 21.7997ZM25 19.6663C26.4145 19.6663 27.7711 20.2282 28.7713 21.2284C29.7715 22.2286 30.3334 23.5852 30.3334 24.9997C30.3334 26.4142 29.7715 27.7707 28.7713 28.7709C27.7711 29.7711 26.4145 30.333 25 30.333C23.5856 30.333 22.229 29.7711 21.2288 28.7709C20.2286 27.7707 19.6667 26.4142 19.6667 24.9997C19.6667 23.5852 20.2286 22.2286 21.2288 21.2284C22.229 20.2282 23.5856 19.6663 25 19.6663ZM31.9334 19.3997C31.9334 19.7533 31.7929 20.0924 31.5429 20.3425C31.2928 20.5925 30.9537 20.733 30.6 20.733C30.2464 20.733 29.9073 20.5925 29.6572 20.3425C29.4072 20.0924 29.2667 19.7533 29.2667 19.3997C29.2667 19.0461 29.4072 18.7069 29.6572 18.4569C29.9073 18.2068 30.2464 18.0663 30.6 18.0663C30.9537 18.0663 31.2928 18.2068 31.5429 18.4569C31.7929 18.7069 31.9334 19.0461 31.9334 19.3997ZM25 16.4663C22.3611 16.4663 21.9302 16.4738 20.7024 16.5282C19.8662 16.5677 19.3051 16.6797 18.7846 16.8823C18.3216 17.0615 17.9878 17.2759 17.6326 17.6322C17.2987 17.9548 17.042 18.3486 16.8816 18.7842C16.679 19.3069 16.567 19.8669 16.5286 20.7021C16.4731 21.8797 16.4667 22.2914 16.4667 24.9997C16.4667 27.6386 16.4742 28.0695 16.5286 29.2973C16.568 30.1325 16.68 30.6946 16.8816 31.2141C17.063 31.6781 17.2763 32.0119 17.6304 32.3661C17.9899 32.7245 18.3238 32.9389 18.7824 33.1159C19.3094 33.3197 19.8704 33.4327 20.7024 33.4711C21.88 33.5266 22.2918 33.533 25 33.533C27.639 33.533 28.0699 33.5255 29.2976 33.4711C30.1318 33.4317 30.6939 33.3197 31.2144 33.1181C31.6763 32.9378 32.0123 32.7234 32.3664 32.3693C32.7259 32.0098 32.9403 31.6759 33.1174 31.2173C33.32 30.6914 33.4331 30.1293 33.4715 29.2973C33.527 28.1197 33.5334 27.7079 33.5334 24.9997C33.5334 22.3607 33.5259 21.9298 33.4715 20.7021C33.432 19.8679 33.32 19.3047 33.1174 18.7842C32.9566 18.349 32.7004 17.9554 32.3675 17.6322C32.0451 17.2982 31.6513 17.0415 31.2155 16.8813C30.6928 16.6786 30.1318 16.5666 29.2976 16.5282C28.12 16.4727 27.7083 16.4663 25 16.4663ZM25 14.333C27.8982 14.333 28.2598 14.3437 29.3968 14.397C30.5328 14.4503 31.3062 14.6285 31.9867 14.893C32.6907 15.1639 33.2838 15.5309 33.8768 16.1229C34.4192 16.6561 34.8389 17.3011 35.1067 18.013C35.3702 18.6925 35.5494 19.4669 35.6027 20.6029C35.6528 21.7399 35.6667 22.1015 35.6667 24.9997C35.6667 27.8978 35.656 28.2594 35.6027 29.3965C35.5494 30.5325 35.3702 31.3058 35.1067 31.9863C34.8397 32.6986 34.4199 33.3438 33.8768 33.8765C33.3435 34.4187 32.6985 34.8383 31.9867 35.1063C31.3072 35.3698 30.5328 35.549 29.3968 35.6023C28.2598 35.6525 27.8982 35.6663 25 35.6663C22.1019 35.6663 21.7403 35.6557 20.6032 35.6023C19.4672 35.549 18.6939 35.3698 18.0134 35.1063C17.3012 34.8391 16.6561 34.4193 16.1232 33.8765C15.5807 33.3433 15.161 32.6983 14.8934 31.9863C14.6288 31.3069 14.4507 30.5325 14.3974 29.3965C14.3472 28.2594 14.3334 27.8978 14.3334 24.9997C14.3334 22.1015 14.344 21.7399 14.3974 20.6029C14.4507 19.4658 14.6288 18.6935 14.8934 18.013C15.1603 17.3007 15.5801 16.6555 16.1232 16.1229C16.6562 15.5802 17.3013 15.1605 18.0134 14.893C18.6939 14.6285 19.4662 14.4503 20.6032 14.397C21.7403 14.3469 22.1019 14.333 25 14.333Z" fill="#C4C4C4"/>
</svg>
