<svg width="50" height="50" viewBox="0 0 50 50" fill="none" xmlns="http://www.w3.org/2000/svg">
<path fill-rule="evenodd" clip-rule="evenodd" d="M0.666626 25C0.666626 11.7452 11.4118 1 24.6666 1C37.9215 1 48.6666 11.7452 48.6666 25C48.6666 38.2548 37.9215 49 24.6666 49C11.4118 49 0.666626 38.2548 0.666626 25Z" stroke="#EEEEEE"/>
<path fill-rule="evenodd" clip-rule="evenodd" d="M18.7568 20.8389H14.2655V34.3332H18.7568V20.8389Z" fill="#C4C4C4"/>
<path fill-rule="evenodd" clip-rule="evenodd" d="M19.0525 16.6639C19.0234 15.3408 18.0772 14.333 16.5408 14.333C15.0043 14.333 13.9999 15.3408 13.9999 16.6639C13.9999 17.9596 14.9747 18.9964 16.4825 18.9964H16.5112C18.0772 18.9964 19.0525 17.9596 19.0525 16.6639Z" fill="#C4C4C4"/>
<path fill-rule="evenodd" clip-rule="evenodd" d="M34.9539 26.5965C34.9539 22.4516 32.7382 20.5225 29.7827 20.5225C27.3982 20.5225 26.3306 21.8322 25.7345 22.7511V20.8397H21.2427C21.3019 22.1059 21.2427 34.3341 21.2427 34.3341H25.7345V26.7977C25.7345 26.3944 25.7636 25.9921 25.8824 25.7033C26.207 24.8976 26.946 24.0634 28.1869 24.0634C29.8127 24.0634 30.4626 25.3008 30.4626 27.1142V34.3337H34.9537L34.9539 26.5965Z" fill="#C4C4C4"/>
</svg>
