<svg width="100%" height="100%" viewBox="0 0 139 29" fill="none" xmlns="http://www.w3.org/2000/svg">
<path d="M30.8495 3.85657C24.577 3.85657 19.5026 8.94451 19.5026 15.2035C19.5026 21.4625 24.5905 26.5505 30.8495 26.5505C37.1085 26.5505 42.1964 21.4625 42.1964 15.2035C42.1964 8.94451 37.1219 3.85657 30.8495 3.85657ZM37.2834 21.5837C36.4758 22.3913 35.5067 23.0239 34.4165 23.495C33.3127 23.9661 32.1417 24.1949 30.9033 24.1949C29.6381 24.1949 28.4536 23.9661 27.3498 23.495C26.2461 23.0239 25.2904 22.3913 24.4694 21.5837C23.6617 20.776 23.0156 19.8203 22.5446 18.7301C22.0734 17.6398 21.8311 16.4688 21.8311 15.217C21.8311 13.9652 22.0734 12.7941 22.5446 11.7038C23.0156 10.6136 23.6617 9.67138 24.4694 8.86373C25.277 8.05615 26.2461 7.43698 27.3498 6.96584C28.4536 6.50823 29.6381 6.26594 30.9033 6.26594C32.1417 6.26594 33.3127 6.49476 34.4165 6.96584C35.5202 7.42352 36.4758 8.05615 37.2834 8.86373C38.0911 9.67138 38.7372 10.6136 39.2082 11.7038C39.6794 12.7941 39.9217 13.9652 39.9217 15.217C39.9217 16.4688 39.6794 17.6398 39.2082 18.7301C38.7372 19.8203 38.1045 20.776 37.2834 21.5837Z" fill="url(#paint0_linear)"/>
<path d="M30.8495 8.01587C26.8788 8.01587 23.6617 11.2328 23.6617 15.2036C23.6617 19.1744 26.8788 22.3913 30.8495 22.3913C34.8202 22.3913 38.0372 19.1744 38.0372 15.2036C38.0372 11.2328 34.8202 8.01587 30.8495 8.01587ZM30.8495 20.2646C28.0632 20.2646 25.8019 18.0033 25.8019 15.217C25.8019 12.4308 28.0632 10.1695 30.8495 10.1695C33.6357 10.1695 35.8971 12.4308 35.8971 15.217C35.8971 18.0033 33.6357 20.2646 30.8495 20.2646Z" fill="url(#paint1_linear)"/>
<path d="M30.9168 18.0438C32.5076 18.0438 33.7973 16.7541 33.7973 15.1633C33.7973 13.5725 32.5076 12.2828 30.9168 12.2828C29.3259 12.2828 28.0363 13.5725 28.0363 15.1633C28.0363 16.7541 29.3259 18.0438 30.9168 18.0438Z" fill="url(#paint2_linear)"/>
<path d="M8.5678 1.02527C9.36383 1.02527 10.1329 1.13321 10.875 1.3356C11.6171 1.53798 12.3187 1.83482 12.9663 2.21261C13.614 2.5904 14.2076 3.04915 14.7474 3.57536C15.2871 4.10157 15.7458 4.69524 16.1371 5.34288C16.5284 5.99053 16.8252 6.69213 17.0411 7.44774C17.257 8.20328 17.3649 8.98588 17.3649 9.79541C17.3649 10.4835 17.284 11.1582 17.1355 11.8058C16.9872 12.4535 16.7577 13.0741 16.4609 13.6543C16.1641 14.2345 15.8133 14.7742 15.4085 15.2869C15.0037 15.7861 14.5449 16.2449 14.0458 16.6361L16.7577 22.0332C16.8117 22.1276 16.8522 22.222 16.9062 22.33C16.9602 22.438 16.9872 22.5324 17.0006 22.6133C17.0006 22.7618 16.9467 22.8832 16.8387 22.9642C16.7307 23.0451 16.5959 23.0856 16.4204 23.0856H13.2497C12.8854 23.0856 12.629 22.8967 12.5076 22.5189L10.4432 18.3092C10.1464 18.3902 9.83604 18.4576 9.52571 18.4981C9.21538 18.5521 8.89156 18.5791 8.5678 18.5791H4.08824V22.4515C4.08824 22.8832 3.85887 23.0856 3.40012 23.0856H0.647643C0.215881 23.0856 0 22.8697 0 22.4515V1.72688C0 1.25464 0.215881 1.02527 0.647643 1.02527H8.5678ZM13.3981 9.76842C13.3981 9.13427 13.2901 8.52711 13.0608 7.93344C12.8314 7.35327 12.5211 6.82708 12.1298 6.35483C11.7385 5.88259 11.2663 5.50479 10.7131 5.19447C10.1599 4.88414 9.5662 4.69524 8.93205 4.61429C8.6622 4.57381 8.39236 4.54682 8.12252 4.51984C7.85268 4.50634 7.56934 4.49286 7.286 4.49286H4.10173V15.0036H8.37887C9.09399 15.0036 9.75513 14.8686 10.3758 14.5988C10.9964 14.3289 11.5226 13.9646 11.9679 13.4924C12.4131 13.0202 12.764 12.467 13.0203 11.8328C13.2766 11.2122 13.3981 10.5105 13.3981 9.76842Z" fill="white"/>
<path d="M48.3034 22.2762C48.3034 22.5325 48.2225 22.735 48.074 22.8833C47.9256 23.0318 47.7097 23.0992 47.4534 23.0992H45.0787C44.539 23.0992 44.2556 22.8294 44.2556 22.2762V1.84845C44.2556 1.60558 44.3231 1.4032 44.4715 1.24128C44.6199 1.07937 44.8223 0.998413 45.0787 0.998413H47.4534C47.6422 0.998413 47.8312 1.07937 48.02 1.22779C48.209 1.37621 48.3034 1.59209 48.3034 1.84845V22.2762Z" fill="white"/>
<path d="M56.6822 22.2762C56.6822 22.5325 56.6013 22.735 56.4528 22.8833C56.3044 23.0318 56.0885 23.0992 55.8322 23.0992H53.4575C52.9177 23.0992 52.6344 22.8294 52.6344 22.2762V1.84845C52.6344 1.60558 52.7019 1.4032 52.8503 1.24128C52.9987 1.07937 53.2011 0.998413 53.4575 0.998413H55.8322C56.021 0.998413 56.21 1.07937 56.3988 1.22779C56.5878 1.37621 56.6822 1.59209 56.6822 1.84845V22.2762Z" fill="white"/>
<path d="M67.3822 19.9014C67.8134 19.9014 68.2591 19.8205 68.7311 19.672C69.2031 19.5237 69.6488 19.2807 70.0806 18.9704C70.2156 18.8895 70.3367 18.822 70.4447 18.768C70.5526 18.7141 70.6606 18.6736 70.7956 18.6736C70.9035 18.6736 71.0115 18.7006 71.1056 18.7545C71.2004 18.8085 71.2946 18.8895 71.3894 19.0244L72.4953 20.5221C72.6303 20.684 72.6843 20.8594 72.6843 21.0483C72.6843 21.2102 72.6303 21.3586 72.5361 21.4935C72.4413 21.6285 72.3064 21.7499 72.1583 21.8713C71.8482 22.1142 71.5105 22.3166 71.1326 22.5055C70.7547 22.6944 70.3637 22.8563 69.9457 22.9912C69.527 23.1261 69.109 23.2206 68.6771 23.3015C68.2453 23.369 67.8272 23.4095 67.4092 23.4095C66.3967 23.4095 65.4524 23.2071 64.5619 22.8158C63.6849 22.4245 62.9024 21.8848 62.2413 21.2102C61.5801 20.5355 61.0539 19.7395 60.6761 18.822C60.2983 17.9045 60.1094 16.9196 60.1094 15.8536C60.1094 14.8282 60.2848 13.8568 60.6491 12.9528C61.0134 12.0353 61.5126 11.2392 62.1468 10.5376C62.7809 9.84949 63.5365 9.30974 64.4136 8.90501C65.2771 8.50022 66.2216 8.29785 67.2334 8.29785C68.1913 8.29785 69.082 8.47323 69.9187 8.83754C70.7547 9.20185 71.4973 9.68755 72.1313 10.3217C72.7652 10.9424 73.2649 11.6845 73.6289 12.5345C73.993 13.3845 74.1819 14.302 74.1819 15.287V15.3814C74.1819 15.7592 74.1418 16.0696 74.047 16.3124C73.9528 16.5553 73.8179 16.7442 73.6428 16.8791C73.4538 17.014 73.2241 17.1084 72.9542 17.1624C72.6843 17.2164 72.3604 17.2434 71.9963 17.2434H64.0897C64.1841 17.6617 64.3461 18.0394 64.5754 18.3632C64.8048 18.7006 65.0612 18.9704 65.358 19.1998C65.6549 19.4292 65.9787 19.6046 66.3296 19.726C66.6666 19.834 67.0175 19.9014 67.3822 19.9014ZM70.3637 14.2615C70.2966 13.9108 70.1616 13.5869 69.9727 13.2766C69.7837 12.9663 69.554 12.7099 69.2709 12.4805C68.9878 12.2511 68.6771 12.0757 68.3401 11.9543C67.9892 11.8194 67.6245 11.7654 67.2334 11.7654C66.8826 11.7654 66.5455 11.8194 66.2078 11.9408C65.8707 12.0488 65.5739 12.2242 65.2906 12.4265C65.0072 12.6424 64.7778 12.8988 64.5754 13.2091C64.3731 13.5195 64.2381 13.8703 64.1572 14.2615H70.3637Z" fill="white"/>
<path d="M76.7593 9.41787C76.7593 9.12097 76.8673 8.90511 77.0694 8.77022C77.2721 8.63527 77.4742 8.56779 77.6902 8.56779H79.3096C79.5117 8.56779 79.6598 8.62177 79.7816 8.74323C79.9027 8.85113 80.0107 8.99958 80.0917 9.18845C80.1865 9.37738 80.2675 9.57975 80.3484 9.8226C80.4294 10.0654 80.5374 10.3219 80.6585 10.5782C80.8204 10.2814 80.9824 9.99804 81.1713 9.7282C81.3603 9.45829 81.5624 9.22893 81.8053 9.01307C82.0482 8.79721 82.3049 8.63527 82.615 8.5273C82.9251 8.41941 83.2628 8.35193 83.6538 8.35193C84.0718 8.35193 84.4365 8.37892 84.7334 8.4329C85.0435 8.48682 85.3272 8.56779 85.5971 8.67575C85.8664 8.78372 86.1363 8.9321 86.4062 9.09404C86.6761 9.26942 86.973 9.47178 87.3101 9.7282C87.634 9.90357 87.7827 10.1194 87.7827 10.4163C87.7827 10.5917 87.7288 10.7941 87.607 10.9964L86.5682 12.629C86.4332 12.8719 86.2311 13.0473 85.9882 13.1283C85.7453 13.2092 85.5023 13.1552 85.2864 12.9529C85.1113 12.791 84.9355 12.6695 84.7874 12.5616C84.6386 12.4672 84.4767 12.3862 84.3286 12.3322C84.1798 12.2782 84.0185 12.2377 83.8427 12.2243C83.6676 12.2108 83.4919 12.1973 83.2759 12.1973C82.979 12.1973 82.723 12.2377 82.4939 12.3187C82.2641 12.3997 82.062 12.5212 81.8731 12.6695C81.6841 12.818 81.5084 13.0069 81.3464 13.2227C81.1845 13.4386 81.0225 13.668 80.8744 13.9243V22.2087C80.8744 22.4921 80.8073 22.708 80.6585 22.8699C80.5104 23.0183 80.2806 23.0993 79.9567 23.0993H77.6362C77.3531 23.0993 77.1234 23.0183 76.9752 22.8699C76.8265 22.7215 76.7455 22.5056 76.7455 22.2087V9.41787H76.7593Z" fill="white"/>
<path d="M97.7535 0.350807C97.8074 0.25636 97.8746 0.175406 97.9556 0.107943C98.0504 0.0269882 98.1715 0 98.3473 0C98.4954 0 98.6172 0.040477 98.7251 0.121432C98.8193 0.202388 98.9002 0.296836 98.968 0.404777C99.0352 0.512717 99.0892 0.620663 99.13 0.715111C99.1701 0.809559 99.211 0.890512 99.238 0.917496L99.494 1.51117C101.005 5.00574 102.489 8.47332 103.96 11.9274C105.431 15.3815 106.915 18.8491 108.413 22.3437C108.426 22.3707 108.44 22.4246 108.453 22.4786C108.467 22.5461 108.48 22.6 108.48 22.6405C108.48 22.9374 108.278 23.0857 107.886 23.0857H104.945C104.54 23.0857 104.27 22.8969 104.122 22.5191L103.272 20.3333H93.4086L90.2112 28.078C90.0624 28.4693 89.7793 28.6717 89.3745 28.6717H86.4469C86.231 28.6717 86.0691 28.6312 85.9881 28.5503C85.8933 28.4693 85.8531 28.3613 85.8531 28.2264C85.8531 28.1725 85.8663 28.105 85.8801 28.051C85.8933 27.997 85.9071 27.9431 85.9341 27.8891C87.418 24.3945 91.277 15.3545 92.7476 11.9004C94.2183 8.45983 95.716 4.99224 97.2275 1.51117C97.3084 1.30878 97.3894 1.11989 97.4835 0.917496C97.5514 0.742095 97.6455 0.539704 97.7535 0.350807ZM98.3604 7.51535C98.2933 7.70428 98.2255 7.89315 98.1583 8.08202C98.0905 8.27096 98.0234 8.45983 97.9556 8.66219L94.6633 16.9467H102.017L98.7653 8.66219C98.7113 8.47332 98.6442 8.28445 98.5763 8.09552C98.4954 7.89315 98.4282 7.70428 98.3604 7.51535Z" fill="white"/>
<path d="M124.847 22.2222C124.847 22.4785 124.779 22.681 124.631 22.8428C124.482 22.9913 124.28 23.0857 124.01 23.0992H122.553C122.391 23.0992 122.243 23.0992 122.108 23.0857C121.973 23.0722 121.851 23.0453 121.73 22.9913C121.622 22.9373 121.514 22.8698 121.433 22.7619C121.352 22.6675 121.285 22.519 121.231 22.3302L121.069 21.4801C120.569 22.1008 120.016 22.573 119.409 22.8968C118.802 23.2207 118.047 23.3691 117.169 23.3691C116.184 23.3691 115.267 23.1667 114.43 22.7754C113.581 22.3841 112.852 21.8444 112.218 21.1563C111.597 20.4682 111.111 19.6721 110.747 18.7681C110.396 17.8506 110.221 16.8791 110.221 15.8402C110.221 14.7878 110.396 13.8028 110.747 12.8853C111.097 11.9679 111.583 11.1718 112.204 10.4972C112.825 9.82255 113.567 9.28286 114.43 8.89156C115.294 8.50026 116.225 8.2979 117.237 8.2979C117.993 8.2979 118.667 8.44628 119.247 8.75661C119.841 9.05344 120.326 9.41775 120.718 9.82255V1.87543C120.718 1.61907 120.799 1.4032 120.961 1.24128C121.123 1.07937 121.352 0.998413 121.649 0.998413H123.888C124.145 0.998413 124.374 1.07937 124.563 1.24128C124.752 1.4032 124.86 1.61907 124.86 1.87543V22.2222H124.847ZM121.109 15.9346C121.109 15.4085 121.015 14.9228 120.839 14.464C120.664 14.0053 120.421 13.614 120.111 13.2632C119.8 12.9258 119.449 12.656 119.031 12.4536C118.613 12.2512 118.182 12.1567 117.736 12.1567C117.277 12.1567 116.846 12.2512 116.454 12.4536C116.049 12.656 115.698 12.9258 115.402 13.2632C115.105 13.6005 114.862 13.9918 114.687 14.4505C114.511 14.8958 114.43 15.3815 114.43 15.8942C114.43 16.3934 114.511 16.8791 114.687 17.3244C114.862 17.7696 115.091 18.1609 115.402 18.4982C115.698 18.8356 116.049 19.0919 116.454 19.2809C116.859 19.4697 117.291 19.5777 117.736 19.5777C118.195 19.5777 118.627 19.4832 119.031 19.2809C119.436 19.0919 119.8 18.8221 120.097 18.4982C120.407 18.1744 120.65 17.7831 120.839 17.3514C121.015 16.9061 121.109 16.4339 121.109 15.9346Z" fill="white"/>
<path d="M127.95 21.0753C127.828 20.9404 127.734 20.8055 127.666 20.684C127.599 20.5626 127.558 20.4007 127.558 20.2118C127.558 20.1309 127.572 20.0364 127.599 19.9285C127.626 19.8205 127.734 19.6856 127.95 19.5372L129.515 18.2419H129.501C129.461 18.2419 129.461 18.2284 129.488 18.2149C129.515 18.2014 129.555 18.1879 129.609 18.1744C129.663 18.1609 129.717 18.1474 129.785 18.1339C129.839 18.1204 129.893 18.1069 129.92 18.1069C130.055 18.1069 130.176 18.1474 130.298 18.2419C130.406 18.3364 130.5 18.4443 130.595 18.5657C130.757 18.8086 130.945 18.9975 131.188 19.1594C131.431 19.3078 131.674 19.4427 131.93 19.5372C132.186 19.6317 132.443 19.6991 132.685 19.7396C132.928 19.78 133.144 19.7935 133.32 19.7935C133.482 19.7935 133.671 19.7665 133.873 19.7261C134.076 19.6856 134.264 19.6182 134.44 19.5237C134.615 19.4292 134.764 19.3213 134.885 19.1999C135.007 19.0649 135.061 18.9165 135.061 18.7411C135.061 18.5522 134.993 18.3903 134.872 18.2419C134.737 18.0934 134.575 17.9586 134.345 17.8371C134.129 17.7157 133.873 17.6077 133.59 17.4998C133.306 17.3919 132.996 17.2974 132.672 17.2164C131.107 16.7712 129.92 16.1506 129.097 15.368C128.287 14.5854 127.882 13.6275 127.882 12.4805C127.882 11.8464 128.017 11.2662 128.287 10.7535C128.557 10.2273 128.935 9.78206 129.421 9.40425C129.906 9.02651 130.473 8.72968 131.134 8.52725C131.795 8.32488 132.524 8.21692 133.32 8.21692C135.357 8.21692 136.99 9.01302 138.245 10.5916C138.299 10.6726 138.353 10.7535 138.366 10.8345C138.393 10.9155 138.407 10.9964 138.407 11.0504C138.393 11.1853 138.353 11.2797 138.285 11.3607C138.231 11.4417 138.123 11.5361 137.988 11.644H138.002L137.961 11.6845L137.934 11.7115L137.799 11.8734L137.394 12.2107C137.138 12.4266 136.922 12.6155 136.747 12.7774C136.571 12.9393 136.396 13.0203 136.221 13.0068C136.059 13.0068 135.924 12.9663 135.83 12.8988C135.735 12.8179 135.641 12.7235 135.533 12.6155C135.398 12.467 135.25 12.3322 135.074 12.1972C134.899 12.0623 134.71 11.9544 134.521 11.8465C134.332 11.7385 134.129 11.6575 133.927 11.6035C133.725 11.5496 133.536 11.5091 133.36 11.5091C132.982 11.5091 132.685 11.5496 132.47 11.644C132.254 11.7385 132.092 11.8465 131.97 11.9678C131.863 12.0893 131.782 12.2242 131.741 12.3592C131.701 12.494 131.687 12.602 131.687 12.683C131.687 12.8853 131.741 13.0473 131.863 13.1822C131.984 13.3171 132.132 13.4385 132.321 13.533C132.51 13.6275 132.712 13.7084 132.942 13.7758C133.171 13.8433 133.387 13.8973 133.59 13.9648L133.846 14.0457C134.602 14.2481 135.29 14.491 135.924 14.7608C136.558 15.0306 137.098 15.3545 137.556 15.7188C138.015 16.0966 138.366 16.5283 138.623 17.0276C138.879 17.5268 139 18.1204 139 18.7951C139 19.5237 138.852 20.1713 138.542 20.738C138.231 21.3047 137.813 21.7905 137.273 22.1817C136.733 22.573 136.113 22.8698 135.384 23.0857C134.656 23.2881 133.887 23.396 133.05 23.396C132.577 23.396 132.092 23.3556 131.62 23.2611C131.134 23.1667 130.676 23.0183 130.23 22.8293C129.785 22.6405 129.367 22.3976 128.975 22.1143C128.611 21.804 128.26 21.4666 127.95 21.0753Z" fill="white"/>
<defs>
<linearGradient id="paint0_linear" x1="30.8526" y1="3.85494" x2="30.8526" y2="26.5608" gradientUnits="userSpaceOnUse">
<stop stop-color="white"/>
<stop offset="1" stop-color="white"/>
</linearGradient>
<linearGradient id="paint1_linear" x1="30.8526" y1="8.02073" x2="30.8526" y2="22.3951" gradientUnits="userSpaceOnUse">
<stop stop-color="white"/>
<stop offset="1" stop-color="white"/>
</linearGradient>
<linearGradient id="paint2_linear" x1="30.9203" y1="12.2761" x2="30.9203" y2="18.0488" gradientUnits="userSpaceOnUse">
<stop stop-color="white"/>
<stop offset="1" stop-color="white"/>
</linearGradient>
</defs>
</svg>
