<svg width="100%" height="100%" viewBox="0 0 139 30" fill="none" xmlns="http://www.w3.org/2000/svg">
<path d="M8.5678 1.77869C9.36383 1.77869 10.1329 1.88662 10.875 2.08901C11.6171 2.2914 12.3187 2.58824 12.9663 2.96603C13.614 3.34382 14.2076 3.80257 14.7474 4.32878C15.2871 4.85498 15.7458 5.44866 16.1371 6.0963C16.5284 6.74394 16.8252 7.44554 17.0411 8.20115C17.257 8.9567 17.3649 9.7393 17.3649 10.5488C17.3649 11.237 17.284 11.9116 17.1355 12.5592C16.9871 13.2069 16.7577 13.8275 16.4609 14.4077C16.1641 14.9879 15.8132 15.5276 15.4085 16.0403C15.0037 16.5395 14.5449 16.9983 14.0457 17.3895L16.7577 22.7866C16.8117 22.881 16.8522 22.9754 16.9062 23.0834C16.9602 23.1914 16.9871 23.2858 17.0006 23.3667C17.0006 23.5152 16.9467 23.6366 16.8387 23.7176C16.7307 23.7985 16.5958 23.839 16.4204 23.839H13.2496C12.8854 23.839 12.629 23.6501 12.5076 23.2723L10.4432 19.0626C10.1464 19.1436 9.83604 19.211 9.52571 19.2515C9.21538 19.3055 8.89156 19.3325 8.5678 19.3325H4.08824V23.2049C4.08824 23.6366 3.85887 23.839 3.40012 23.839H0.647643C0.215881 23.839 0 23.6231 0 23.2049V2.4803C0 2.00806 0.215881 1.77869 0.647643 1.77869H8.5678ZM13.3981 10.5218C13.3981 9.88768 13.2901 9.28052 13.0608 8.68685C12.8314 8.10668 12.5211 7.58049 12.1298 7.10824C11.7385 6.636 11.2663 6.25821 10.7131 5.94788C10.1599 5.63755 9.56619 5.44866 8.93204 5.3677C8.6622 5.32722 8.39236 5.30024 8.12252 5.27326C7.85267 5.25976 7.56934 5.24627 7.286 5.24627H4.10173V15.757H8.37886C9.09399 15.757 9.75513 15.622 10.3758 15.3522C10.9964 15.0824 11.5226 14.718 11.9679 14.2458C12.4131 13.7736 12.7639 13.2204 13.0203 12.5862C13.2766 11.9656 13.3981 11.2639 13.3981 10.5218Z" fill="black"/>
<path d="M30.7764 4.63953C24.4889 4.63953 19.4022 9.7397 19.4022 16.0137C19.4022 22.2878 24.5024 27.388 30.7764 27.388C37.0504 27.388 42.1506 22.2878 42.1506 16.0137C42.1506 9.7397 37.0639 4.63953 30.7764 4.63953ZM37.2258 22.4092C36.4163 23.2188 35.4448 23.8529 34.352 24.3251C33.2455 24.7974 32.0717 25.0268 30.8304 25.0268C29.5621 25.0268 28.3748 24.7974 27.2683 24.3251C26.162 23.8529 25.204 23.2188 24.381 22.4092C23.5714 21.5996 22.9237 20.6417 22.4515 19.5488C21.9792 18.4559 21.7364 17.282 21.7364 16.0272C21.7364 14.7724 21.9792 13.5986 22.4515 12.5057C22.9237 11.4128 23.5714 10.4683 24.381 9.65873C25.1905 8.8492 26.162 8.22854 27.2683 7.75627C28.3748 7.29756 29.5621 7.0547 30.8304 7.0547C32.0717 7.0547 33.2455 7.28406 34.352 7.75627C35.4583 8.21505 36.4163 8.8492 37.2258 9.65873C38.0354 10.4683 38.6831 11.4128 39.1553 12.5057C39.6275 13.5986 39.8704 14.7724 39.8704 16.0272C39.8704 17.282 39.6275 18.4559 39.1553 19.5488C38.6831 20.6417 38.0489 21.5996 37.2258 22.4092Z" fill="url(#paint0_linear)"/>
<path d="M30.7767 8.80835C26.7964 8.80835 23.5717 12.033 23.5717 16.0134C23.5717 19.9937 26.7964 23.2183 30.7767 23.2183C34.757 23.2183 37.9817 19.9937 37.9817 16.0134C37.9817 12.033 34.757 8.80835 30.7767 8.80835ZM30.7767 21.0865C27.9837 21.0865 25.717 18.8198 25.717 16.0268C25.717 13.2339 27.9837 10.9672 30.7767 10.9672C33.5696 10.9672 35.8364 13.2339 35.8364 16.0268C35.8364 18.8198 33.5696 21.0865 30.7767 21.0865Z" fill="url(#paint1_linear)"/>
<path d="M30.8441 18.8603C32.4388 18.8603 33.7315 17.5676 33.7315 15.973C33.7315 14.3783 32.4388 13.0856 30.8441 13.0856C29.2495 13.0856 27.9567 14.3783 27.9567 15.973C27.9567 17.5676 29.2495 18.8603 30.8441 18.8603Z" fill="url(#paint2_linear)"/>
<path d="M48.3034 23.0297C48.3034 23.286 48.2225 23.4885 48.074 23.6369C47.9256 23.7853 47.7097 23.8527 47.4534 23.8527H45.0787C44.539 23.8527 44.2556 23.5829 44.2556 23.0297V2.60199C44.2556 2.35912 44.3231 2.15674 44.4715 1.99482C44.6199 1.83291 44.8223 1.75195 45.0787 1.75195H47.4534C47.6422 1.75195 47.8312 1.83291 48.02 1.98133C48.209 2.12975 48.3034 2.34563 48.3034 2.60199V23.0297Z" fill="black"/>
<path d="M56.6822 23.0297C56.6822 23.286 56.6013 23.4885 56.4528 23.6369C56.3044 23.7853 56.0885 23.8527 55.8321 23.8527H53.4575C52.9177 23.8527 52.6344 23.5829 52.6344 23.0297V2.60199C52.6344 2.35912 52.7019 2.15674 52.8503 1.99482C52.9987 1.83291 53.2011 1.75195 53.4575 1.75195H55.8321C56.021 1.75195 56.21 1.83291 56.3988 1.98133C56.5878 2.12975 56.6822 2.34563 56.6822 2.60199V23.0297Z" fill="black"/>
<path d="M67.3822 20.655C67.8134 20.655 68.2591 20.5741 68.7311 20.4257C69.2031 20.2773 69.6488 20.0344 70.0806 19.7241C70.2156 19.6432 70.3367 19.5757 70.4447 19.5217C70.5526 19.4677 70.6606 19.4272 70.7956 19.4272C70.9035 19.4272 71.0115 19.4542 71.1056 19.5082C71.2004 19.5622 71.2946 19.6432 71.3894 19.778L72.4953 21.2757C72.6303 21.4377 72.6843 21.613 72.6843 21.802C72.6843 21.9638 72.6303 22.1123 72.5361 22.2472C72.4413 22.3821 72.3064 22.5035 72.1583 22.625C71.8482 22.8678 71.5105 23.0703 71.1326 23.2591C70.7547 23.448 70.3637 23.6099 69.9457 23.7448C69.527 23.8798 69.109 23.9743 68.6771 24.0552C68.2453 24.1226 67.8272 24.1631 67.4092 24.1631C66.3967 24.1631 65.4524 23.9608 64.5619 23.5695C63.6849 23.1782 62.9024 22.6385 62.2413 21.9638C61.5801 21.2892 61.0539 20.4932 60.6761 19.5757C60.2983 18.6582 60.1094 17.6732 60.1094 16.6073C60.1094 15.5819 60.2848 14.6104 60.6491 13.7064C61.0134 12.7889 61.5126 11.9929 62.1468 11.2912C62.7809 10.6032 63.5365 10.0634 64.4136 9.65867C65.2771 9.25388 66.2216 9.05151 67.2334 9.05151C68.1913 9.05151 69.082 9.22689 69.9187 9.5912C70.7547 9.95551 71.4973 10.4412 72.1313 11.0754C72.7652 11.696 73.2649 12.4381 73.6289 13.2881C73.993 14.1382 74.1819 15.0556 74.1819 16.0406V16.1351C74.1819 16.5129 74.1418 16.8232 74.047 17.0661C73.9528 17.3089 73.8179 17.4979 73.6428 17.6327C73.4538 17.7677 73.2241 17.8621 72.9542 17.9161C72.6843 17.9701 72.3604 17.9971 71.9963 17.9971H64.0897C64.1841 18.4153 64.3461 18.7931 64.5754 19.1169C64.8048 19.4542 65.0612 19.7241 65.358 19.9535C65.6549 20.1828 65.9787 20.3582 66.3296 20.4797C66.6666 20.5876 67.0175 20.655 67.3822 20.655ZM70.3637 15.0152C70.2966 14.6644 70.1616 14.3406 69.9727 14.0303C69.7837 13.7199 69.554 13.4635 69.2709 13.2342C68.9878 13.0048 68.6771 12.8294 68.3401 12.708C67.9892 12.573 67.6245 12.519 67.2334 12.519C66.8825 12.519 66.5455 12.573 66.2078 12.6945C65.8707 12.8024 65.5739 12.9778 65.2906 13.1802C65.0072 13.3961 64.7778 13.6525 64.5754 13.9628C64.3731 14.2731 64.2381 14.6239 64.1572 15.0152H70.3637Z" fill="black"/>
<path d="M76.7592 10.1714C76.7592 9.87451 76.8671 9.65865 77.0692 9.52376C77.272 9.38881 77.4741 9.32133 77.69 9.32133H79.3095C79.5116 9.32133 79.6597 9.37531 79.7815 9.49677C79.9026 9.60467 80.0106 9.75312 80.0916 9.94199C80.1864 10.1309 80.2673 10.3333 80.3483 10.5761C80.4293 10.819 80.5372 11.0754 80.6584 11.3317C80.8203 11.0349 80.9823 10.7516 81.1712 10.4817C81.3601 10.2118 81.5622 9.98247 81.8051 9.76661C82.0481 9.55075 82.3048 9.38881 82.6149 9.28084C82.9249 9.17295 83.2626 9.10547 83.6537 9.10547C84.0717 9.10547 84.4364 9.13246 84.7333 9.18644C85.0434 9.24036 85.3271 9.32133 85.597 9.42929C85.8663 9.53726 86.1362 9.68564 86.4061 9.84758C86.676 10.023 86.9729 10.2253 87.3099 10.4817C87.6338 10.6571 87.7826 10.873 87.7826 11.1698C87.7826 11.3452 87.7286 11.5476 87.6068 11.75L86.568 13.3826C86.4331 13.6254 86.231 13.8009 85.9881 13.8819C85.7451 13.9628 85.5022 13.9088 85.2863 13.7064C85.1112 13.5445 84.9354 13.4231 84.7873 13.3151C84.6385 13.2207 84.4766 13.1397 84.3285 13.0858C84.1797 13.0318 84.0184 12.9913 83.8426 12.9778C83.6675 12.9644 83.4917 12.9509 83.2758 12.9509C82.9789 12.9509 82.7228 12.9913 82.4937 13.0723C82.264 13.1532 82.0619 13.2747 81.8729 13.4231C81.684 13.5715 81.5082 13.7604 81.3463 13.9763C81.1844 14.1922 81.0224 14.4215 80.8743 14.6779V22.9623C80.8743 23.2457 80.8071 23.4615 80.6584 23.6234C80.5102 23.7719 80.2805 23.8528 79.9566 23.8528H77.6361C77.353 23.8528 77.1232 23.7719 76.9751 23.6234C76.8263 23.475 76.7454 23.2592 76.7454 22.9623V10.1714H76.7592Z" fill="black"/>
<path d="M97.7532 1.10423C97.8072 1.00978 97.8743 0.928824 97.9553 0.861361C98.0501 0.780406 98.1712 0.753418 98.347 0.753418C98.4951 0.753418 98.6169 0.793895 98.7249 0.87485C98.819 0.955805 98.9 1.05025 98.9678 1.15819C99.0349 1.26613 99.0889 1.37408 99.1297 1.46853C99.1699 1.56298 99.2107 1.64393 99.2377 1.67091L99.4938 2.26459C101.005 5.75916 102.489 9.22673 103.96 12.6808C105.43 16.1349 106.915 19.6025 108.413 23.0971C108.426 23.1241 108.44 23.178 108.453 23.232C108.467 23.2995 108.48 23.3534 108.48 23.3939C108.48 23.6908 108.278 23.8392 107.886 23.8392H104.945C104.54 23.8392 104.27 23.6503 104.122 23.2725L103.272 21.0867H93.4084L90.2109 28.8314C90.0621 29.2227 89.7791 29.4251 89.3742 29.4251H86.4467C86.2308 29.4251 86.0688 29.3846 85.9879 29.3037C85.8931 29.2227 85.8529 29.1147 85.8529 28.9798C85.8529 28.9259 85.8661 28.8584 85.8799 28.8044C85.8931 28.7504 85.9069 28.6965 85.9339 28.6425C87.4177 25.1479 91.2767 16.1079 92.7474 12.6538C94.2181 9.21324 95.7157 5.74566 97.2272 2.26459C97.3082 2.06219 97.3892 1.8733 97.4833 1.67091C97.5511 1.49551 97.6452 1.29312 97.7532 1.10423ZM98.3602 8.26876C98.293 8.45769 98.2252 8.64656 98.1581 8.83543C98.0903 9.02437 98.0231 9.21324 97.9553 9.4156L94.6631 17.7001H102.017L98.765 9.4156C98.7111 9.22673 98.6439 9.03786 98.5761 8.84893C98.4951 8.64656 98.428 8.45769 98.3602 8.26876Z" fill="black"/>
<path d="M124.847 22.9757C124.847 23.2321 124.779 23.4345 124.631 23.5964C124.482 23.7448 124.28 23.8392 124.01 23.8527H122.553C122.391 23.8527 122.243 23.8527 122.108 23.8392C121.973 23.8257 121.851 23.7988 121.73 23.7448C121.622 23.6908 121.514 23.6234 121.433 23.5154C121.352 23.421 121.285 23.2726 121.231 23.0837L121.069 22.2337C120.569 22.8543 120.016 23.3265 119.409 23.6504C118.802 23.9742 118.046 24.1226 117.169 24.1226C116.184 24.1226 115.267 23.9202 114.43 23.5289C113.58 23.1377 112.852 22.5979 112.218 21.9098C111.597 21.2217 111.111 20.4256 110.747 19.5216C110.396 18.6041 110.22 17.6327 110.22 16.5938C110.22 15.5413 110.396 14.5564 110.747 13.6389C111.097 12.7214 111.583 11.9254 112.204 11.2507C112.825 10.5761 113.567 10.0364 114.43 9.6451C115.294 9.2538 116.225 9.05143 117.237 9.05143C117.992 9.05143 118.667 9.19982 119.247 9.51015C119.841 9.80698 120.326 10.1713 120.718 10.5761V2.62897C120.718 2.37261 120.799 2.15674 120.961 1.99482C121.123 1.83291 121.352 1.75195 121.649 1.75195H123.888C124.145 1.75195 124.374 1.83291 124.563 1.99482C124.752 2.15674 124.86 2.37261 124.86 2.62897V22.9757H124.847ZM121.109 16.6882C121.109 16.162 121.015 15.6763 120.839 15.2175C120.664 14.7588 120.421 14.3675 120.111 14.0167C119.8 13.6794 119.449 13.4095 119.031 13.2072C118.613 13.0047 118.181 12.9103 117.736 12.9103C117.277 12.9103 116.846 13.0047 116.454 13.2072C116.049 13.4095 115.698 13.6794 115.402 14.0167C115.105 14.354 114.862 14.7453 114.686 15.204C114.511 15.6493 114.43 16.135 114.43 16.6478C114.43 17.147 114.511 17.6327 114.686 18.0779C114.862 18.5232 115.091 18.9145 115.402 19.2518C115.698 19.5891 116.049 19.8454 116.454 20.0344C116.859 20.2233 117.291 20.3312 117.736 20.3312C118.195 20.3312 118.626 20.2367 119.031 20.0344C119.436 19.8454 119.8 19.5756 120.097 19.2518C120.407 18.928 120.65 18.5367 120.839 18.1049C121.015 17.6597 121.109 17.1874 121.109 16.6882Z" fill="black"/>
<path d="M127.95 21.8287C127.828 21.6938 127.734 21.5589 127.667 21.4374C127.599 21.3161 127.559 21.1541 127.559 20.9652C127.559 20.8843 127.572 20.7898 127.599 20.6819C127.626 20.5739 127.734 20.439 127.95 20.2906L129.515 18.9953H129.501C129.461 18.9953 129.461 18.9818 129.488 18.9683C129.515 18.9548 129.555 18.9413 129.609 18.9278C129.663 18.9143 129.717 18.9008 129.785 18.8873C129.839 18.8738 129.893 18.8604 129.92 18.8604C130.055 18.8604 130.176 18.9008 130.298 18.9953C130.406 19.0898 130.5 19.1977 130.595 19.3191C130.757 19.562 130.946 19.7509 131.188 19.9128C131.431 20.0612 131.674 20.1961 131.93 20.2906C132.187 20.3851 132.443 20.4525 132.686 20.493C132.928 20.5335 133.144 20.5469 133.32 20.5469C133.482 20.5469 133.671 20.52 133.873 20.4795C134.076 20.439 134.264 20.3716 134.44 20.2771C134.615 20.1826 134.764 20.0747 134.885 19.9533C135.007 19.8183 135.061 19.6699 135.061 19.4945C135.061 19.3056 134.993 19.1438 134.872 18.9953C134.737 18.8469 134.575 18.712 134.345 18.5905C134.129 18.4691 133.873 18.3612 133.59 18.2532C133.306 18.1453 132.996 18.0508 132.672 17.9699C131.107 17.5246 129.92 16.904 129.097 16.1214C128.287 15.3388 127.882 14.3809 127.882 13.234C127.882 12.5998 128.017 12.0196 128.287 11.5069C128.557 10.9808 128.935 10.5355 129.421 10.1577C129.906 9.77993 130.473 9.4831 131.134 9.28066C131.795 9.0783 132.524 8.97034 133.32 8.97034C135.358 8.97034 136.99 9.76643 138.245 11.3451C138.299 11.426 138.353 11.5069 138.366 11.5879C138.393 11.6689 138.407 11.7498 138.407 11.8038C138.393 11.9387 138.353 12.0331 138.285 12.1141C138.231 12.1951 138.123 12.2895 137.988 12.3974H138.002L137.961 12.4379L137.934 12.4649L137.799 12.6268L137.394 12.9641C137.138 13.18 136.922 13.3689 136.747 13.5309C136.572 13.6927 136.396 13.7737 136.221 13.7602C136.059 13.7602 135.924 13.7197 135.83 13.6523C135.735 13.5713 135.641 13.4769 135.533 13.3689C135.398 13.2205 135.25 13.0856 135.074 12.9506C134.899 12.8157 134.71 12.7078 134.521 12.5999C134.332 12.4919 134.129 12.4109 133.927 12.357C133.725 12.303 133.536 12.2626 133.36 12.2626C132.982 12.2626 132.686 12.303 132.47 12.3974C132.254 12.4919 132.092 12.5999 131.971 12.7213C131.863 12.8427 131.782 12.9776 131.742 13.1126C131.701 13.2475 131.688 13.3554 131.688 13.4364C131.688 13.6388 131.742 13.8007 131.863 13.9356C131.984 14.0705 132.133 14.1919 132.321 14.2864C132.51 14.3809 132.713 14.4618 132.942 14.5293C133.171 14.5967 133.387 14.6507 133.59 14.7182L133.846 14.7991C134.602 15.0015 135.29 15.2444 135.924 15.5142C136.558 15.7841 137.098 16.1079 137.556 16.4722C138.015 16.85 138.366 17.2817 138.623 17.781C138.879 18.2802 139 18.8738 139 19.5485C139 20.2771 138.852 20.9248 138.542 21.4914C138.231 22.0581 137.813 22.5439 137.273 22.9351C136.733 23.3264 136.113 23.6232 135.385 23.8391C134.656 24.0415 133.887 24.1494 133.05 24.1494C132.578 24.1494 132.092 24.109 131.62 24.0145C131.134 23.9201 130.676 23.7717 130.23 23.5828C129.785 23.3939 129.367 23.151 128.975 22.8677C128.611 22.5574 128.26 22.22 127.95 21.8287Z" fill="black"/>
<defs>
<linearGradient id="paint0_linear" x1="30.7795" y1="4.63789" x2="30.7795" y2="27.3983" gradientUnits="userSpaceOnUse">
<stop stop-color="#0000FF"/>
<stop offset="1" stop-color="#662D91"/>
</linearGradient>
<linearGradient id="paint1_linear" x1="30.7798" y1="8.81322" x2="30.7798" y2="23.2222" gradientUnits="userSpaceOnUse">
<stop stop-color="#0000FF"/>
<stop offset="1" stop-color="#662D91"/>
</linearGradient>
<linearGradient id="paint2_linear" x1="30.8476" y1="13.0789" x2="30.8476" y2="18.8654" gradientUnits="userSpaceOnUse">
<stop stop-color="#0000FF"/>
<stop offset="1" stop-color="#662D91"/>
</linearGradient>
</defs>
</svg>
