<svg width="126" height="82" viewBox="0 0 126 82" fill="none" xmlns="http://www.w3.org/2000/svg">
<g opacity="0.5">
<path opacity="0.25" d="M120.862 47.7528C119.205 65.983 106.775 81.23 87.3851 81.3958C76.7785 81.5615 68.8235 75.4295 61.3657 68.6346C55.7309 63.497 49.7646 58.5252 42.4725 56.0392C34.3518 53.0561 26.2311 54.2162 17.7789 54.7134C1.86891 55.7078 -4.76026 38.1405 3.69193 26.0423C13.9671 11.1267 34.5175 4.49748 51.4219 1.34862C83.0762 -4.61762 124.343 9.30365 120.862 47.7528Z" fill="url(#paint0_linear)"/>
<path opacity="0.49" d="M32.1973 52.3908C30.2086 52.7223 28.3856 53.2195 26.7283 54.0481C32.0316 53.7167 37.3349 54.0481 42.6383 55.8712C49.7646 58.5228 55.8966 63.4947 61.5314 68.4666C68.9892 75.2615 76.9442 81.3934 87.5508 81.2277C106.775 81.062 119.205 65.9806 121.028 47.5847C122.851 27.2 112.244 13.776 96.9974 6.48389C89.2081 10.6271 83.5733 17.5877 78.4357 25.0455C73.4639 32.3376 67.8291 39.464 60.2055 44.4359C51.5876 50.0707 41.9754 50.8993 32.1973 52.3908Z" fill="url(#paint1_linear)"/>
<path opacity="0.5" d="M100.146 52.0593C100.146 43.4413 107.936 36.6465 116.554 39.2981C124.674 41.7841 128.652 52.0593 124.011 59.1856C121.526 62.9974 117.217 65.3176 112.742 65.3176C104.455 65.4833 100.312 58.8541 100.146 52.0593Z" fill="url(#paint2_linear)"/>
<path opacity="0.5" d="M8.49803 22.0621C-2.27436 11.2898 14.7957 -6.44325 25.8996 4.66059C36.8377 15.5987 19.6019 33.166 8.49803 22.0621Z" fill="url(#paint3_linear)"/>
<path opacity="0.25" d="M74.4583 46.7559C85.065 59.0199 103.129 44.6014 117.879 27.5313C109.593 8.14104 85.8936 -0.476881 63.5202 0.020306C53.4107 14.7702 56.5596 25.8741 74.4583 46.7559Z" fill="url(#paint4_linear)"/>
<path opacity="0.49" d="M92.6887 80.8962C92.3572 66.4778 80.5905 55.0425 66.172 55.0425C60.3715 55.0425 54.9025 56.8655 50.5935 60.1801C54.4053 62.666 57.8856 65.6491 61.2002 68.6322C68.658 75.4271 76.613 81.5591 87.2196 81.3934C89.2084 81.3934 91.0314 81.2277 92.6887 80.8962Z" fill="url(#paint5_linear)"/>
</g>
<path d="M88.2462 39.5131C88.2462 57.6988 73.5042 72.4408 55.3185 72.4408C37.1329 72.4408 22.3909 57.6988 22.3909 39.5131C22.3909 21.3274 37.1329 6.58545 55.3185 6.58545C73.5042 6.58545 88.2462 21.3274 88.2462 39.5131Z" fill="url(#paint6_radial)"/>
<path d="M22.3909 39.5131C22.3909 51.2656 28.5492 61.5781 37.8137 67.4048H72.8234C82.0878 61.5781 88.2462 51.2656 88.2462 39.5131C88.2462 27.7606 82.0878 17.4481 72.8234 11.6213H37.8137C28.5492 17.4481 22.3909 27.7606 22.3909 39.5131Z" fill="url(#paint7_linear)"/>
<path d="M22.3909 39.5132C22.3909 47.8974 25.5261 55.5475 30.6856 61.3612H79.9515C85.111 55.5475 88.2462 47.8974 88.2462 39.5132C88.2462 31.1291 85.111 23.479 79.9515 17.6658H30.6856C25.5261 23.479 22.3909 31.1291 22.3909 39.5132H22.3909Z" fill="url(#paint8_linear)"/>
<path d="M22.3909 39.5132C22.3909 44.4135 23.4626 49.0625 25.3824 53.2413H85.2547C87.1745 49.0625 88.2462 44.4135 88.2462 39.5132C88.2462 34.613 87.1745 29.9639 85.2547 25.7852H25.3824C23.4626 29.9639 22.3909 34.613 22.3909 39.5132Z" fill="url(#paint9_linear)"/>
<path d="M22.3909 39.5131C22.3909 42.3494 22.7506 45.1012 23.4249 47.727H87.2122C87.8865 45.1012 88.2462 42.3494 88.2462 39.5131C88.2462 36.6769 87.8865 33.925 87.2122 31.2993H23.4249C22.7506 33.925 22.3909 36.6769 22.3909 39.5131V39.5131Z" fill="url(#paint10_linear)"/>
<path d="M52.7039 6.68848C35.7411 8.02144 22.3909 22.2077 22.3909 39.5131C22.3909 56.8186 35.7411 71.0049 52.7039 72.3378C69.6666 71.0049 83.0168 56.8186 83.0168 39.5131C83.0168 22.2077 69.6666 8.02144 52.7039 6.68848Z" fill="url(#paint11_radial)"/>
<path d="M54.4082 9.70198C53.2777 9.54823 52.1302 9.54823 50.9992 9.70198C36.319 11.6992 25.0051 24.2847 25.0051 39.513C25.0051 54.7414 36.319 67.3269 50.9992 69.3241C52.1302 69.4778 53.2777 69.4778 54.4082 69.3241C69.0889 67.3269 80.4027 54.7414 80.4027 39.513C80.4027 24.2847 69.0889 11.6992 54.4082 9.70198Z" fill="url(#paint12_radial)"/>
<path d="M74.5887 39.513C74.5887 26.2447 64.7304 15.4885 52.5699 15.4885C40.409 15.4885 30.5507 26.2447 30.5507 39.513C30.5507 52.7814 40.409 63.5375 52.5699 63.5375C64.7304 63.5375 74.5887 52.7814 74.5887 39.513Z" fill="url(#paint13_radial)"/>
<path d="M58.6153 16.4072C55.874 15.555 52.9458 15.555 50.2045 16.4072C40.9833 19.2736 34.2306 28.5325 34.2306 39.5132C34.2306 50.7085 41.2501 60.1146 50.7487 62.78C53.1408 63.4513 55.6791 63.4513 58.0712 62.78C67.5698 60.1146 74.5888 50.709 74.5888 39.5132C74.5888 28.5325 67.8365 19.2736 58.6153 16.4072Z" fill="url(#paint14_radial)"/>
<path d="M74.3378 43.1513L59.7621 28.5751C59.4973 28.1144 58.9476 27.7336 58.1116 27.4331C57.2534 27.1251 56.339 26.9156 55.3703 26.8L54.0911 25.659C54.0655 25.4786 53.96 25.3148 53.764 25.1701C53.5379 25.0043 53.2942 24.9204 53.0335 24.9204C52.7486 24.9204 52.5044 25.0043 52.3029 25.1701C52.1009 25.3364 52 25.5263 52 25.7399V26.7734C50.0756 26.9874 48.4658 27.6285 47.1715 28.6977C45.8763 29.7669 45.2291 31.3335 45.2291 33.397C45.2291 34.1321 45.312 34.8018 45.4788 35.4068C45.6446 36.0112 45.918 36.5387 46.2983 36.9889C46.6781 37.4396 47.0409 37.825 47.3851 38.145C47.4032 38.1621 47.4238 38.1787 47.4429 38.1958L52 42.7634V48.7248C50.9473 48.6535 50.0199 48.3812 49.218 47.9069C48.4166 47.4331 47.7865 46.9884 47.3278 46.5734C46.8691 46.1584 46.4988 45.9509 46.2174 45.9509C45.7919 45.9509 45.414 46.176 45.0834 46.6267C44.7528 47.0774 44.588 47.5275 44.588 47.9782C44.588 48.7163 45.0161 49.4438 45.8692 50.1603L58.3945 62.6855C66.6857 60.2105 73.0249 52.582 74.3378 43.1513Z" fill="url(#paint15_linear)"/>
<path d="M44.5874 47.9782C44.5874 47.5275 44.7527 47.0773 45.0833 46.6266C45.4139 46.1765 45.7917 45.9509 46.2173 45.9509C46.4987 45.9509 46.869 46.1584 47.3277 46.5734C47.7864 46.9889 48.4165 47.4331 49.2179 47.9069C50.0197 48.3817 50.9472 48.654 51.9998 48.7248V40.3678C51.2874 40.1075 50.7402 39.8995 50.3609 39.7453C49.9806 39.592 49.4756 39.3664 48.8461 39.07C48.2165 38.7741 47.7291 38.4656 47.385 38.1455C47.0408 37.825 46.678 37.4401 46.2987 36.9894C45.9179 36.5387 45.645 36.0117 45.4787 35.4067C45.3124 34.8023 45.2295 34.1326 45.2295 33.3975C45.2295 31.334 45.8762 29.7669 47.1714 28.6982C48.4662 27.629 50.0755 26.9874 51.9998 26.7739V25.7404C51.9998 25.5263 52.1008 25.3364 52.3028 25.1701C52.5043 25.0043 52.7485 24.9209 53.0334 24.9209C53.2946 24.9209 53.5378 25.0043 53.7639 25.1701C53.9895 25.3364 54.1025 25.5263 54.1025 25.7404V26.7025C55.5511 26.7503 56.8875 26.9934 58.1115 27.4331C59.3349 27.8727 59.9469 28.4842 59.9469 29.268C59.9469 29.6956 59.8027 30.1412 59.5153 30.6045C59.2279 31.0677 58.844 31.2993 58.3652 31.2993C58.1758 31.2993 57.6553 31.0979 56.8046 30.6934C55.953 30.2899 55.0526 30.0518 54.1025 29.9809V37.2025C55.0476 37.5582 55.8329 37.8963 56.459 38.2164C57.085 38.5364 57.7467 38.9811 58.4441 39.5498C59.141 40.1191 59.6665 40.8361 60.0207 41.7013C60.375 42.5665 60.5523 43.5804 60.5523 44.742C60.5523 46.8643 59.9735 48.5515 58.8159 49.8031C57.6578 51.0551 56.0872 51.8239 54.1025 52.1102V53.3005C54.1025 53.5105 53.9895 53.6969 53.7639 53.8607C53.5378 54.024 53.2946 54.1054 53.0339 54.1054C52.7485 54.1054 52.5048 54.0235 52.3028 53.8612C52.1008 53.6974 52.0003 53.511 52.0003 53.301V52.2168C49.9333 52.1931 48.1808 51.7203 46.7439 50.7979C45.3059 49.8764 44.5874 48.9363 44.5874 47.9782ZM48.7571 33.0423C48.7571 33.9668 49.045 34.6722 49.6208 35.158C50.1966 35.6439 51.0613 36.1006 52.2134 36.5272V30.0488C49.9092 30.3336 48.7571 31.3315 48.7571 33.0423ZM53.8885 48.6535C55.9786 48.2741 57.0247 47.1009 57.0247 45.1329C57.0247 44.0904 56.7509 43.2719 56.2047 42.6795C55.6581 42.0871 54.8863 41.5772 53.8885 41.1501V48.6535Z" fill="white"/>
<path d="M93.1859 68.0277L93.185 47.9416C93.1849 47.2197 93.7702 47.301 94.492 47.3011L104.895 47.3022C105.617 47.3022 106.202 47.221 106.202 47.9429L106.203 68.029C106.203 69.0283 107.013 69.8386 108.013 69.8386C109.625 69.8388 110.432 71.7879 109.292 72.9277L100.975 81.245C100.269 81.9517 99.1229 81.9515 98.4162 81.2448L90.0973 72.9259C88.9574 71.7859 89.7644 69.8369 91.3766 69.8371C92.3759 69.8371 93.186 69.027 93.1859 68.0277Z" fill="url(#paint16_linear)"/>
<path opacity="0.5" d="M104.73 48.774L104.731 68.0289C104.731 69.8382 106.203 71.3103 108.013 71.3105C108.163 71.3105 108.267 71.3807 108.325 71.519C108.382 71.6573 108.358 71.7812 108.252 71.887L99.9343 80.2043C99.8525 80.2861 99.7593 80.3032 99.6955 80.3032C99.6317 80.3032 99.5385 80.286 99.4567 80.2043L91.1379 71.8855C91.0319 71.7796 91.0074 71.6558 91.0646 71.5175C91.1219 71.3791 91.2268 71.309 91.3766 71.309C93.1859 71.3092 94.6577 69.8374 94.6575 68.0281L94.6567 48.7731L104.73 48.774Z" fill="url(#paint17_linear)"/>
<path opacity="0.5" d="M94.4917 47.3011C93.7698 47.301 93.1846 47.2196 93.1847 47.9415L93.1856 68.0276C93.1857 69.027 92.3757 69.837 91.3763 69.8369C89.7643 69.8367 88.9571 71.7857 90.0972 72.9257L98.416 81.2446C98.7694 81.5979 99.2325 81.7747 99.6956 81.7747L99.6933 47.3015L94.4917 47.3011Z" fill="url(#paint18_linear)"/>
<defs>
<linearGradient id="paint0_linear" x1="121.068" y1="40.6639" x2="-0.0467576" y2="40.6639" gradientUnits="userSpaceOnUse">
<stop stop-color="#37D9FC" stop-opacity="0"/>
<stop offset="1" stop-color="#0538FB"/>
</linearGradient>
<linearGradient id="paint1_linear" x1="75.4987" y1="140.463" x2="72.6989" y2="-15.3902" gradientUnits="userSpaceOnUse">
<stop stop-color="#37D9FC" stop-opacity="0"/>
<stop offset="1" stop-color="#37D9FC"/>
</linearGradient>
<linearGradient id="paint2_linear" x1="113.114" y1="35.6969" x2="113.114" y2="65.7263" gradientUnits="userSpaceOnUse">
<stop stop-color="#0538FB" stop-opacity="0"/>
<stop offset="1" stop-color="#0538FB"/>
</linearGradient>
<linearGradient id="paint3_linear" x1="10.0585" y1="7.2118" x2="26.1165" y2="20.9083" gradientUnits="userSpaceOnUse">
<stop stop-color="#0538FB" stop-opacity="0"/>
<stop offset="1" stop-color="#0C4BF4"/>
</linearGradient>
<linearGradient id="paint4_linear" x1="86.628" y1="61.6546" x2="88.9611" y2="-10.6724" gradientUnits="userSpaceOnUse">
<stop stop-color="#37D9FC" stop-opacity="0"/>
<stop offset="0.0001" stop-color="#37D9FC" stop-opacity="0"/>
<stop offset="1" stop-color="#0538FB"/>
</linearGradient>
<linearGradient id="paint5_linear" x1="97.3409" y1="88.3414" x2="57.8332" y2="52.2556" gradientUnits="userSpaceOnUse">
<stop stop-color="#37D9FC" stop-opacity="0"/>
<stop offset="1" stop-color="#37D9FC"/>
</linearGradient>
<radialGradient id="paint6_radial" cx="0" cy="0" r="1" gradientUnits="userSpaceOnUse" gradientTransform="translate(53.7196 38.3782) scale(34.2954)">
<stop stop-color="#37D9FC"/>
<stop offset="1" stop-color="#0538FB"/>
</radialGradient>
<linearGradient id="paint7_linear" x1="55.3186" y1="34.3108" x2="55.3186" y2="93.1511" gradientUnits="userSpaceOnUse">
<stop stop-color="#0538FB" stop-opacity="0"/>
<stop offset="1" stop-color="#0538FB"/>
</linearGradient>
<linearGradient id="paint8_linear" x1="55.3186" y1="47.4814" x2="55.3186" y2="-11.9792" gradientUnits="userSpaceOnUse">
<stop offset="0.4671" stop-color="#0538FB" stop-opacity="0.466667"/>
<stop offset="1" stop-color="#0538FB"/>
</linearGradient>
<linearGradient id="paint9_linear" x1="55.3186" y1="40.5088" x2="55.3186" y2="59.5252" gradientUnits="userSpaceOnUse">
<stop stop-color="#0538FB" stop-opacity="0"/>
<stop offset="1" stop-color="#0538FB"/>
</linearGradient>
<linearGradient id="paint10_linear" x1="55.3186" y1="46.7066" x2="55.3186" y2="14.3245" gradientUnits="userSpaceOnUse">
<stop stop-color="#0538FB" stop-opacity="0"/>
<stop offset="1" stop-color="#0538FB"/>
</linearGradient>
<radialGradient id="paint11_radial" cx="0" cy="0" r="1" gradientUnits="userSpaceOnUse" gradientTransform="translate(43.0671 30.6309) scale(76.1311)">
<stop stop-color="#37D9FC"/>
<stop offset="1" stop-color="#0538FB"/>
</radialGradient>
<radialGradient id="paint12_radial" cx="0" cy="0" r="1" gradientUnits="userSpaceOnUse" gradientTransform="translate(52.7039 39.513) scale(28.8341)">
<stop stop-color="#FFFCF8"/>
<stop offset="0.9485" stop-color="#FFFCF8" stop-opacity="0.05098"/>
<stop offset="1" stop-color="#FFFCF8" stop-opacity="0"/>
</radialGradient>
<radialGradient id="paint13_radial" cx="0" cy="0" r="1" gradientUnits="userSpaceOnUse" gradientTransform="translate(54.8239 36.4325) scale(34.4614 37.6011)">
<stop stop-color="#37D9FC"/>
<stop offset="1" stop-color="#0538FB"/>
</radialGradient>
<radialGradient id="paint14_radial" cx="0" cy="0" r="1" gradientUnits="userSpaceOnUse" gradientTransform="translate(46.0168 31.2502) scale(75.157)">
<stop stop-color="#37D9FC"/>
<stop offset="1" stop-color="#0538FB"/>
</radialGradient>
<linearGradient id="paint15_linear" x1="65.1503" y1="45.9693" x2="42.8111" y2="40.8042" gradientUnits="userSpaceOnUse">
<stop stop-color="#0538FB" stop-opacity="0"/>
<stop offset="1" stop-color="#0538FB"/>
</linearGradient>
<linearGradient id="paint16_linear" x1="99.8923" y1="77.2927" x2="99.8922" y2="47.2968" gradientUnits="userSpaceOnUse">
<stop stop-color="#37D9FC"/>
<stop offset="1" stop-color="#0538FB"/>
</linearGradient>
<linearGradient id="paint17_linear" x1="95.0776" y1="62.3566" x2="122.539" y2="75.2112" gradientUnits="userSpaceOnUse">
<stop stop-color="white" stop-opacity="0"/>
<stop offset="1" stop-color="white"/>
</linearGradient>
<linearGradient id="paint18_linear" x1="94.3306" y1="67.8765" x2="116.549" y2="34.7589" gradientUnits="userSpaceOnUse">
<stop stop-color="white" stop-opacity="0"/>
<stop offset="1" stop-color="white"/>
</linearGradient>
</defs>
</svg>
