<svg width="24" height="8" viewBox="0 0 24 8" fill="none" xmlns="http://www.w3.org/2000/svg">
    <path d="M4.17279 5.82206H3.79345C3.78037 5.82206 3.76782 5.82726 3.75856 5.83651C3.74931 5.84576 3.74411 5.85832 3.74411 5.8714V7.12659C3.74411 7.13348 3.74275 7.14029 3.74012 7.14666C3.73749 7.15302 3.73362 7.1588 3.72875 7.16366C3.72389 7.16853 3.71811 7.17239 3.71175 7.17503C3.70539 7.17766 3.69857 7.17902 3.69168 7.17902H2.92377C2.91688 7.17902 2.91006 7.17766 2.9037 7.17503C2.89734 7.17239 2.89156 7.16853 2.88669 7.16366C2.88183 7.1588 2.87796 7.15302 2.87533 7.14666C2.87269 7.14029 2.87134 7.13348 2.87134 7.12659V3.62933C2.87134 3.61543 2.87686 3.60209 2.88669 3.59226C2.89653 3.58243 2.90986 3.5769 2.92377 3.5769H4.19438C4.98388 3.5769 5.60376 3.86372 5.60376 4.68715C5.60376 5.51057 4.92837 5.82206 4.17279 5.82206ZM4.12036 4.28006H3.79345C3.78037 4.28006 3.76782 4.28526 3.75856 4.29451C3.74931 4.30376 3.74411 4.31631 3.74411 4.3294V5.07881C3.74411 5.0919 3.74931 5.10445 3.75856 5.11371C3.76782 5.12296 3.78037 5.12816 3.79345 5.12816H4.10186C4.42876 5.12816 4.71866 5.03255 4.71866 4.69023C4.71866 4.3479 4.43493 4.28006 4.12344 4.28006H4.12036Z" fill="#B3B3B3"/>
    <path d="M8.96854 7.14635L8.71257 6.50179C8.70885 6.4926 8.70245 6.48474 8.6942 6.47924C8.68595 6.47374 8.67623 6.47085 8.66631 6.47095H7.34019C7.33027 6.47085 7.32056 6.47374 7.3123 6.47924C7.30405 6.48474 7.29765 6.4926 7.29393 6.50179L7.05338 7.14635C7.04966 7.15555 7.04326 7.16341 7.03501 7.16891C7.02675 7.17441 7.01704 7.1773 7.00712 7.17719H6.16827C6.16015 7.17728 6.15213 7.17535 6.14492 7.1716C6.13772 7.16784 6.13156 7.16236 6.12698 7.15565C6.12241 7.14893 6.11956 7.1412 6.11869 7.13312C6.11782 7.12504 6.11896 7.11687 6.12201 7.10934L7.59308 3.60592C7.5968 3.59672 7.6032 3.58886 7.61145 3.58336C7.6197 3.57786 7.62942 3.57497 7.63934 3.57508H8.41959C8.42951 3.57497 8.43923 3.57786 8.44748 3.58336C8.45573 3.58886 8.46213 3.59672 8.46585 3.60592L9.9215 7.11243C9.92455 7.11996 9.92569 7.12812 9.92482 7.1362C9.92395 7.14428 9.92111 7.15202 9.91653 7.15873C9.91195 7.16544 9.90579 7.17092 9.89859 7.17468C9.89138 7.17844 9.88336 7.18036 9.87524 7.18028H9.0148C9.00452 7.18015 8.99453 7.17681 8.98624 7.17073C8.97794 7.16464 8.97176 7.15612 8.96854 7.14635ZM7.96624 4.66064L7.58074 5.70612C7.57832 5.71348 7.57767 5.72131 7.57883 5.72898C7.58 5.73664 7.58296 5.74392 7.58746 5.75023C7.59197 5.75653 7.59789 5.76169 7.60476 5.76528C7.61163 5.76887 7.61925 5.77079 7.627 5.77089H8.39184C8.39959 5.77079 8.40721 5.76887 8.41408 5.76528C8.42095 5.76169 8.42687 5.75653 8.43138 5.75023C8.43588 5.74392 8.43884 5.73664 8.44001 5.72898C8.44117 5.72131 8.44052 5.71348 8.4381 5.70612L8.05876 4.66064C8.05496 4.65131 8.04838 4.64336 8.03991 4.63787C8.03145 4.63239 8.02151 4.62963 8.01143 4.62996C8.00135 4.6303 7.99162 4.63372 7.98354 4.63975C7.97546 4.64579 7.96942 4.65416 7.96624 4.66373V4.66064Z" fill="#B3B3B3"/>
    <path d="M13.1196 7.1556L12.3886 5.97443C12.3842 5.96742 12.378 5.96166 12.3708 5.95766C12.3635 5.95367 12.3553 5.95157 12.347 5.95157C12.3387 5.95157 12.3305 5.95367 12.3233 5.95766C12.316 5.96166 12.3098 5.96742 12.3054 5.97443L11.6022 7.1556C11.5979 7.16317 11.5916 7.16944 11.584 7.17378C11.5764 7.17811 11.5678 7.18035 11.559 7.18027H10.6338C10.6249 7.18015 10.6162 7.17761 10.6086 7.17293C10.6011 7.16825 10.5949 7.16161 10.5908 7.1537C10.5867 7.14579 10.5848 7.13692 10.5853 7.12803C10.5858 7.11913 10.5887 7.11054 10.5938 7.10317L11.7873 5.30212C11.7928 5.29393 11.7958 5.28426 11.7958 5.27436C11.7958 5.26446 11.7928 5.25479 11.7873 5.2466L10.7079 3.65218C10.7028 3.64481 10.6999 3.63622 10.6994 3.62732C10.6989 3.61843 10.7008 3.60956 10.7049 3.60165C10.709 3.59374 10.7152 3.5871 10.7228 3.58242C10.7303 3.57774 10.739 3.5752 10.748 3.57508H11.6732C11.6819 3.575 11.6905 3.57724 11.6981 3.58157C11.7057 3.58591 11.712 3.59218 11.7163 3.59975L12.3331 4.62364C12.3376 4.63064 12.3437 4.63641 12.351 4.6404C12.3583 4.6444 12.3665 4.6465 12.3748 4.6465C12.3831 4.6465 12.3912 4.6444 12.3985 4.6404C12.4058 4.63641 12.4119 4.63064 12.4164 4.62364L13.0332 3.59975C13.0376 3.59218 13.0439 3.58591 13.0515 3.58157C13.059 3.57724 13.0676 3.575 13.0764 3.57508H13.9677C13.9766 3.5752 13.9853 3.57774 13.9929 3.58242C14.0004 3.5871 14.0066 3.59374 14.0107 3.60165C14.0148 3.60956 14.0167 3.61843 14.0162 3.62732C14.0157 3.63622 14.0128 3.64481 14.0077 3.65218L12.9253 5.24352C12.9197 5.25171 12.9167 5.26138 12.9167 5.27128C12.9167 5.28118 12.9197 5.29085 12.9253 5.29903L14.1589 7.09701C14.1639 7.10437 14.1668 7.11296 14.1673 7.12186C14.1679 7.13075 14.166 7.13963 14.1618 7.14753C14.1577 7.15544 14.1516 7.16208 14.144 7.16676C14.1364 7.17144 14.1277 7.17398 14.1188 7.17411H13.1751C13.165 7.17735 13.1543 7.1773 13.1443 7.17397C13.1343 7.17064 13.1256 7.16421 13.1196 7.1556Z" fill="#B3B3B3"/>
    <path d="M16.7554 7.27586C15.8086 7.27586 15.2134 6.68373 15.2134 5.82021V3.6244C15.2134 3.61132 15.2186 3.59877 15.2278 3.58951C15.2371 3.58026 15.2496 3.57506 15.2627 3.57506H16.0276C16.0406 3.57506 16.0532 3.58026 16.0624 3.58951C16.0717 3.59877 16.0769 3.61132 16.0769 3.6244V5.7462C16.0706 5.83894 16.0835 5.93197 16.1147 6.01954C16.1459 6.1071 16.1947 6.18732 16.2582 6.25523C16.3217 6.32313 16.3984 6.37727 16.4837 6.41428C16.5689 6.4513 16.6609 6.4704 16.7538 6.4704C16.8468 6.4704 16.9387 6.4513 17.024 6.41428C17.1093 6.37727 17.186 6.32313 17.2495 6.25523C17.313 6.18732 17.3618 6.1071 17.393 6.01954C17.4242 5.93197 17.437 5.83894 17.4308 5.7462V3.6244C17.4305 3.61674 17.4321 3.60913 17.4353 3.60217C17.4385 3.59521 17.4433 3.58909 17.4493 3.5843C17.4553 3.57951 17.4623 3.57618 17.4698 3.57458C17.4773 3.57297 17.485 3.57314 17.4925 3.57506H18.2635C18.2765 3.57506 18.2891 3.58026 18.2983 3.58951C18.3076 3.59877 18.3128 3.61132 18.3128 3.6244V5.82021C18.3066 6.68373 17.696 7.27586 16.7554 7.27586Z" fill="#B3B3B3"/>
    <path d="M23.0439 7.17719C23.03 7.17719 23.0166 7.17167 23.0068 7.16183C22.997 7.152 22.9915 7.13867 22.9915 7.12476L23.013 4.62672L22.0878 7.14327C22.0841 7.15328 22.0773 7.1619 22.0685 7.16797C22.0597 7.17403 22.0492 7.17725 22.0385 7.17719H21.5019C21.4912 7.17725 21.4807 7.17403 21.4719 7.16797C21.4631 7.1619 21.4563 7.15328 21.4525 7.14327L20.5397 4.62672L20.5582 7.12476C20.5582 7.13165 20.5568 7.13846 20.5542 7.14483C20.5516 7.15119 20.5477 7.15697 20.5428 7.16183C20.538 7.1667 20.5322 7.17056 20.5258 7.1732C20.5195 7.17583 20.5126 7.17719 20.5057 7.17719H19.7748C19.768 7.17719 19.7611 7.17583 19.7548 7.1732C19.7484 7.17056 19.7426 7.1667 19.7378 7.16183C19.7329 7.15697 19.729 7.15119 19.7264 7.14483C19.7238 7.13846 19.7224 7.13165 19.7224 7.12476V3.6275C19.7224 3.6136 19.7279 3.60026 19.7378 3.59043C19.7476 3.5806 19.7609 3.57507 19.7748 3.57507H20.9221C20.9328 3.57501 20.9433 3.57823 20.9521 3.5843C20.9609 3.59036 20.9677 3.59898 20.9714 3.609L21.7794 5.88499H21.8103L22.5813 3.609C22.5851 3.59898 22.5918 3.59036 22.6006 3.5843C22.6095 3.57823 22.6199 3.57501 22.6306 3.57507H23.7995C23.8134 3.57507 23.8267 3.5806 23.8365 3.59043C23.8464 3.60026 23.8519 3.6136 23.8519 3.6275V7.12785C23.8519 7.14175 23.8464 7.15509 23.8365 7.16492C23.8267 7.17475 23.8134 7.18027 23.7995 7.18027L23.0439 7.17719Z" fill="#B3B3B3"/>
    <path d="M0.222168 4.01003H1.16279C1.16683 3.44282 1.39394 2.89998 1.79503 2.49889C2.19612 2.0978 2.73896 1.87068 3.30617 1.86665V0.926025C2.48824 0.926025 1.70381 1.25095 1.12545 1.82931C0.547089 2.40767 0.222168 3.1921 0.222168 4.01003H0.222168Z" fill="#B3B3B3"/>
</svg>
