<svg width="122" height="81" viewBox="0 0 122 81" fill="none" xmlns="http://www.w3.org/2000/svg">
<g opacity="0.5">
<path opacity="0.25" d="M2.93885 33.1449C4.57145 15.1864 16.8159 0.166494 35.9172 0.00323498C46.3658 -0.160024 54.2023 5.88056 61.5489 12.5742C67.0998 17.6352 72.9771 22.533 80.1605 24.9819C88.1602 27.9206 96.1599 26.7777 104.486 26.288C120.159 25.3084 126.689 42.6139 118.363 54.5318C108.241 69.2252 87.9969 75.7555 71.3445 78.8575C40.162 84.8981 -0.48959 71.021 2.93885 33.1449Z" fill="url(#paint0_linear)"/>
<path opacity="0.49" d="M90.2826 28.5734C92.2417 28.2469 94.0375 27.7571 95.6701 26.9408C90.4458 27.2674 85.2215 26.9408 79.9972 25.145C72.9771 22.5328 66.9365 17.6351 61.3857 12.7373C54.039 6.04366 46.2026 0.00306164 35.754 0.166321C16.8159 0.32958 4.57143 15.1862 2.93884 33.1447C1.14299 53.2256 11.5916 66.4496 26.6114 73.633C34.2846 69.5515 39.8354 62.6946 44.8965 55.3479C49.7943 48.1645 55.3451 41.1444 62.855 36.2466C71.1812 31.0223 80.6503 30.206 90.2826 28.5734Z" fill="url(#paint1_linear)"/>
<path opacity="0.5" d="M17.1422 78.2045C26.6096 78.2045 34.2845 70.5297 34.2845 61.0623C34.2845 51.5949 26.6096 43.92 17.1422 43.92C7.67484 43.92 0 51.5949 0 61.0623C0 70.5297 7.67484 78.2045 17.1422 78.2045Z" fill="url(#paint2_linear)"/>
<path opacity="0.5" d="M89.4658 51.1034C102.81 51.1034 113.628 40.2856 113.628 26.9411C113.628 13.5966 102.81 2.77869 89.4658 2.77869C76.1213 2.77869 65.3035 13.5966 65.3035 26.9411C65.3035 40.2856 76.1213 51.1034 89.4658 51.1034Z" fill="url(#paint3_linear)"/>
<path opacity="0.25" d="M48.4878 34.2878C38.0392 22.2066 20.2439 36.4101 5.71387 53.2258C13.8768 72.1639 37.2229 80.8167 59.2629 80.3269C69.2217 65.6336 66.1198 54.8585 48.4878 34.2878Z" fill="url(#paint4_linear)"/>
<path opacity="0.49" d="M30.5294 0.493005C30.8559 14.6966 42.4473 25.9615 56.6509 25.9615C62.365 25.9615 67.7525 24.1656 71.9973 20.9004C68.2423 18.4515 64.8139 15.5129 61.5487 12.5742C54.202 5.88056 46.3656 -0.160024 35.917 0.00323498C33.9579 0.166494 32.3253 0.329746 30.5294 0.493005Z" fill="url(#paint5_linear)"/>
</g>
<path opacity="0.5" d="M8.97952 28.5737C13.2173 28.5737 16.6527 25.1383 16.6527 20.9005C16.6527 16.6627 13.2173 13.2273 8.97952 13.2273C4.74174 13.2273 1.30634 16.6627 1.30634 20.9005C1.30634 25.1383 4.74174 28.5737 8.97952 28.5737Z" fill="url(#paint6_linear)"/>
<g clip-path="url(#clip0)">
<path d="M88.0481 66.7016H59.0446C56.0789 66.7016 53.6744 64.2971 53.6744 61.3314V13.6619C53.6744 10.6962 56.0789 8.29172 59.0446 8.29172H88.0481C91.0139 8.29172 93.4183 10.6962 93.4183 13.6619V61.3314C93.4183 64.2971 91.0139 66.7016 88.0481 66.7016Z" fill="url(#paint7_linear)"/>
<path d="M85.8199 56.4923H61.2729C59.787 56.4923 58.5828 55.2881 58.5828 53.8022V16.0411C58.5828 14.5553 59.787 13.3511 61.2729 13.3511H85.8199C87.3057 13.3511 88.5099 14.5553 88.5099 16.0411V53.8022C88.5094 55.2881 87.3052 56.4923 85.8199 56.4923Z" fill="url(#paint8_linear)"/>
<path d="M76.5979 61.5972C76.5979 63.282 75.2319 64.6481 73.5466 64.6481C71.8618 64.6481 70.4957 63.282 70.4957 61.5972C70.4957 59.9119 71.8618 58.5458 73.5466 58.5458C75.2319 58.5458 76.5979 59.9119 76.5979 61.5972Z" fill="url(#paint9_linear)"/>
<path d="M72.7483 18.2021H63.5765V19.6714H72.7483V18.2021Z" fill="white"/>
<path opacity="0.5" d="M83.0387 24.406H63.5765V25.8753H83.0387V24.406Z" fill="white"/>
<path d="M83.0387 30.6099H63.5765V32.0792H83.0387V30.6099Z" fill="white"/>
<path opacity="0.5" d="M72.7483 36.8138H63.5765V38.2831H72.7483V36.8138Z" fill="white"/>
<path d="M69.4979 28.935C69.0089 28.2965 68.2408 27.8828 67.3741 27.8828H58.5828V53.8022C58.5828 55.2881 59.787 56.4923 61.2729 56.4923H85.8199C87.3052 56.4923 88.5099 55.2881 88.5099 53.8022V47.9465L69.4979 28.935Z" fill="url(#paint10_linear)"/>
<path d="M67.3742 72.0495H35.6193C34.1409 72.0495 32.9426 70.8507 32.9426 69.3723V30.5599C32.9426 29.0815 34.1409 27.8828 35.6193 27.8828H67.3747C68.8526 27.8828 70.0514 29.0815 70.0514 30.5599V69.3723C70.0514 70.8507 68.8526 72.0495 67.3742 72.0495Z" fill="url(#paint11_linear)"/>
<path d="M35.6193 72.0495H67.3747C68.8526 72.0495 70.0514 70.8507 70.0514 69.3723V66.6055L64.9579 61.512C64.4679 60.973 63.7621 60.635 62.9766 60.635H32.9426V69.3728C32.9426 70.8507 34.1409 72.0495 35.6193 72.0495Z" fill="url(#paint12_linear)"/>
<path d="M62.9767 60.635H31.2212C29.7428 60.635 28.5446 61.8333 28.5446 63.3117V66.8402C28.5446 69.7173 30.8768 72.0495 33.7534 72.0495H67.641C66.5433 72.0495 65.6533 71.1596 65.6533 70.0618V63.3117C65.6533 61.8333 64.4551 60.635 62.9767 60.635Z" fill="url(#paint13_linear)"/>
<path d="M46.7987 50.639H37.6269V52.1084H46.7987V50.639Z" fill="white"/>
<path opacity="0.5" d="M57.0891 56.8429H37.6269V58.3123H57.0891V56.8429Z" fill="white"/>
<path d="M39.5436 46.4557L38.4839 45.3961L46.122 37.758L51.559 43.195L62.4108 32.3433L63.4704 33.4029L51.559 45.3144L46.122 39.8779L39.5436 46.4557Z" fill="url(#paint14_linear)"/>
<path d="M47.3763 37.6536C47.0635 37.3165 46.6181 37.1042 46.1217 37.1042C45.1753 37.1042 44.4081 37.8714 44.4081 38.8177C44.4081 39.3141 44.6205 39.7596 44.9575 40.0724L49.4789 44.5938C49.7917 44.9308 50.2376 45.1431 50.7336 45.1431C51.6799 45.1431 52.4471 44.376 52.4471 43.4296C52.4471 42.9332 52.2353 42.4877 51.8982 42.1749L47.3763 37.6536Z" fill="url(#paint15_linear)"/>
<path d="M40.2686 44.7616C39.9558 44.4245 39.5099 44.2127 39.0139 44.2127C38.0676 44.2127 37.3004 44.9798 37.3004 45.9262C37.3004 46.4221 37.5123 46.8681 37.8493 47.1809L42.3712 51.7022C42.684 52.0393 43.1294 52.2516 43.6259 52.2516C44.5722 52.2516 45.3394 51.4845 45.3394 50.5381C45.3394 50.0417 45.127 49.5962 44.79 49.2834L40.2686 44.7616Z" fill="url(#paint16_linear)"/>
<path d="M40.7274 45.9262C40.7274 46.8725 39.9603 47.6397 39.0139 47.6397C38.0676 47.6397 37.3004 46.8725 37.3004 45.9262C37.3004 44.9798 38.0676 44.2127 39.0139 44.2127C39.9603 44.2127 40.7274 44.9798 40.7274 45.9262Z" fill="url(#paint17_linear)"/>
<path d="M47.8352 38.8177C47.8352 39.764 47.068 40.5312 46.1217 40.5312C45.1753 40.5312 44.4081 39.764 44.4081 38.8177C44.4081 37.8714 45.1753 37.1042 46.1217 37.1042C47.068 37.1042 47.8352 37.8714 47.8352 38.8177Z" fill="url(#paint18_linear)"/>
<path d="M52.7236 43.0426C52.4103 42.7055 51.9648 42.4937 51.4684 42.4937C50.5221 42.4937 49.7549 43.2608 49.7549 44.2072C49.7549 44.7031 49.9672 45.1491 50.3043 45.4619L54.8256 49.9832C55.1389 50.3203 55.5844 50.5326 56.0803 50.5326C57.0272 50.5326 57.7943 49.7654 57.7943 48.8191C57.7943 48.3227 57.582 47.8772 57.2449 47.5644L52.7236 43.0426Z" fill="url(#paint19_linear)"/>
<path d="M53.1824 44.2072C53.1824 45.1535 52.4152 45.9207 51.4684 45.9207C50.5221 45.9207 49.7549 45.1535 49.7549 44.2072C49.7549 43.2608 50.5221 42.4937 51.4684 42.4937C52.4152 42.4937 53.1824 43.2608 53.1824 44.2072Z" fill="url(#paint20_linear)"/>
<path d="M64.1558 31.8562C63.843 31.5192 63.3976 31.3073 62.9011 31.3073C61.9548 31.3073 61.1876 32.0745 61.1876 33.0209C61.1876 33.5168 61.4 33.9627 61.737 34.2756L66.2584 38.7969C66.5712 39.134 67.0166 39.3463 67.5131 39.3463C68.4594 39.3463 69.2266 38.5791 69.2266 37.6328C69.2266 37.1364 69.0142 36.6909 68.6772 36.3781L64.1558 31.8562Z" fill="url(#paint21_linear)"/>
<path d="M64.6146 33.0209C64.6146 33.9672 63.8475 34.7344 62.9011 34.7344C61.9548 34.7344 61.1876 33.9672 61.1876 33.0209C61.1876 32.0745 61.9548 31.3073 62.9011 31.3073C63.8475 31.3073 64.6146 32.0745 64.6146 33.0209Z" fill="url(#paint22_linear)"/>
</g>
<defs>
<linearGradient id="paint0_linear" x1="2.69135" y1="40.2019" x2="122.002" y2="40.2019" gradientUnits="userSpaceOnUse">
<stop stop-color="#37D9FC" stop-opacity="0"/>
<stop offset="1" stop-color="#0538FB"/>
</linearGradient>
<linearGradient id="paint1_linear" x1="47.5819" y1="-58.1123" x2="50.34" y2="95.4181" gradientUnits="userSpaceOnUse">
<stop stop-color="#37D9FC" stop-opacity="0"/>
<stop offset="1" stop-color="#37D9FC"/>
</linearGradient>
<linearGradient id="paint2_linear" x1="17.191" y1="82.1738" x2="17.191" y2="43.5483" gradientUnits="userSpaceOnUse">
<stop stop-color="#0538FB" stop-opacity="0"/>
<stop offset="1" stop-color="#0538FB"/>
</linearGradient>
<linearGradient id="paint3_linear" x1="89.5338" y1="8.11025" x2="89.5338" y2="39.4959" gradientUnits="userSpaceOnUse">
<stop stop-color="#0538FB" stop-opacity="0"/>
<stop offset="1" stop-color="#0538FB"/>
</linearGradient>
<linearGradient id="paint4_linear" x1="36.6182" y1="19.5216" x2="34.3198" y2="90.7708" gradientUnits="userSpaceOnUse">
<stop stop-color="#37D9FC" stop-opacity="0"/>
<stop offset="1" stop-color="#0538FB"/>
</linearGradient>
<linearGradient id="paint5_linear" x1="26.0653" y1="-6.76745" x2="64.9841" y2="28.7806" gradientUnits="userSpaceOnUse">
<stop stop-color="#37D9FC" stop-opacity="0"/>
<stop offset="1" stop-color="#51B3FF"/>
</linearGradient>
<linearGradient id="paint6_linear" x1="8.52191" y1="5.89482" x2="9.44122" y2="40.1405" gradientUnits="userSpaceOnUse">
<stop offset="0.2106" stop-color="#0538FB" stop-opacity="0"/>
<stop offset="1" stop-color="#0538FB"/>
</linearGradient>
<linearGradient id="paint7_linear" x1="67.0459" y1="37.4967" x2="100.291" y2="37.4967" gradientUnits="userSpaceOnUse">
<stop stop-color="#0538FB"/>
<stop offset="1" stop-color="#37D9FC"/>
</linearGradient>
<linearGradient id="paint8_linear" x1="63.5575" y1="24.9329" x2="103.141" y2="64.516" gradientUnits="userSpaceOnUse">
<stop stop-color="#37D9FC"/>
<stop offset="1" stop-color="#2297FC"/>
</linearGradient>
<linearGradient id="paint9_linear" x1="74.6965" y1="62.7467" x2="69.5955" y2="57.6457" gradientUnits="userSpaceOnUse">
<stop stop-color="#0538FB"/>
<stop offset="1" stop-color="#37D9FC"/>
</linearGradient>
<linearGradient id="paint10_linear" x1="76.4501" y1="54.3188" x2="61.0648" y2="38.9335" gradientUnits="userSpaceOnUse">
<stop stop-color="#0538FB" stop-opacity="0"/>
<stop offset="1" stop-color="#0538FB"/>
</linearGradient>
<linearGradient id="paint11_linear" x1="39.3584" y1="31.7192" x2="73.3728" y2="82.8506" gradientUnits="userSpaceOnUse">
<stop stop-color="white"/>
<stop offset="1" stop-color="#C2D1F8"/>
</linearGradient>
<linearGradient id="paint12_linear" x1="61.6132" y1="78.6574" x2="49.6594" y2="66.7036" gradientUnits="userSpaceOnUse">
<stop stop-color="#C2D1F8" stop-opacity="0"/>
<stop offset="1" stop-color="#C2D1F8"/>
</linearGradient>
<linearGradient id="paint13_linear" x1="48.0927" y1="66.6457" x2="48.0927" y2="74.5147" gradientUnits="userSpaceOnUse">
<stop stop-color="white"/>
<stop offset="1" stop-color="#C2D1F8"/>
</linearGradient>
<linearGradient id="paint14_linear" x1="38.484" y1="39.3995" x2="63.4705" y2="39.3995" gradientUnits="userSpaceOnUse">
<stop stop-color="#0538FB"/>
<stop offset="1" stop-color="#37D9FC"/>
</linearGradient>
<linearGradient id="paint15_linear" x1="49.2316" y1="41.9276" x2="42.931" y2="35.627" gradientUnits="userSpaceOnUse">
<stop stop-color="#A1B5D8" stop-opacity="0"/>
<stop offset="1" stop-color="#748290"/>
</linearGradient>
<linearGradient id="paint16_linear" x1="42.1236" y1="49.0358" x2="35.823" y2="42.7352" gradientUnits="userSpaceOnUse">
<stop stop-color="#A1B5D8" stop-opacity="0"/>
<stop offset="1" stop-color="#748290"/>
</linearGradient>
<linearGradient id="paint17_linear" x1="37.5107" y1="44.1446" x2="39.7955" y2="46.8525" gradientUnits="userSpaceOnUse">
<stop stop-color="#6CF089"/>
<stop offset="1" stop-color="#2BDC72"/>
</linearGradient>
<linearGradient id="paint18_linear" x1="44.6187" y1="37.0363" x2="46.9035" y2="39.7442" gradientUnits="userSpaceOnUse">
<stop stop-color="#6CF089"/>
<stop offset="1" stop-color="#2BDC72"/>
</linearGradient>
<linearGradient id="paint19_linear" x1="54.5784" y1="47.3169" x2="48.2778" y2="41.0163" gradientUnits="userSpaceOnUse">
<stop stop-color="#A1B5D8" stop-opacity="0"/>
<stop offset="1" stop-color="#748290"/>
</linearGradient>
<linearGradient id="paint20_linear" x1="49.9655" y1="42.4256" x2="52.2503" y2="45.1335" gradientUnits="userSpaceOnUse">
<stop stop-color="#6CF089"/>
<stop offset="1" stop-color="#2BDC72"/>
</linearGradient>
<linearGradient id="paint21_linear" x1="66.011" y1="36.1307" x2="59.7104" y2="29.8301" gradientUnits="userSpaceOnUse">
<stop stop-color="#A1B5D8" stop-opacity="0"/>
<stop offset="1" stop-color="#748290"/>
</linearGradient>
<linearGradient id="paint22_linear" x1="61.3981" y1="31.2394" x2="63.6829" y2="33.9473" gradientUnits="userSpaceOnUse">
<stop stop-color="#6CF089"/>
<stop offset="1" stop-color="#2BDC72"/>
</linearGradient>
<clipPath id="clip0">
<rect width="64.8739" height="64.8739" fill="white" transform="translate(28.5446 7.78488)"/>
</clipPath>
</defs>
</svg>
