<svg width="122" height="82" viewBox="0 0 122 82" fill="none" xmlns="http://www.w3.org/2000/svg">
<g opacity="0.5">
<path opacity="0.25" d="M4.97469 33.9317C6.57936 16.2802 18.6145 1.51716 37.3892 1.3567C47.6591 1.19623 55.3616 7.13354 62.5826 13.7127C68.0385 18.6872 73.8154 23.5013 80.876 25.9083C88.7389 28.7967 96.6018 27.6734 104.786 27.192C120.191 26.2292 126.609 43.2388 118.425 54.953C108.476 69.3951 88.5784 75.8138 72.2107 78.8627C41.5614 84.6395 1.60486 71.1602 4.97469 33.9317Z" fill="url(#paint0_linear)"/>
<path opacity="0.49" d="M90.8249 29.4386C92.7505 29.1176 94.5157 28.6362 96.1204 27.8339C90.9854 28.1548 85.8504 27.8339 80.7154 26.0687C73.8153 23.5013 67.878 18.6872 62.4221 13.8732C55.3615 7.13354 47.6591 1.19623 37.3891 1.35669C18.7748 1.51716 6.57929 16.2802 4.97461 33.9317C3.20947 53.6692 13.6399 66.6671 28.2425 73.7277C35.7844 69.716 41.2403 62.9763 46.2148 55.7553C51.0289 48.6947 56.4848 41.7946 63.8663 36.9806C72.2106 31.6851 81.3573 31.0432 90.8249 29.4386Z" fill="url(#paint1_linear)"/>
<path opacity="0.49" d="M86.8134 19.4896C84.2459 18.6872 81.8389 17.7244 79.4319 16.6012C75.4202 14.6756 61.9409 7.4545 69.3224 2.15906C75.2597 -2.17357 86.6529 1.03578 92.9112 2.9614C98.0461 4.56608 114.093 11.6267 103.662 18.2058C98.5275 21.2547 92.5902 21.0943 86.8134 19.4896Z" fill="url(#paint2_linear)"/>
<path opacity="0.5" d="M12.356 34.5734C19.1801 34.5734 24.712 29.0414 24.712 22.2174C24.712 15.3933 19.1801 9.86133 12.356 9.86133C5.53198 9.86133 0 15.3933 0 22.2174C0 29.0414 5.53198 34.5734 12.356 34.5734Z" fill="url(#paint3_linear)"/>
<path opacity="0.5" d="M95.1575 81.5907C101.007 81.5907 105.748 76.849 105.748 70.9998C105.748 65.1506 101.007 60.4089 95.1575 60.4089C89.3083 60.4089 84.5667 65.1506 84.5667 70.9998C84.5667 76.849 89.3083 81.5907 95.1575 81.5907Z" fill="url(#paint4_linear)"/>
<path opacity="0.25" d="M49.9054 34.8947C39.6355 23.02 22.1445 36.9807 7.86285 53.5089C15.8862 72.2837 38.8331 80.628 60.4963 80.1466C70.2848 65.8649 67.236 55.1136 49.9054 34.8947Z" fill="url(#paint5_linear)"/>
<path opacity="0.49" d="M32.2541 1.8381C32.575 15.7988 43.9682 26.8711 57.9289 26.8711C63.5453 26.8711 68.8408 25.1059 73.0129 21.8966C69.3222 19.4896 65.9523 16.6011 62.743 13.7127C55.3615 7.13354 47.659 1.19623 37.3891 1.3567C35.6239 1.3567 33.8588 1.51716 32.2541 1.8381Z" fill="url(#paint6_linear)"/>
</g>
<path d="M85.3881 72.6918H37.0402C32.7829 72.6918 29.3318 69.2406 29.3318 64.9834V16.6354C29.3318 12.3782 32.7829 8.92706 37.0402 8.92706H85.3881C89.6453 8.92706 93.0965 12.3782 93.0965 16.6354V64.9834C93.0965 69.2406 89.6453 72.6918 85.3881 72.6918Z" fill="url(#paint7_linear)"/>
<path d="M73.6902 72.6918H56.7463L43.3179 59.2638C42.1002 58.1648 41.334 56.5755 41.334 54.8066C41.334 51.4931 44.0194 48.8077 47.3328 48.8077C49.1017 48.8077 50.6911 49.5725 51.79 50.7916L73.6902 72.6918Z" fill="url(#paint8_linear)"/>
<path d="M89.8834 71.245C89.1031 71.8078 88.2143 72.2267 87.253 72.4641C86.6566 72.613 86.0314 72.6918 85.3888 72.6918H70.4863L56.7109 58.9159C55.2067 57.5645 54.26 55.6054 54.26 53.425C54.26 53.371 54.26 53.3175 54.2629 53.2649C54.3476 49.2626 57.6187 46.0445 61.6419 46.0445C63.8224 46.0445 65.7815 46.9907 67.1319 48.4949L70.1652 51.5282L89.8834 71.245Z" fill="url(#paint9_linear)"/>
<path d="M93.0965 52.1572V64.9839C93.0965 67.5632 91.8287 69.8473 89.8833 71.2449C89.103 71.8078 88.2142 72.2267 87.2529 72.4641L73.082 58.2932C71.2878 56.6056 70.165 54.2111 70.165 51.553V51.5281C70.1787 46.4293 74.3157 42.301 79.417 42.301C82.0752 42.301 84.4697 43.4223 86.1573 45.2179L93.0965 52.1572Z" fill="url(#paint10_linear)"/>
<path d="M38.4698 17.4834V64.1355C38.4698 64.4565 38.2095 64.7168 37.8884 64.7168C37.5673 64.7168 37.3076 64.4565 37.3076 64.1355V17.4834C37.3076 17.1623 37.5678 16.9025 37.8884 16.9025C38.2095 16.902 38.4698 17.1623 38.4698 17.4834Z" fill="url(#paint11_linear)"/>
<path d="M84.541 64.7168H37.8889C37.5678 64.7168 37.3076 64.4566 37.3076 64.1355C37.3076 63.8144 37.5678 63.5541 37.8889 63.5541H84.541C84.862 63.5541 85.1218 63.8144 85.1218 64.1355C85.1223 64.4566 84.862 64.7168 84.541 64.7168Z" fill="url(#paint12_linear)"/>
<path d="M39.5605 16.0838C39.1708 15.6639 38.6157 15.3998 37.9979 15.3998C36.8196 15.3998 35.8641 16.3552 35.8641 17.5335C35.8641 18.1513 36.1283 18.7059 36.5481 19.0956L42.1782 24.7257C42.5674 25.1451 43.1225 25.4092 43.7403 25.4092C44.9186 25.4092 45.8741 24.4543 45.8741 23.276C45.8741 22.6577 45.6099 22.1031 45.1901 21.7134L39.5605 16.0838Z" fill="url(#paint13_linear)"/>
<path d="M40.1316 17.5335C40.1316 18.7118 39.1761 19.6672 37.9979 19.6672C36.8196 19.6672 35.8641 18.7118 35.8641 17.5335C35.8641 16.3552 36.8196 15.3998 37.9979 15.3998C39.1761 15.3998 40.1316 16.3552 40.1316 17.5335Z" fill="url(#paint14_radial)"/>
<path d="M86.1125 62.5841C85.7228 62.1642 85.1677 61.9001 84.5499 61.9001C83.3716 61.9001 82.4161 62.8551 82.4161 64.0338C82.4161 64.6517 82.6803 65.2062 83.1001 65.5959L87.5539 70.0497C87.9436 70.4695 88.4987 70.7337 89.1165 70.7337C90.2948 70.7337 91.2502 69.7787 91.2502 68.6C91.2502 67.9821 90.9856 67.4275 90.5662 67.0379L86.1125 62.5841Z" fill="url(#paint15_linear)"/>
<path d="M86.6831 64.0338C86.6831 65.2121 85.7281 66.1675 84.5494 66.1675C83.3711 66.1675 82.4161 65.2121 82.4161 64.0338C82.4161 62.8555 83.3711 61.9001 84.5494 61.9001C85.7281 61.9001 86.6831 62.8555 86.6831 64.0338Z" fill="url(#paint16_radial)"/>
<path d="M84.9051 17.2183L78.1974 20.8694C77.0206 21.5101 76.9715 23.1812 78.1084 23.8895L79.8598 24.9817C77.5422 28.1409 74.5877 30.9586 71.0408 33.3857C67.2953 35.948 62.8843 38.0862 57.9309 39.7402C49.4349 42.5759 42.2062 43.004 42.1021 43.0099C41.1121 43.0629 40.3532 43.9089 40.4062 44.8984C40.4573 45.8558 41.2498 46.5977 42.197 46.5977C42.2291 46.5977 42.2622 46.5967 42.2948 46.5948C42.6056 46.5782 50.0163 46.1531 58.9749 43.1763C64.2616 41.4196 68.9878 39.1331 73.0217 36.38C77.0085 33.6591 80.3244 30.4756 82.9154 26.8858L84.4921 27.869C85.629 28.5773 87.1074 27.797 87.1644 26.4586L87.4884 18.8286C87.5462 17.4703 86.0994 16.5684 84.9051 17.2183Z" fill="url(#paint17_linear)"/>
<path d="M85.4448 50.374C85.4448 55.6565 81.1626 59.9387 75.8801 59.9387C70.5976 59.9387 66.3154 55.6565 66.3154 50.374C66.3154 45.0915 70.5976 40.8093 75.8801 40.8093C81.1626 40.8093 85.4448 45.0915 85.4448 50.374Z" fill="url(#paint18_radial)"/>
<path d="M66.3152 50.3739C66.3152 53.7877 68.1041 56.7833 70.7952 58.4758H80.9647C83.6558 56.7833 85.4447 53.7877 85.4447 50.3739C85.4447 46.9601 83.6558 43.9646 80.9647 42.272H70.7952C68.1041 43.9646 66.3152 46.9601 66.3152 50.3739Z" fill="url(#paint19_linear)"/>
<path d="M66.3152 50.3739C66.3152 52.8093 67.2259 55.0314 68.7247 56.7202H83.0352C84.534 55.0314 85.4447 52.8093 85.4447 50.3739C85.4447 47.9385 84.534 45.7163 83.0352 44.0277H68.7247C67.2259 45.7163 66.3152 47.9385 66.3152 50.3739V50.3739Z" fill="url(#paint20_linear)"/>
<path d="M66.3152 50.3738C66.3152 51.7973 66.6265 53.1477 67.1842 54.3615H84.5757C85.1334 53.1477 85.4447 51.7973 85.4447 50.3738C85.4447 48.9504 85.1334 47.6 84.5757 46.3862H67.1842C66.6265 47.6 66.3152 48.9504 66.3152 50.3738Z" fill="url(#paint21_linear)"/>
<path d="M66.3152 50.3738C66.3152 51.1977 66.4197 51.997 66.6156 52.7598H85.1443C85.3402 51.997 85.4447 51.1977 85.4447 50.3738C85.4447 49.55 85.3402 48.7506 85.1443 47.9879H66.6156C66.4197 48.7506 66.3152 49.55 66.3152 50.3738V50.3738Z" fill="url(#paint22_linear)"/>
<path d="M75.1204 40.8392C70.1932 41.2264 66.3152 45.3471 66.3152 50.374C66.3152 55.4008 70.1932 59.5215 75.1204 59.9087C80.0477 59.5215 83.9256 55.4008 83.9256 50.374C83.9256 45.3471 80.0477 41.2264 75.1204 40.8392Z" fill="url(#paint23_radial)"/>
<path d="M75.6146 41.7146C75.2862 41.6699 74.9528 41.6699 74.6243 41.7146C70.3601 42.2947 67.0737 45.9505 67.0737 50.374C67.0737 54.7975 70.3601 58.4533 74.6243 59.0334C74.9528 59.078 75.2862 59.078 75.6146 59.0334C79.879 58.4533 83.1654 54.7975 83.1654 50.374C83.1654 45.9505 79.879 42.2947 75.6146 41.7146Z" fill="url(#paint24_radial)"/>
<path d="M81.4779 50.3739C81.4779 46.5198 78.6143 43.3954 75.0819 43.3954C71.5495 43.3954 68.6859 46.5198 68.6859 50.3739C68.6859 54.2281 71.5495 57.3525 75.0819 57.3525C78.6143 57.3525 81.4779 54.2281 81.4779 50.3739Z" fill="url(#paint25_radial)"/>
<path d="M76.8376 43.6621C76.0414 43.4146 75.1908 43.4146 74.3945 43.6621C71.716 44.4947 69.7545 47.1842 69.7545 50.3738C69.7545 53.6258 71.7935 56.3581 74.5526 57.1323C75.2474 57.3273 75.9847 57.3273 76.6796 57.1323C79.4387 56.3581 81.4776 53.6259 81.4776 50.3738C81.4776 47.1842 79.5162 44.4947 76.8376 43.6621Z" fill="url(#paint26_radial)"/>
<path d="M81.4037 51.4309L77.1698 47.1969C77.0929 47.063 76.9332 46.9524 76.6904 46.8651C76.4411 46.7757 76.1755 46.7148 75.8941 46.6812L75.5225 46.3498C75.5151 46.2974 75.4844 46.2498 75.4275 46.2078C75.3618 46.1596 75.291 46.1353 75.2153 46.1353C75.1325 46.1353 75.0616 46.1596 75.0031 46.2078C74.9444 46.2561 74.9151 46.3113 74.9151 46.3733V46.6735C74.3561 46.7357 73.8885 46.9219 73.5125 47.2325C73.1363 47.543 72.9483 47.9981 72.9483 48.5975C72.9483 48.811 72.9724 49.0056 73.0208 49.1813C73.069 49.3569 73.1484 49.5101 73.2589 49.6409C73.3692 49.7718 73.4746 49.8837 73.5746 49.9767C73.5798 49.9817 73.5858 49.9865 73.5913 49.9914L74.9151 51.3182V53.0499C74.6093 53.0291 74.3399 52.95 74.107 52.8123C73.8742 52.6746 73.6912 52.5455 73.5579 52.4249C73.4247 52.3044 73.3171 52.2441 73.2354 52.2441C73.1118 52.2441 73.002 52.3095 72.906 52.4404C72.81 52.5713 72.7621 52.7021 72.7621 52.833C72.7621 53.0474 72.8864 53.2587 73.1342 53.4668L76.7725 57.1051C79.1809 56.3862 81.0223 54.1703 81.4037 51.4309Z" fill="url(#paint27_linear)"/>
<path d="M72.7621 52.8329C72.7621 52.7019 72.8101 52.5712 72.9061 52.4403C73.0022 52.3095 73.1119 52.244 73.2355 52.244C73.3173 52.244 73.4248 52.3042 73.5581 52.4248C73.6913 52.5455 73.8743 52.6745 74.1071 52.8121C74.3401 52.95 74.6095 53.0291 74.9152 53.0497V50.6222C74.7083 50.5466 74.5493 50.4862 74.4391 50.4414C74.3287 50.3969 74.182 50.3313 73.9991 50.2452C73.8163 50.1593 73.6747 50.0697 73.5747 49.9767C73.4747 49.8836 73.3694 49.7718 73.2592 49.6409C73.1485 49.51 73.0693 49.3569 73.021 49.1811C72.9727 49.0056 72.9486 48.811 72.9486 48.5975C72.9486 47.9981 73.1364 47.5429 73.5127 47.2325C73.8888 46.9219 74.3563 46.7355 74.9152 46.6735V46.3733C74.9152 46.3111 74.9446 46.256 75.0032 46.2076C75.0618 46.1595 75.1327 46.1353 75.2154 46.1353C75.2913 46.1353 75.362 46.1595 75.4276 46.2076C75.4932 46.256 75.526 46.3111 75.526 46.3733V46.6528C75.9468 46.6666 76.335 46.7373 76.6905 46.865C77.0459 46.9927 77.2236 47.1703 77.2236 47.398C77.2236 47.5222 77.1818 47.6516 77.0983 47.7862C77.0148 47.9208 76.9033 47.988 76.7642 47.988C76.7092 47.988 76.558 47.9295 76.3109 47.812C76.0635 47.6948 75.802 47.6257 75.526 47.6051V49.7028C75.8005 49.8061 76.0286 49.9043 76.2105 49.9973C76.3923 50.0902 76.5846 50.2194 76.7871 50.3846C76.9896 50.55 77.1422 50.7582 77.2451 51.0096C77.348 51.2609 77.3995 51.5554 77.3995 51.8928C77.3995 52.5093 77.2314 52.9994 76.8951 53.3629C76.5587 53.7266 76.1025 53.9499 75.526 54.0331V54.3789C75.526 54.4399 75.4932 54.494 75.4276 54.5416C75.362 54.589 75.2913 54.6127 75.2156 54.6127C75.1327 54.6127 75.0619 54.5889 75.0032 54.5417C74.9446 54.4942 74.9154 54.44 74.9154 54.379V54.0641C74.3149 54.0572 73.8059 53.9199 73.3885 53.6519C72.9708 53.3842 72.7621 53.1112 72.7621 52.8329ZM73.9733 48.4943C73.9733 48.7629 74.0569 48.9678 74.2242 49.1089C74.3914 49.25 74.6426 49.3827 74.9773 49.5066V47.6248C74.3079 47.7075 73.9733 47.9974 73.9733 48.4943ZM75.4638 53.029C76.071 52.9188 76.3748 52.578 76.3748 52.0064C76.3748 51.7035 76.2953 51.4658 76.1366 51.2937C75.9779 51.1216 75.7537 50.9735 75.4638 50.8494V53.029Z" fill="white"/>
<path d="M65.0401 52.287C65.0401 56.513 61.6143 59.9387 57.3883 59.9387C53.1623 59.9387 49.7366 56.513 49.7366 52.287C49.7366 48.0609 53.1623 44.6352 57.3883 44.6352C61.6143 44.6352 65.0401 48.0609 65.0401 52.287Z" fill="url(#paint28_radial)"/>
<path d="M49.7367 52.2868C49.7367 55.0179 51.1678 57.4143 53.3207 58.7683H61.4563C63.6091 57.4143 65.0402 55.0179 65.0402 52.2868C65.0402 49.5558 63.6091 47.1593 61.4563 45.8053H53.3207C51.1678 47.1593 49.7367 49.5558 49.7367 52.2868Z" fill="url(#paint29_linear)"/>
<path d="M49.7367 52.2869C49.7367 54.2352 50.4653 56.0129 51.6642 57.3639H63.1127C64.3117 56.0129 65.0402 54.2352 65.0402 52.2869C65.0402 50.3386 64.3117 48.5608 63.1127 47.21H51.6642C50.4653 48.5608 49.7367 50.3386 49.7367 52.2869V52.2869Z" fill="url(#paint30_linear)"/>
<path d="M49.7367 52.2869C49.7367 53.4256 49.9857 54.506 50.4319 55.477H64.3451C64.7912 54.506 65.0402 53.4256 65.0402 52.2869C65.0402 51.1482 64.7912 50.0678 64.3451 49.0967H50.4319C49.9857 50.0678 49.7367 51.1482 49.7367 52.2869Z" fill="url(#paint31_linear)"/>
<path d="M49.7367 52.2869C49.7367 52.9459 49.8203 53.5854 49.977 54.1956H64.7999C64.9566 53.5854 65.0402 52.9459 65.0402 52.2869C65.0402 51.6278 64.9566 50.9883 64.7999 50.3781H49.977C49.8203 50.9883 49.7367 51.6278 49.7367 52.2869V52.2869Z" fill="url(#paint32_linear)"/>
<path d="M56.7809 44.6592C52.839 44.9689 49.7367 48.2656 49.7367 52.287C49.7367 56.3085 52.839 59.6051 56.7809 59.9148C60.7227 59.6051 63.825 56.3085 63.825 52.287C63.825 48.2656 60.7227 44.9689 56.7809 44.6592Z" fill="url(#paint33_radial)"/>
<path d="M57.1765 45.3594C56.9138 45.3237 56.6472 45.3237 56.3843 45.3594C52.9729 45.8235 50.3438 48.7482 50.3438 52.287C50.3438 55.8257 52.9729 58.7504 56.3843 59.2145C56.6472 59.2502 56.9138 59.2502 57.1765 59.2145C60.588 58.7504 63.2172 55.8257 63.2172 52.287C63.2172 48.7482 60.588 45.8235 57.1765 45.3594Z" fill="url(#paint34_radial)"/>
<path d="M61.867 52.2868C61.867 49.2035 59.5761 46.704 56.7503 46.704C53.9243 46.704 51.6334 49.2035 51.6334 52.2868C51.6334 55.3701 53.9243 57.8696 56.7503 57.8696C59.5761 57.8696 61.867 55.3701 61.867 52.2868Z" fill="url(#paint35_radial)"/>
<path d="M58.1543 46.9174C57.5173 46.7194 56.8369 46.7194 56.1998 46.9174C54.057 47.5835 52.4878 49.7351 52.4878 52.2868C52.4878 54.8884 54.119 57.0742 56.3263 57.6936C56.8822 57.8496 57.472 57.8496 58.0279 57.6936C60.2352 57.0742 61.8663 54.8885 61.8663 52.2868C61.8663 49.7351 60.2972 47.5835 58.1543 46.9174Z" fill="url(#paint36_radial)"/>
<path d="M61.8072 53.1326L58.4201 49.7453C58.3586 49.6383 58.2308 49.5498 58.0365 49.48C57.8371 49.4084 57.6246 49.3597 57.3995 49.3328L57.1023 49.0677C57.0963 49.0258 57.0718 48.9877 57.0262 48.9541C56.9737 48.9156 56.9171 48.8961 56.8565 48.8961C56.7903 48.8961 56.7335 48.9156 56.6867 48.9541C56.6398 48.9927 56.6163 49.0369 56.6163 49.0865V49.3267C56.1691 49.3764 55.795 49.5254 55.4943 49.7738C55.1933 50.0223 55.0429 50.3863 55.0429 50.8659C55.0429 51.0367 55.0622 51.1923 55.1009 51.3329C55.1395 51.4733 55.203 51.5959 55.2914 51.7006C55.3796 51.8053 55.4639 51.8948 55.5439 51.9692C55.5481 51.9732 55.5529 51.977 55.5573 51.981L56.6163 53.0424V54.4278C56.3717 54.4112 56.1562 54.3479 55.9698 54.2377C55.7836 54.1276 55.6372 54.0242 55.5306 53.9278C55.424 53.8314 55.3379 53.7831 55.2726 53.7831C55.1737 53.7831 55.0859 53.8354 55.009 53.9402C54.9322 54.0449 54.8939 54.1495 54.8939 54.2543C54.8939 54.4258 54.9934 54.5948 55.1917 54.7613L58.1023 57.672C60.029 57.0968 61.5021 55.3241 61.8072 53.1326Z" fill="url(#paint37_linear)"/>
<path d="M54.8939 54.2541C54.8939 54.1494 54.9323 54.0448 55.0092 53.9401C55.086 53.8354 55.1738 53.783 55.2727 53.783C55.3381 53.783 55.4241 53.8312 55.5307 53.9277C55.6373 54.0242 55.7837 54.1275 55.97 54.2376C56.1563 54.3479 56.3718 54.4112 56.6164 54.4276V52.4856C56.4509 52.4251 56.3237 52.3768 56.2356 52.341C56.1472 52.3054 56.0298 52.2529 55.8836 52.184C55.7373 52.1153 55.624 52.0436 55.544 51.9692C55.464 51.8947 55.3797 51.8053 55.2916 51.7006C55.2031 51.5958 55.1397 51.4733 55.101 51.3328C55.0624 51.1923 55.0431 51.0367 55.0431 50.8659C55.0431 50.3863 55.1934 50.0222 55.4944 49.7738C55.7953 49.5254 56.1693 49.3763 56.6164 49.3267V49.0865C56.6164 49.0367 56.6399 48.9926 56.6868 48.954C56.7337 48.9154 56.7904 48.8961 56.8566 48.8961C56.9173 48.8961 56.9738 48.9154 57.0264 48.954C57.0788 48.9926 57.1051 49.0367 57.1051 49.0865V49.3101C57.4417 49.3212 57.7522 49.3777 58.0367 49.4798C58.321 49.582 58.4632 49.7241 58.4632 49.9062C58.4632 50.0056 58.4297 50.1092 58.3629 50.2168C58.2961 50.3245 58.2069 50.3783 58.0956 50.3783C58.0516 50.3783 57.9306 50.3315 57.733 50.2375C57.5351 50.1437 57.3258 50.0884 57.1051 50.0719V51.7501C57.3247 51.8327 57.5072 51.9113 57.6526 51.9857C57.7981 52.06 57.9519 52.1634 58.114 52.2955C58.2759 52.4278 58.398 52.5944 58.4803 52.7955C58.5626 52.9966 58.6039 53.2322 58.6039 53.5021C58.6039 53.9953 58.4694 54.3874 58.2004 54.6782C57.9312 54.9692 57.5662 55.1478 57.1051 55.2143V55.4909C57.1051 55.5397 57.0788 55.5831 57.0264 55.6211C56.9738 55.6591 56.9173 55.678 56.8567 55.678C56.7904 55.678 56.7338 55.659 56.6868 55.6212C56.6399 55.5832 56.6165 55.5399 56.6165 55.4911V55.2391C56.1362 55.2336 55.729 55.1237 55.395 54.9094C55.0609 54.6952 54.8939 54.4768 54.8939 54.2541ZM55.8629 50.7833C55.8629 50.9981 55.9298 51.1621 56.0636 51.275C56.1974 51.3879 56.3983 51.494 56.6661 51.5931V50.0877C56.1306 50.1539 55.8629 50.3858 55.8629 50.7833ZM57.0553 54.4111C57.541 54.3229 57.7841 54.0503 57.7841 53.5929C57.7841 53.3507 57.7205 53.1605 57.5936 53.0228C57.4665 52.8852 57.2872 52.7667 57.0553 52.6674V54.4111Z" fill="white"/>
<path d="M48.4613 54.1999C48.4613 57.3694 45.892 59.9387 42.7225 59.9387C39.553 59.9387 36.9836 57.3694 36.9836 54.1999C36.9836 51.0304 39.553 48.4611 42.7225 48.4611C45.892 48.4611 48.4613 51.0304 48.4613 54.1999Z" fill="url(#paint38_radial)"/>
<path d="M36.9838 54.1997C36.9838 56.248 38.0571 58.0453 39.6717 59.0608H45.7734C47.3881 58.0453 48.4614 56.248 48.4614 54.1997C48.4614 52.1514 47.3881 50.3541 45.7734 49.3386H39.6717C38.0571 50.3541 36.9838 52.1514 36.9838 54.1997Z" fill="url(#paint39_linear)"/>
<path d="M36.9838 54.1997C36.9838 55.661 37.5302 56.9943 38.4294 58.0075H47.0158C47.915 56.9943 48.4614 55.661 48.4614 54.1997C48.4614 52.7385 47.915 51.4052 47.0158 50.392H38.4294C37.5302 51.4052 36.9838 52.7385 36.9838 54.1997V54.1997Z" fill="url(#paint40_linear)"/>
<path d="M36.9838 54.1997C36.9838 55.0538 37.1705 55.864 37.5051 56.5923H47.94C48.2746 55.864 48.4614 55.0538 48.4614 54.1997C48.4614 53.3457 48.2746 52.5354 47.94 51.8071H37.5051C37.1705 52.5354 36.9838 53.3457 36.9838 54.1997Z" fill="url(#paint41_linear)"/>
<path d="M36.9838 54.1998C36.9838 54.6941 37.0465 55.1737 37.164 55.6314H48.2812C48.3987 55.1737 48.4614 54.6941 48.4614 54.1998C48.4614 53.7055 48.3987 53.2259 48.2812 52.7682H37.164C37.0465 53.2259 36.9838 53.7055 36.9838 54.1998V54.1998Z" fill="url(#paint42_linear)"/>
<path d="M42.2669 48.4791C39.3105 48.7114 36.9838 51.1839 36.9838 54.2C36.9838 57.2161 39.3105 59.6886 42.2669 59.9209C45.2233 59.6886 47.55 57.2161 47.55 54.2C47.55 51.1839 45.2233 48.7114 42.2669 48.4791Z" fill="url(#paint43_radial)"/>
<path d="M42.5641 49.0042C42.3671 48.9774 42.1671 48.9774 41.97 49.0042C39.4114 49.3523 37.4396 51.5458 37.4396 54.1999C37.4396 56.854 39.4114 59.0474 41.97 59.3955C42.1671 59.4223 42.3671 59.4223 42.5641 59.3955C45.1227 59.0474 47.0946 56.854 47.0946 54.1999C47.0946 51.5458 45.1227 49.3523 42.5641 49.0042Z" fill="url(#paint44_radial)"/>
<path d="M46.0812 54.1998C46.0812 51.8873 44.363 50.0126 42.2437 50.0126C40.1242 50.0126 38.406 51.8873 38.406 54.1998C38.406 56.5122 40.1242 58.3869 42.2437 58.3869C44.363 58.3869 46.0812 56.5122 46.0812 54.1998Z" fill="url(#paint45_radial)"/>
<path d="M43.2973 50.1728C42.8196 50.0243 42.3092 50.0243 41.8315 50.1728C40.2243 50.6724 39.0474 52.2861 39.0474 54.1998C39.0474 56.151 40.2708 57.7904 41.9263 58.2549C42.3432 58.3719 42.7856 58.3719 43.2025 58.2549C44.858 57.7904 46.0813 56.1511 46.0813 54.1998C46.0813 52.2861 44.9045 50.6724 43.2973 50.1728Z" fill="url(#paint46_radial)"/>
<path d="M46.0369 54.8341L43.4966 52.2937C43.4505 52.2134 43.3547 52.147 43.209 52.0947C43.0594 52.041 42.9 52.0045 42.7312 51.9843L42.5082 51.7855C42.5038 51.754 42.4854 51.7255 42.4512 51.7003C42.4118 51.6714 42.3694 51.6567 42.3239 51.6567C42.2743 51.6567 42.2317 51.6714 42.1966 51.7003C42.1614 51.7292 42.1438 51.7623 42.1438 51.7996V51.9797C41.8084 52.017 41.5278 52.1287 41.3023 52.3151C41.0765 52.5014 40.9637 52.7744 40.9637 53.1341C40.9637 53.2622 40.9782 53.3789 41.0072 53.4844C41.0361 53.5897 41.0838 53.6816 41.1501 53.7601C41.2163 53.8387 41.2795 53.9058 41.3395 53.9616C41.3426 53.9646 41.3462 53.9675 41.3495 53.9704L42.1438 54.7665V55.8055C41.9603 55.7931 41.7987 55.7456 41.6589 55.663C41.5193 55.5804 41.4094 55.5029 41.3295 55.4305C41.2495 55.3582 41.185 55.3221 41.136 55.3221C41.0618 55.3221 40.996 55.3613 40.9383 55.4398C40.8807 55.5184 40.852 55.5968 40.852 55.6754C40.852 55.804 40.9266 55.9308 41.0753 56.0557L43.2583 58.2387C44.7033 57.8073 45.8081 56.4778 46.0369 54.8341Z" fill="url(#paint47_linear)"/>
<path d="M40.852 55.6753C40.852 55.5967 40.8808 55.5183 40.9384 55.4397C40.996 55.3613 41.0619 55.322 41.1361 55.322C41.1851 55.322 41.2496 55.3581 41.3296 55.4305C41.4095 55.5029 41.5193 55.5803 41.659 55.6629C41.7988 55.7456 41.9604 55.7931 42.1439 55.8054V54.3489C42.0197 54.3036 41.9243 54.2673 41.8582 54.2404C41.7919 54.2137 41.7039 54.1744 41.5942 54.1227C41.4845 54.0711 41.3995 54.0174 41.3396 53.9616C41.2796 53.9057 41.2164 53.8387 41.1502 53.7601C41.0839 53.6816 41.0363 53.5897 41.0073 53.4843C40.9783 53.3789 40.9639 53.2622 40.9639 53.1341C40.9639 52.7744 41.0766 52.5013 41.3023 52.3151C41.528 52.1287 41.8085 52.0169 42.1439 51.9797V51.7996C42.1439 51.7623 42.1615 51.7292 42.1967 51.7002C42.2318 51.6713 42.2743 51.6567 42.324 51.6567C42.3695 51.6567 42.4119 51.6713 42.4513 51.7002C42.4906 51.7292 42.5103 51.7623 42.5103 51.7996V51.9673C42.7628 51.9756 42.9957 52.018 43.209 52.0946C43.4223 52.1712 43.5289 52.2778 43.5289 52.4144C43.5289 52.4889 43.5038 52.5666 43.4537 52.6473C43.4036 52.728 43.3367 52.7684 43.2533 52.7684C43.2203 52.7684 43.1295 52.7333 42.9813 52.6628C42.8329 52.5925 42.6759 52.551 42.5103 52.5386V53.7972C42.6751 53.8592 42.8119 53.9182 42.921 53.9739C43.0301 54.0297 43.1455 54.1072 43.267 54.2064C43.3885 54.3056 43.4801 54.4305 43.5418 54.5813C43.6035 54.7321 43.6344 54.9088 43.6344 55.1113C43.6344 55.4812 43.5336 55.7752 43.3318 55.9933C43.13 56.2116 42.8562 56.3455 42.5103 56.3955V56.6029C42.5103 56.6395 42.4906 56.672 42.4513 56.7005C42.4119 56.729 42.3695 56.7432 42.3241 56.7432C42.2743 56.7432 42.2319 56.7289 42.1967 56.7006C42.1615 56.6721 42.144 56.6396 42.144 56.603V56.414C41.7837 56.4099 41.4783 56.3275 41.2278 56.1667C40.9772 56.0061 40.852 55.8423 40.852 55.6753ZM41.5787 53.0722C41.5787 53.2333 41.6289 53.3562 41.7292 53.4409C41.8296 53.5256 41.9803 53.6052 42.1811 53.6795V52.5505C41.7795 52.6001 41.5787 52.774 41.5787 53.0722ZM42.473 55.793C42.8373 55.7269 43.0196 55.5224 43.0196 55.1794C43.0196 54.9977 42.9719 54.8551 42.8767 54.7518C42.7815 54.6486 42.6469 54.5597 42.473 54.4853V55.793Z" fill="white"/>
<defs>
<linearGradient id="paint0_linear" x1="4.80299" y1="40.81" x2="122.073" y2="40.81" gradientUnits="userSpaceOnUse">
<stop stop-color="#37D9FC" stop-opacity="0"/>
<stop offset="1" stop-color="#0538FB"/>
</linearGradient>
<linearGradient id="paint1_linear" x1="48.926" y1="-55.8231" x2="51.6369" y2="95.0823" gradientUnits="userSpaceOnUse">
<stop stop-color="#37D9FC" stop-opacity="0"/>
<stop offset="1" stop-color="#37D9FC"/>
</linearGradient>
<linearGradient id="paint2_linear" x1="62.1978" y1="-1.66842" x2="109.488" y2="20.3197" gradientUnits="userSpaceOnUse">
<stop stop-color="#37D9FC" stop-opacity="0"/>
<stop offset="1" stop-color="#37D9FC"/>
</linearGradient>
<linearGradient id="paint3_linear" x1="12.43" y1="37.3976" x2="12.43" y2="9.68642" gradientUnits="userSpaceOnUse">
<stop stop-color="#0538FB" stop-opacity="0"/>
<stop offset="1" stop-color="#0538FB"/>
</linearGradient>
<linearGradient id="paint4_linear" x1="95.8012" y1="79.4939" x2="94.2952" y2="60.5176" gradientUnits="userSpaceOnUse">
<stop stop-color="#0538FB" stop-opacity="0"/>
<stop offset="1" stop-color="#0538FB"/>
</linearGradient>
<linearGradient id="paint5_linear" x1="38.1499" y1="20.4834" x2="35.8908" y2="90.5143" gradientUnits="userSpaceOnUse">
<stop stop-color="#37D9FC" stop-opacity="0"/>
<stop offset="1" stop-color="#0538FB"/>
</linearGradient>
<linearGradient id="paint6_linear" x1="27.7774" y1="-5.35616" x2="66.0308" y2="29.5839" gradientUnits="userSpaceOnUse">
<stop stop-color="#37D9FC" stop-opacity="0"/>
<stop offset="1" stop-color="#37D9FC"/>
</linearGradient>
<linearGradient id="paint7_linear" x1="50.2863" y1="29.8816" x2="93.3393" y2="72.9345" gradientUnits="userSpaceOnUse">
<stop stop-color="#37D9FC"/>
<stop offset="1" stop-color="#0538FB"/>
</linearGradient>
<linearGradient id="paint8_linear" x1="59.5144" y1="66.9879" x2="46.2745" y2="53.748" gradientUnits="userSpaceOnUse">
<stop stop-color="#0538FB" stop-opacity="0"/>
<stop offset="1" stop-color="#0538FB"/>
</linearGradient>
<linearGradient id="paint9_linear" x1="73.698" y1="65.482" x2="60.7752" y2="52.5592" gradientUnits="userSpaceOnUse">
<stop stop-color="#0538FB" stop-opacity="0"/>
<stop offset="1" stop-color="#0538FB"/>
</linearGradient>
<linearGradient id="paint10_linear" x1="91.9741" y1="64.11" x2="81.1997" y2="53.3356" gradientUnits="userSpaceOnUse">
<stop stop-color="#0538FB" stop-opacity="0"/>
<stop offset="1" stop-color="#0538FB"/>
</linearGradient>
<linearGradient id="paint11_linear" x1="37.307" y1="40.8096" x2="38.4696" y2="40.8096" gradientUnits="userSpaceOnUse">
<stop stop-color="#FFFCF8"/>
<stop offset="0.1875" stop-color="#FAF8F6"/>
<stop offset="0.4041" stop-color="#ECEEF2"/>
<stop offset="0.6353" stop-color="#D5DCEA"/>
<stop offset="0.875" stop-color="#B5C4DF"/>
<stop offset="1" stop-color="#A1B5D8"/>
</linearGradient>
<linearGradient id="paint12_linear" x1="61.215" y1="63.5541" x2="61.215" y2="64.7167" gradientUnits="userSpaceOnUse">
<stop stop-color="#FFFCF8"/>
<stop offset="0.1875" stop-color="#FAF8F6"/>
<stop offset="0.4041" stop-color="#ECEEF2"/>
<stop offset="0.6353" stop-color="#D5DCEA"/>
<stop offset="0.875" stop-color="#B5C4DF"/>
<stop offset="1" stop-color="#A1B5D8"/>
</linearGradient>
<linearGradient id="paint13_linear" x1="43.178" y1="22.7136" x2="35.3329" y2="14.8685" gradientUnits="userSpaceOnUse">
<stop stop-color="#0538FB" stop-opacity="0"/>
<stop offset="1" stop-color="#0538FB"/>
</linearGradient>
<radialGradient id="paint14_radial" cx="0" cy="0" r="1" gradientUnits="userSpaceOnUse" gradientTransform="translate(36.0057 14.5859) scale(4.78664)">
<stop stop-color="#FFFCF8"/>
<stop offset="0.2239" stop-color="#FBF9F7"/>
<stop offset="0.4254" stop-color="#F0F1F3"/>
<stop offset="0.6183" stop-color="#DEE3ED"/>
<stop offset="0.8059" stop-color="#C4D0E4"/>
<stop offset="0.9882" stop-color="#A3B7D9"/>
<stop offset="1" stop-color="#A1B5D8"/>
</radialGradient>
<linearGradient id="paint15_linear" x1="88.8322" y1="68.3158" x2="82.0403" y2="61.5239" gradientUnits="userSpaceOnUse">
<stop stop-color="#131830" stop-opacity="0"/>
<stop offset="1" stop-color="#131830"/>
</linearGradient>
<radialGradient id="paint16_radial" cx="0" cy="0" r="1" gradientUnits="userSpaceOnUse" gradientTransform="translate(82.5573 61.0861) scale(4.78664)">
<stop stop-color="#FFFCF8"/>
<stop offset="0.2239" stop-color="#FBF9F7"/>
<stop offset="0.4254" stop-color="#F0F1F3"/>
<stop offset="0.6183" stop-color="#DEE3ED"/>
<stop offset="0.8059" stop-color="#C4D0E4"/>
<stop offset="0.9882" stop-color="#A3B7D9"/>
<stop offset="1" stop-color="#A1B5D8"/>
</radialGradient>
<linearGradient id="paint17_linear" x1="60.6752" y1="46.4557" x2="63.2946" y2="16.8015" gradientUnits="userSpaceOnUse">
<stop stop-color="white"/>
<stop offset="1" stop-color="#C2D1F8"/>
</linearGradient>
<radialGradient id="paint18_radial" cx="0" cy="0" r="1" gradientUnits="userSpaceOnUse" gradientTransform="translate(75.4156 50.0444) scale(9.962)">
<stop stop-color="#37D9FC"/>
<stop offset="1" stop-color="#0538FB"/>
</radialGradient>
<linearGradient id="paint19_linear" x1="75.88" y1="48.8628" x2="75.88" y2="65.9545" gradientUnits="userSpaceOnUse">
<stop stop-color="#0538FB" stop-opacity="0"/>
<stop offset="1" stop-color="#0538FB"/>
</linearGradient>
<linearGradient id="paint20_linear" x1="75.88" y1="52.6884" x2="75.88" y2="35.4166" gradientUnits="userSpaceOnUse">
<stop offset="0.4671" stop-color="#0538FB" stop-opacity="0.466667"/>
<stop offset="1" stop-color="#0538FB"/>
</linearGradient>
<linearGradient id="paint21_linear" x1="75.88" y1="50.663" x2="75.88" y2="56.1868" gradientUnits="userSpaceOnUse">
<stop stop-color="#0538FB" stop-opacity="0"/>
<stop offset="1" stop-color="#0538FB"/>
</linearGradient>
<linearGradient id="paint22_linear" x1="75.88" y1="52.4634" x2="75.88" y2="43.0571" gradientUnits="userSpaceOnUse">
<stop stop-color="#0538FB" stop-opacity="0"/>
<stop offset="1" stop-color="#0538FB"/>
</linearGradient>
<radialGradient id="paint23_radial" cx="0" cy="0" r="1" gradientUnits="userSpaceOnUse" gradientTransform="translate(72.3212 47.7939) scale(22.1143)">
<stop stop-color="#37D9FC"/>
<stop offset="1" stop-color="#0538FB"/>
</radialGradient>
<radialGradient id="paint24_radial" cx="0" cy="0" r="1" gradientUnits="userSpaceOnUse" gradientTransform="translate(75.1195 50.374) scale(8.37561)">
<stop stop-color="#FFFCF8"/>
<stop offset="0.9485" stop-color="#FFFCF8" stop-opacity="0.05098"/>
<stop offset="1" stop-color="#FFFCF8" stop-opacity="0"/>
</radialGradient>
<radialGradient id="paint25_radial" cx="0" cy="0" r="1" gradientUnits="userSpaceOnUse" gradientTransform="translate(75.7367 49.4791) scale(10.0102 10.9222)">
<stop stop-color="#37D9FC"/>
<stop offset="1" stop-color="#0538FB"/>
</radialGradient>
<radialGradient id="paint26_radial" cx="0" cy="0" r="1" gradientUnits="userSpaceOnUse" gradientTransform="translate(73.1781 47.9736) scale(21.8313)">
<stop stop-color="#37D9FC"/>
<stop offset="1" stop-color="#0538FB"/>
</radialGradient>
<linearGradient id="paint27_linear" x1="78.7349" y1="52.2495" x2="72.2459" y2="50.7491" gradientUnits="userSpaceOnUse">
<stop stop-color="#0538FB" stop-opacity="0"/>
<stop offset="1" stop-color="#0538FB"/>
</linearGradient>
<radialGradient id="paint28_radial" cx="0" cy="0" r="1" gradientUnits="userSpaceOnUse" gradientTransform="translate(57.0168 52.0232) scale(7.9696)">
<stop stop-color="#37D9FC"/>
<stop offset="1" stop-color="#0538FB"/>
</radialGradient>
<linearGradient id="paint29_linear" x1="57.3885" y1="51.0779" x2="57.3885" y2="64.7513" gradientUnits="userSpaceOnUse">
<stop stop-color="#0538FB" stop-opacity="0"/>
<stop offset="1" stop-color="#0538FB"/>
</linearGradient>
<linearGradient id="paint30_linear" x1="57.3885" y1="54.1385" x2="57.3885" y2="40.321" gradientUnits="userSpaceOnUse">
<stop offset="0.4671" stop-color="#0538FB" stop-opacity="0.466667"/>
<stop offset="1" stop-color="#0538FB"/>
</linearGradient>
<linearGradient id="paint31_linear" x1="57.3885" y1="52.5182" x2="57.3885" y2="56.9373" gradientUnits="userSpaceOnUse">
<stop stop-color="#0538FB" stop-opacity="0"/>
<stop offset="1" stop-color="#0538FB"/>
</linearGradient>
<linearGradient id="paint32_linear" x1="57.3885" y1="53.9585" x2="57.3885" y2="46.4335" gradientUnits="userSpaceOnUse">
<stop stop-color="#0538FB" stop-opacity="0"/>
<stop offset="1" stop-color="#0538FB"/>
</linearGradient>
<radialGradient id="paint33_radial" cx="0" cy="0" r="1" gradientUnits="userSpaceOnUse" gradientTransform="translate(54.5415 50.2229) scale(17.6914)">
<stop stop-color="#37D9FC"/>
<stop offset="1" stop-color="#0538FB"/>
</radialGradient>
<radialGradient id="paint34_radial" cx="0" cy="0" r="1" gradientUnits="userSpaceOnUse" gradientTransform="translate(56.7805 52.287) scale(6.70049)">
<stop stop-color="#FFFCF8"/>
<stop offset="0.9485" stop-color="#FFFCF8" stop-opacity="0.05098"/>
<stop offset="1" stop-color="#FFFCF8" stop-opacity="0"/>
</radialGradient>
<radialGradient id="paint35_radial" cx="0" cy="0" r="1" gradientUnits="userSpaceOnUse" gradientTransform="translate(57.2741 51.571) scale(8.00817 8.73777)">
<stop stop-color="#37D9FC"/>
<stop offset="1" stop-color="#0538FB"/>
</radialGradient>
<radialGradient id="paint36_radial" cx="0" cy="0" r="1" gradientUnits="userSpaceOnUse" gradientTransform="translate(55.2267 50.3667) scale(17.4651)">
<stop stop-color="#37D9FC"/>
<stop offset="1" stop-color="#0538FB"/>
</radialGradient>
<linearGradient id="paint37_linear" x1="59.6722" y1="53.7874" x2="54.481" y2="52.5871" gradientUnits="userSpaceOnUse">
<stop stop-color="#0538FB" stop-opacity="0"/>
<stop offset="1" stop-color="#0538FB"/>
</linearGradient>
<radialGradient id="paint38_radial" cx="0" cy="0" r="1" gradientUnits="userSpaceOnUse" gradientTransform="translate(42.4438 54.0021) scale(5.9772)">
<stop stop-color="#37D9FC"/>
<stop offset="1" stop-color="#0538FB"/>
</radialGradient>
<linearGradient id="paint39_linear" x1="42.7226" y1="53.293" x2="42.7226" y2="63.548" gradientUnits="userSpaceOnUse">
<stop stop-color="#0538FB" stop-opacity="0"/>
<stop offset="1" stop-color="#0538FB"/>
</linearGradient>
<linearGradient id="paint40_linear" x1="42.7226" y1="55.5885" x2="42.7226" y2="45.2253" gradientUnits="userSpaceOnUse">
<stop offset="0.4671" stop-color="#0538FB" stop-opacity="0.466667"/>
<stop offset="1" stop-color="#0538FB"/>
</linearGradient>
<linearGradient id="paint41_linear" x1="42.7226" y1="54.3732" x2="42.7226" y2="57.6875" gradientUnits="userSpaceOnUse">
<stop stop-color="#0538FB" stop-opacity="0"/>
<stop offset="1" stop-color="#0538FB"/>
</linearGradient>
<linearGradient id="paint42_linear" x1="42.7226" y1="55.4535" x2="42.7226" y2="49.8098" gradientUnits="userSpaceOnUse">
<stop stop-color="#0538FB" stop-opacity="0"/>
<stop offset="1" stop-color="#0538FB"/>
</linearGradient>
<radialGradient id="paint43_radial" cx="0" cy="0" r="1" gradientUnits="userSpaceOnUse" gradientTransform="translate(40.5873 52.652) scale(13.2686)">
<stop stop-color="#37D9FC"/>
<stop offset="1" stop-color="#0538FB"/>
</radialGradient>
<radialGradient id="paint44_radial" cx="0" cy="0" r="1" gradientUnits="userSpaceOnUse" gradientTransform="translate(42.2671 54.1999) scale(5.02537)">
<stop stop-color="#FFFCF8"/>
<stop offset="0.9485" stop-color="#FFFCF8" stop-opacity="0.05098"/>
<stop offset="1" stop-color="#FFFCF8" stop-opacity="0"/>
</radialGradient>
<radialGradient id="paint45_radial" cx="0" cy="0" r="1" gradientUnits="userSpaceOnUse" gradientTransform="translate(42.6365 53.6629) scale(6.00612 6.55333)">
<stop stop-color="#37D9FC"/>
<stop offset="1" stop-color="#0538FB"/>
</radialGradient>
<radialGradient id="paint46_radial" cx="0" cy="0" r="1" gradientUnits="userSpaceOnUse" gradientTransform="translate(41.1016 52.7597) scale(13.0988)">
<stop stop-color="#37D9FC"/>
<stop offset="1" stop-color="#0538FB"/>
</radialGradient>
<linearGradient id="paint47_linear" x1="44.4357" y1="55.3253" x2="40.5423" y2="54.4251" gradientUnits="userSpaceOnUse">
<stop stop-color="#0538FB" stop-opacity="0"/>
<stop offset="1" stop-color="#0538FB"/>
</linearGradient>
</defs>
</svg>
