<svg width="123" height="82" viewBox="0 0 123 82" fill="none" xmlns="http://www.w3.org/2000/svg">
<g opacity="0.5">
<path opacity="0.25" d="M120.862 47.8822C119.205 66.1124 106.775 81.3594 87.3851 81.5252C76.7785 81.6909 68.8235 75.5589 61.3657 68.764C55.7309 63.6264 49.7647 58.6546 42.4726 56.1686C34.3518 53.1855 26.2311 54.3456 17.7789 54.8428C1.86891 55.8372 -4.76026 38.2699 3.69193 26.1717C13.9671 11.256 34.5176 4.62687 51.4219 1.47802C83.0762 -4.48823 124.508 9.43302 120.862 47.8822Z" fill="url(#paint0_linear)"/>
<path opacity="0.49" d="M32.1973 52.5197C30.2086 52.8512 28.3856 53.3484 26.7283 54.177C32.0316 53.8456 37.3349 54.177 42.6382 56.0001C49.7646 58.6517 55.8966 63.6236 61.5314 68.5955C68.9892 75.3904 76.9442 81.5223 87.5508 81.3566C106.775 81.1909 119.205 66.1095 121.028 47.7136C122.851 27.3289 112.244 13.9049 96.9974 6.61279C89.2081 10.756 83.5733 17.7166 78.4357 25.1744C73.4638 32.4665 67.8291 39.5929 60.2055 44.5648C51.5876 50.1995 41.9753 51.0282 32.1973 52.5197Z" fill="url(#paint1_linear)"/>
<path opacity="0.5" d="M105.615 32.3011C112.663 32.3011 118.376 26.5877 118.376 19.5399C118.376 12.4922 112.663 6.77881 105.615 6.77881C98.5675 6.77881 92.8541 12.4922 92.8541 19.5399C92.8541 26.5877 98.5675 32.3011 105.615 32.3011Z" fill="url(#paint2_linear)"/>
<path opacity="0.5" d="M115.891 71.579C119.643 71.579 122.686 68.5369 122.686 64.7842C122.686 61.0314 119.643 57.9893 115.891 57.9893C112.138 57.9893 109.096 61.0314 109.096 64.7842C109.096 68.5369 112.138 71.579 115.891 71.579Z" fill="url(#paint3_linear)"/>
<path opacity="0.5" d="M30.5401 67.4356C39.4185 67.4356 46.6158 60.2383 46.6158 51.3599C46.6158 42.4815 39.4185 35.2842 30.5401 35.2842C21.6617 35.2842 14.4644 42.4815 14.4644 51.3599C14.4644 60.2383 21.6617 67.4356 30.5401 67.4356Z" fill="url(#paint4_linear)"/>
<path opacity="0.25" d="M74.6242 46.8853C85.2309 59.1493 103.295 44.7308 118.045 27.6607C109.759 8.27043 86.0595 -0.347487 63.6861 0.149701C53.5766 14.8996 56.7255 26.0034 74.6242 46.8853Z" fill="url(#paint5_linear)"/>
<path opacity="0.49" d="M92.8542 81.0256C92.5228 66.6072 80.756 55.1719 66.3376 55.1719C60.537 55.1719 55.068 56.9949 50.759 60.3095C54.5708 62.7954 58.0511 65.7785 61.3657 68.7617C68.8235 75.5566 76.7785 81.6885 87.3851 81.5228C89.3739 81.5228 91.1969 81.3571 92.8542 81.0256Z" fill="url(#paint6_linear)"/>
</g>
<path d="M61.904 73.8873C80.0894 73.8873 94.8317 59.1451 94.8317 40.9597C94.8317 22.7742 80.0894 8.03198 61.904 8.03198C43.7185 8.03198 28.9763 22.7742 28.9763 40.9597C28.9763 59.1451 43.7185 73.8873 61.904 73.8873Z" fill="url(#paint7_linear)"/>
<path d="M85.089 23.6404C83.9591 22.8104 82.7611 22.0493 81.5056 21.3579C80.8142 20.1024 80.053 18.9042 79.223 17.7744C74.614 11.5 68.4631 8.04456 61.9038 8.04456C55.3445 8.04456 49.1937 11.5 44.5846 17.7744C43.7546 18.9042 42.9934 20.1023 42.302 21.3579C41.0465 22.0493 39.8484 22.8105 38.7184 23.6405C32.4442 28.2495 28.9888 34.4002 28.9888 40.9596C28.9888 47.5189 32.4442 53.6697 38.7186 58.2787C39.8484 59.1088 41.0465 59.87 42.3021 60.5613C42.9935 61.8169 43.7547 63.0149 44.5847 64.1449C49.1938 70.4192 55.3446 73.8747 61.9039 73.8747C68.4632 73.8747 74.6141 70.4192 79.2231 64.1449C80.0531 63.015 80.8143 61.817 81.5057 60.5613C82.7612 59.87 83.9593 59.1088 85.0891 58.2789C91.3635 53.6698 94.8189 47.519 94.8189 40.9597C94.8189 34.4004 91.3633 28.2495 85.089 23.6404ZM61.9038 72.3251C60.0961 72.3251 58.1801 69.6323 56.6654 65.0377C58.3823 65.2397 60.1321 65.3444 61.9038 65.3444C63.6754 65.3444 65.4254 65.2398 67.1423 65.0377C65.6275 69.6323 63.7114 72.3251 61.9038 72.3251ZM61.9038 63.7947C59.9453 63.7947 58.0288 63.6621 56.1687 63.4108C55.1364 59.7609 54.387 55.3794 53.9581 50.5958C56.5259 50.7794 59.1898 50.8739 61.9038 50.8739C64.6178 50.8739 67.2817 50.7792 69.8494 50.5958C69.4206 55.3794 68.6711 59.7608 67.6389 63.4108C65.7789 63.6621 63.8623 63.7947 61.9038 63.7947ZM61.9038 9.59409C63.7114 9.59409 65.6275 12.2868 67.1423 16.8814C65.4254 16.6795 63.6754 16.5748 61.9038 16.5748C60.1321 16.5748 58.3822 16.6795 56.6654 16.8814C58.1801 12.2868 60.0961 9.59409 61.9038 9.59409ZM61.9038 18.1244C63.8623 18.1244 65.7789 18.257 67.6389 18.5083C68.6711 22.1584 69.4206 26.5397 69.8494 31.3234C67.2817 31.1398 64.6177 31.0452 61.9038 31.0452C59.1898 31.0452 56.5259 31.1399 53.9581 31.3234C54.387 26.5397 55.1364 22.1583 56.1687 18.5083C58.0288 18.257 59.9453 18.1244 61.9038 18.1244ZM53.5389 40.9596C53.5389 38.1967 53.6384 35.4894 53.8304 32.8864C56.4335 32.6943 59.141 32.5948 61.9038 32.5948C64.6666 32.5948 67.374 32.6943 69.9771 32.8864C70.1691 35.4894 70.2687 38.1969 70.2687 40.9596C70.2687 43.7224 70.1691 46.4297 69.9771 49.0328C67.374 49.2248 64.6666 49.3244 61.9038 49.3244C59.141 49.3244 56.4337 49.2248 53.8304 49.0328C53.6384 46.4297 53.5389 43.7224 53.5389 40.9596ZM52.2676 48.9052C47.4839 48.4764 43.1025 47.7269 39.4525 46.6947C39.2013 44.8346 39.0686 42.9181 39.0686 40.9596C39.0686 39.0011 39.2013 37.0846 39.4525 35.2245C43.1025 34.1922 47.4839 33.4428 52.2676 33.0139C52.084 35.5816 51.9895 38.2456 51.9895 40.9596C51.9893 43.6736 52.084 46.3375 52.2676 48.9052ZM71.5401 33.0139C76.3238 33.4428 80.7051 34.1922 84.3552 35.2245C84.6064 37.0846 84.7391 39.0011 84.7391 40.9596C84.7391 42.9181 84.6064 44.8346 84.3552 46.6947C80.7051 47.7269 76.3238 48.4764 71.5401 48.9052C71.7237 46.3375 71.8182 43.6736 71.8182 40.9596C71.8182 38.2456 71.7237 35.5816 71.5401 33.0139ZM71.4159 31.4476C71.0078 26.7588 70.2966 22.4351 69.3175 18.7706C73.3584 19.4863 77.0948 20.773 80.3568 22.5068C82.0905 25.7688 83.3773 29.5053 84.0929 33.5459C80.4284 32.5669 76.1046 31.8556 71.4159 31.4476ZM52.3917 31.4476C47.7029 31.8556 43.3792 32.5669 39.7147 33.5459C40.4303 29.5053 41.7171 25.7687 43.4507 22.5068C46.7128 20.7731 50.4492 19.4863 54.4899 18.7707C53.5111 22.435 52.7999 26.7587 52.3917 31.4476ZM37.8257 46.1979C33.231 44.6832 30.5383 42.7672 30.5383 40.9596C30.5383 39.1519 33.231 37.2359 37.8257 35.7212C37.6237 37.4381 37.519 39.1879 37.519 40.9596C37.519 42.7312 37.6237 44.4812 37.8257 46.1979ZM52.3917 50.4717C52.7997 55.1604 53.511 59.4842 54.49 63.1487C50.4493 62.4331 46.7128 61.1463 43.4509 59.4126C41.7172 56.1506 40.4304 52.4141 39.7148 48.3733C43.3792 49.3523 47.7029 50.0635 52.3917 50.4717ZM71.4159 50.4717C76.1046 50.0636 80.4284 49.3524 84.0929 48.3733C83.3773 52.414 82.0905 56.1505 80.3568 59.4125C77.0948 61.1463 73.3584 62.4329 69.3175 63.1487C70.2966 59.4842 71.0078 55.1604 71.4159 50.4717ZM85.9819 35.7212C90.5766 37.236 93.2691 39.1519 93.2691 40.9596C93.2691 42.7672 90.5766 44.6831 85.9819 46.1979C86.1839 44.4812 86.2886 42.7312 86.2886 40.9596C86.2886 39.1879 86.1839 37.438 85.9819 35.7212ZM92.9033 37.47C91.3872 36.1772 88.9839 35.0149 85.7479 34.0205C85.1844 30.4527 84.1869 27.0534 82.7908 23.94C88.0886 27.3898 91.7732 32.1269 92.9033 37.47ZM78.9235 20.0727C75.8101 18.6766 72.4108 17.6791 68.8429 17.1155C67.8485 13.8796 66.6862 11.4761 65.3933 9.96004C70.7365 11.0902 75.4737 14.7747 78.9235 20.0727ZM58.4142 9.95991C57.1214 11.476 55.9591 13.8795 54.9646 17.1154C51.3968 17.6789 47.9975 18.6764 44.8841 20.0726C48.334 14.7747 53.071 11.0902 58.4142 9.95991ZM41.0168 23.9398C39.6207 27.0532 38.6231 30.4525 38.0596 34.0204C34.8237 35.0148 32.4202 36.1771 30.9041 37.4699C32.0344 32.1269 35.7189 27.3898 41.0168 23.9398ZM30.9041 44.4491C32.4202 45.742 34.8237 46.9042 38.0596 47.8988C38.6231 51.4666 39.6207 54.8659 41.0168 57.9793C35.7189 54.5294 32.0344 49.7923 30.9041 44.4491ZM44.8841 61.8466C47.9975 63.2427 51.3968 64.2402 54.9646 64.8037C55.9591 68.0397 57.1213 70.4431 58.4142 71.9592C53.071 70.829 48.334 67.1444 44.8841 61.8466ZM65.3933 71.9592C66.6863 70.4431 67.8485 68.0397 68.8429 64.8037C72.4108 64.2402 75.8101 63.2427 78.9235 61.8466C75.4737 67.1444 70.7365 70.829 65.3933 71.9592ZM82.7908 57.9792C84.1869 54.8658 85.1844 51.4666 85.7479 47.8987C88.9839 46.9042 91.3872 45.742 92.9033 44.4491C91.7732 49.7922 88.0886 54.5294 82.7908 57.9792Z" fill="url(#paint8_linear)"/>
<path d="M61.904 70.3518C78.1368 70.3518 91.2961 57.1925 91.2961 40.9596C91.2961 24.7268 78.1368 11.5675 61.904 11.5675C45.6712 11.5675 32.5118 24.7268 32.5118 40.9596C32.5118 57.1925 45.6712 70.3518 61.904 70.3518Z" fill="url(#paint9_linear)"/>
<path d="M58.827 42.3309L60.1017 43.6055C60.568 44.0718 60.8299 44.7041 60.8299 45.3635C60.8299 46.7365 61.943 47.8496 63.316 47.8496C64.7479 47.8496 65.9088 49.0103 65.9088 50.4422C65.9088 52.3041 65.5203 54.1455 64.7682 55.8487L60.1787 66.2419C59.5505 67.6647 57.6892 68.0125 56.5894 66.9127C54.9866 65.3099 54.086 63.1359 54.086 60.869V59.6601C54.086 56.5085 52.834 53.4859 50.6055 51.2574L50.4697 51.1215C48.3724 49.0244 47.1942 46.1798 47.1942 43.2139V42.7806C47.1942 40.7232 48.862 39.0554 50.9194 39.0554C53.8852 39.0554 56.7298 40.2337 58.827 42.3309Z" fill="url(#paint10_linear)"/>
<path d="M50.5793 10.0321C42.3353 13.0519 35.6357 19.2742 31.9862 27.1922C31.5536 28.1305 31.3395 29.1549 31.3395 30.1881C31.3395 32.1127 32.104 33.9585 33.4649 35.3194L34.1379 35.9924C37.1537 39.0082 41.2441 40.7025 45.5091 40.7025C46.1462 40.7025 46.6627 40.186 46.6627 39.5488C46.6627 38.9117 46.1462 38.3952 45.5091 38.3952H41.9627C40.3271 38.3952 39.0012 37.0693 39.0012 35.4336C39.0012 33.798 40.3272 32.4721 41.9627 32.4721H44.7326C48.054 32.4721 51.2392 31.1527 53.5877 28.8042L57.8645 24.5275C58.7957 23.5962 60.0589 23.073 61.3758 23.073C63.2811 23.073 65.0184 21.9829 65.8472 20.2674C66.863 18.165 65.3312 15.7237 62.9961 15.7237H57.4781C55.8557 15.7237 54.5406 14.4085 54.5406 12.7861C54.5406 10.7387 52.5018 9.32794 50.5793 10.0321Z" fill="url(#paint11_linear)"/>
<path d="M62.996 15.7236H57.4779C55.8556 15.7236 54.5404 14.4084 54.5404 12.786C54.5404 12.6896 54.5345 12.5952 54.5257 12.5017C43.7684 15.2829 35.4007 24.0022 33.1267 34.9544C33.2354 35.0791 33.347 35.2017 33.4646 35.3194L34.1377 35.9924C37.1534 39.0082 41.2438 40.7025 45.5088 40.7025C46.1459 40.7025 46.6624 40.186 46.6624 39.5489C46.6624 38.9118 46.1459 38.3953 45.5088 38.3953H41.9624C40.3268 38.3953 39.0009 37.0692 39.0009 35.4337C39.0009 33.798 40.3269 32.4721 41.9624 32.4721H44.7324C48.0537 32.4721 51.2389 31.1527 53.5874 28.8043L57.8642 24.5275C58.7954 23.5963 60.0586 23.073 61.3756 23.073C63.2808 23.073 65.018 21.9829 65.8469 20.2675C66.8627 18.1649 65.331 15.7236 62.996 15.7236Z" fill="url(#paint12_linear)"/>
<path d="M94.0652 33.865C93.6104 31.7944 91.7591 30.3298 89.6391 30.3298H84.9973H82.5161C78.2989 30.3298 74.8801 33.7486 74.8801 37.9658V38.8949C74.8801 42.5991 77.883 45.6018 81.5872 45.6018C83.4706 45.6018 84.9973 47.1286 84.9973 49.0121V57.9173C84.9973 60.2378 88.0104 61.1623 89.3 59.233C91.98 55.2237 93.8032 50.5925 94.5076 45.6018C94.7207 44.0859 94.8317 42.535 94.8317 40.9597C94.8317 38.5235 94.567 36.1499 94.0652 33.865Z" fill="url(#paint13_linear)"/>
<path d="M91.2962 26.1008H81.4605C79.7011 26.1008 78.2749 24.6746 78.2749 22.9152C78.2749 21.1558 79.7011 19.7296 81.4605 19.7296H87.075C88.7162 21.673 90.1366 23.8101 91.2962 26.1008Z" fill="url(#paint14_linear)"/>
<path d="M76.6334 11.5046C78.8541 15.937 80.106 20.939 80.106 26.2342C80.106 44.4197 65.3639 59.1618 47.1784 59.1618C41.8832 59.1618 36.8812 57.9101 32.4489 55.6892C37.8552 66.4793 49.0135 73.8873 61.9039 73.8873C80.0894 73.8873 94.8315 59.1452 94.8315 40.9597C94.8315 28.0693 87.4233 16.911 76.6334 11.5046Z" fill="url(#paint15_linear)"/>
<defs>
<linearGradient id="paint0_linear" x1="121.154" y1="40.7933" x2="0.038925" y2="40.7933" gradientUnits="userSpaceOnUse">
<stop stop-color="#37D9FC" stop-opacity="0"/>
<stop offset="1" stop-color="#0538FB"/>
</linearGradient>
<linearGradient id="paint1_linear" x1="65.2063" y1="7.22384" x2="83.4046" y2="88.8834" gradientUnits="userSpaceOnUse">
<stop stop-color="#37D9FC" stop-opacity="0"/>
<stop offset="1" stop-color="#37D9FC"/>
</linearGradient>
<linearGradient id="paint2_linear" x1="105.569" y1="3.78989" x2="105.569" y2="32.4887" gradientUnits="userSpaceOnUse">
<stop offset="0.2479" stop-color="#0538FB" stop-opacity="0"/>
<stop offset="1" stop-color="#0538FB"/>
</linearGradient>
<linearGradient id="paint3_linear" x1="114.82" y1="50.206" x2="117.619" y2="88.4693" gradientUnits="userSpaceOnUse">
<stop stop-color="#0538FB" stop-opacity="0"/>
<stop offset="1" stop-color="#0538FB"/>
</linearGradient>
<linearGradient id="paint4_linear" x1="29.5363" y1="38.3314" x2="31.8338" y2="67.2788" gradientUnits="userSpaceOnUse">
<stop stop-color="#0538FB" stop-opacity="0"/>
<stop offset="1" stop-color="#0538FB"/>
</linearGradient>
<linearGradient id="paint5_linear" x1="86.714" y1="61.784" x2="89.0471" y2="-10.543" gradientUnits="userSpaceOnUse">
<stop stop-color="#37D9FC" stop-opacity="0"/>
<stop offset="1" stop-color="#0538FB"/>
</linearGradient>
<linearGradient id="paint6_linear" x1="97.4263" y1="88.4708" x2="57.9187" y2="52.385" gradientUnits="userSpaceOnUse">
<stop stop-color="#37D9FC" stop-opacity="0"/>
<stop offset="1" stop-color="#37D9FC"/>
</linearGradient>
<linearGradient id="paint7_linear" x1="45.9586" y1="25.0143" x2="85.8678" y2="64.9235" gradientUnits="userSpaceOnUse">
<stop stop-color="#37D9FC"/>
<stop offset="1" stop-color="#0538FB"/>
</linearGradient>
<linearGradient id="paint8_linear" x1="66.9364" y1="77.2118" x2="55.0883" y2="-8.13468" gradientUnits="userSpaceOnUse">
<stop stop-color="#37D9FC" stop-opacity="0"/>
<stop offset="1" stop-color="#37D9FC"/>
</linearGradient>
<linearGradient id="paint9_linear" x1="69.0131" y1="48.0688" x2="36.2059" y2="15.2616" gradientUnits="userSpaceOnUse">
<stop stop-color="#18CFFC" stop-opacity="0"/>
<stop offset="1" stop-color="#65E1DC"/>
</linearGradient>
<linearGradient id="paint10_linear" x1="40.9782" y1="42.6741" x2="92.8588" y2="79.4857" gradientUnits="userSpaceOnUse">
<stop stop-color="#75E6FF"/>
<stop offset="1" stop-color="#37D9FC"/>
</linearGradient>
<linearGradient id="paint11_linear" x1="51.56" y1="27.7611" x2="103.44" y2="64.5726" gradientUnits="userSpaceOnUse">
<stop stop-color="#75E6FF"/>
<stop offset="1" stop-color="#37D9FC"/>
</linearGradient>
<linearGradient id="paint12_linear" x1="53.8327" y1="30.4672" x2="39.1354" y2="15.7699" gradientUnits="userSpaceOnUse">
<stop stop-color="#75E6FF" stop-opacity="0"/>
<stop offset="1" stop-color="#37D9FC"/>
</linearGradient>
<linearGradient id="paint13_linear" x1="79.8805" y1="43.7685" x2="103.13" y2="47.8586" gradientUnits="userSpaceOnUse">
<stop stop-color="#75E6FF"/>
<stop offset="1" stop-color="#37D9FC"/>
</linearGradient>
<linearGradient id="paint14_linear" x1="83.5664" y1="22.8166" x2="106.816" y2="26.9067" gradientUnits="userSpaceOnUse">
<stop stop-color="#75E6FF"/>
<stop offset="1" stop-color="#37D9FC"/>
</linearGradient>
<linearGradient id="paint15_linear" x1="67.9581" y1="44.4461" x2="113.219" y2="-39.7324" gradientUnits="userSpaceOnUse">
<stop stop-color="#0538FB" stop-opacity="0"/>
<stop offset="1" stop-color="#0538FB"/>
</linearGradient>
</defs>
</svg>
