<svg width="95" height="63" viewBox="0 0 95 63" fill="none" xmlns="http://www.w3.org/2000/svg">
    <g opacity="0.5">
        <path opacity="0.25" d="M2.26506 26.5456C3.52334 12.7045 12.9605 1.12832 27.6824 1.00249C35.7354 0.876665 41.7751 5.53231 47.4373 10.6913C51.7155 14.5919 56.2453 18.3668 61.7817 20.2542C67.9473 22.5191 74.1129 21.6383 80.5302 21.2608C92.6097 20.5058 97.6428 33.8436 91.2256 43.0291C83.4242 54.3536 67.8215 59.3867 54.987 61.7775C30.9539 66.4331 -0.377335 55.7377 2.26506 26.5456Z" fill="url(#paint0_linear)"/>
        <path opacity="0.49" d="M69.5831 23.0223C71.093 22.7707 72.4771 22.3932 73.7354 21.764C69.7089 22.0157 65.6824 21.764 61.6559 20.3799C56.2453 18.3667 51.5896 14.5918 47.3115 10.817C41.6492 5.65804 35.6095 1.0024 27.5565 1.12823C12.9604 1.25405 3.5233 12.7044 2.26502 26.5455C0.880911 42.0224 8.93391 52.2145 20.5101 57.7509C26.424 54.6052 30.7022 49.3204 34.6029 43.6581C38.3777 38.1217 42.6559 32.7111 48.444 28.9362C54.8612 24.9097 62.1592 24.2806 69.5831 23.0223Z" fill="url(#paint1_linear)"/>
        <path opacity="0.5" d="M13.212 61.2743C20.5087 61.2743 26.4239 55.3591 26.4239 48.0623C26.4239 40.7655 20.5087 34.8503 13.212 34.8503C5.91519 34.8503 0 40.7655 0 48.0623C0 55.3591 5.91519 61.2743 13.212 61.2743Z" fill="url(#paint2_linear)"/>
        <path opacity="0.5" d="M68.9538 40.3867C79.2388 40.3867 87.5764 32.0491 87.5764 21.7642C87.5764 11.4792 79.2388 3.1416 68.9538 3.1416C58.6689 3.1416 50.3313 11.4792 50.3313 21.7642C50.3313 32.0491 58.6689 40.3867 68.9538 40.3867Z" fill="url(#paint3_linear)"/>
        <path opacity="0.25" d="M37.3708 27.4263C29.3178 18.115 15.6025 29.062 4.40381 42.0223C10.6952 56.7442 28.6886 63.2873 45.6754 62.9098C53.351 51.5853 50.9602 43.2806 37.3708 27.4263Z" fill="url(#paint4_linear)"/>
        <path opacity="0.49" d="M23.5298 1.37998C23.7814 12.327 32.7152 21.0092 43.6623 21.0092C48.0663 21.0092 52.2186 19.6251 55.4901 17.1085C52.5961 15.2211 49.9537 12.9562 47.4371 10.6913C41.7749 5.53231 35.7351 0.876665 27.6821 1.00249C26.1722 1.12832 24.9139 1.25415 23.5298 1.37998Z" fill="url(#paint5_linear)"/>
    </g>
    <path opacity="0.5" d="M6.92051 23.0224C10.1867 23.0224 12.8344 20.3747 12.8344 17.1085C12.8344 13.8423 10.1867 11.1946 6.92051 11.1946C3.65434 11.1946 1.00659 13.8423 1.00659 17.1085C1.00659 20.3747 3.65434 23.0224 6.92051 23.0224Z" fill="url(#paint6_linear)"/>
    <path d="M46.9517 63L45.2117 62.4012C36.1364 59.278 24.2745 50.4335 20.7072 35.7833C16.834 19.875 18.235 10.8569 18.2969 10.4809L18.8374 7.17088L22.0588 6.22507C22.1785 6.19035 25.0687 5.3447 33.135 3.26877C41.7216 1.0588 45.7309 0.245973 45.8972 0.212307L46.9517 0L48.0062 0.212096C48.1733 0.245762 52.1836 1.05859 60.7683 3.26856C68.8353 5.34449 71.7256 6.19014 71.8445 6.22486L75.0678 7.17067L75.6085 10.4807C75.6703 10.8567 77.0697 19.8748 73.1965 35.7833C69.6293 50.4335 57.7671 59.2791 48.6921 62.4012L46.9517 63Z" fill="url(#paint7_linear)"/>
    <path d="M46.9517 59.71L46.2274 59.4602C37.8948 56.5927 27.0041 48.4798 23.7346 35.0485C20.0089 19.7469 21.3127 11.3322 21.3707 10.9813L21.5955 9.60244L22.9387 9.20792C23.0557 9.1732 25.8965 8.34312 33.9133 6.2796C42.4187 4.08983 46.349 3.29447 46.5121 3.26059L46.9515 3.17285L47.3909 3.26059C47.554 3.29447 51.4854 4.08983 59.9919 6.2796C68.0076 8.34291 70.8486 9.17299 70.9654 9.20792L72.3086 9.60244L72.5334 10.9813C72.5914 11.3322 73.8951 19.7469 70.1697 35.0487C66.8998 48.48 56.0093 56.5938 47.6766 59.4604L46.9517 59.71Z" fill="url(#paint8_radial)"/>
    <path d="M46.9517 5.43994C46.9517 5.43994 50.8898 6.23173 59.4357 8.43096C67.5085 10.5088 70.3378 11.3391 70.3378 11.3391C70.3378 11.3391 71.6694 19.4837 68.0075 34.5243C65.0518 46.6674 55.3575 54.4679 46.9515 57.3604C38.5463 54.4679 28.8523 46.6674 25.8964 34.5243C22.2348 19.4835 23.5664 11.3389 23.5664 11.3389C23.5664 11.3389 26.3959 10.5086 34.4685 8.43075C43.0146 6.23152 46.9517 5.43994 46.9517 5.43994Z" fill="url(#paint9_linear)"/>
    <path d="M54.4999 24.9405H53.4391C53.4391 20.2345 50.6131 17.5242 46.719 17.5242C42.8248 17.5242 39.999 20.2345 39.999 24.9405H38.9378C37.3753 24.9405 36.7795 25.5056 36.7795 27.0662V36.9545C36.7795 38.515 37.3753 39.9999 38.9378 39.9999H54.4998C56.0624 39.9999 56.9517 38.5149 56.9517 36.9545V27.0662C56.9517 25.5056 56.0626 24.9405 54.4999 24.9405ZM48.4873 36.988H44.9506L45.63 32.0461C44.9346 31.6566 44.4646 30.8184 44.4646 29.966C44.4646 28.7105 45.4834 27.6441 46.7412 27.6441C47.9987 27.6441 49.0178 28.638 49.0178 29.8936C49.0178 30.7625 48.5292 31.6982 47.8111 32.0811L48.4873 36.988ZM42.1212 24.9405C42.1212 20.611 44.4303 19.643 46.719 19.643C49.0076 19.643 51.3171 20.611 51.3171 24.9405H42.1212Z" fill="white"/>
    <defs>
        <linearGradient id="paint0_linear" x1="2.0743" y1="31.9846" x2="94.0298" y2="31.9846" gradientUnits="userSpaceOnUse">
            <stop stop-color="#37D9FC" stop-opacity="0"/>
            <stop offset="1" stop-color="#0538FB"/>
        </linearGradient>
        <linearGradient id="paint1_linear" x1="36.6726" y1="-43.7886" x2="38.7982" y2="74.5413" gradientUnits="userSpaceOnUse">
            <stop stop-color="#37D9FC" stop-opacity="0"/>
            <stop offset="1" stop-color="#37D9FC"/>
        </linearGradient>
        <linearGradient id="paint2_linear" x1="13.2496" y1="64.3335" x2="13.2496" y2="34.5638" gradientUnits="userSpaceOnUse">
            <stop stop-color="#0538FB" stop-opacity="0"/>
            <stop offset="1" stop-color="#0538FB"/>
        </linearGradient>
        <linearGradient id="paint3_linear" x1="69.0062" y1="7.25077" x2="69.0062" y2="31.4405" gradientUnits="userSpaceOnUse">
            <stop stop-color="#0538FB" stop-opacity="0"/>
            <stop offset="1" stop-color="#0538FB"/>
        </linearGradient>
        <linearGradient id="paint4_linear" x1="28.2226" y1="16.0456" x2="26.4512" y2="70.9591" gradientUnits="userSpaceOnUse">
            <stop stop-color="#37D9FC" stop-opacity="0"/>
            <stop offset="1" stop-color="#0538FB"/>
        </linearGradient>
        <linearGradient id="paint5_linear" x1="20.0891" y1="-4.21585" x2="50.0849" y2="23.182" gradientUnits="userSpaceOnUse">
            <stop stop-color="#37D9FC" stop-opacity="0"/>
            <stop offset="1" stop-color="#37D9FC"/>
        </linearGradient>
        <linearGradient id="paint6_linear" x1="6.96895" y1="12.1793" x2="6.73277" y2="25.4059" gradientUnits="userSpaceOnUse">
            <stop stop-color="#0538FB" stop-opacity="0"/>
            <stop offset="1" stop-color="#0538FB"/>
        </linearGradient>
        <linearGradient id="paint7_linear" x1="46.388" y1="8.19038" x2="46.388" y2="63.0029" gradientUnits="userSpaceOnUse">
            <stop stop-color="#37D9FC"/>
            <stop offset="1" stop-color="#0538FB"/>
        </linearGradient>
        <radialGradient id="paint8_radial" cx="0" cy="0" r="1" gradientUnits="userSpaceOnUse" gradientTransform="translate(42.3224 14.1427) scale(40.4562 44.2434)">
            <stop stop-color="#37D9FC"/>
            <stop offset="0.828125" stop-color="#0538FB"/>
        </radialGradient>
        <linearGradient id="paint9_linear" x1="46.5444" y1="5.70881" x2="46.4917" y2="57.3628" gradientUnits="userSpaceOnUse">
            <stop stop-color="#0538FB"/>
            <stop offset="1" stop-color="#37D9FC"/>
        </linearGradient>
    </defs>
</svg>
