<svg width="100%" height="823" viewBox="0 0 1280 823" fill="none" preserveAspectRatio="none" xmlns="http://www.w3.org/2000/svg">
<mask id="mask0" mask-type="alpha" maskUnits="userSpaceOnUse" x="0" y="0" width="100%" height="823">
<rect width="100%" height="823" fill="#C4C4C4"/>
</mask>
<g mask="url(#mask0)">
<path fill-rule="evenodd" clip-rule="evenodd" d="M2047 400.595L2045.93 399.669C1778.7 168.399 1477.62 -92.1614 818 90.0953C157.5 272.595 -80 248.595 -344.5 90.0953V823L-109 823H1811L2047 823V400.595Z" fill="#F6F6F6"/>
<path fill-rule="evenodd" clip-rule="evenodd" d="M2047 400.595L2045.93 399.669C1778.7 168.399 1477.62 -92.1614 818 90.0953C157.5 272.595 -80 248.595 -344.5 90.0953V823L-109 823H1811L2047 823V400.595Z" fill="url(#paint0_linear)"/>
<path d="M818 90.0952C1478.5 -92.4048 1779.5 22.5952 2047 254.095V823H-344.5V17.0952C-80 175.595 157.5 272.595 818 90.0952Z" fill="url(#paint1_linear)" fill-opacity="0.9"/>
<path d="M802.579 872.249C85.8754 1070.26 -240.738 945.485 -531 694.312V-197H2064V951.452C1776.99 779.483 1519.28 674.24 802.579 872.249Z" fill="url(#paint2_linear)" fill-opacity="0.1"/>
<path d="M-563.839 346.909L-565 345.905V-386H2030V682.582C1742.99 510.719 1485.28 484.696 768.579 682.582C52.831 880.203 -273.866 597.677 -563.839 346.909Z" fill="url(#paint3_linear)" fill-opacity="0.05"/>
<path d="M-460.93 234.926L-462 234V-441H1929.5V544.5C1665 386 1427.5 362 767 544.5C107.381 726.757 -193.697 466.197 -460.93 234.926Z" fill="url(#paint4_linear)" fill-opacity="0.1"/>
</g>
<defs>
<linearGradient id="paint0_linear" x1="1789.5" y1="153.47" x2="-142.197" y2="1146.51" gradientUnits="userSpaceOnUse">
<stop stop-color="#37D9FC"/>
<stop offset="1" stop-color="#0239FC"/>
</linearGradient>
<linearGradient id="paint1_linear" x1="1801" y1="20.5922" x2="-264.502" y2="1075.59" gradientUnits="userSpaceOnUse">
<stop stop-color="#37D9FC"/>
<stop offset="1" stop-color="#0538FB"/>
</linearGradient>
<linearGradient id="paint2_linear" x1="-264.067" y1="947.655" x2="1977.1" y2="-197.188" gradientUnits="userSpaceOnUse">
<stop stop-color="white"/>
<stop offset="1" stop-color="white"/>
</linearGradient>
<linearGradient id="paint3_linear" x1="-285.589" y1="598.548" x2="1898.15" y2="-410.521" gradientUnits="userSpaceOnUse">
<stop stop-color="white"/>
<stop offset="1" stop-color="white" stop-opacity="0"/>
</linearGradient>
<linearGradient id="paint4_linear" x1="-204.5" y1="467" x2="1808.5" y2="-462.5" gradientUnits="userSpaceOnUse">
<stop stop-color="white"/>
<stop offset="1" stop-color="white" stop-opacity="0"/>
</linearGradient>
</defs>
</svg>
