<svg width="104" height="104" viewBox="0 0 104 104" fill="none" xmlns="http://www.w3.org/2000/svg">
<path d="M91.9661 85.2674C98.2501 77.7174 102.268 68.5414 103.553 58.8024C104.838 49.0644 103.339 39.1604 99.2291 30.2384C95.1181 21.3164 88.5631 13.7414 80.3251 8.39142C72.0881 3.04042 62.5031 0.132418 52.6801 0.00441752C42.8571 -0.123582 33.1992 2.53242 24.8241 7.66642C16.4491 12.8004 9.69915 20.2014 5.35715 29.0134C1.01415 37.8244 -0.743854 47.6854 0.287146 57.4554C1.31715 67.2244 5.09415 76.5014 11.1791 84.2134L11.2861 84.3774C11.8521 82.5004 13.3741 81.3304 14.5331 79.9024C16.8091 78.1464 19.4361 77.2364 22.1581 76.5014C24.3811 75.9024 26.6441 75.4394 28.7991 74.6384C29.9171 74.2304 31.1021 74.0124 32.0991 73.3054C33.5811 72.8834 34.9821 72.2434 36.3701 71.5364C37.0031 71.2094 37.3401 70.7204 37.5421 70.0534C37.9191 68.8294 38.1211 67.5654 38.5121 66.3404C38.6331 65.7144 39.0641 65.7554 39.5631 65.7694C40.0621 65.7824 40.5601 66.3544 41.0721 65.8094C42.0421 62.9944 41.2471 60.4914 39.7651 58.0964C39.7381 58.0154 39.7241 57.9344 39.7111 57.8524C39.6981 57.0224 39.1861 56.4104 38.8761 55.7034C38.6201 54.8334 38.2831 53.9894 38.0951 53.1044C37.9731 52.5464 37.6781 52.1794 37.1381 51.9754C36.4781 51.7454 36.1681 51.3094 36.0201 50.5474C35.8051 49.4044 35.4271 48.2764 34.8081 47.2554C34.4171 46.0584 34.0671 44.8474 33.7301 43.6234C33.4881 42.7524 33.5151 41.8824 33.6361 41.0114C33.7441 40.1684 34.0941 39.4744 34.9431 39.1754C35.6161 38.9444 35.8051 38.4674 35.7521 37.7604C35.6441 36.4814 35.6441 35.1894 35.2801 33.9374C35.2801 32.4554 34.8891 30.9854 35.1991 29.5024C35.2401 29.4204 35.2931 29.3394 35.3611 29.2714C35.4151 29.2304 35.4561 29.2174 35.5091 29.1894C35.3071 27.3664 36.0211 25.9384 37.3271 24.7004C38.0281 24.0334 38.7151 23.3124 39.1861 22.4284C39.4291 21.9664 39.7791 21.5854 40.2241 21.2994C40.2241 21.2584 40.2101 21.2174 40.1971 21.1904C44.1171 17.8034 48.6031 16.6744 53.6551 17.6944C56.0791 18.1844 58.4911 18.7554 60.7141 19.8984C63.3411 21.2454 65.4291 23.2174 66.9371 25.7894C67.7191 27.1224 67.8801 28.6454 68.0421 30.1424C68.1221 30.7824 68.1771 31.4074 68.2301 32.0334C68.2561 32.0744 68.2561 32.1154 68.2301 32.1564C68.2701 32.2104 68.2841 32.2784 68.2561 32.3464C68.1351 34.4274 68.0141 36.5094 67.8791 38.5764C67.8391 39.1074 67.9471 39.4334 68.5391 39.5834C69.1721 39.7464 69.4821 40.3044 69.5101 40.9574C69.5231 41.4344 69.4961 41.8964 69.4691 42.3724C69.5101 42.3994 69.5501 42.4264 69.5901 42.4544C69.6451 42.5224 69.6851 42.5904 69.7111 42.6854C69.7381 42.9164 69.6711 43.1344 69.6851 43.3524C69.6451 44.4674 69.1201 45.4474 68.9031 46.5084C68.2041 47.9644 67.7581 49.5144 67.3011 51.0514C67.1531 51.5684 66.7751 51.8944 66.3031 51.9074C65.5221 51.9344 65.2522 52.4384 65.0911 53.0234C64.3772 55.6484 63.5021 58.2064 62.3031 60.6554C61.2791 61.4574 61.4401 62.5994 61.4941 63.6754C61.5211 64.1644 61.6561 64.6544 61.7231 65.1444C61.8181 65.8104 62.1681 66.0154 62.8011 65.8784C63.1111 65.8234 63.4341 65.6614 63.7581 65.8234C64.1081 65.9194 64.1751 66.1904 64.2421 66.5044C64.3631 67.0624 64.3631 67.6334 64.5651 68.1774C64.7122 68.7084 64.8751 69.2524 64.9961 69.7964C65.0911 70.2184 65.3071 70.4624 65.6421 70.6404C65.8981 70.8574 66.2081 71.0214 66.4921 71.2104C66.9631 71.8234 67.5831 72.1904 68.3241 72.3804C68.5941 72.4484 68.8082 72.6254 69.0641 72.6934C69.4011 73.1014 69.8861 73.2234 70.3841 73.3054C71.8121 74.1894 73.4151 74.6384 74.9371 75.2644C75.5031 75.7264 76.1231 75.9854 76.8641 75.9444C78.9261 76.5704 81.0001 77.1414 83.0881 77.6184C83.7621 77.7664 84.3541 78.1214 84.9611 78.4074C87.0621 79.4134 88.9751 80.7194 90.4161 82.5834C91.0251 83.3624 91.5591 84.1964 92.0021 85.0814L91.9661 85.2674Z" fill="white"/>
<circle cx="52" cy="52" r="51.5" stroke="white"/>
<mask id="mask0" mask-type="alpha" maskUnits="userSpaceOnUse" x="10" y="16" width="84" height="73">
<path d="M12.0133 87.5333C11.3937 87.5333 11.232 87.3836 11.2724 86.7715C11.3263 85.9689 11.2859 85.1799 11.2859 84.3773C11.8517 82.5001 13.3739 81.3302 14.5324 79.9019C16.809 78.1471 19.4358 77.2357 22.1569 76.5012C24.3796 75.9026 26.6427 75.4401 28.798 74.6375C29.9161 74.2294 31.1016 74.0118 32.0984 73.3044C33.5802 72.8827 34.9812 72.2434 36.3687 71.536C37.0018 71.2096 37.3386 70.7198 37.5406 70.0533C37.9178 68.829 38.1199 67.5639 38.5105 66.3396C38.6318 65.7139 39.0629 65.7547 39.5613 65.7683C40.0597 65.7819 40.5581 66.3533 41.07 65.8091C42.0399 62.9933 41.2451 60.4903 39.7633 58.0962C39.7364 58.0146 39.7229 57.9329 39.7095 57.8513C39.696 57.0215 39.1841 56.4094 38.8743 55.702C38.6183 54.8314 38.2815 53.9881 38.0929 53.1039C37.9717 52.5461 37.6754 52.1788 37.1365 51.9748C36.4764 51.7435 36.1666 51.3082 36.0184 50.5465C35.8029 49.4038 35.4257 48.2748 34.8061 47.2545C34.4154 46.0575 34.0652 44.8468 33.7284 43.6225C33.4859 42.7519 33.5129 41.8813 33.6341 41.0107C33.7419 40.1673 34.0921 39.4736 34.9408 39.1743C35.6143 38.943 35.8029 38.4669 35.749 37.7596C35.6413 36.4809 35.6413 35.1886 35.2775 33.9371C35.2775 32.4544 34.8869 30.9852 35.1967 29.5025C35.2371 29.4209 35.291 29.3393 35.3584 29.2712C35.4122 29.2304 35.4527 29.2168 35.5065 29.1896C35.3045 27.3668 36.0184 25.9385 37.3251 24.7006C38.0256 24.0341 38.7126 23.3131 39.1841 22.4289C39.4266 21.9664 39.7768 21.5855 40.2213 21.2998C40.2213 21.259 40.2079 21.2182 40.1944 21.191C44.1144 17.8038 48.6002 16.6748 53.6518 17.695C56.0766 18.1847 58.4879 18.7561 60.7106 19.8987C63.3374 21.2454 65.4254 23.2179 66.9341 25.7889C67.7154 27.122 67.8771 28.6455 68.0387 30.1418C68.1195 30.7812 68.1734 31.4069 68.2273 32.0327C68.2543 32.0735 68.2543 32.1143 68.2273 32.1551C68.2677 32.2095 68.2812 32.2775 68.2542 32.3455C68.133 34.4268 68.0118 36.5081 67.8771 38.5758C67.8366 39.1063 67.9444 39.4328 68.5371 39.5824C69.1703 39.7456 69.4801 40.3034 69.507 40.9563C69.5205 41.4324 69.4936 41.8949 69.4666 42.371C69.507 42.3982 69.5475 42.4254 69.5879 42.4526C69.6417 42.5207 69.6822 42.5887 69.7091 42.6839C69.736 42.9151 69.6687 43.1328 69.6822 43.3504C69.6417 44.4659 69.1164 45.4453 68.9008 46.5064C68.2004 47.9619 67.7558 49.5126 67.2978 51.0498C67.1496 51.5667 66.7725 51.8932 66.301 51.9068C65.5197 51.934 65.2502 52.4373 65.0886 53.0222C64.3746 55.6476 63.499 58.205 62.3001 60.6536C61.2763 61.4561 61.438 62.5988 61.4919 63.6734C61.5188 64.1632 61.6535 64.6529 61.7209 65.1426C61.8152 65.8091 62.1654 66.0132 62.7985 65.8771C63.1084 65.8227 63.4317 65.6595 63.755 65.8227C64.1052 65.918 64.1726 66.19 64.2399 66.5029C64.3612 67.0606 64.3612 67.6319 64.5632 68.1761C64.7114 68.7066 64.8731 69.2507 64.9943 69.7948C65.0886 70.2165 65.3041 70.4614 65.6409 70.6382C65.8968 70.8559 66.2067 71.0191 66.4896 71.2096C66.961 71.8217 67.5807 72.189 68.3216 72.3794C68.591 72.4474 68.8065 72.6243 69.0625 72.6923C69.3993 73.1004 69.8842 73.2228 70.3826 73.3044C71.8106 74.1886 73.4136 74.6375 74.9358 75.2633C75.5016 75.7258 76.1212 75.9842 76.8621 75.9434C78.9232 76.5692 80.9977 77.1405 83.0857 77.6166C83.7592 77.7662 84.3519 78.1199 84.9581 78.4056C87.0596 79.4122 88.9725 80.7181 90.4138 82.5817C91.3299 83.7516 92.0708 85.0439 92.5961 86.445C92.7578 86.8531 92.8521 87.2204 92.4345 87.5197" stroke="white"/>
</mask>
<g mask="url(#mask0)">
<circle cx="52" cy="51.9999" r="52" fill="white"/>
</g>
<circle cx="87" cy="87" r="14" fill="#6CF089"/>
<path d="M91.6668 84.6666L85.2502 91.0833L82.3335 88.1666" stroke="white" stroke-width="2" stroke-linecap="round" stroke-linejoin="round"/>
</svg>
