<svg width="50" height="50" viewBox="0 0 50 50" fill="none" xmlns="http://www.w3.org/2000/svg">
<path fill-rule="evenodd" clip-rule="evenodd" d="M1 25C1 11.7452 11.7452 1 25 1C38.2548 1 49 11.7452 49 25C49 38.2548 38.2548 49 25 49C11.7452 49 1 38.2548 1 25Z" stroke="#EEEEEE"/>
<path fill-rule="evenodd" clip-rule="evenodd" d="M13 16.4085L22.808 15.0728L22.8123 24.5334L13.009 24.5892L13 16.4085Z" fill="#C4C4C4"/>
<path fill-rule="evenodd" clip-rule="evenodd" d="M22.8035 25.6234L22.8111 35.0923L13.0078 33.7445L13.0072 25.5599L22.8035 25.6234Z" fill="#C4C4C4"/>
<path fill-rule="evenodd" clip-rule="evenodd" d="M23.9922 14.898L36.9968 13V24.4131L23.9922 24.5163V14.898Z" fill="#C4C4C4"/>
<path fill-rule="evenodd" clip-rule="evenodd" d="M36.9999 25.7125L36.9969 37.0742L23.9922 35.2387L23.974 25.6913L36.9999 25.7125Z" fill="#C4C4C4"/>
</svg>
