<svg width="1280" height="977" viewBox="0 0 1280 977" fill="none" xmlns="http://www.w3.org/2000/svg">
<mask id="mask0" mask-type="alpha" maskUnits="userSpaceOnUse" x="0" y="0" width="1280" height="977">
<path d="M1280 0H0V977H1280V0Z" fill="#C4C4C4"/>
</mask>
<g mask="url(#mask0)">
<g opacity="0.7">
<g opacity="0.7" filter="url(#filter0_d)">
<path opacity="0.7" d="M539.386 302.536C538.924 298.142 542.112 294.206 546.506 293.744L819.971 265.002C824.365 264.54 828.301 267.728 828.763 272.122L834.94 330.887C835.401 335.281 832.214 339.218 827.82 339.68L554.355 368.422C549.961 368.884 546.024 365.696 545.563 361.302L539.386 302.536Z" fill="white"/>
</g>
<path opacity="0.7" d="M645.65 303.378L611.812 306.935L613.038 318.603L646.877 315.047L645.65 303.378Z" fill="#CEE0FF"/>
<path opacity="0.7" d="M774.003 289.888L652.651 302.643L653.877 314.311L775.229 301.557L774.003 289.888Z" fill="#CEE0FF"/>
<path opacity="0.7" d="M723.948 318.744L614.265 330.272L615.491 341.94L725.174 330.412L723.948 318.744Z" fill="#E1ECFF"/>
<path opacity="0.7" d="M586.231 308.445L564.804 310.697C560.41 311.159 557.222 315.095 557.684 319.489L559.936 340.916C560.398 345.31 564.335 348.498 568.729 348.036L590.155 345.784C594.549 345.322 597.737 341.385 597.275 336.991L595.023 315.565C594.561 311.171 590.625 307.983 586.231 308.445Z" fill="url(#paint0_linear)"/>
</g>
<g opacity="0.7">
<g opacity="0.7" filter="url(#filter1_d)">
<path opacity="0.7" d="M674.128 401.973C675.046 397.651 679.294 394.893 683.616 395.811L952.578 452.981C956.9 453.9 959.659 458.148 958.74 462.469L946.455 520.267C945.536 524.589 941.288 527.348 936.967 526.429L668.004 469.26C663.683 468.341 660.924 464.093 661.842 459.771L674.128 401.973Z" fill="white"/>
</g>
<path opacity="0.7" d="M800.178 440.979L741.649 428.538L739.21 440.014L797.739 452.455L800.178 440.979Z" fill="#CEE0FF"/>
<path opacity="0.7" d="M863.011 478.323L736.771 451.49L734.332 462.966L860.571 489.799L863.011 478.323Z" fill="#E1ECFF"/>
<path opacity="0.7" d="M905.473 487.349L869.896 479.787L867.457 491.263L903.033 498.825L905.473 487.349Z" fill="#E1ECFF"/>
<path opacity="0.7" d="M716.853 422.068L695.779 417.588C691.457 416.67 687.209 419.428 686.291 423.75L681.811 444.824C680.893 449.146 683.651 453.394 687.973 454.313L709.047 458.792C713.369 459.711 717.617 456.952 718.536 452.63L723.015 431.556C723.934 427.234 721.175 422.986 716.853 422.068Z" fill="url(#paint1_linear)"/>
</g>
<g opacity="0.3">
<g opacity="0.3" filter="url(#filter2_d)">
<path opacity="0.3" d="M596.138 228.988C595.219 224.667 597.978 220.418 602.3 219.5L871.262 162.33C875.584 161.411 879.832 164.17 880.751 168.492L893.036 226.29C893.954 230.612 891.196 234.86 886.874 235.779L617.912 292.948C613.59 293.867 609.342 291.108 608.423 286.786L596.138 228.988Z" fill="white"/>
</g>
<path opacity="0.3" d="M734.042 211.889L668.627 225.793L671.066 237.269L736.481 223.365L734.042 211.889Z" fill="#CEE0FF"/>
<path opacity="0.3" d="M823.845 216.789L673.506 248.745L675.945 260.221L826.285 228.266L823.845 216.789Z" fill="#E1ECFF"/>
<path opacity="0.3" d="M643.343 229.967L622.269 234.447C617.947 235.365 615.189 239.613 616.107 243.935L620.587 265.009C621.505 269.331 625.753 272.09 630.075 271.171L651.149 266.692C655.471 265.773 658.23 261.525 657.311 257.203L652.832 236.129C651.913 231.807 647.665 229.049 643.343 229.967Z" fill="url(#paint2_linear)"/>
</g>
<g opacity="0.3">
<g opacity="0.3" filter="url(#filter3_d)">
<path opacity="0.3" d="M586.235 481.886C586.697 477.492 590.633 474.305 595.027 474.766L868.492 503.509C872.886 503.971 876.074 507.907 875.612 512.301L869.436 571.067C868.974 575.461 865.037 578.648 860.643 578.187L587.179 549.444C582.784 548.983 579.597 545.046 580.059 540.652L586.235 481.886Z" fill="white"/>
</g>
<path opacity="0.3" d="M749.51 511.059L656.163 501.248L654.937 512.917L748.284 522.728L749.51 511.059Z" fill="#CEE0FF"/>
<path opacity="0.3" d="M804.354 516.823L756.513 511.795L755.287 523.463L803.127 528.492L804.354 516.823Z" fill="#CEE0FF"/>
<path opacity="0.3" d="M720.22 531.574L653.71 524.584L652.484 536.252L718.994 543.243L720.22 531.574Z" fill="#E1ECFF"/>
<path opacity="0.3" d="M630.828 497.405L609.401 495.153C605.007 494.691 601.071 497.879 600.609 502.273L598.357 523.7C597.895 528.094 601.083 532.03 605.477 532.492L626.903 534.744C631.297 535.206 635.234 532.018 635.696 527.624L637.948 506.198C638.41 501.804 635.222 497.867 630.828 497.405Z" fill="url(#paint3_linear)"/>
</g>
<g opacity="0.1">
<g opacity="0.1" filter="url(#filter4_d)">
<path opacity="0.1" d="M569.662 128.217C569.431 123.805 572.82 120.041 577.232 119.81L851.826 105.419C856.239 105.187 860.003 108.577 860.234 112.989L863.327 171.997C863.558 176.41 860.168 180.174 855.756 180.405L581.162 194.796C576.75 195.027 572.986 191.638 572.754 187.226L569.662 128.217Z" fill="url(#paint4_linear)"/>
</g>
</g>
<g opacity="0.1">
<g opacity="0.1" filter="url(#filter5_d)">
<path opacity="0.1" d="M800.971 656C800.971 660.418 797.389 664 792.971 664H518C513.581 664 510 660.418 510 656V596.911C510 592.492 513.581 588.911 518 588.911H792.971C797.389 588.911 800.971 592.492 800.971 596.911V656Z" fill="url(#paint5_linear)"/>
</g>
</g>
<path d="M703.202 656.764C703.202 656.764 692.538 707.845 696.467 723.843C700.396 739.701 726.496 812.253 726.496 812.253L741.651 804.535C741.651 804.535 722.707 735.351 721.164 723.703C719.761 712.055 731.407 662.377 731.407 662.377L703.202 656.764Z" fill="url(#paint6_linear)"/>
<path d="M724.391 809.026C724.391 809.026 703.904 827.269 701.098 832.882L746.141 818.007L739.967 803.974C739.967 803.974 734.775 805.096 730.566 808.745C727.478 811.271 724.391 809.026 724.391 809.026Z" fill="url(#paint7_linear)"/>
<path d="M746.141 818.007L701.098 832.882L701.799 837.233L747.545 822.077L746.141 818.007Z" fill="url(#paint8_linear)"/>
<path d="M701.239 833.444L746.282 818.568C746.563 818.428 746.844 818.147 746.703 817.726C746.563 817.446 746.282 817.165 745.861 817.305L700.818 832.181C700.537 832.321 700.256 832.602 700.397 833.023C700.537 833.303 700.958 833.584 701.239 833.444Z" fill="#2BDC72"/>
<path d="M715.693 822.638C715.833 822.638 715.973 822.498 715.973 822.357C716.114 822.217 716.114 821.936 715.973 821.656L714.289 818.849L718.92 819.27C719.201 819.27 719.341 819.13 719.481 818.989C719.622 818.849 719.622 818.568 719.481 818.288L717.657 814.92L722.568 814.779C722.989 814.779 723.13 814.499 723.13 814.078C723.13 813.657 722.849 813.516 722.428 813.516L716.534 813.657C716.254 813.657 716.114 813.797 715.973 813.937C715.833 814.078 715.833 814.358 715.973 814.499L717.657 817.726L713.026 817.305C712.746 817.305 712.605 817.446 712.465 817.586C712.325 817.726 712.325 818.007 712.465 818.288L714.149 821.094L709.659 820.954C709.378 820.954 708.957 821.235 708.957 821.515C708.957 821.936 709.238 822.217 709.518 822.217L715.272 822.498C715.552 822.638 715.693 822.638 715.693 822.638Z" fill="#2BDC72"/>
<path d="M741.511 818.568L756.666 819.13C756.666 819.13 756.526 769.311 754.701 746.718C753.298 729.597 758.069 667.149 758.069 667.149L728.461 656.764C728.321 656.764 726.637 727.211 741.511 818.568Z" fill="url(#paint9_linear)"/>
<path d="M747.265 631.364L708.957 628.697C708.957 628.697 697.45 668.973 688.891 710.231H744.178L747.967 691.567L751.615 710.231H762.56C762.42 710.371 762.701 646.66 747.265 631.364Z" fill="url(#paint10_linear)"/>
<path d="M708.957 567.512C704.186 574.809 703.344 616.629 703.344 616.629H725.234L708.957 567.512Z" fill="url(#paint11_linear)"/>
<path d="M683.418 596.842L708.957 628.838L717.657 612.84L704.186 602.174L683.418 596.842Z" fill="url(#paint12_linear)"/>
<path d="M698.853 596.842C698.853 596.842 696.888 591.649 696.187 590.527C695.625 589.404 690.714 586.878 691.135 588.281C691.556 589.685 692.538 590.948 692.819 592.211C693.099 593.474 693.52 597.122 693.52 597.122L698.853 596.842Z" fill="url(#paint13_linear)"/>
<path d="M693.1 598.385L683.558 599.368C682.155 599.508 680.752 599.227 679.629 598.666L662.089 590.106C660.826 589.544 661.247 587.72 662.51 587.58L672.052 586.597C673.455 586.457 674.858 586.738 675.981 587.299L693.521 595.859C694.784 596.421 694.363 598.245 693.1 598.385Z" fill="url(#paint14_linear)"/>
<path d="M693.662 599.929L694.223 597.543L688.891 596.842L693.662 599.929Z" fill="#0538FB"/>
<path d="M661.106 588.842L660.545 591.648L667 592.209L661.106 588.842Z" fill="url(#paint15_linear)"/>
<path d="M692.539 601.051L682.997 602.033C681.593 602.174 680.19 601.893 679.068 601.332L661.527 592.771C660.264 592.21 660.685 590.386 661.948 590.245L671.49 589.263C672.893 589.123 674.297 589.403 675.419 589.965L692.96 598.525C694.223 599.086 693.802 600.911 692.539 601.051Z" fill="#0538FB"/>
<path d="M708.955 567.512L746.702 556.987C746.702 556.987 769.434 593.895 752.034 635.012L708.955 628.838C708.955 628.838 716.252 598.806 708.955 567.512Z" fill="url(#paint16_linear)"/>
<path d="M745.581 580.282L736.881 610.454L756.526 615.085L745.581 580.282Z" fill="#2BDC72"/>
<path d="M712.605 625.189C712.605 625.189 704.045 623.645 701.8 631.504C699.554 639.363 694.924 642.59 694.924 642.59C694.924 642.59 704.466 643.713 706.851 640.205C709.517 636.556 712.605 625.189 712.605 625.189Z" fill="url(#paint17_linear)"/>
<path d="M710.639 623.645C710.639 623.645 717.515 627.013 720.041 633.468C722.426 640.064 714.568 645.537 714.989 650.308C714.989 650.308 709.937 647.502 709.797 641.888C709.657 638.38 710.639 623.645 710.639 623.645Z" fill="url(#paint18_linear)"/>
<path d="M722.146 537.902H707.271L718.918 563.583L719.76 576.213L734.354 560.495L722.146 537.902Z" fill="url(#paint19_linear)"/>
<path d="M717.234 560.074L725.934 551.654L718.918 563.583L717.234 560.074Z" fill="url(#paint20_linear)"/>
<path d="M696.889 524.851L706.992 511.94C706.992 511.94 719.06 506.607 729.444 513.624L734.495 532.288L696.889 524.851Z" fill="url(#paint21_linear)"/>
<path d="M695.626 536.639C689.732 534.113 684.26 523.447 695.626 518.816C706.992 514.185 738.144 518.395 742.073 532.288C746.142 546.181 708.115 541.831 695.626 536.639Z" fill="url(#paint22_linear)"/>
<path d="M705.87 557.408H691.837C691.837 557.408 689.031 552.216 693.942 548.286C698.994 544.357 692.539 536.218 702.502 530.885L705.87 557.408Z" fill="url(#paint23_linear)"/>
<path d="M716.533 560.215C722.988 558.531 727.338 552.496 726.777 545.901L726.356 540.147C725.654 531.727 717.656 525.973 709.517 528.078C703.062 529.762 698.712 535.797 699.273 542.392L699.694 548.146C700.396 556.426 708.394 562.179 716.533 560.215Z" fill="url(#paint24_linear)"/>
<path d="M734.474 541.91C735.444 538.159 733.188 534.331 729.437 533.361C725.685 532.392 721.858 534.647 720.888 538.399C719.919 542.151 722.174 545.979 725.926 546.948C729.678 547.918 733.505 545.662 734.474 541.91Z" fill="url(#paint25_linear)"/>
<path d="M717.095 554.742L715.973 553.9C716.113 553.619 720.884 547.585 715.131 541.129L716.113 540.147C722.849 547.444 717.236 554.601 717.095 554.742Z" fill="url(#paint26_linear)"/>
<path d="M714.007 528.92C714.007 528.92 709.938 536.779 718.638 545.339C722.848 549.409 718.638 554.18 718.638 554.18H745.019C745.019 554.18 750.211 541.831 739.686 538.182C731.969 535.516 736.88 529.482 721.444 525.272L714.007 528.92Z" fill="url(#paint27_linear)"/>
<path d="M717.096 543.655C715.131 541.831 711.202 539.165 708.817 532.008C708.817 532.008 707.414 536.077 702.643 538.323C695.767 541.691 699.275 548.707 699.275 548.707C699.275 548.707 691.838 532.148 698.433 525.412C698.433 525.412 709.378 521.904 721.446 525.412C721.446 525.412 720.744 547.023 717.096 543.655Z" fill="url(#paint28_linear)"/>
<path d="M725.795 609.893L718.217 621.4L699.414 605.402L702.221 597.403L725.795 609.893Z" fill="url(#paint29_linear)"/>
<path d="M702.22 597.403C702.22 597.403 694.222 592.772 691.977 592.351C689.732 591.93 681.453 592.772 678.646 592.351C675.98 591.93 680.049 596.982 686.645 597.403C686.645 597.403 683.557 599.508 678.365 598.526C673.174 597.543 668.543 595.579 669.525 597.543C670.507 599.508 682.716 604.56 684.82 604.841C686.925 605.121 695.204 603.718 702.501 606.665L702.22 597.403Z" fill="url(#paint30_linear)"/>
<path d="M746.704 556.987C746.704 556.987 772.663 580.563 764.946 622.382C758.631 656.624 704.186 619.997 704.186 619.997L715.832 600.069C715.832 600.069 740.108 610.033 744.037 610.735L746.704 556.987Z" fill="url(#paint31_linear)"/>
<path d="M715.957 599.589L715.609 600.508L743.824 611.192L744.172 610.274L715.957 599.589Z" fill="#2BDC72"/>
<path d="M740.809 816.042C740.809 816.042 715.971 827.83 711.762 832.321L759.191 830.777L757.226 815.481C757.226 815.481 751.894 815.06 746.843 817.445C743.194 819.129 740.809 816.042 740.809 816.042Z" fill="url(#paint32_linear)"/>
<path d="M759.192 830.777L711.762 832.321L711.201 836.671L759.332 835.127L759.192 830.777Z" fill="url(#paint33_linear)"/>
<path d="M711.762 832.882L759.191 831.338C759.612 831.338 759.753 831.058 759.753 830.637C759.753 830.216 759.472 830.076 759.051 830.076L711.622 831.619C711.201 831.619 711.061 831.899 711.061 832.32C711.201 832.741 711.482 833.022 711.762 832.882Z" fill="#2BDC72"/>
<path d="M728.741 826.707C728.881 826.707 729.022 826.707 729.162 826.566C729.302 826.426 729.443 826.145 729.302 826.005L728.46 822.918L732.67 824.602C732.951 824.742 733.091 824.602 733.372 824.461C733.512 824.321 733.652 824.04 733.652 823.9L732.951 820.251L737.722 821.514C738.002 821.655 738.423 821.374 738.564 821.093C738.704 820.813 738.423 820.392 738.143 820.251L732.39 818.848C732.249 818.848 731.969 818.848 731.828 818.988C731.688 819.129 731.548 819.409 731.688 819.55L732.39 823.058L728.04 821.374C727.759 821.234 727.619 821.374 727.338 821.514C727.198 821.655 727.057 821.935 727.198 822.216L728.04 825.444L723.689 824.04C723.409 823.9 722.988 824.04 722.848 824.461C722.707 824.742 722.848 825.163 723.269 825.303L728.741 827.128C728.601 826.707 728.601 826.707 728.741 826.707Z" fill="#2BDC72"/>
<path d="M1149.03 327.044H1178.5C1178.78 327.044 1178.92 326.904 1178.92 326.623V310.625C1178.92 310.345 1178.78 310.204 1178.5 310.204H1149.03C1148.75 310.204 1148.61 310.345 1148.61 310.625V326.483C1148.47 326.764 1148.75 327.044 1149.03 327.044Z" fill="#0538FB"/>
<path d="M1151.41 327.044H1180.88C1181.16 327.044 1181.3 326.904 1181.3 326.623V310.625C1181.3 310.345 1181.16 310.204 1180.88 310.204H1151.41C1151.13 310.204 1150.99 310.345 1150.99 310.625V326.483C1150.99 326.764 1151.27 327.044 1151.41 327.044Z" fill="url(#paint34_linear)"/>
<path d="M1180.04 314.133C1179.65 314.133 1179.34 313.819 1179.34 313.431C1179.34 313.044 1179.65 312.73 1180.04 312.73C1180.43 312.73 1180.74 313.044 1180.74 313.431C1180.74 313.819 1180.43 314.133 1180.04 314.133Z" fill="#0538FB"/>
<path d="M1180.04 322.554C1180.46 322.554 1180.74 322.273 1180.74 321.852V315.397C1180.74 314.976 1180.46 314.695 1180.04 314.695C1179.62 314.695 1179.34 314.976 1179.34 315.397V321.852C1179.34 322.273 1179.62 322.554 1180.04 322.554Z" fill="#0538FB"/>
<path d="M1154.22 325.5H1178.22C1178.5 325.5 1178.64 325.36 1178.64 325.079V312.309C1178.64 312.028 1178.5 311.888 1178.22 311.888H1154.22C1153.94 311.888 1153.8 312.028 1153.8 312.309V325.079C1153.8 325.219 1153.94 325.5 1154.22 325.5Z" fill="url(#paint35_linear)"/>
<path d="M1144.54 340.516L1161.52 382.476L1176.67 375.319L1156.61 335.324L1144.54 340.516Z" fill="url(#paint36_linear)"/>
<path d="M1157.03 337.709C1157.03 337.709 1160.54 329.85 1160.96 327.885C1161.38 325.78 1162.22 321.29 1158.15 320.448C1158.15 320.448 1156.33 313.15 1153.8 313.01C1151.27 312.87 1151.84 317.781 1151.84 317.781C1151.84 317.781 1149.87 312.168 1147.91 312.87C1145.94 313.431 1146.78 316.378 1146.78 316.378C1146.78 316.378 1144.26 316.518 1143.84 318.764C1143.84 318.764 1142.01 319.325 1141.59 321.149C1141.17 322.974 1143.7 337.709 1144.54 340.515C1145.52 343.322 1157.03 337.709 1157.03 337.709Z" fill="url(#paint37_linear)"/>
<path d="M1151.84 317.642C1151.84 317.642 1149.59 311.186 1151.41 309.923C1153.24 308.66 1156.05 310.204 1156.05 310.204C1156.05 310.204 1155.34 312.449 1157.03 316.94L1151.84 317.642Z" fill="url(#paint38_linear)"/>
<path d="M1158.15 320.308C1158.15 320.308 1159.41 315.396 1162.5 315.677C1165.59 315.958 1164.32 318.203 1163.2 319.045C1161.94 319.887 1161.38 326.202 1161.38 326.202L1158.15 320.308Z" fill="url(#paint39_linear)"/>
<path d="M1232.24 568.137H1249.08V597.747H1232.24V568.137Z" fill="url(#paint40_linear)"/>
<path d="M1231.54 592.134C1231.54 592.134 1206.14 603.22 1201.79 607.57H1252.59L1251.46 595.782C1251.46 595.782 1248.52 592.134 1237.71 595.361C1233.78 596.484 1231.54 592.134 1231.54 592.134Z" fill="url(#paint41_linear)"/>
<path d="M1252.59 607.57H1201.79L1201.09 611.92H1252.59V607.57Z" fill="url(#paint42_linear)"/>
<path d="M1201.79 607.149H1252.59V607.991H1201.79V607.149Z" fill="#2BDC72"/>
<path d="M1219.61 602.518L1218.63 598.168L1223.96 600.553L1223.12 595.642L1228.17 597.045L1228.45 596.203L1222 594.379L1222.84 599.01L1217.37 596.624L1218.49 601.115L1213.72 599.431L1213.44 600.273L1219.61 602.518Z" fill="#2BDC72"/>
<path d="M1173.73 568.137H1190.56V597.747H1173.73V568.137Z" fill="url(#paint43_linear)"/>
<path d="M1173.02 592.134C1173.02 592.134 1147.63 603.22 1143.28 607.57H1193.93L1192.81 595.782C1192.81 595.782 1189.86 592.134 1179.06 595.361C1175.13 596.484 1173.02 592.134 1173.02 592.134Z" fill="url(#paint44_linear)"/>
<path d="M1193.93 607.57H1143.28L1142.43 611.92H1193.93V607.57Z" fill="url(#paint45_linear)"/>
<path d="M1143.14 607.149H1193.93V607.991H1143.14V607.149Z" fill="#2BDC72"/>
<path d="M1161.1 602.518L1160.11 598.168L1165.45 600.553L1164.61 595.642L1169.66 597.045L1169.94 596.203L1163.48 594.379L1164.32 599.01L1158.85 596.624L1159.83 601.115L1155.2 599.431L1154.92 600.273L1161.1 602.518Z" fill="#2BDC72"/>
<path d="M1228.73 583.854H1255.81C1255.81 583.854 1255.11 534.316 1247.25 504.846L1252.02 436.504H1212.73L1228.73 583.854Z" fill="url(#paint46_linear)"/>
<path d="M1219.89 501.057L1215.68 465.272L1232.24 454.607L1219.89 501.057Z" fill="#1AC9EF"/>
<path d="M1191.69 434.118C1191.69 434.118 1174.57 483.656 1171.2 504.425C1167.83 525.054 1168.25 583.854 1168.25 583.854H1197.58L1199.26 507.372L1242.48 438.188L1191.69 434.118Z" fill="url(#paint47_linear)"/>
<path d="M1240.38 321.15C1240.38 321.15 1253.71 329.851 1263.95 364.233C1274.2 398.614 1269.57 403.526 1244.03 409.56L1240.38 321.15Z" fill="#0538FB"/>
<path d="M1187.06 342.06L1219.05 313.011C1236.17 313.011 1250.34 326.483 1251.18 343.603L1256.09 442.117H1188.04L1187.06 342.06Z" fill="url(#paint48_linear)"/>
<path d="M1231.4 344.305C1235.19 339.534 1239.4 324.659 1235.05 317.221C1230.28 314.414 1224.8 312.871 1218.91 312.871C1200.53 312.871 1185.79 328.307 1186.78 346.691L1187.48 402.263C1187.76 401.702 1189.86 396.369 1190 395.808L1207.26 346.13C1220.17 361.707 1227.89 348.656 1231.4 344.305Z" fill="#0538FB"/>
<path d="M1219.05 340.797L1184.25 392.44C1182 396.65 1177.79 399.316 1173.02 399.316C1168.25 399.316 1163.9 396.65 1161.8 392.299L1143.13 355.392L1165.87 344.025L1173.3 359.04L1196.88 319.887L1219.05 340.797Z" fill="url(#paint49_linear)"/>
<path d="M1204.46 299.399H1221.58L1228.31 322.133L1211.33 322.413L1204.46 299.399Z" fill="url(#paint50_linear)"/>
<path d="M1196.6 311.327C1189.16 309.362 1184.25 302.346 1184.95 294.768L1185.51 288.172C1186.35 278.489 1195.76 271.893 1205.16 274.419C1212.59 276.384 1217.51 283.401 1216.8 290.979L1216.24 297.574C1215.26 307.257 1206 313.713 1196.6 311.327Z" fill="url(#paint51_linear)"/>
<path d="M1204.18 301.223C1204.18 301.223 1196.04 296.311 1198.84 284.804C1198.84 284.804 1191.55 283.26 1191.41 278.629C1191.41 278.629 1178.64 274.981 1183.27 265.999C1187.06 258.702 1200.53 256.597 1203.89 268.104C1209.65 266.561 1227.33 274.139 1226.07 277.226C1222 287.049 1222.98 303.188 1222.98 303.188L1204.18 301.223Z" fill="url(#paint52_linear)"/>
<path d="M1205.86 303.047C1202.06 303.047 1198.98 299.968 1198.98 296.171C1198.98 292.373 1202.06 289.294 1205.86 289.294C1209.66 289.294 1212.74 292.373 1212.74 296.171C1212.74 299.968 1209.66 303.047 1205.86 303.047Z" fill="url(#paint53_linear)"/>
<path d="M1202.07 330.272C1202.07 330.272 1187.06 325.501 1198.98 316.098C1206 310.625 1230.27 307.117 1237.15 313.292C1244.03 319.466 1239.4 337.148 1235.19 342.34C1230.84 347.813 1220.31 365.916 1202.07 330.272Z" fill="url(#paint54_linear)"/>
<path d="M1248.52 352.725C1248.52 352.725 1247.96 334.622 1244.87 325.501L1251.6 333.921C1251.6 333.921 1256.1 346.972 1255.67 357.076L1248.52 352.725Z" fill="#2BDC72"/>
<path d="M1207.82 409.56L1187.62 392.72L1187.48 386.686L1214.7 400.018L1207.82 409.56Z" fill="#2BDC72"/>
<path d="M1244.87 349.498L1205.16 412.788L1221.01 414.332L1251.6 363.671L1244.87 349.498Z" fill="#2BDC72"/>
<path d="M1251.6 363.671L1276.16 381.915L1245.85 435.662L1221.01 414.332L1251.6 363.671Z" fill="url(#paint55_linear)"/>
<path d="M1205.16 412.788L1235.75 437.907L1245.85 435.662L1221.01 414.332L1205.16 412.788Z" fill="#2BDC72"/>
<path d="M1279.81 379.529C1279.81 379.529 1275.32 390.756 1269.85 390.475C1264.37 390.335 1245.29 375.179 1247.25 370.688C1251.46 361.286 1244.87 349.357 1244.87 349.357C1244.87 349.357 1251.18 349.638 1263.25 362.128C1275.32 374.617 1280.09 375.179 1279.81 379.529Z" fill="url(#paint56_linear)"/>
<path d="M1269.85 390.475C1264.37 390.335 1244.45 374.337 1246.41 369.846" stroke="#2BDC72" stroke-miterlimit="10"/>
<path d="M1247.96 394.965V400.017L1252.73 398.333L1262.55 383.037L1258.2 379.108L1247.96 394.965Z" fill="#2BDC72"/>
<path d="M1250.06 390.475L1255.53 394.825L1258.06 390.896L1252.59 386.686L1250.06 390.475Z" fill="url(#paint57_linear)"/>
<path d="M1198.7 284.804C1198.7 284.804 1197.16 295.048 1195.9 297.434C1194.63 299.82 1186.07 302.065 1186.07 302.065C1186.07 302.065 1188.46 310.064 1194.49 311.888C1200.39 313.853 1200.95 309.643 1200.95 309.643V290.558L1198.7 284.804Z" fill="url(#paint58_linear)"/>
<path d="M881.571 894.472C881.571 894.472 864.17 858.968 860.522 830.34C856.874 801.712 872.029 767.33 872.029 767.33H889.429C889.429 767.33 876.098 814.763 878.764 830.901C881.43 847.039 894.48 882.123 894.48 882.123L881.571 894.472Z" fill="url(#paint59_linear)"/>
<path d="M898.41 782.486C902.199 778.136 922.125 774.908 921.844 780.662C919.038 838.76 928.018 908.646 928.018 908.646L911.6 909.347C911.46 909.488 893.639 822.762 898.41 782.486Z" fill="url(#paint60_linear)"/>
<path d="M930.965 916.645L931.386 919.592L885.5 921.276L885.921 917.346C885.921 917.346 920.02 910.891 930.965 916.645Z" fill="url(#paint61_linear)"/>
<path d="M910.057 902.471C910.057 902.471 889.85 911.593 885.921 917.487C885.921 917.487 922.545 915.803 930.965 916.785L928.579 903.173C928.579 903.173 921.984 901.068 917.634 903.313C911.6 906.26 910.057 902.471 910.057 902.471Z" fill="url(#paint62_linear)"/>
<path d="M885.92 917.767V917.065C886.201 917.065 912.722 914.54 931.104 916.364V917.065C912.722 915.241 886.201 917.767 885.92 917.767Z" fill="#0538FB"/>
<path d="M905.004 890.823L906.969 893.069L869.783 920.013L867.959 916.504C867.959 916.504 892.656 892.086 905.004 890.823Z" fill="url(#paint63_linear)"/>
<path d="M879.606 890.683C879.606 890.683 867.959 909.488 867.959 916.504C867.959 916.504 897.427 894.893 905.004 890.823L895.462 880.86C895.462 880.86 888.867 882.824 886.482 887.034C883.114 893.069 879.606 890.683 879.606 890.683Z" fill="url(#paint64_linear)"/>
<path d="M868.239 916.644L867.818 916.083C867.959 915.943 888.586 899.103 904.864 890.402L905.144 890.964C889.007 899.805 868.38 916.504 868.239 916.644Z" fill="#0538FB"/>
<path d="M874.975 718.915C874.975 718.915 856.733 777.715 853.085 799.466C850.138 817.429 851.261 848.022 851.261 848.022C851.261 848.022 883.114 864.441 895.743 852.232C908.372 840.023 922.124 857.705 935.876 848.022C937.139 805.08 934.332 770.558 925.351 716.951L874.975 718.915Z" fill="url(#paint65_linear)"/>
<path d="M930.684 662.501C930.684 662.501 930.964 714.986 936.156 732.106C936.156 732.106 935.455 734.492 934.052 736.597C930.263 742.07 927.316 747.964 925.913 754.419L925.211 757.787C925.211 757.787 896.866 764.383 884.237 747.262C871.608 730.142 866.275 730.422 866.275 730.422C866.275 730.422 877.782 697.725 877.922 687.621C878.063 677.517 877.922 664.887 877.922 664.887L930.684 662.501Z" fill="url(#paint66_linear)"/>
<path d="M850.7 680.744L843.824 652.818L835.545 636.399C835.545 636.399 838.632 627.418 839.755 625.734C840.877 624.19 840.176 635.978 840.176 635.978L841.018 637.662C841.018 637.662 842.561 633.733 844.385 630.926C846.209 628.12 848.876 629.102 848.876 629.804C848.876 630.646 847.192 633.873 847.192 633.873C847.192 633.873 849.156 632.33 850.279 632.33C851.401 632.33 850.84 635.838 850.84 635.838C850.84 635.838 851.963 635.277 852.664 636.54C853.226 637.803 851.121 640.048 852.103 642.995C853.226 645.942 855.892 650.433 852.524 651.976L863.61 682.288L850.7 680.744Z" fill="url(#paint67_linear)"/>
<path d="M886.904 646.924C886.904 646.924 872.17 650.012 865.294 671.623L861.645 655.204L839.334 660.817C839.334 660.817 848.455 709.092 865.153 715.968C865.153 715.968 887.465 730.002 886.904 646.924Z" fill="url(#paint68_linear)"/>
<path d="M870.906 716.81C870.906 716.81 882.693 714.846 885.781 688.463" stroke="#C2D1F8" stroke-miterlimit="10"/>
<path d="M894.621 643.696C886.202 641.451 880.869 632.61 881.852 622.786L882.834 614.366C884.237 601.877 895.182 593.036 905.847 595.842C914.266 598.088 919.599 606.929 918.616 616.752L917.634 625.172C916.231 637.802 905.286 646.503 894.621 643.696Z" fill="url(#paint69_linear)"/>
<path d="M892.937 623.068C892.937 626.857 896.024 629.944 899.812 629.944C903.601 629.944 906.688 626.857 906.688 623.068C906.688 619.279 903.601 616.191 899.812 616.191C896.024 616.191 892.937 619.279 892.937 623.068Z" fill="url(#paint70_linear)"/>
<path fill-rule="evenodd" clip-rule="evenodd" d="M923.7 607.464C921.69 595.623 908.382 592.126 898.27 593.177C893.515 593.691 890.79 595 889.152 596.631L889.149 596.544C889.149 596.544 883.536 599.35 881.712 606.367C880.219 612.108 886.711 615.124 889.121 616.032C888.592 618.474 889.038 620.58 889.492 622.72C890.294 626.499 891.117 630.382 886.623 636.399C883.267 640.85 883.688 644.332 884.053 647.351C884.435 650.518 884.756 653.175 880.589 655.905C873.011 660.817 875.818 679.06 875.818 679.06H944.576C945.727 667.938 941.93 663.985 938.525 660.441C935.702 657.502 933.148 654.843 933.912 648.608C934.746 641.178 931.647 637.516 928.91 634.281C926.581 631.529 924.513 629.085 925.352 624.892C926.782 617.742 924.677 610.333 923.7 607.464Z" fill="url(#paint71_linear)"/>
<path d="M851.542 653.8L866.697 649.59C867.82 649.31 868.521 648.047 868.241 646.924L859.962 617.735C859.681 616.612 858.418 615.91 857.296 616.191L842.141 620.401C841.018 620.682 840.316 621.945 840.597 623.067L848.876 652.257C849.157 653.379 850.42 654.081 851.542 653.8Z" fill="#0538FB"/>
<path d="M853.507 653.239L866.698 649.59C867.82 649.31 868.522 648.047 868.241 646.924L859.962 617.735C859.681 616.612 858.418 615.91 857.296 616.191L844.105 619.84C842.983 620.12 842.281 621.383 842.562 622.506L850.841 651.695C851.122 652.818 852.385 653.52 853.507 653.239Z" fill="url(#paint72_linear)"/>
<path d="M854.209 650.151L864.452 647.204C865.575 646.923 866.276 645.66 865.996 644.538L859.26 620.541C858.98 619.418 857.717 618.716 856.594 618.997L846.351 621.944C845.228 622.225 844.526 623.488 844.807 624.61L851.543 648.607C851.963 649.87 853.086 650.572 854.209 650.151Z" fill="url(#paint73_linear)"/>
<path d="M842.561 642.574C842.561 642.574 845.788 637.381 846.77 635.978C847.752 634.575 850.699 633.873 852.102 633.592C853.225 633.312 851.401 636.539 849.296 638.223C848.173 639.065 850.138 644.258 848.594 649.169C848.314 649.31 843.122 650.152 842.561 642.574Z" fill="url(#paint74_linear)"/>
<path d="M706.109 343C706.109 338.582 709.691 335 714.109 335H1050.09C1054.51 335 1058.09 338.582 1058.09 343V417.834C1058.09 422.252 1054.51 425.834 1050.09 425.834H714.109C709.691 425.834 706.109 422.252 706.109 417.834V343Z" fill="url(#paint75_linear)"/>
<path d="M764.634 405.325H738.455C736.548 405.325 734.934 403.912 734.683 402.021L730.987 374.251C730.683 371.969 732.458 369.942 734.76 369.942H768.33C770.631 369.942 772.406 371.969 772.102 374.251L768.406 402.021C768.155 403.912 766.542 405.325 764.634 405.325Z" fill="url(#paint76_linear)"/>
<path d="M764.634 405.325C766.542 405.325 768.155 403.912 768.406 402.021L772.102 374.251C772.406 371.969 770.631 369.942 768.33 369.942H734.76C732.458 369.942 730.683 371.969 730.987 374.251L731.858 380.797L731.885 380.805L756.405 405.325H764.634Z" fill="url(#paint77_linear)"/>
<path d="M754.685 369.942H748.405V405.325H754.685V369.942Z" fill="url(#paint78_linear)"/>
<path d="M772.103 374.25L768.407 402.021C768.155 403.911 766.542 405.324 764.634 405.324H754.686V369.943H768.329C770.631 369.943 772.407 371.97 772.103 374.25Z" fill="url(#paint79_linear)"/>
<path d="M770.45 380.899H732.64C730.931 380.899 729.545 379.513 729.545 377.804V369.907C729.545 368.198 730.931 366.812 732.64 366.812H770.45C772.159 366.812 773.545 368.198 773.545 369.907V377.804C773.545 379.513 772.159 380.899 770.45 380.899Z" fill="url(#paint80_linear)"/>
<path d="M754.685 366.812H748.405V380.899H754.685V366.812Z" fill="url(#paint81_linear)"/>
<path d="M773.545 369.907V377.804C773.545 379.513 772.16 380.899 770.45 380.899H754.686V366.812H770.45C772.16 366.812 773.545 368.198 773.545 369.907Z" fill="url(#paint82_linear)"/>
<path d="M765.818 366.812H737.284C737.37 367.302 737.474 367.793 737.597 368.284C737.783 369.029 738.187 369.654 738.719 370.117L749.501 380.898H770.45C772.159 380.898 773.544 379.513 773.544 377.804V374.538L765.818 366.812Z" fill="url(#paint83_linear)"/>
<path d="M737.599 358.403C738.14 356.239 740.511 355.083 742.551 355.983C744.012 356.628 745.417 357.474 746.702 358.181C747.908 358.844 748.781 359.517 749.575 360.18C751.549 361.826 751.549 364.861 749.575 366.507C748.781 367.17 747.908 367.843 746.702 368.506C745.417 369.213 744.012 370.059 742.551 370.703C740.511 371.604 738.14 370.448 737.599 368.284C736.774 364.981 736.774 361.706 737.599 358.403Z" fill="url(#paint84_linear)"/>
<path d="M749.574 366.507C750.202 365.983 750.63 365.317 750.858 364.601C747.22 364.926 741.537 366.159 739.393 370.581C740.33 371.082 741.485 371.173 742.55 370.703C744.011 370.058 745.416 369.213 746.701 368.506C747.907 367.843 748.779 367.17 749.574 366.507Z" fill="url(#paint85_linear)"/>
<path d="M740.413 363.056C740.413 364.511 740.586 368.515 744.594 369.681C745.323 369.283 746.029 368.876 746.702 368.506C747.907 367.843 748.78 367.169 749.574 366.507C750.681 365.584 751.166 364.225 751.033 362.919C751.033 362.919 748.931 361.784 747.998 361.332C742.956 358.89 740.413 361.009 740.413 363.056Z" fill="url(#paint86_linear)"/>
<path d="M765.49 358.403C764.95 356.239 762.579 355.083 760.538 355.983C759.077 356.628 757.672 357.474 756.387 358.181C755.182 358.844 754.309 359.517 753.515 360.18C751.541 361.826 751.541 364.861 753.515 366.507C754.309 367.17 755.182 367.843 756.387 368.506C757.672 369.213 759.077 370.059 760.538 370.703C762.579 371.604 764.95 370.448 765.49 368.284C766.315 364.981 766.315 361.706 765.49 358.403Z" fill="url(#paint87_linear)"/>
<path d="M753.515 366.507C752.886 365.983 752.459 365.317 752.23 364.601C755.868 364.926 761.551 366.159 763.696 370.581C762.758 371.082 761.604 371.173 760.539 370.703C759.078 370.058 757.673 369.213 756.387 368.506C755.182 367.843 754.309 367.17 753.515 366.507Z" fill="url(#paint88_linear)"/>
<path d="M762.675 363.056C762.675 364.511 762.503 368.515 758.495 369.681C757.766 369.283 757.059 368.876 756.387 368.506C755.181 367.843 754.309 367.169 753.514 366.507C752.408 365.584 751.922 364.225 752.056 362.919C752.056 362.919 754.157 361.784 755.09 361.332C760.133 358.89 762.675 361.009 762.675 363.056Z" fill="url(#paint89_linear)"/>
<path d="M753.514 366.507C754.309 367.169 755.182 367.843 756.387 368.506C757.672 369.213 759.077 370.058 760.538 370.703C762.258 371.463 764.213 370.76 765.109 369.225L755.674 359.79C755.441 359.538 755.184 359.308 754.908 359.102C754.394 359.462 753.943 359.823 753.514 360.18C751.541 361.826 751.541 364.861 753.514 366.507Z" fill="url(#paint90_linear)"/>
<path d="M751.544 369.223C754.648 369.223 757.165 366.706 757.165 363.602C757.165 360.498 754.648 357.981 751.544 357.981C748.439 357.981 745.923 360.498 745.923 363.602C745.923 366.706 748.439 369.223 751.544 369.223Z" fill="url(#paint91_linear)"/>
<path d="M1032.62 625.542C1032.62 625.542 1037.11 570.684 1036.69 526.349H1060.13C1060.13 526.349 1059.28 557.215 1046.37 626.805L1032.62 625.542Z" fill="url(#paint92_linear)"/>
<path d="M1046.8 624.139L1053.39 590.607H1033.89L1031.64 628.208C1031.64 628.208 1048.2 641.536 1046.8 624.139Z" fill="url(#paint93_linear)"/>
<path d="M997.261 644.202C997.261 644.202 1022.24 582.469 1028.55 568.86C1034.73 555.251 1036.83 523.683 1036.83 523.683H1010.73C1010.73 523.683 1011.15 553.427 1008.63 559.74C1006.24 566.054 988.561 613.336 986.035 637.467L997.261 644.202Z" fill="url(#paint94_linear)"/>
<path d="M1000.49 636.485L1016.35 597.622L997.542 591.589L983.79 638.309C983.79 638.169 992.35 649.954 1000.49 636.485Z" fill="url(#paint95_linear)"/>
<path d="M1064.05 450.025C1064.05 450.025 1075.7 503.76 1072.33 534.065C1072.33 534.065 1063.21 541.641 1049.88 539.818C1036.55 537.853 1016.35 546.973 1005.68 540.098C995.016 533.223 987.859 526.629 987.859 526.629L1020.84 445.114L1064.05 450.025Z" fill="url(#paint96_linear)"/>
<path d="M1032.34 363.459C1032.34 363.459 1031.78 378.471 1023.36 378.471C1008.63 378.611 1014.52 387.45 1008.63 390.817C1003.58 393.623 1000.49 396.429 999.927 399.656C999.085 405.409 1002.45 408.776 997.401 411.722C992.349 414.669 990.245 418.036 989.543 425.612H1041.74V365.283L1032.34 363.459Z" fill="url(#paint97_linear)"/>
<path d="M1048.48 379.312L1018.03 385.626V446.657L1064.06 450.025L1072.33 397.411L1048.48 379.312Z" fill="url(#paint98_linear)"/>
<path d="M1017.75 448.481C1004.98 448.481 994.595 458.864 994.595 471.631C994.595 484.398 1004.98 494.781 1017.75 494.781C1030.52 494.781 1040.9 484.398 1040.9 471.631C1040.76 458.723 1030.52 448.481 1017.75 448.481Z" fill="url(#paint99_linear)"/>
<path d="M1026.87 474.577L1025.33 472.753L1042.45 458.443L1065.6 390.396L1067.98 391.238L1044.55 459.986L1026.87 474.577Z" fill="url(#paint100_linear)"/>
<path d="M1040.76 382.119L1030.24 385.626C1030.24 385.626 1034.17 395.167 1049.74 395.167C1057.88 395.167 1062.09 388.713 1062.09 388.713L1040.76 382.119Z" fill="url(#paint101_linear)"/>
<path d="M1056.06 370.474H1040.76V393.483H1056.06V370.474Z" fill="url(#paint102_linear)"/>
<path d="M1056.2 370.474H1045.39L1040.76 376.927L1055.64 389.695L1056.2 370.474Z" fill="url(#paint103_linear)"/>
<path d="M1054.51 382.54C1062.23 381.838 1068.4 375.665 1068.97 367.948L1069.53 361.354C1070.23 351.533 1062.09 343.395 1052.27 344.378C1044.55 345.079 1038.38 351.252 1037.81 358.969L1037.25 365.563C1036.55 375.244 1044.69 383.381 1054.51 382.54Z" fill="url(#paint104_linear)"/>
<path d="M1038.94 361.354C1038.94 361.354 1046.37 360.372 1050.3 347.043C1050.3 347.043 1053.11 352.234 1051.57 359.67L1069.39 361.354C1069.39 361.354 1073.46 353.076 1067.56 344.798C1061.67 336.521 1034.45 335.258 1032.2 359.25L1038.94 361.354Z" fill="url(#paint105_linear)"/>
<path d="M1072.33 361.494L1071.21 361.073C1071.21 360.933 1073.74 352.655 1067.56 346.763L1068.4 345.921C1075.14 352.515 1072.33 361.494 1072.33 361.494Z" fill="url(#paint106_linear)"/>
<path d="M1038.38 361.915C1038.24 361.915 1038.24 361.915 1038.24 361.915V360.652C1038.24 360.652 1042.73 360.793 1046.09 357.566C1048.48 355.181 1049.74 351.673 1049.74 347.043H1051C1051 352.094 1049.74 355.882 1046.94 358.548C1043.57 361.635 1039.36 361.915 1038.38 361.915Z" fill="url(#paint107_linear)"/>
<path d="M1032.34 360.512C1032.34 360.512 1045.81 336.24 1069.81 347.324C1069.81 347.324 1075.28 339.467 1069.53 335.539C1063.91 331.61 1045.81 324.735 1037.25 336.801C1028.55 348.727 1025.33 356.584 1032.34 360.512Z" fill="url(#paint108_linear)" fill-opacity="0.9"/>
<path d="M1041.88 365.282C1041.32 368.79 1037.96 371.035 1034.59 370.474C1031.08 369.912 1028.83 366.545 1029.4 363.178C1029.96 359.67 1033.32 357.426 1036.69 357.987C1040.2 358.548 1042.45 361.775 1041.88 365.282Z" fill="url(#paint109_linear)"/>
<path d="M1056.2 379.312C1056.2 379.312 1058.02 396.149 1054.93 400.779C1051.85 405.409 1045.53 408.495 1049.88 413.686C1054.37 418.737 1043.57 420.281 1043.57 430.803H1074.02L1067.98 380.154L1056.2 379.312Z" fill="url(#paint110_linear)"/>
<path d="M1017.05 434.732L1038.38 449.604C1038.38 449.604 1049.18 464.476 1049.88 468.825C1050.58 473.174 1048.06 468.965 1046.65 467.282C1046.65 467.282 1049.32 472.333 1048.06 472.192C1046.79 472.052 1041.46 462.932 1041.46 462.932C1041.46 462.932 1043.01 468.123 1042.73 470.509C1042.44 472.894 1041.18 471.771 1040.9 469.667C1040.48 467.562 1038.09 463.774 1038.09 463.774C1038.09 463.774 1038.94 467.703 1038.24 469.386C1037.67 471.07 1036.83 468.965 1036.41 467.141C1035.15 461.67 1031.64 463.213 1031.22 454.935L1008.63 444.553L1017.05 434.732Z" fill="url(#paint111_linear)"/>
<path d="M1018.03 385.626C1018.03 385.626 1002.73 394.044 1000.07 433.188C999.366 442.869 1007.5 451.147 1019.15 458.302L1030.24 438.941L1019.85 430.523L1018.03 385.626Z" fill="url(#paint112_linear)"/>
<path d="M1030.24 438.941L1019.85 430.523L1020.41 410.179" stroke="#0538FB" stroke-miterlimit="10"/>
<path d="M1067.7 363.459H1055.07C1054.37 363.459 1053.95 364.02 1053.95 364.581V389.555C1053.95 390.256 1054.51 390.677 1055.07 390.677H1067.7C1068.4 390.677 1068.83 390.116 1068.83 389.555V364.581C1068.83 364.02 1068.26 363.459 1067.7 363.459Z" fill="url(#paint113_linear)"/>
<path d="M1069.39 363.459H1056.76C1056.06 363.459 1055.63 364.02 1055.63 364.581V389.555C1055.63 390.256 1056.2 390.677 1056.76 390.677H1069.39C1070.09 390.677 1070.51 390.116 1070.51 389.555V364.581C1070.65 364.02 1070.09 363.459 1069.39 363.459Z" fill="#0538FB"/>
<path d="M1058.3 369.053C1057.74 369.053 1057.18 368.492 1057.18 367.93V365.405C1057.18 364.844 1057.74 364.283 1058.3 364.283C1058.86 364.283 1059.42 364.844 1059.42 365.405V367.93C1059.42 368.632 1058.86 369.053 1058.3 369.053Z" fill="url(#paint114_linear)"/>
<path d="M1059.14 365.405C1059.14 365.966 1058.72 366.247 1058.3 366.247C1057.74 366.247 1057.46 365.826 1057.46 365.405C1057.46 364.844 1057.88 364.563 1058.3 364.563C1058.72 364.563 1059.14 364.984 1059.14 365.405Z" fill="#0538FB"/>
<path d="M1059.14 367.93C1059.14 368.492 1058.72 368.772 1058.3 368.772C1057.74 368.772 1057.46 368.351 1057.46 367.93C1057.46 367.369 1057.88 367.089 1058.3 367.089C1058.72 367.089 1059.14 367.369 1059.14 367.93Z" fill="#0538FB"/>
<path d="M1070.09 378.892C1069.39 377.629 1067.14 372.438 1066.44 372.438C1065.74 372.298 1058.44 370.474 1058.58 372.157C1058.72 373.841 1063.91 372.719 1065.6 379.032C1065.6 379.032 1059 376.226 1053.95 375.244C1052.27 374.963 1054.51 378.471 1058.02 380.996C1058.02 380.996 1054.79 380.014 1052.69 380.295C1051.57 380.435 1053.53 383.241 1055.5 384.364C1055.5 384.364 1053.81 384.083 1052.55 384.364C1051.71 384.644 1053.25 387.591 1055.5 388.292C1057.74 388.994 1060.27 388.994 1060.83 391.238C1061.53 393.623 1062.79 396.289 1064.9 396.85L1065.6 423.508H1078.79L1073.88 390.256C1074.02 390.256 1071.77 382.119 1070.09 378.892Z" fill="url(#paint115_linear)"/>
<path d="M1061.39 419.439L1078.93 410.6C1078.93 410.6 1086.65 434.592 1078.23 440.063C1069.81 445.535 1063.21 443.711 1063.21 443.711L1061.39 419.439Z" fill="url(#paint116_linear)"/>
<path d="M1061.39 419.439L1063.07 443.571" stroke="#0538FB" stroke-miterlimit="10"/>
<path d="M1046.8 624.139C1046.8 624.139 1071.49 635.784 1075.7 640.274L1028.41 638.73L1030.38 623.578C1030.38 623.578 1035.71 623.157 1040.62 625.402C1044.41 627.226 1046.8 624.139 1046.8 624.139Z" fill="url(#paint117_linear)"/>
<path d="M1028.41 638.87L1075.7 640.414L1076.26 644.763L1028.27 643.22L1028.41 638.87Z" fill="url(#paint118_linear)"/>
<path d="M1075.7 640.975L1028.41 639.432C1028.13 639.432 1027.85 639.151 1027.85 638.73C1027.85 638.45 1028.13 638.169 1028.55 638.169L1075.84 639.712C1076.12 639.712 1076.4 639.993 1076.4 640.414C1076.26 640.695 1075.98 640.975 1075.7 640.975Z" fill="#0538FB"/>
<path d="M1058.86 634.802C1058.72 634.802 1058.58 634.802 1058.44 634.661C1058.3 634.521 1058.16 634.241 1058.3 634.1L1059.14 631.014L1054.93 632.697C1054.65 632.837 1054.51 632.697 1054.23 632.557C1054.09 632.417 1053.95 632.136 1053.95 631.996L1054.65 628.348L1050.02 629.611C1049.74 629.751 1049.32 629.47 1049.32 629.19C1049.18 628.909 1049.46 628.488 1049.74 628.488L1055.35 627.085C1055.49 627.085 1055.78 627.085 1055.92 627.225C1056.06 627.366 1056.2 627.646 1056.06 627.787L1055.35 631.294L1059.7 629.611C1059.99 629.47 1060.13 629.611 1060.41 629.751C1060.55 629.891 1060.69 630.172 1060.55 630.452L1059.7 633.679L1064.05 632.276C1064.34 632.136 1064.76 632.276 1064.9 632.697C1065.04 632.978 1064.9 633.399 1064.48 633.539L1059 635.363C1059 634.802 1058.86 634.802 1058.86 634.802Z" fill="#0538FB"/>
<path d="M1000.49 636.485C1000.49 636.485 1025.19 648.13 1029.4 652.62L982.106 651.077L984.071 635.924C984.071 635.924 989.403 635.503 994.315 637.748C998.103 639.432 1000.49 636.485 1000.49 636.485Z" fill="url(#paint119_linear)"/>
<path d="M982.106 651.077L1029.4 652.62L1029.96 656.969L981.966 655.426L982.106 651.077Z" fill="url(#paint120_linear)"/>
<path d="M1029.4 653.322L982.106 651.778C981.826 651.778 981.545 651.498 981.545 651.077C981.545 650.796 981.826 650.516 982.247 650.516L1029.54 652.059C1029.82 652.059 1030.1 652.339 1030.1 652.76C1029.96 653.041 1029.68 653.322 1029.4 653.322Z" fill="#0538FB"/>
<path d="M1012.42 647.008C1012.28 647.008 1012.14 647.008 1012 646.868C1011.85 646.727 1011.71 646.447 1011.85 646.307L1012.7 643.22L1008.49 644.904C1008.21 645.044 1008.07 644.904 1007.79 644.763C1007.65 644.623 1007.5 644.342 1007.5 644.202L1008.21 640.554L1003.58 641.817C1003.3 641.957 1002.87 641.677 1002.87 641.396C1002.73 641.115 1003.01 640.695 1003.3 640.695L1008.91 639.292C1009.05 639.292 1009.33 639.291 1009.47 639.432C1009.61 639.572 1009.75 639.853 1009.61 639.993L1008.91 643.501L1013.26 641.817C1013.54 641.677 1013.68 641.817 1013.96 641.957C1014.1 642.098 1014.24 642.378 1014.1 642.659L1013.26 645.886L1017.61 644.483C1017.89 644.342 1018.31 644.483 1018.45 644.904C1018.59 645.184 1018.45 645.605 1018.03 645.745L1012.56 647.569C1012.7 647.008 1012.56 647.008 1012.42 647.008Z" fill="#0538FB"/>
<path d="M1149.74 741.525L1191.84 748.541L1187.21 763.978L1144.27 760.329L1149.74 741.525Z" fill="url(#paint121_linear)"/>
<path d="M1189.73 748.12L1177.81 745.454L1174.58 763.978L1189.73 766.223V748.12Z" fill="url(#paint122_linear)"/>
<path d="M1139.92 836.53H1122.1V862.352H1139.92V836.53Z" fill="url(#paint123_linear)"/>
<path d="M1141.32 847.336H1120.7V862.492H1141.32V847.336Z" fill="url(#paint124_linear)"/>
<path d="M1111.3 649.045L1076.07 659.57L1071.15 725.5L1154.94 744V670.376L1111.3 649.045Z" fill="url(#paint125_linear)"/>
<path fill-rule="evenodd" clip-rule="evenodd" d="M1102.66 656.15C1100.76 655.378 1099.25 653.699 1098.81 651.571C1098.1 648.063 1100.35 644.835 1103.72 644.133C1106.44 643.567 1109.16 644.921 1110.47 647.236L1117.47 645.116C1117.47 645.116 1117.49 645.114 1117.52 645.111C1118.47 645.028 1131.04 643.919 1134.03 654.237C1134.03 654.237 1132.06 663.078 1126.73 671.218C1120 681.572 1100.86 681.063 1102.66 656.15Z" fill="url(#paint126_linear)"/>
<path d="M1103.72 643.993C1103.72 643.993 1100.07 651.571 1103.16 653.957C1103.16 653.957 1105.54 652.834 1109.19 649.326C1109.19 649.326 1110.03 654.518 1114.38 653.536C1118.73 652.694 1116.49 661.675 1123.22 660.272C1129.96 658.868 1129.68 668.692 1139.08 661.815C1148.48 655.079 1139.64 650.869 1139.08 648.063C1138.52 645.256 1148.48 634.45 1135.43 625.89C1122.38 617.33 1118.73 616.628 1113.96 619.575C1109.19 622.382 1102.6 619.575 1101.47 632.766C1100.21 646.098 1099.93 640.485 1099.65 646.8C1099.65 646.94 1101.19 644.133 1103.72 643.993Z" fill="url(#paint127_linear)"/>
<path d="M1057 709.604C1057 709.604 1055.86 715.906 1058.1 732.255L1079.77 741.363L1078.27 719.744L1057 709.604Z" fill="url(#paint128_linear)"/>
<path d="M1081.58 719.926L1078.23 724.357C1078.23 724.357 1072.01 724.622 1066.24 725.63" stroke="#C2D1F8" stroke-width="0.5" stroke-miterlimit="10"/>
<path d="M1076.05 659.5C1076.05 659.5 1059.8 670.708 1055.13 718.024L1079.15 720L1076.05 659.5Z" fill="url(#paint129_linear)"/>
<path d="M1145.47 724.979L1149.61 723.785L1169.69 726.061L1169.05 735.5L1131.55 749L1145.47 724.979Z" fill="url(#paint130_linear)"/>
<path d="M1144.44 719L1146.11 724.302C1146.11 724.302 1151.87 726.645 1156.96 729.537" stroke="#C2D1F8" stroke-width="0.5" stroke-miterlimit="10"/>
<path d="M1136.74 711.32L1125.41 715.405C1125.02 715.543 1124.76 715.959 1124.62 716.33L1122.79 727.215C1122.63 728.234 1123.59 729.164 1124.61 728.797L1135.94 724.712C1136.33 724.574 1136.59 724.158 1136.73 723.788L1138.56 712.902C1138.72 711.883 1137.63 710.999 1136.74 711.32Z" fill="url(#paint131_linear)"/>
<path d="M1139.82 713.479L1138.7 711.812L1136.83 714.716L1139.82 713.479Z" fill="#0538FB"/>
<path d="M1137.97 712.954L1126.63 717.038C1126.25 717.176 1125.99 717.592 1125.84 717.962L1124.02 728.846C1123.86 729.865 1124.82 730.796 1125.84 730.428L1137.17 726.344C1137.55 726.206 1137.82 725.79 1137.96 725.42L1139.78 714.536C1139.82 713.563 1138.86 712.632 1137.97 712.954Z" fill="#0538FB"/>
<path d="M1155.05 670.5C1155.05 670.5 1170.74 683.893 1171.6 727.166L1148.66 724.5L1155.05 670.5Z" fill="url(#paint132_linear)"/>
<path d="M1112.98 765.381C1112.98 765.381 1093.79 765.171 1086.29 761.5C1071.88 754.446 1069.79 743.5 1076.07 724.544L1128.83 733.806L1144.27 760.329C1144.27 760.329 1144.27 791.904 1144.27 800.605C1144.27 809.305 1149.04 810.709 1146.23 815.48C1143.29 820.251 1150.02 825.023 1144.41 830.496H1118.31C1118.31 830.496 1118.31 785.589 1118.31 780.397C1118.31 775.204 1112.7 776.187 1113.68 771.135C1114.66 766.083 1112.98 765.381 1112.98 765.381Z" fill="url(#paint133_linear)"/>
<path d="M1149.74 830.636H1114.52V842.565H1149.74V830.636Z" fill="url(#paint134_linear)"/>
<path d="M1146.55 694H1080.55C1078.89 694 1077.55 695.343 1077.55 697V734C1077.55 735.657 1078.89 737 1080.55 737H1146.55C1148.21 737 1149.55 735.657 1149.55 734V697C1149.55 695.343 1148.21 694 1146.55 694Z" fill="url(#paint135_linear)"/>
<path d="M1076.07 724.544C1076.07 724.544 1082.53 718.791 1099.37 722.58C1116.35 726.228 1158.16 738.157 1158.16 738.157L1151.99 761.873C1151.99 761.873 1137.82 768.609 1135.85 762.996C1134.59 759.628 1118.59 766.644 1117.61 759.347C1116.91 754.435 1091.37 755.839 1083.37 747.98C1075.23 739.981 1072.29 735.21 1076.07 724.544Z" fill="url(#paint136_linear)"/>
<path d="M1140.06 765.662C1139.08 765.662 1138.1 765.522 1137.39 765.241C1136.41 764.82 1135.71 764.118 1135.29 763.136C1134.87 762.154 1131.78 762.575 1128.97 762.855C1123.92 763.417 1117.61 764.259 1116.91 759.347C1116.63 757.523 1110.59 756.54 1104.7 755.558C1096.84 754.295 1087.16 752.611 1082.81 748.261L1083.51 747.559C1087.72 751.629 1097.26 753.313 1104.84 754.576C1112.28 755.839 1117.61 756.681 1117.89 759.347C1118.45 763.276 1123.92 762.575 1128.69 762.013C1132.48 761.592 1135.43 761.171 1136.13 762.996C1136.41 763.697 1136.83 764.259 1137.67 764.539C1141.88 766.223 1151.57 761.592 1151.57 761.592L1151.99 762.575C1151.85 762.434 1144.97 765.662 1140.06 765.662Z" fill="#0538FB"/>
<path d="M1157.32 735.069L1151.01 764.399L1158.16 766.925L1165.46 736.192L1157.32 735.069Z" fill="url(#paint137_linear)"/>
<path d="M1199.98 784.887L1204.75 786.291C1204.75 786.291 1213.59 766.784 1204.75 750.927L1197.59 748.822L1199.98 784.887Z" fill="url(#paint138_linear)"/>
<path d="M1187.49 747.699L1197.45 748.822C1197.45 748.822 1208.26 755.558 1199.98 784.888C1199.98 784.888 1192.54 777.169 1184.97 765.943C1184.97 765.943 1182.02 759.066 1188.05 756.681C1191.98 755.137 1187.49 747.699 1187.49 747.699Z" fill="url(#paint139_linear)"/>
<path d="M1200.54 785.028L1199.56 784.607C1208.54 760.049 1197.31 749.243 1197.17 749.103L1197.88 748.261C1198.44 748.822 1209.66 759.768 1200.54 785.028Z" fill="#0538FB"/>
<path d="M1191.84 774.082C1191.7 774.082 1191.7 774.082 1191.56 773.942C1191.42 773.801 1191.28 773.521 1191.28 773.38L1193.53 766.785L1189.6 769.872C1189.46 770.012 1189.18 770.012 1189.03 769.872C1188.89 769.732 1188.75 769.591 1188.75 769.311L1190.02 763.136L1186.93 767.486L1186.09 766.925L1190.58 760.47C1190.72 760.329 1191 760.189 1191.28 760.329C1191.56 760.47 1191.7 760.61 1191.56 760.891L1190.16 768.188L1194.37 764.96C1194.51 764.82 1194.79 764.82 1194.93 764.96C1195.07 765.101 1195.21 765.381 1195.07 765.522L1192.96 771.696L1196.33 768.328L1197.03 769.03L1192.12 773.942C1192.12 774.082 1191.98 774.082 1191.84 774.082Z" fill="#0538FB"/>
<path d="M1103.3 878.35V884.103C1103.3 884.103 1128.27 887.752 1143.43 872.736V863.895L1103.3 878.35Z" fill="url(#paint140_linear)"/>
<path d="M1141.61 852.107L1143.57 863.755C1143.57 863.755 1139.36 878.209 1103.3 878.209C1103.3 878.209 1109.75 867.263 1120 855.054C1120 855.054 1126.73 849.441 1131.5 855.616C1134.45 859.545 1141.61 852.107 1141.61 852.107Z" fill="url(#paint141_linear)"/>
<path d="M1109.05 879.051C1107.23 879.051 1105.26 879.051 1103.3 878.77L1103.44 877.788C1134.45 880.033 1143.01 863.755 1143.15 863.614L1144.13 864.035C1143.85 864.316 1135.99 879.051 1109.05 879.051Z" fill="#0538FB"/>
<path d="M1120.42 869.789L1113.12 865.72C1112.84 865.579 1112.84 865.299 1112.84 865.158C1112.84 864.878 1113.12 864.737 1113.4 864.737L1121.96 865.158L1116.91 861.369C1116.77 861.229 1116.63 860.948 1116.77 860.808C1116.77 860.668 1117.05 860.387 1117.19 860.387L1125.05 859.685L1118.59 857.58L1118.87 856.598L1127.71 859.545C1127.99 859.685 1128.13 859.826 1128.13 860.106C1128.13 860.387 1127.85 860.527 1127.71 860.527L1118.73 861.229L1124.06 865.158C1124.2 865.299 1124.34 865.579 1124.2 865.72C1124.06 866 1123.92 866.141 1123.64 866L1115.64 865.579L1120.98 868.526L1120.42 869.789Z" fill="#0538FB"/>
<path d="M1148.54 704H1134.54V707H1148.54V704Z" fill="url(#paint142_linear)"/>
<path d="M792.54 374V359.9H795.1V365.78H802.36V359.9H804.92V374H802.36V367.92H795.1V374H792.54ZM811.129 374.2C810.422 374.2 809.789 374.067 809.229 373.8C808.682 373.52 808.249 373.147 807.929 372.68C807.622 372.213 807.469 371.687 807.469 371.1C807.469 370.38 807.655 369.813 808.029 369.4C808.402 368.973 809.009 368.667 809.849 368.48C810.689 368.293 811.815 368.2 813.229 368.2H813.929V367.78C813.929 367.113 813.782 366.633 813.489 366.34C813.195 366.047 812.702 365.9 812.009 365.9C811.462 365.9 810.902 365.987 810.329 366.16C809.755 366.32 809.175 366.573 808.589 366.92L807.869 365.22C808.215 364.98 808.622 364.773 809.089 364.6C809.569 364.413 810.069 364.273 810.589 364.18C811.122 364.073 811.622 364.02 812.089 364.02C813.515 364.02 814.575 364.353 815.269 365.02C815.962 365.673 816.309 366.693 816.309 368.08V374H813.969V372.44C813.742 372.987 813.382 373.42 812.889 373.74C812.395 374.047 811.809 374.2 811.129 374.2ZM811.649 372.48C812.302 372.48 812.842 372.253 813.269 371.8C813.709 371.347 813.929 370.773 813.929 370.08V369.64H813.249C811.995 369.64 811.122 369.74 810.629 369.94C810.149 370.127 809.909 370.473 809.909 370.98C809.909 371.42 810.062 371.78 810.369 372.06C810.675 372.34 811.102 372.48 811.649 372.48ZM817.56 374L819.62 370.36C819.873 369.907 820.126 369.533 820.38 369.24C820.646 368.947 820.94 368.727 821.26 368.58L818 364.22H820.68L823.52 368.02H824.7V364.22H827.2V368.02H828.38L831.2 364.22H833.88L830.64 368.58C830.96 368.74 831.246 368.967 831.5 369.26C831.766 369.54 832.026 369.907 832.28 370.36L834.32 374H831.66L830.02 371.12C829.766 370.653 829.506 370.347 829.24 370.2C828.973 370.04 828.626 369.96 828.2 369.96H827.2V374H824.7V369.96H823.7C823.26 369.96 822.913 370.04 822.66 370.2C822.406 370.347 822.146 370.653 821.88 371.12L820.24 374H817.56ZM835.623 374V364.22H837.683L841.063 370L844.443 364.22H846.483V374H844.283V367.92L841.643 372.4H840.463L837.823 367.92V374H835.623ZM849.315 374V364.22H851.575V370.74L856.475 364.22H858.555V374H856.295V367.48L851.395 374H849.315ZM861.685 369.82L860.905 359.9H863.985L863.205 369.82H861.685ZM861.045 374V371.22H863.845V374H861.045Z" fill="black"/>
<path d="M795.16 400V389.856H791.064V388.72H800.584V389.856H796.488V400H795.16ZM801.661 402.88L802.989 399.872L799.709 392.224H801.117L803.693 398.528L806.285 392.224H807.645L803.021 402.88H801.661ZM810.802 400V393.264H807.986V392.224H814.93V393.264H812.098V400H810.802ZM820.405 400V392.224H821.477L824.405 397.424L827.333 392.224H828.389V400H827.237V394.336L824.725 398.752H824.069L821.557 394.336V400H820.405ZM834.2 400.144C833.443 400.144 832.787 399.979 832.232 399.648C831.677 399.317 831.245 398.853 830.936 398.256C830.637 397.648 830.488 396.933 830.488 396.112C830.488 395.291 830.637 394.581 830.936 393.984C831.245 393.376 831.677 392.907 832.232 392.576C832.787 392.245 833.443 392.08 834.2 392.08C834.947 392.08 835.597 392.245 836.152 392.576C836.717 392.907 837.149 393.376 837.448 393.984C837.757 394.581 837.912 395.291 837.912 396.112C837.912 396.933 837.757 397.648 837.448 398.256C837.149 398.853 836.717 399.317 836.152 399.648C835.597 399.979 834.947 400.144 834.2 400.144ZM834.2 399.104C834.925 399.104 835.507 398.848 835.944 398.336C836.381 397.813 836.6 397.072 836.6 396.112C836.6 395.141 836.381 394.4 835.944 393.888C835.507 393.376 834.925 393.12 834.2 393.12C833.464 393.12 832.877 393.376 832.44 393.888C832.013 394.4 831.8 395.141 831.8 396.112C831.8 397.072 832.013 397.813 832.44 398.336C832.877 398.848 833.464 399.104 834.2 399.104ZM840.014 400V392.224H845.47V393.264H841.31V400H840.014ZM854.357 400.144C853.205 400.144 852.293 399.765 851.621 399.008C850.949 398.251 850.613 397.152 850.613 395.712V394.512C850.613 392.965 850.922 391.792 851.541 390.992C852.16 390.181 853.098 389.605 854.357 389.264L857.125 388.48L857.557 389.552L854.453 390.384C853.589 390.619 852.938 391.04 852.501 391.648C852.074 392.245 851.861 392.981 851.861 393.856V393.888C852.106 393.365 852.469 392.955 852.949 392.656C853.429 392.347 853.994 392.192 854.645 392.192C855.317 392.192 855.909 392.352 856.421 392.672C856.933 392.992 857.328 393.451 857.605 394.048C857.893 394.635 858.037 395.328 858.037 396.128C858.037 396.939 857.882 397.648 857.573 398.256C857.274 398.853 856.848 399.317 856.293 399.648C855.749 399.979 855.104 400.144 854.357 400.144ZM854.309 399.104C855.066 399.104 855.658 398.853 856.085 398.352C856.512 397.84 856.725 397.109 856.725 396.16C856.725 395.232 856.512 394.512 856.085 394C855.658 393.488 855.072 393.232 854.325 393.232C853.578 393.232 852.992 393.483 852.565 393.984C852.138 394.485 851.925 395.173 851.925 396.048C851.925 397.051 852.133 397.813 852.549 398.336C852.965 398.848 853.552 399.104 854.309 399.104ZM860.139 400V392.224H861.435V394.992H863.787C864.779 394.992 865.531 395.211 866.043 395.648C866.555 396.075 866.811 396.683 866.811 397.472C866.811 398.251 866.545 398.869 866.011 399.328C865.489 399.776 864.747 400 863.787 400H860.139ZM867.963 400V392.224H869.259V400H867.963ZM861.435 399.072H863.659C864.257 399.072 864.721 398.944 865.051 398.688C865.393 398.432 865.563 398.032 865.563 397.488C865.563 396.955 865.398 396.56 865.067 396.304C864.737 396.048 864.267 395.92 863.659 395.92H861.435V399.072ZM873.443 400V393.264H870.627V392.224H877.571V393.264H874.739V400H873.443ZM878.936 400V392.224H880.232V394.992H882.584C883.576 394.992 884.328 395.211 884.84 395.648C885.352 396.075 885.608 396.683 885.608 397.472C885.608 398.251 885.342 398.869 884.808 399.328C884.286 399.776 883.544 400 882.584 400H878.936ZM880.232 399.072H882.456C883.054 399.072 883.518 398.944 883.848 398.688C884.19 398.432 884.36 398.032 884.36 397.488C884.36 396.955 884.195 396.56 883.864 396.304C883.534 396.048 883.064 395.92 882.456 395.92H880.232V399.072ZM891.639 400V392.224H895.431C896.349 392.224 897.026 392.4 897.463 392.752C897.901 393.093 898.119 393.6 898.119 394.272C898.119 394.677 898.002 395.029 897.767 395.328C897.543 395.627 897.234 395.845 896.839 395.984C897.319 396.101 897.693 396.325 897.959 396.656C898.237 396.987 898.375 397.387 898.375 397.856C898.375 398.517 898.13 399.04 897.639 399.424C897.149 399.808 896.455 400 895.559 400H891.639ZM892.871 395.6H895.367C895.858 395.6 896.237 395.493 896.503 395.28C896.77 395.056 896.903 394.741 896.903 394.336C896.903 393.941 896.77 393.637 896.503 393.424C896.237 393.211 895.858 393.104 895.367 393.104H892.871V395.6ZM892.871 399.12H895.511C896.045 399.12 896.45 399.008 896.727 398.784C897.005 398.56 897.143 398.229 897.143 397.792C897.143 397.365 897.005 397.04 896.727 396.816C896.45 396.592 896.045 396.48 895.511 396.48H892.871V399.12ZM902.853 400.144C902.32 400.144 901.84 400.043 901.413 399.84C900.997 399.627 900.667 399.339 900.421 398.976C900.176 398.613 900.053 398.208 900.053 397.76C900.053 397.195 900.197 396.747 900.485 396.416C900.784 396.085 901.269 395.851 901.941 395.712C902.624 395.563 903.552 395.488 904.725 395.488H905.237V394.992C905.237 394.331 905.099 393.856 904.821 393.568C904.555 393.269 904.123 393.12 903.525 393.12C903.056 393.12 902.603 393.189 902.165 393.328C901.728 393.456 901.28 393.669 900.821 393.968L900.373 393.024C900.779 392.736 901.269 392.507 901.845 392.336C902.432 392.165 902.992 392.08 903.525 392.08C904.528 392.08 905.269 392.325 905.749 392.816C906.24 393.307 906.485 394.069 906.485 395.104V400H905.269V398.656C905.067 399.115 904.752 399.477 904.325 399.744C903.909 400.011 903.419 400.144 902.853 400.144ZM903.061 399.168C903.701 399.168 904.224 398.949 904.629 398.512C905.035 398.064 905.237 397.499 905.237 396.816V396.336H904.741C903.877 396.336 903.195 396.379 902.693 396.464C902.203 396.539 901.856 396.677 901.653 396.88C901.461 397.072 901.365 397.339 901.365 397.68C901.365 398.117 901.515 398.475 901.813 398.752C902.123 399.029 902.539 399.168 903.061 399.168ZM909.014 400V392.224H910.262V398.96H913.51V392.224H914.742V398.96H917.99V392.224H919.238V400H909.014ZM925.905 400V392.224H932.689V400H931.393V393.264H927.201V400H925.905ZM935.265 402.88V392.224H936.529V393.616C936.763 393.136 937.11 392.763 937.569 392.496C938.038 392.219 938.582 392.08 939.201 392.08C939.894 392.08 940.497 392.245 941.009 392.576C941.531 392.896 941.931 393.36 942.209 393.968C942.497 394.565 942.641 395.28 942.641 396.112C942.641 396.933 942.497 397.648 942.209 398.256C941.931 398.853 941.531 399.317 941.009 399.648C940.497 399.979 939.894 400.144 939.201 400.144C938.603 400.144 938.07 400.011 937.601 399.744C937.131 399.477 936.785 399.109 936.561 398.64V402.88H935.265ZM938.929 399.104C939.654 399.104 940.235 398.848 940.673 398.336C941.11 397.813 941.329 397.072 941.329 396.112C941.329 395.141 941.11 394.4 940.673 393.888C940.235 393.376 939.654 393.12 938.929 393.12C938.203 393.12 937.622 393.376 937.185 393.888C936.747 394.4 936.529 395.141 936.529 396.112C936.529 397.072 936.747 397.813 937.185 398.336C937.622 398.848 938.203 399.104 938.929 399.104ZM947.981 400.144C947.224 400.144 946.568 399.979 946.013 399.648C945.458 399.317 945.026 398.853 944.717 398.256C944.418 397.648 944.269 396.933 944.269 396.112C944.269 395.291 944.418 394.581 944.717 393.984C945.026 393.376 945.458 392.907 946.013 392.576C946.568 392.245 947.224 392.08 947.981 392.08C948.728 392.08 949.378 392.245 949.933 392.576C950.498 392.907 950.93 393.376 951.229 393.984C951.538 394.581 951.693 395.291 951.693 396.112C951.693 396.933 951.538 397.648 951.229 398.256C950.93 398.853 950.498 399.317 949.933 399.648C949.378 399.979 948.728 400.144 947.981 400.144ZM947.981 399.104C948.706 399.104 949.288 398.848 949.725 398.336C950.162 397.813 950.381 397.072 950.381 396.112C950.381 395.141 950.162 394.4 949.725 393.888C949.288 393.376 948.706 393.12 947.981 393.12C947.245 393.12 946.658 393.376 946.221 393.888C945.794 394.4 945.581 395.141 945.581 396.112C945.581 397.072 945.794 397.813 946.221 398.336C946.658 398.848 947.245 399.104 947.981 399.104ZM952.948 402.08V398.96H953.764C954.137 398.416 954.404 397.792 954.564 397.088C954.724 396.373 954.804 395.515 954.804 394.512V392.224H960.308V398.96H961.54V402.08H960.42V400H954.052V402.08H952.948ZM955.012 398.96H959.076V393.248H955.956V394.736C955.956 395.536 955.876 396.309 955.716 397.056C955.556 397.803 955.321 398.437 955.012 398.96ZM964.176 402.88L965.504 399.872L962.224 392.224H963.632L966.208 398.528L968.8 392.224H970.16L965.536 402.88H964.176ZM971.655 400V392.224H972.951V395.472H974.407L976.951 392.224H978.375L975.671 395.728C975.948 395.835 976.199 396.011 976.423 396.256C976.647 396.501 976.898 396.853 977.175 397.312L978.775 400H977.383L975.975 397.648C975.708 397.189 975.452 396.885 975.207 396.736C974.962 396.587 974.615 396.512 974.167 396.512H972.951V400H971.655ZM981.693 400V393.264H978.877V392.224H985.821V393.264H982.989V400H981.693Z" fill="black"/>
</g>
<defs>
<filter id="filter0_d" x="518.341" y="246.958" width="343.643" height="151.509" filterUnits="userSpaceOnUse" color-interpolation-filters="sRGB">
<feFlood flood-opacity="0" result="BackgroundImageFix"/>
<feColorMatrix in="SourceAlpha" type="matrix" values="0 0 0 0 0 0 0 0 0 0 0 0 0 0 0 0 0 0 127 0"/>
<feOffset dx="3" dy="6"/>
<feGaussianBlur stdDeviation="12"/>
<feColorMatrix type="matrix" values="0 0 0 0 0.0431373 0 0 0 0 0 0 0 0 0 0.301961 0 0 0 0.16 0"/>
<feBlend mode="normal" in2="BackgroundImageFix" result="effect1_dropShadow"/>
<feBlend mode="normal" in="SourceGraphic" in2="effect1_dropShadow" result="shape"/>
</filter>
<filter id="filter1_d" x="640.666" y="377.635" width="345.251" height="178.971" filterUnits="userSpaceOnUse" color-interpolation-filters="sRGB">
<feFlood flood-opacity="0" result="BackgroundImageFix"/>
<feColorMatrix in="SourceAlpha" type="matrix" values="0 0 0 0 0 0 0 0 0 0 0 0 0 0 0 0 0 0 127 0"/>
<feOffset dx="3" dy="6"/>
<feGaussianBlur stdDeviation="12"/>
<feColorMatrix type="matrix" values="0 0 0 0 0.0431373 0 0 0 0 0 0 0 0 0 0.301961 0 0 0 0.16 0"/>
<feBlend mode="normal" in2="BackgroundImageFix" result="effect1_dropShadow"/>
<feBlend mode="normal" in="SourceGraphic" in2="effect1_dropShadow" result="shape"/>
</filter>
<filter id="filter2_d" x="574.961" y="144.153" width="345.251" height="178.971" filterUnits="userSpaceOnUse" color-interpolation-filters="sRGB">
<feFlood flood-opacity="0" result="BackgroundImageFix"/>
<feColorMatrix in="SourceAlpha" type="matrix" values="0 0 0 0 0 0 0 0 0 0 0 0 0 0 0 0 0 0 127 0"/>
<feOffset dx="3" dy="6"/>
<feGaussianBlur stdDeviation="12"/>
<feColorMatrix type="matrix" values="0 0 0 0 0.0431373 0 0 0 0 0 0 0 0 0 0.301961 0 0 0 0.16 0"/>
<feBlend mode="normal" in2="BackgroundImageFix" result="effect1_dropShadow"/>
<feBlend mode="normal" in="SourceGraphic" in2="effect1_dropShadow" result="shape"/>
</filter>
<filter id="filter3_d" x="559.015" y="456.722" width="343.642" height="151.51" filterUnits="userSpaceOnUse" color-interpolation-filters="sRGB">
<feFlood flood-opacity="0" result="BackgroundImageFix"/>
<feColorMatrix in="SourceAlpha" type="matrix" values="0 0 0 0 0 0 0 0 0 0 0 0 0 0 0 0 0 0 127 0"/>
<feOffset dx="3" dy="6"/>
<feGaussianBlur stdDeviation="12"/>
<feColorMatrix type="matrix" values="0 0 0 0 0.0431373 0 0 0 0 0 0 0 0 0 0.301961 0 0 0 0.16 0"/>
<feBlend mode="normal" in2="BackgroundImageFix" result="effect1_dropShadow"/>
<feBlend mode="normal" in="SourceGraphic" in2="effect1_dropShadow" result="shape"/>
</filter>
<filter id="filter4_d" x="548.651" y="87.4078" width="341.687" height="137.399" filterUnits="userSpaceOnUse" color-interpolation-filters="sRGB">
<feFlood flood-opacity="0" result="BackgroundImageFix"/>
<feColorMatrix in="SourceAlpha" type="matrix" values="0 0 0 0 0 0 0 0 0 0 0 0 0 0 0 0 0 0 127 0"/>
<feOffset dx="3" dy="6"/>
<feGaussianBlur stdDeviation="12"/>
<feColorMatrix type="matrix" values="0 0 0 0 0.0431373 0 0 0 0 0 0 0 0 0 0.301961 0 0 0 0.16 0"/>
<feBlend mode="normal" in2="BackgroundImageFix" result="effect1_dropShadow"/>
<feBlend mode="normal" in="SourceGraphic" in2="effect1_dropShadow" result="shape"/>
</filter>
<filter id="filter5_d" x="489" y="570.911" width="338.971" height="123.089" filterUnits="userSpaceOnUse" color-interpolation-filters="sRGB">
<feFlood flood-opacity="0" result="BackgroundImageFix"/>
<feColorMatrix in="SourceAlpha" type="matrix" values="0 0 0 0 0 0 0 0 0 0 0 0 0 0 0 0 0 0 127 0"/>
<feOffset dx="3" dy="6"/>
<feGaussianBlur stdDeviation="12"/>
<feColorMatrix type="matrix" values="0 0 0 0 0.0431373 0 0 0 0 0 0 0 0 0 0.301961 0 0 0 0.16 0"/>
<feBlend mode="normal" in2="BackgroundImageFix" result="effect1_dropShadow"/>
<feBlend mode="normal" in="SourceGraphic" in2="effect1_dropShadow" result="shape"/>
</filter>
<linearGradient id="paint0_linear" x1="560.772" y1="348.871" x2="594.186" y2="307.609" gradientUnits="userSpaceOnUse">
<stop stop-color="#B3CFFF"/>
<stop offset="0.5625" stop-color="#DAE8FF"/>
<stop offset="1" stop-color="#E2EDFF"/>
</linearGradient>
<linearGradient id="paint1_linear" x1="680.148" y1="452.65" x2="724.679" y2="423.731" gradientUnits="userSpaceOnUse">
<stop stop-color="#B3CFFF"/>
<stop offset="0.5625" stop-color="#DAE8FF"/>
<stop offset="1" stop-color="#E2EDFF"/>
</linearGradient>
<linearGradient id="paint2_linear" x1="622.25" y1="272.835" x2="651.169" y2="228.304" gradientUnits="userSpaceOnUse">
<stop stop-color="#B3CFFF"/>
<stop offset="0.5625" stop-color="#DAE8FF"/>
<stop offset="1" stop-color="#E2EDFF"/>
</linearGradient>
<linearGradient id="paint3_linear" x1="597.521" y1="531.655" x2="638.784" y2="498.242" gradientUnits="userSpaceOnUse">
<stop stop-color="#B3CFFF"/>
<stop offset="0.5625" stop-color="#DAE8FF"/>
<stop offset="1" stop-color="#E2EDFF"/>
</linearGradient>
<linearGradient id="paint4_linear" x1="714.529" y1="112.614" x2="718.459" y2="187.601" gradientUnits="userSpaceOnUse">
<stop stop-color="white" stop-opacity="0"/>
<stop offset="1" stop-color="white"/>
</linearGradient>
<linearGradient id="paint5_linear" x1="655.485" y1="664" x2="655.485" y2="588.911" gradientUnits="userSpaceOnUse">
<stop stop-color="white" stop-opacity="0"/>
<stop offset="1" stop-color="white"/>
</linearGradient>
<linearGradient id="paint6_linear" x1="718.624" y1="656.764" x2="718.624" y2="812.253" gradientUnits="userSpaceOnUse">
<stop stop-color="#C2D1F8"/>
<stop offset="1" stop-color="#EEF3FF"/>
</linearGradient>
<linearGradient id="paint7_linear" x1="723.62" y1="803.974" x2="723.62" y2="832.882" gradientUnits="userSpaceOnUse">
<stop stop-color="#2BDC72"/>
<stop offset="1" stop-color="#6CF089"/>
</linearGradient>
<linearGradient id="paint8_linear" x1="724.321" y1="818.007" x2="724.321" y2="837.233" gradientUnits="userSpaceOnUse">
<stop stop-color="#2BDC72"/>
<stop offset="1" stop-color="#6CF089"/>
</linearGradient>
<linearGradient id="paint9_linear" x1="743.203" y1="656.764" x2="743.203" y2="819.13" gradientUnits="userSpaceOnUse">
<stop stop-color="#C2D1F8"/>
<stop offset="1" stop-color="white"/>
</linearGradient>
<linearGradient id="paint10_linear" x1="725.726" y1="628.697" x2="725.726" y2="710.231" gradientUnits="userSpaceOnUse">
<stop stop-color="#0538FB"/>
<stop offset="1" stop-color="#37D9FC"/>
</linearGradient>
<linearGradient id="paint11_linear" x1="714.289" y1="567.512" x2="714.289" y2="616.629" gradientUnits="userSpaceOnUse">
<stop stop-color="#2BDC72"/>
<stop offset="1" stop-color="#8BFF89"/>
</linearGradient>
<linearGradient id="paint12_linear" x1="700.537" y1="596.842" x2="700.537" y2="628.838" gradientUnits="userSpaceOnUse">
<stop stop-color="#C2D1F8"/>
<stop offset="1" stop-color="#EEF3FF"/>
</linearGradient>
<linearGradient id="paint13_linear" x1="694.981" y1="587.868" x2="694.981" y2="597.122" gradientUnits="userSpaceOnUse">
<stop stop-color="#C2D1F8"/>
<stop offset="1" stop-color="#EEF3FF"/>
</linearGradient>
<linearGradient id="paint14_linear" x1="677.805" y1="586.562" x2="677.805" y2="599.404" gradientUnits="userSpaceOnUse">
<stop stop-color="#0538FB"/>
<stop offset="1" stop-color="#37D9FC"/>
</linearGradient>
<linearGradient id="paint15_linear" x1="663.772" y1="588.842" x2="663.772" y2="592.209" gradientUnits="userSpaceOnUse">
<stop stop-color="#0538FB"/>
<stop offset="1" stop-color="#37D9FC"/>
</linearGradient>
<linearGradient id="paint16_linear" x1="733.774" y1="556.987" x2="733.774" y2="635.012" gradientUnits="userSpaceOnUse">
<stop stop-color="#2BDC72"/>
<stop offset="1" stop-color="#8BFF89"/>
</linearGradient>
<linearGradient id="paint17_linear" x1="703.764" y1="625.066" x2="703.764" y2="642.761" gradientUnits="userSpaceOnUse">
<stop stop-color="#2BDC72"/>
<stop offset="1" stop-color="#8BFF89"/>
</linearGradient>
<linearGradient id="paint18_linear" x1="715.138" y1="623.645" x2="715.138" y2="650.308" gradientUnits="userSpaceOnUse">
<stop stop-color="#2BDC72"/>
<stop offset="1" stop-color="#8BFF89"/>
</linearGradient>
<linearGradient id="paint19_linear" x1="720.813" y1="537.902" x2="720.813" y2="576.213" gradientUnits="userSpaceOnUse">
<stop stop-color="#C2D1F8"/>
<stop offset="1" stop-color="white"/>
</linearGradient>
<linearGradient id="paint20_linear" x1="721.584" y1="551.654" x2="721.584" y2="563.583" gradientUnits="userSpaceOnUse">
<stop stop-color="#C2D1F8"/>
<stop offset="1" stop-color="#EEF3FF"/>
</linearGradient>
<linearGradient id="paint21_linear" x1="728.881" y1="543.277" x2="716.004" y2="502.516" gradientUnits="userSpaceOnUse">
<stop stop-color="#2AF6FF"/>
<stop offset="0.6557" stop-color="#52D8F9"/>
<stop offset="1" stop-color="#61CDF6"/>
</linearGradient>
<linearGradient id="paint22_linear" x1="715.687" y1="517.012" x2="715.687" y2="541.62" gradientUnits="userSpaceOnUse">
<stop stop-color="#0538FB"/>
<stop offset="1" stop-color="#37D9FC"/>
</linearGradient>
<linearGradient id="paint23_linear" x1="698.454" y1="530.885" x2="698.454" y2="557.408" gradientUnits="userSpaceOnUse">
<stop stop-color="#0538FB"/>
<stop offset="1" stop-color="#37D9FC"/>
</linearGradient>
<linearGradient id="paint24_linear" x1="713.025" y1="527.642" x2="713.025" y2="560.601" gradientUnits="userSpaceOnUse">
<stop stop-color="#C2D1F8"/>
<stop offset="1" stop-color="white"/>
</linearGradient>
<linearGradient id="paint25_linear" x1="720.888" y1="538.399" x2="734.474" y2="541.91" gradientUnits="userSpaceOnUse">
<stop stop-color="#C2D1F8"/>
<stop offset="1" stop-color="white"/>
</linearGradient>
<linearGradient id="paint26_linear" x1="717.276" y1="540.147" x2="717.276" y2="554.742" gradientUnits="userSpaceOnUse">
<stop stop-color="#0538FB"/>
<stop offset="1" stop-color="#37D9FC"/>
</linearGradient>
<linearGradient id="paint27_linear" x1="729.678" y1="525.272" x2="729.678" y2="554.18" gradientUnits="userSpaceOnUse">
<stop stop-color="#0538FB"/>
<stop offset="1" stop-color="#37D9FC"/>
</linearGradient>
<linearGradient id="paint28_linear" x1="708.575" y1="523.853" x2="708.575" y2="548.707" gradientUnits="userSpaceOnUse">
<stop stop-color="#0538FB"/>
<stop offset="1" stop-color="#37D9FC"/>
</linearGradient>
<linearGradient id="paint29_linear" x1="712.604" y1="597.403" x2="712.604" y2="621.4" gradientUnits="userSpaceOnUse">
<stop stop-color="#C2D1F8"/>
<stop offset="1" stop-color="white"/>
</linearGradient>
<linearGradient id="paint30_linear" x1="685.947" y1="592.229" x2="685.947" y2="606.665" gradientUnits="userSpaceOnUse">
<stop stop-color="#C2D1F8"/>
<stop offset="1" stop-color="white"/>
</linearGradient>
<linearGradient id="paint31_linear" x1="735.282" y1="556.987" x2="735.282" y2="637.006" gradientUnits="userSpaceOnUse">
<stop stop-color="#2BDC72"/>
<stop offset="1" stop-color="#8BFF89"/>
</linearGradient>
<linearGradient id="paint32_linear" x1="735.476" y1="815.452" x2="735.476" y2="832.321" gradientUnits="userSpaceOnUse">
<stop stop-color="#2BDC72"/>
<stop offset="1" stop-color="#6CF089"/>
</linearGradient>
<linearGradient id="paint33_linear" x1="735.267" y1="830.777" x2="735.267" y2="836.671" gradientUnits="userSpaceOnUse">
<stop stop-color="#2BDC72"/>
<stop offset="1" stop-color="#6CF089"/>
</linearGradient>
<linearGradient id="paint34_linear" x1="1166.15" y1="310.204" x2="1166.15" y2="327.044" gradientUnits="userSpaceOnUse">
<stop stop-color="#0538FB"/>
<stop offset="1" stop-color="#37D9FC"/>
</linearGradient>
<linearGradient id="paint35_linear" x1="1157.51" y1="332.211" x2="1164.88" y2="306.986" gradientUnits="userSpaceOnUse">
<stop stop-color="#2AF6FF"/>
<stop offset="0.6557" stop-color="#52D8F9"/>
<stop offset="1" stop-color="#61CDF6"/>
</linearGradient>
<linearGradient id="paint36_linear" x1="1160.61" y1="335.324" x2="1160.61" y2="382.476" gradientUnits="userSpaceOnUse">
<stop stop-color="#C2D1F8"/>
<stop offset="1" stop-color="white"/>
</linearGradient>
<linearGradient id="paint37_linear" x1="1151.44" y1="312.809" x2="1151.44" y2="341.301" gradientUnits="userSpaceOnUse">
<stop stop-color="#C2D1F8"/>
<stop offset="1" stop-color="white"/>
</linearGradient>
<linearGradient id="paint38_linear" x1="1153.86" y1="309.427" x2="1153.86" y2="317.642" gradientUnits="userSpaceOnUse">
<stop stop-color="#C2D1F8"/>
<stop offset="1" stop-color="white"/>
</linearGradient>
<linearGradient id="paint39_linear" x1="1161.29" y1="315.666" x2="1161.29" y2="326.202" gradientUnits="userSpaceOnUse">
<stop stop-color="#C2D1F8"/>
<stop offset="1" stop-color="white"/>
</linearGradient>
<linearGradient id="paint40_linear" x1="1240.66" y1="568.137" x2="1240.66" y2="597.747" gradientUnits="userSpaceOnUse">
<stop stop-color="#C2D1F8"/>
<stop offset="1" stop-color="#EEF3FF"/>
</linearGradient>
<linearGradient id="paint41_linear" x1="1227.19" y1="592.134" x2="1227.19" y2="607.57" gradientUnits="userSpaceOnUse">
<stop stop-color="#2BDC72"/>
<stop offset="1" stop-color="#6CF089"/>
</linearGradient>
<linearGradient id="paint42_linear" x1="1226.84" y1="607.57" x2="1226.84" y2="611.92" gradientUnits="userSpaceOnUse">
<stop stop-color="#2BDC72"/>
<stop offset="1" stop-color="#6CF089"/>
</linearGradient>
<linearGradient id="paint43_linear" x1="1182.15" y1="568.137" x2="1182.15" y2="597.747" gradientUnits="userSpaceOnUse">
<stop stop-color="#C2D1F8"/>
<stop offset="1" stop-color="white"/>
</linearGradient>
<linearGradient id="paint44_linear" x1="1168.6" y1="592.134" x2="1168.6" y2="607.57" gradientUnits="userSpaceOnUse">
<stop stop-color="#2BDC72"/>
<stop offset="1" stop-color="#6CF089"/>
</linearGradient>
<linearGradient id="paint45_linear" x1="1168.18" y1="607.57" x2="1168.18" y2="611.92" gradientUnits="userSpaceOnUse">
<stop stop-color="#2BDC72"/>
<stop offset="1" stop-color="#6CF089"/>
</linearGradient>
<linearGradient id="paint46_linear" x1="1219.17" y1="656.501" x2="1344.12" y2="587.965" gradientUnits="userSpaceOnUse">
<stop stop-color="#2AF6FF"/>
<stop offset="0.6557" stop-color="#52D8F9"/>
<stop offset="1" stop-color="#61CDF6"/>
</linearGradient>
<linearGradient id="paint47_linear" x1="1179.32" y1="657.678" x2="1329.51" y2="517.966" gradientUnits="userSpaceOnUse">
<stop stop-color="#2AF6FF"/>
<stop offset="0.6557" stop-color="#52D8F9"/>
<stop offset="1" stop-color="#61CDF6"/>
</linearGradient>
<linearGradient id="paint48_linear" x1="1221.58" y1="313.011" x2="1221.58" y2="442.117" gradientUnits="userSpaceOnUse">
<stop stop-color="#37D9FC"/>
<stop offset="1" stop-color="#0538FB"/>
</linearGradient>
<linearGradient id="paint49_linear" x1="1181.09" y1="319.887" x2="1181.09" y2="399.316" gradientUnits="userSpaceOnUse">
<stop stop-color="#0538FB"/>
<stop offset="1" stop-color="#37D9FC"/>
</linearGradient>
<linearGradient id="paint50_linear" x1="1216.38" y1="299.399" x2="1216.38" y2="322.413" gradientUnits="userSpaceOnUse">
<stop stop-color="#C2D1F8"/>
<stop offset="1" stop-color="white"/>
</linearGradient>
<linearGradient id="paint51_linear" x1="1200.88" y1="273.877" x2="1200.88" y2="311.825" gradientUnits="userSpaceOnUse">
<stop stop-color="#C2D1F8"/>
<stop offset="1" stop-color="white"/>
</linearGradient>
<linearGradient id="paint52_linear" x1="1204.19" y1="260" x2="1204.19" y2="303.188" gradientUnits="userSpaceOnUse">
<stop stop-color="#0538FB"/>
<stop offset="1" stop-color="#37D9FC"/>
</linearGradient>
<linearGradient id="paint53_linear" x1="1205.86" y1="289.294" x2="1205.86" y2="303.047" gradientUnits="userSpaceOnUse">
<stop stop-color="#C2D1F8"/>
<stop offset="1" stop-color="white"/>
</linearGradient>
<linearGradient id="paint54_linear" x1="1217.52" y1="310.023" x2="1217.52" y2="351.805" gradientUnits="userSpaceOnUse">
<stop stop-color="#0538FB"/>
<stop offset="1" stop-color="#37D9FC"/>
</linearGradient>
<linearGradient id="paint55_linear" x1="1248.59" y1="363.671" x2="1248.59" y2="435.662" gradientUnits="userSpaceOnUse">
<stop stop-color="#2BDC72"/>
<stop offset="1" stop-color="#8BFF89"/>
</linearGradient>
<linearGradient id="paint56_linear" x1="1262.35" y1="349.357" x2="1262.35" y2="390.48" gradientUnits="userSpaceOnUse">
<stop stop-color="#2BDC72"/>
<stop offset="1" stop-color="#8BFF89"/>
</linearGradient>
<linearGradient id="paint57_linear" x1="1254.06" y1="386.686" x2="1254.06" y2="394.825" gradientUnits="userSpaceOnUse">
<stop stop-color="#2BDC72"/>
<stop offset="1" stop-color="#8BFF89"/>
</linearGradient>
<linearGradient id="paint58_linear" x1="1193.51" y1="284.804" x2="1193.51" y2="312.411" gradientUnits="userSpaceOnUse">
<stop stop-color="#2297FC"/>
<stop offset="1" stop-color="#37D9FC"/>
</linearGradient>
<linearGradient id="paint59_linear" x1="877.218" y1="767.33" x2="877.218" y2="894.472" gradientUnits="userSpaceOnUse">
<stop stop-color="#C2D1F8"/>
<stop offset="1" stop-color="white"/>
</linearGradient>
<linearGradient id="paint60_linear" x1="912.808" y1="777.562" x2="912.808" y2="909.348" gradientUnits="userSpaceOnUse">
<stop stop-color="#C2D1F8"/>
<stop offset="1" stop-color="white"/>
</linearGradient>
<linearGradient id="paint61_linear" x1="908.443" y1="914.258" x2="908.443" y2="921.276" gradientUnits="userSpaceOnUse">
<stop stop-color="#2297FC"/>
<stop offset="1" stop-color="#37D9FC"/>
</linearGradient>
<linearGradient id="paint62_linear" x1="908.443" y1="902.277" x2="908.443" y2="917.487" gradientUnits="userSpaceOnUse">
<stop stop-color="#2297FC"/>
<stop offset="1" stop-color="#37D9FC"/>
</linearGradient>
<linearGradient id="paint63_linear" x1="887.464" y1="890.823" x2="887.464" y2="920.013" gradientUnits="userSpaceOnUse">
<stop stop-color="#2297FC"/>
<stop offset="1" stop-color="#37D9FC"/>
</linearGradient>
<linearGradient id="paint64_linear" x1="886.482" y1="880.86" x2="886.482" y2="916.504" gradientUnits="userSpaceOnUse">
<stop stop-color="#2297FC"/>
<stop offset="1" stop-color="#37D9FC"/>
</linearGradient>
<linearGradient id="paint65_linear" x1="893.606" y1="716.951" x2="893.606" y2="856.747" gradientUnits="userSpaceOnUse">
<stop stop-color="#2BDC72"/>
<stop offset="1" stop-color="#8BFF89"/>
</linearGradient>
<linearGradient id="paint66_linear" x1="901.216" y1="662.501" x2="901.216" y2="759.037" gradientUnits="userSpaceOnUse">
<stop stop-color="#C2D1F8"/>
<stop offset="1" stop-color="white"/>
</linearGradient>
<linearGradient id="paint67_linear" x1="849.577" y1="625.594" x2="849.577" y2="682.288" gradientUnits="userSpaceOnUse">
<stop stop-color="#C2D1F8"/>
<stop offset="1" stop-color="white"/>
</linearGradient>
<linearGradient id="paint68_linear" x1="863.124" y1="646.924" x2="863.124" y2="716.863" gradientUnits="userSpaceOnUse">
<stop stop-color="#C2D1F8"/>
<stop offset="1" stop-color="white"/>
</linearGradient>
<linearGradient id="paint69_linear" x1="900.234" y1="595.32" x2="900.234" y2="644.224" gradientUnits="userSpaceOnUse">
<stop stop-color="#C2D1F8"/>
<stop offset="1" stop-color="white"/>
</linearGradient>
<linearGradient id="paint70_linear" x1="899.812" y1="616.191" x2="899.812" y2="629.944" gradientUnits="userSpaceOnUse">
<stop stop-color="#C2D1F8"/>
<stop offset="1" stop-color="white"/>
</linearGradient>
<linearGradient id="paint71_linear" x1="934.414" y1="721.49" x2="854.823" y2="600.949" gradientUnits="userSpaceOnUse">
<stop stop-color="#2AF6FF"/>
<stop offset="0.6557" stop-color="#52D8F9"/>
<stop offset="1" stop-color="#61CDF6"/>
</linearGradient>
<linearGradient id="paint72_linear" x1="855.401" y1="616.129" x2="855.401" y2="653.301" gradientUnits="userSpaceOnUse">
<stop stop-color="#0538FB"/>
<stop offset="1" stop-color="#37D9FC"/>
</linearGradient>
<linearGradient id="paint73_linear" x1="862.876" y1="665.724" x2="832.273" y2="626.68" gradientUnits="userSpaceOnUse">
<stop stop-color="#2AF6FF"/>
<stop offset="0.6557" stop-color="#52D8F9"/>
<stop offset="1" stop-color="#61CDF6"/>
</linearGradient>
<linearGradient id="paint74_linear" x1="847.503" y1="633.575" x2="847.503" y2="649.267" gradientUnits="userSpaceOnUse">
<stop stop-color="#C2D1F8"/>
<stop offset="1" stop-color="white"/>
</linearGradient>
<linearGradient id="paint75_linear" x1="874.545" y1="388" x2="1411.54" y2="388" gradientUnits="userSpaceOnUse">
<stop stop-color="white"/>
<stop offset="1" stop-color="white" stop-opacity="0"/>
</linearGradient>
<linearGradient id="paint76_linear" x1="750.934" y1="387.634" x2="785.096" y2="387.634" gradientUnits="userSpaceOnUse">
<stop stop-color="#2297FC"/>
<stop offset="1" stop-color="#0538FB"/>
</linearGradient>
<linearGradient id="paint77_linear" x1="751.544" y1="396.643" x2="751.544" y2="365.832" gradientUnits="userSpaceOnUse">
<stop stop-color="#0538FB" stop-opacity="0"/>
<stop offset="1" stop-color="#0538FB"/>
</linearGradient>
<linearGradient id="paint78_linear" x1="751.545" y1="382.104" x2="751.545" y2="400.749" gradientUnits="userSpaceOnUse">
<stop offset="0.035" stop-color="#37D9FC"/>
<stop offset="1" stop-color="#1CD6FF"/>
</linearGradient>
<linearGradient id="paint79_linear" x1="765.739" y1="395.294" x2="753.993" y2="364.483" gradientUnits="userSpaceOnUse">
<stop stop-color="#0538FB" stop-opacity="0"/>
<stop offset="1" stop-color="#0538FB"/>
</linearGradient>
<linearGradient id="paint80_linear" x1="747.607" y1="369.919" x2="774.587" y2="396.898" gradientUnits="userSpaceOnUse">
<stop stop-color="#2297FC"/>
<stop offset="1" stop-color="#0538FB"/>
</linearGradient>
<linearGradient id="paint81_linear" x1="750.072" y1="372.383" x2="760.161" y2="382.473" gradientUnits="userSpaceOnUse">
<stop offset="0.035" stop-color="#37D9FC"/>
<stop offset="1" stop-color="#1CD6FF"/>
</linearGradient>
<linearGradient id="paint82_linear" x1="770.055" y1="393.853" x2="760.262" y2="363.042" gradientUnits="userSpaceOnUse">
<stop stop-color="#0538FB" stop-opacity="0"/>
<stop offset="1" stop-color="#0538FB"/>
</linearGradient>
<linearGradient id="paint83_linear" x1="756.275" y1="378.669" x2="754.414" y2="361.402" gradientUnits="userSpaceOnUse">
<stop stop-color="#0538FB" stop-opacity="0"/>
<stop offset="1" stop-color="#0538FB"/>
</linearGradient>
<linearGradient id="paint84_linear" x1="745.686" y1="366.424" x2="735.082" y2="357.648" gradientUnits="userSpaceOnUse">
<stop offset="0.035" stop-color="#37D9FC"/>
<stop offset="1" stop-color="#1CD6FF"/>
</linearGradient>
<linearGradient id="paint85_linear" x1="745.205" y1="369.397" x2="744.946" y2="363.579" gradientUnits="userSpaceOnUse">
<stop stop-color="#0538FB" stop-opacity="0"/>
<stop offset="1" stop-color="#0538FB"/>
</linearGradient>
<linearGradient id="paint86_linear" x1="744.733" y1="364.378" x2="754.502" y2="356.563" gradientUnits="userSpaceOnUse">
<stop stop-color="#0538FB" stop-opacity="0"/>
<stop offset="1" stop-color="#0538FB"/>
</linearGradient>
<linearGradient id="paint87_linear" x1="757.402" y1="366.424" x2="768.006" y2="357.648" gradientUnits="userSpaceOnUse">
<stop offset="0.035" stop-color="#37D9FC"/>
<stop offset="1" stop-color="#1CD6FF"/>
</linearGradient>
<linearGradient id="paint88_linear" x1="757.883" y1="369.397" x2="758.141" y2="363.579" gradientUnits="userSpaceOnUse">
<stop stop-color="#0538FB" stop-opacity="0"/>
<stop offset="1" stop-color="#0538FB"/>
</linearGradient>
<linearGradient id="paint89_linear" x1="758.354" y1="364.377" x2="748.586" y2="356.563" gradientUnits="userSpaceOnUse">
<stop stop-color="#0538FB" stop-opacity="0"/>
<stop offset="1" stop-color="#0538FB"/>
</linearGradient>
<linearGradient id="paint90_linear" x1="759.896" y1="365.27" x2="746.58" y2="363.461" gradientUnits="userSpaceOnUse">
<stop stop-color="#0538FB" stop-opacity="0"/>
<stop offset="1" stop-color="#0538FB"/>
</linearGradient>
<linearGradient id="paint91_linear" x1="746.168" y1="358.227" x2="754.684" y2="366.743" gradientUnits="userSpaceOnUse">
<stop stop-color="#37D9FC"/>
<stop offset="0.966" stop-color="#1CD6FF"/>
</linearGradient>
<linearGradient id="paint92_linear" x1="1046.37" y1="526.349" x2="1046.37" y2="626.805" gradientUnits="userSpaceOnUse">
<stop stop-color="#C2D1F8"/>
<stop offset="1" stop-color="#EEF3FF"/>
</linearGradient>
<linearGradient id="paint93_linear" x1="1053.39" y1="590.607" x2="1029.98" y2="591.542" gradientUnits="userSpaceOnUse">
<stop stop-color="#8BFF89"/>
<stop offset="1" stop-color="#2BDC72"/>
</linearGradient>
<linearGradient id="paint94_linear" x1="1011.43" y1="523.683" x2="1011.43" y2="644.202" gradientUnits="userSpaceOnUse">
<stop stop-color="#C2D1F8"/>
<stop offset="1" stop-color="white"/>
</linearGradient>
<linearGradient id="paint95_linear" x1="1016.35" y1="591.589" x2="981.336" y2="593.32" gradientUnits="userSpaceOnUse">
<stop stop-color="#8BFF89"/>
<stop offset="1" stop-color="#2BDC72"/>
</linearGradient>
<linearGradient id="paint96_linear" x1="1030.4" y1="445.114" x2="1030.4" y2="542.706" gradientUnits="userSpaceOnUse">
<stop stop-color="#0538FB"/>
<stop offset="1" stop-color="#37D9FC"/>
</linearGradient>
<linearGradient id="paint97_linear" x1="1015.64" y1="363.459" x2="1015.64" y2="425.612" gradientUnits="userSpaceOnUse">
<stop stop-color="#37D9FC"/>
<stop offset="1" stop-color="#7AE7FF"/>
</linearGradient>
<linearGradient id="paint98_linear" x1="1045.18" y1="379.312" x2="1045.18" y2="450.025" gradientUnits="userSpaceOnUse">
<stop stop-color="#0538FB"/>
<stop offset="1" stop-color="#37D9FC"/>
</linearGradient>
<linearGradient id="paint99_linear" x1="1040.9" y1="448.481" x2="991.284" y2="452.353" gradientUnits="userSpaceOnUse">
<stop stop-color="#8BFF89"/>
<stop offset="1" stop-color="#2BDC72"/>
</linearGradient>
<linearGradient id="paint100_linear" x1="1067.98" y1="390.396" x2="1013.59" y2="388.421" gradientUnits="userSpaceOnUse">
<stop stop-color="#2BDC72"/>
<stop offset="1" stop-color="#8BFF89"/>
</linearGradient>
<linearGradient id="paint101_linear" x1="1046.16" y1="382.119" x2="1046.16" y2="395.167" gradientUnits="userSpaceOnUse">
<stop stop-color="#C2D1F8"/>
<stop offset="1" stop-color="white"/>
</linearGradient>
<linearGradient id="paint102_linear" x1="1048.41" y1="370.474" x2="1048.41" y2="393.483" gradientUnits="userSpaceOnUse">
<stop stop-color="#C2D1F8"/>
<stop offset="1" stop-color="white"/>
</linearGradient>
<linearGradient id="paint103_linear" x1="1048.48" y1="370.474" x2="1048.48" y2="389.695" gradientUnits="userSpaceOnUse">
<stop stop-color="#C2D1F8"/>
<stop offset="1" stop-color="#EEF3FF"/>
</linearGradient>
<linearGradient id="paint104_linear" x1="1053.39" y1="344.297" x2="1053.39" y2="382.6" gradientUnits="userSpaceOnUse">
<stop stop-color="#C2D1F8"/>
<stop offset="1" stop-color="white"/>
</linearGradient>
<linearGradient id="paint105_linear" x1="1051.48" y1="339.396" x2="1051.48" y2="361.354" gradientUnits="userSpaceOnUse">
<stop stop-color="#37D9FC"/>
<stop offset="1" stop-color="#7AE7FF"/>
</linearGradient>
<linearGradient id="paint106_linear" x1="1070.24" y1="345.921" x2="1070.24" y2="361.494" gradientUnits="userSpaceOnUse">
<stop stop-color="#37D9FC"/>
<stop offset="1" stop-color="#7AE7FF"/>
</linearGradient>
<linearGradient id="paint107_linear" x1="1044.62" y1="347.043" x2="1044.62" y2="361.915" gradientUnits="userSpaceOnUse">
<stop stop-color="#37D9FC"/>
<stop offset="1" stop-color="#7AE7FF"/>
</linearGradient>
<linearGradient id="paint108_linear" x1="1033.01" y1="359.824" x2="1077.1" y2="347.526" gradientUnits="userSpaceOnUse">
<stop stop-color="#0538FB"/>
<stop offset="1" stop-color="#37D9FC"/>
</linearGradient>
<linearGradient id="paint109_linear" x1="1035.64" y1="357.901" x2="1035.64" y2="370.559" gradientUnits="userSpaceOnUse">
<stop stop-color="#C2D1F8"/>
<stop offset="1" stop-color="white"/>
</linearGradient>
<linearGradient id="paint110_linear" x1="1058.79" y1="379.312" x2="1058.79" y2="430.803" gradientUnits="userSpaceOnUse">
<stop stop-color="#37D9FC"/>
<stop offset="1" stop-color="#7AE7FF"/>
</linearGradient>
<linearGradient id="paint111_linear" x1="1029.31" y1="434.732" x2="1029.31" y2="472.195" gradientUnits="userSpaceOnUse">
<stop stop-color="#C2D1F8"/>
<stop offset="1" stop-color="white"/>
</linearGradient>
<linearGradient id="paint112_linear" x1="1015.13" y1="385.626" x2="1015.13" y2="458.302" gradientUnits="userSpaceOnUse">
<stop stop-color="#0538FB"/>
<stop offset="1" stop-color="#37D9FC"/>
</linearGradient>
<linearGradient id="paint113_linear" x1="1061.39" y1="363.459" x2="1061.39" y2="390.677" gradientUnits="userSpaceOnUse">
<stop stop-color="#0538FB"/>
<stop offset="1" stop-color="#37D9FC"/>
</linearGradient>
<linearGradient id="paint114_linear" x1="1058.3" y1="364.283" x2="1058.3" y2="369.053" gradientUnits="userSpaceOnUse">
<stop stop-color="#0538FB"/>
<stop offset="1" stop-color="#37D9FC"/>
</linearGradient>
<linearGradient id="paint115_linear" x1="1065.55" y1="371.448" x2="1065.55" y2="423.508" gradientUnits="userSpaceOnUse">
<stop stop-color="#C2D1F8"/>
<stop offset="1" stop-color="white"/>
</linearGradient>
<linearGradient id="paint116_linear" x1="1071.77" y1="410.6" x2="1071.77" y2="444.003" gradientUnits="userSpaceOnUse">
<stop stop-color="#0538FB"/>
<stop offset="1" stop-color="#37D9FC"/>
</linearGradient>
<linearGradient id="paint117_linear" x1="1052.06" y1="623.546" x2="1052.06" y2="640.274" gradientUnits="userSpaceOnUse">
<stop stop-color="#0538FB"/>
<stop offset="1" stop-color="#37D9FC"/>
</linearGradient>
<linearGradient id="paint118_linear" x1="1052.27" y1="638.87" x2="1052.27" y2="644.763" gradientUnits="userSpaceOnUse">
<stop stop-color="#0538FB"/>
<stop offset="1" stop-color="#37D9FC"/>
</linearGradient>
<linearGradient id="paint119_linear" x1="1005.75" y1="635.893" x2="1005.75" y2="652.62" gradientUnits="userSpaceOnUse">
<stop stop-color="#0538FB"/>
<stop offset="1" stop-color="#37D9FC"/>
</linearGradient>
<linearGradient id="paint120_linear" x1="1005.96" y1="651.077" x2="1005.96" y2="656.969" gradientUnits="userSpaceOnUse">
<stop stop-color="#0538FB"/>
<stop offset="1" stop-color="#37D9FC"/>
</linearGradient>
<linearGradient id="paint121_linear" x1="1168.06" y1="741.525" x2="1168.06" y2="763.978" gradientUnits="userSpaceOnUse">
<stop stop-color="#C2D1F8"/>
<stop offset="1" stop-color="white"/>
</linearGradient>
<linearGradient id="paint122_linear" x1="1187.47" y1="776.463" x2="1167.57" y2="749.225" gradientUnits="userSpaceOnUse">
<stop stop-color="#2AF6FF"/>
<stop offset="0.6557" stop-color="#52D8F9"/>
<stop offset="1" stop-color="#61CDF6"/>
</linearGradient>
<linearGradient id="paint123_linear" x1="1131.01" y1="836.53" x2="1131.01" y2="862.352" gradientUnits="userSpaceOnUse">
<stop stop-color="#C2D1F8"/>
<stop offset="1" stop-color="white"/>
</linearGradient>
<linearGradient id="paint124_linear" x1="1138.25" y1="869.964" x2="1127.89" y2="843.535" gradientUnits="userSpaceOnUse">
<stop stop-color="#2AF6FF"/>
<stop offset="0.6557" stop-color="#52D8F9"/>
<stop offset="1" stop-color="#61CDF6"/>
</linearGradient>
<linearGradient id="paint125_linear" x1="1143.16" y1="775.805" x2="1069.44" y2="647.347" gradientUnits="userSpaceOnUse">
<stop stop-color="#2AF6FF"/>
<stop offset="0.145833" stop-color="#61CDF6"/>
</linearGradient>
<linearGradient id="paint126_linear" x1="1104.98" y1="644.005" x2="1120.3" y2="682.512" gradientUnits="userSpaceOnUse">
<stop stop-color="#C2D1F8"/>
<stop offset="1" stop-color="white"/>
</linearGradient>
<linearGradient id="paint127_linear" x1="1121.52" y1="618" x2="1121.52" y2="664.284" gradientUnits="userSpaceOnUse">
<stop stop-color="#0538FB"/>
<stop offset="1" stop-color="#37D9FC"/>
</linearGradient>
<linearGradient id="paint128_linear" x1="1077.04" y1="725" x2="1054.54" y2="725" gradientUnits="userSpaceOnUse">
<stop stop-color="#C2D1F8"/>
<stop offset="1" stop-color="white"/>
</linearGradient>
<linearGradient id="paint129_linear" x1="1069.21" y1="751.632" x2="1019.44" y2="695.929" gradientUnits="userSpaceOnUse">
<stop stop-color="#2AF6FF"/>
<stop offset="0.6557" stop-color="#52D8F9"/>
<stop offset="1" stop-color="#61CDF6"/>
</linearGradient>
<linearGradient id="paint130_linear" x1="1148.54" y1="730" x2="1170.04" y2="731" gradientUnits="userSpaceOnUse">
<stop stop-color="#C2D1F8"/>
<stop offset="1" stop-color="white"/>
</linearGradient>
<linearGradient id="paint131_linear" x1="1128.32" y1="714.353" x2="1132.51" y2="725.951" gradientUnits="userSpaceOnUse">
<stop stop-color="#0538FB"/>
<stop offset="1" stop-color="#37D9FC"/>
</linearGradient>
<linearGradient id="paint132_linear" x1="1185.61" y1="752.853" x2="1111.36" y2="723.919" gradientUnits="userSpaceOnUse">
<stop stop-color="#2AF6FF"/>
<stop offset="0.6557" stop-color="#52D8F9"/>
<stop offset="1" stop-color="#61CDF6"/>
</linearGradient>
<linearGradient id="paint133_linear" x1="1109.36" y1="724.544" x2="1109.36" y2="830.496" gradientUnits="userSpaceOnUse">
<stop stop-color="#0538FB"/>
<stop offset="1" stop-color="#37D9FC"/>
</linearGradient>
<linearGradient id="paint134_linear" x1="1132.13" y1="830.636" x2="1132.13" y2="842.565" gradientUnits="userSpaceOnUse">
<stop stop-color="#2BDC72"/>
<stop offset="1" stop-color="#8BFF89"/>
</linearGradient>
<linearGradient id="paint135_linear" x1="1101.94" y1="743" x2="1111.12" y2="692.849" gradientUnits="userSpaceOnUse">
<stop stop-color="white"/>
<stop offset="1" stop-color="#C2D1F8"/>
</linearGradient>
<linearGradient id="paint136_linear" x1="1116.3" y1="721.288" x2="1116.3" y2="765.229" gradientUnits="userSpaceOnUse">
<stop stop-color="#0538FB"/>
<stop offset="1" stop-color="#37D9FC"/>
</linearGradient>
<linearGradient id="paint137_linear" x1="1158.23" y1="735.069" x2="1158.23" y2="766.925" gradientUnits="userSpaceOnUse">
<stop stop-color="#2BDC72"/>
<stop offset="1" stop-color="#8BFF89"/>
</linearGradient>
<linearGradient id="paint138_linear" x1="1203.14" y1="748.822" x2="1203.14" y2="786.291" gradientUnits="userSpaceOnUse">
<stop stop-color="#0538FB"/>
<stop offset="1" stop-color="#37D9FC"/>
</linearGradient>
<linearGradient id="paint139_linear" x1="1193.67" y1="747.699" x2="1193.67" y2="784.888" gradientUnits="userSpaceOnUse">
<stop stop-color="#0538FB"/>
<stop offset="1" stop-color="#37D9FC"/>
</linearGradient>
<linearGradient id="paint140_linear" x1="1123.36" y1="863.895" x2="1123.36" y2="884.494" gradientUnits="userSpaceOnUse">
<stop stop-color="#0538FB"/>
<stop offset="1" stop-color="#37D9FC"/>
</linearGradient>
<linearGradient id="paint141_linear" x1="1123.43" y1="852.107" x2="1123.43" y2="878.209" gradientUnits="userSpaceOnUse">
<stop stop-color="#0538FB"/>
<stop offset="1" stop-color="#37D9FC"/>
</linearGradient>
<linearGradient id="paint142_linear" x1="1148.54" y1="703.5" x2="1133.2" y2="718.417" gradientUnits="userSpaceOnUse">
<stop stop-color="white"/>
<stop offset="1" stop-color="#C2D1F8"/>
</linearGradient>
</defs>
</svg>
