<svg width="325" height="533" viewBox="0 0 325 533" fill="none" xmlns="http://www.w3.org/2000/svg">
<g clip-path="url(#clip0)">
<g opacity="0.6">
<g opacity="0.6" filter="url(#filter0_d)">
<path opacity="0.6" d="M113.243 216.891C114.162 212.569 118.41 209.81 122.731 210.729L269.444 241.914C273.766 242.832 276.524 247.08 275.606 251.402L270.026 277.652C269.108 281.974 264.859 284.732 260.538 283.814L113.825 252.629C109.504 251.71 106.745 247.462 107.663 243.141L113.243 216.891Z" fill="white"/>
</g>
<path opacity="0.6" d="M185.866 235.781L152.477 228.684L151.085 235.231L184.475 242.328L185.866 235.781Z" fill="#CEE0FF"/>
<path opacity="0.6" d="M221.709 257.085L149.693 241.778L148.302 248.325L220.317 263.632L221.709 257.085Z" fill="#E1ECFF"/>
<path opacity="0.6" d="M245.932 262.234L225.637 257.92L224.245 264.467L244.541 268.781L245.932 262.234Z" fill="#E1ECFF"/>
<path opacity="0.6" d="M134.97 224.279L129.67 223.152C125.349 222.234 121.1 224.992 120.182 229.314L119.055 234.614C118.137 238.936 120.895 243.184 125.217 244.102L130.517 245.229C134.839 246.147 139.087 243.389 140.005 239.067L141.132 233.767C142.05 229.446 139.292 225.197 134.97 224.279Z" fill="url(#paint0_linear)"/>
</g>
<g opacity="0.2">
<g opacity="0.2" filter="url(#filter1_d)">
<path opacity="0.2" d="M109.265 56.3325C108.346 52.0108 111.105 47.7626 115.427 46.844L243.302 19.6633C247.624 18.7447 251.872 21.5035 252.79 25.8252L257.337 47.2137C258.255 51.5354 255.496 55.7836 251.175 56.7022L123.3 83.8829C118.978 84.8015 114.73 82.0427 113.811 77.721L109.265 56.3325Z" fill="white"/>
</g>
<path opacity="0.2" d="M177.983 43.8301L144.995 50.8419L146.225 56.6292L179.213 49.6174L177.983 43.8301Z" fill="#CEE0FF"/>
<path opacity="0.2" d="M223.27 46.3018L147.456 62.4165L148.686 68.2038L224.5 52.0891L223.27 46.3018Z" fill="#E1ECFF"/>
<path opacity="0.2" d="M128.366 53.7714L125.497 54.3813C121.175 55.2999 118.417 59.548 119.335 63.8697L119.945 66.7388C120.864 71.0606 125.112 73.8193 129.434 72.9007L132.303 72.2909C136.624 71.3723 139.383 67.1241 138.465 62.8024L137.855 59.9333C136.936 55.6116 132.688 52.8528 128.366 53.7714Z" fill="url(#paint1_linear)"/>
</g>
<g opacity="0.2">
<g opacity="0.2" filter="url(#filter2_d)">
<path opacity="0.2" d="M69.958 264.956C70.4198 260.562 74.3563 257.374 78.7504 257.836L208.766 271.501C213.16 271.963 216.348 275.9 215.886 280.294L213.6 302.04C213.139 306.434 209.202 309.622 204.808 309.16L74.7923 295.495C70.3982 295.033 67.2105 291.097 67.6723 286.703L69.958 264.956Z" fill="white"/>
</g>
<path opacity="0.2" d="M152.71 275.724L105.636 270.776L105.018 276.66L152.091 281.608L152.71 275.724Z" fill="#CEE0FF"/>
<path opacity="0.2" d="M180.366 278.63L156.241 276.094L155.623 281.978L179.748 284.514L180.366 278.63Z" fill="#CEE0FF"/>
<path opacity="0.2" d="M137.939 286.069L104.399 282.544L103.78 288.428L137.32 291.953L137.939 286.069Z" fill="#E1ECFF"/>
<path opacity="0.2" d="M88.9158 268.423L85.9987 268.116C81.6046 267.654 77.6681 270.842 77.2063 275.236L76.8997 278.153C76.4378 282.547 79.6255 286.484 84.0196 286.946L86.9367 287.252C91.3308 287.714 95.2673 284.526 95.7291 280.132L96.0357 277.215C96.4976 272.821 93.3099 268.885 88.9158 268.423Z" fill="url(#paint2_linear)"/>
</g>
<g opacity="0.6">
<g opacity="0.6" filter="url(#filter3_d)">
<path opacity="0.6" d="M23.8362 118.648C23.3744 114.254 26.5621 110.318 30.9562 109.856L180.125 94.1774C184.519 93.7156 188.455 96.9033 188.917 101.297L191.722 127.987C192.184 132.381 188.996 136.317 184.602 136.779L35.4338 152.457C31.0397 152.919 27.1032 149.731 26.6414 145.337L23.8362 118.648Z" fill="white"/>
</g>
<path opacity="0.6" d="M84.0972 115.711L64.7935 117.74L65.4931 124.396L84.7968 122.368L84.0972 115.711Z" fill="#CEE0FF"/>
<path opacity="0.6" d="M157.319 108.015L88.0917 115.291L88.7913 121.948L158.019 114.671L157.319 108.015Z" fill="#CEE0FF"/>
<path opacity="0.6" d="M128.764 124.477L66.1932 131.053L66.8929 137.709L129.464 131.133L128.764 124.477Z" fill="#E1ECFF"/>
<path opacity="0.6" d="M46.7831 118.959L41.3947 119.526C37.0006 119.988 33.8129 123.924 34.2747 128.318L34.8411 133.707C35.3029 138.101 39.2394 141.288 43.6335 140.827L49.0219 140.26C53.4159 139.798 56.6037 135.862 56.1418 131.468L55.5755 126.079C55.1136 121.685 51.1771 118.498 46.7831 118.959Z" fill="url(#paint3_linear)"/>
</g>
<g filter="url(#filter4_d)">
<path d="M48 144C48 139.582 51.5817 136 56 136H270.769C275.187 136 278.769 139.582 278.769 144V187.553C278.769 191.972 275.187 195.553 270.769 195.553H56C51.5817 195.553 48 191.972 48 187.553V144Z" fill="white"/>
</g>
<path d="M85.7146 182.107H68.5513C67.3004 182.107 66.2428 181.18 66.0778 179.941L63.6548 161.734C63.4557 160.238 64.6194 158.909 66.1282 158.909H88.1376C89.6465 158.909 90.8101 160.238 90.6111 161.734L88.188 179.941C88.023 181.18 86.9654 182.107 85.7146 182.107Z" fill="url(#paint4_linear)"/>
<path d="M85.7146 182.107C86.9654 182.107 88.023 181.18 88.188 179.941L90.6111 161.734C90.8101 160.238 89.6465 158.909 88.1376 158.909H66.1282C64.6194 158.909 63.4557 160.238 63.6548 161.734L64.226 166.025L64.2438 166.031L80.3197 182.107H85.7146Z" fill="url(#paint5_linear)"/>
<path d="M79.1921 158.909H75.0747V182.107H79.1921V158.909Z" fill="url(#paint6_linear)"/>
<path d="M90.6119 161.734L88.1883 179.941C88.0237 181.18 86.9661 182.107 85.715 182.107H79.1924V158.909H88.1377C89.6466 158.909 90.8109 160.238 90.6119 161.734Z" fill="url(#paint7_linear)"/>
<path d="M89.5279 166.092H64.7386C63.6179 166.092 62.7095 165.184 62.7095 164.063V158.886C62.7095 157.766 63.6179 156.857 64.7386 156.857H89.5278C90.6485 156.857 91.557 157.766 91.557 158.886V164.063C91.557 165.184 90.6485 166.092 89.5279 166.092Z" fill="url(#paint8_linear)"/>
<path d="M79.1921 156.857H75.0747V166.093H79.1921V156.857Z" fill="url(#paint9_linear)"/>
<path d="M91.5573 158.885V164.063C91.5573 165.184 90.6489 166.092 89.5281 166.092H79.1924V156.856H89.5281C90.649 156.856 91.5573 157.765 91.5573 158.885Z" fill="url(#paint10_linear)"/>
<path d="M86.4916 156.857H67.7838C67.8402 157.178 67.9084 157.5 67.9888 157.822C68.1109 158.311 68.3758 158.72 68.7248 159.023L75.7937 166.092H89.528C90.6487 166.092 91.5571 165.184 91.5571 164.063V161.922L86.4916 156.857Z" fill="url(#paint11_linear)"/>
<path d="M67.9902 151.343C68.3447 149.925 69.899 149.167 71.2367 149.757C72.1946 150.18 73.1159 150.735 73.9584 151.198C74.7488 151.633 75.321 152.074 75.8417 152.509C77.1358 153.588 77.1358 155.578 75.8417 156.657C75.321 157.091 74.7488 157.533 73.9584 157.968C73.1158 158.431 72.1946 158.985 71.2367 159.408C69.899 159.999 68.3446 159.241 67.9902 157.822C67.4493 155.657 67.4492 153.509 67.9902 151.343Z" fill="url(#paint12_linear)"/>
<path d="M75.8408 156.657C76.2529 156.313 76.5333 155.877 76.6829 155.407C74.2979 155.62 70.5718 156.429 69.1658 159.328C69.7806 159.656 70.5375 159.716 71.2357 159.408C72.1936 158.985 73.1149 158.431 73.9575 157.967C74.7478 157.533 75.3201 157.091 75.8408 156.657Z" fill="url(#paint13_linear)"/>
<path d="M69.8348 154.394C69.8348 155.348 69.9479 157.973 72.5758 158.737C73.0539 158.477 73.5169 158.21 73.9579 157.967C74.7482 157.532 75.3204 157.091 75.8411 156.656C76.5665 156.051 76.8851 155.16 76.7973 154.304C76.7973 154.304 75.4196 153.56 74.8078 153.264C71.5019 151.663 69.8348 153.052 69.8348 154.394Z" fill="url(#paint14_linear)"/>
<path d="M86.2764 151.343C85.9219 149.925 84.3676 149.167 83.0299 149.757C82.072 150.18 81.1507 150.734 80.3081 151.198C79.5178 151.632 78.9456 152.074 78.4248 152.509C77.1307 153.588 77.1307 155.577 78.4248 156.657C78.9456 157.091 79.5178 157.533 80.3081 157.968C81.1507 158.431 82.072 158.985 83.0299 159.408C84.3675 159.999 85.9219 159.241 86.2764 157.822C86.8173 155.657 86.8174 153.509 86.2764 151.343Z" fill="url(#paint15_linear)"/>
<path d="M78.425 156.657C78.0129 156.313 77.7325 155.877 77.5829 155.407C79.9679 155.62 83.694 156.429 85.1 159.328C84.4852 159.656 83.7283 159.716 83.0301 159.408C82.0722 158.985 81.1509 158.431 80.3083 157.967C79.518 157.533 78.9457 157.091 78.425 156.657Z" fill="url(#paint16_linear)"/>
<path d="M84.4309 154.394C84.4309 155.348 84.3178 157.973 81.69 158.737C81.2119 158.477 80.7488 158.21 80.3079 157.967C79.5175 157.532 78.9453 157.091 78.4246 156.656C77.6992 156.051 77.3807 155.16 77.4685 154.304C77.4685 154.304 78.8461 153.56 79.458 153.264C82.7638 151.663 84.4309 153.052 84.4309 154.394Z" fill="url(#paint17_linear)"/>
<path d="M78.4248 156.657C78.9455 157.091 79.5177 157.533 80.308 157.967C81.1507 158.43 82.0719 158.985 83.0298 159.408C84.1575 159.906 85.4392 159.445 86.0261 158.438L79.8407 152.253C79.6879 152.087 79.5194 151.937 79.3387 151.801C79.0017 152.038 78.7056 152.274 78.4248 152.508C77.1307 153.588 77.1307 155.577 78.4248 156.657Z" fill="url(#paint18_linear)"/>
<path d="M77.1326 158.437C79.1679 158.437 80.8179 156.787 80.8179 154.752C80.8179 152.717 79.1679 151.067 77.1326 151.067C75.0972 151.067 73.4473 152.717 73.4473 154.752C73.4473 156.787 75.0972 158.437 77.1326 158.437Z" fill="url(#paint19_linear)"/>
<path d="M277.696 252.05C277.696 252.05 269.772 290.005 272.691 301.891C275.61 313.674 295.003 367.583 295.003 367.583L306.264 361.848C306.264 361.848 292.188 310.442 291.041 301.787C289.999 293.133 298.653 256.221 298.653 256.221L277.696 252.05Z" fill="url(#paint20_linear)"/>
<path d="M293.44 365.184C293.44 365.184 278.218 378.74 276.132 382.911L309.601 371.858L305.013 361.431C305.013 361.431 301.156 362.265 298.028 364.976C295.734 366.853 293.44 365.184 293.44 365.184Z" fill="url(#paint21_linear)"/>
<path d="M309.601 371.858L276.132 382.911L276.653 386.143L310.644 374.882L309.601 371.858Z" fill="url(#paint22_linear)"/>
<path d="M276.237 383.328L309.706 372.275C309.914 372.171 310.123 371.962 310.018 371.649C309.914 371.441 309.706 371.232 309.393 371.337L275.924 382.389C275.715 382.494 275.507 382.702 275.611 383.015C275.715 383.224 276.028 383.432 276.237 383.328Z" fill="#2BDC72"/>
<path d="M286.977 375.299C287.081 375.299 287.185 375.195 287.185 375.09C287.289 374.986 287.289 374.778 287.185 374.569L285.934 372.484L289.375 372.796C289.583 372.796 289.687 372.692 289.792 372.588C289.896 372.484 289.896 372.275 289.792 372.066L288.436 369.564L292.086 369.46C292.398 369.46 292.503 369.251 292.503 368.938C292.503 368.626 292.294 368.521 291.981 368.521L287.602 368.626C287.394 368.626 287.289 368.73 287.185 368.834C287.081 368.938 287.081 369.147 287.185 369.251L288.436 371.649L284.996 371.337C284.787 371.337 284.683 371.441 284.579 371.545C284.474 371.649 284.474 371.858 284.579 372.066L285.83 374.152L282.493 374.048C282.285 374.048 281.972 374.256 281.972 374.465C281.972 374.778 282.18 374.986 282.389 374.986L286.664 375.195C286.872 375.299 286.977 375.299 286.977 375.299Z" fill="#2BDC72"/>
<path d="M306.16 372.275L317.421 372.692C317.421 372.692 317.317 335.676 315.961 318.888C314.918 306.167 318.463 259.766 318.463 259.766L296.464 252.05C296.359 252.05 295.108 304.394 306.16 372.275Z" fill="url(#paint23_linear)"/>
<path d="M310.436 233.177L281.972 231.196C281.972 231.196 273.422 261.122 267.062 291.777H308.142L310.957 277.909L313.668 291.777H321.8C321.696 291.882 321.905 244.542 310.436 233.177Z" fill="url(#paint24_linear)"/>
<path d="M281.971 185.733C278.426 191.155 277.801 222.228 277.801 222.228H294.066L281.971 185.733Z" fill="url(#paint25_linear)"/>
<path d="M262.995 207.526L281.971 231.3L288.436 219.413L278.426 211.488L262.995 207.526Z" fill="url(#paint26_linear)"/>
<path d="M274.464 207.526C274.464 207.526 273.004 203.668 272.483 202.834C272.066 201.999 268.416 200.123 268.729 201.165C269.042 202.208 269.772 203.146 269.98 204.085C270.189 205.023 270.502 207.734 270.502 207.734L274.464 207.526Z" fill="url(#paint27_linear)"/>
<path d="M270.189 208.673L263.099 209.403C262.057 209.507 261.014 209.298 260.18 208.881L247.147 202.521C246.209 202.104 246.521 200.748 247.46 200.644L254.55 199.914C255.592 199.81 256.635 200.018 257.469 200.435L270.502 206.796C271.44 207.213 271.128 208.569 270.189 208.673Z" fill="url(#paint28_linear)"/>
<path d="M270.607 209.819L271.024 208.047L267.062 207.526L270.607 209.819Z" fill="#0538FB"/>
<path d="M246.417 201.582L246 203.667L250.796 204.084L246.417 201.582Z" fill="url(#paint29_linear)"/>
<path d="M269.772 210.654L262.682 211.383C261.639 211.488 260.597 211.279 259.763 210.862L246.73 204.502C245.791 204.084 246.104 202.729 247.042 202.625L254.132 201.895C255.175 201.79 256.218 201.999 257.052 202.416L270.085 208.777C271.023 209.194 270.71 210.549 269.772 210.654Z" fill="#0538FB"/>
<path d="M281.97 185.733L310.017 177.913C310.017 177.913 326.908 205.336 313.979 235.888L281.97 231.3C281.97 231.3 287.392 208.986 281.97 185.733Z" fill="url(#paint30_linear)"/>
<path d="M309.184 195.222L302.72 217.64L317.317 221.081L309.184 195.222Z" fill="#2BDC72"/>
<path d="M284.682 228.589C284.682 228.589 278.322 227.442 276.653 233.281C274.985 239.12 271.544 241.518 271.544 241.518C271.544 241.518 278.634 242.352 280.407 239.746C282.388 237.035 284.682 228.589 284.682 228.589Z" fill="url(#paint31_linear)"/>
<path d="M283.221 227.442C283.221 227.442 288.33 229.944 290.207 234.741C291.979 239.641 286.141 243.708 286.453 247.253C286.453 247.253 282.7 245.168 282.596 240.997C282.491 238.39 283.221 227.442 283.221 227.442Z" fill="url(#paint32_linear)"/>
<path d="M291.771 163.732H280.719L289.373 182.813L289.999 192.198L300.842 180.519L291.771 163.732Z" fill="url(#paint33_linear)"/>
<path d="M288.122 180.207L294.586 173.95L289.373 182.813L288.122 180.207Z" fill="url(#paint34_linear)"/>
<path d="M273.004 154.035L280.511 144.442C280.511 144.442 289.478 140.479 297.193 145.693L300.947 159.561L273.004 154.035Z" fill="url(#paint35_linear)"/>
<path d="M272.066 162.793C267.687 160.916 263.621 152.992 272.066 149.551C280.512 146.11 303.658 149.238 306.578 159.561C309.601 169.884 281.346 166.651 272.066 162.793Z" fill="url(#paint36_linear)"/>
<path d="M279.678 178.225H269.251C269.251 178.225 267.166 174.367 270.815 171.448C274.569 168.528 269.772 162.48 277.175 158.518L279.678 178.225Z" fill="url(#paint37_linear)"/>
<path d="M287.601 180.311C292.397 179.059 295.629 174.576 295.212 169.675L294.899 165.4C294.378 159.144 288.435 154.868 282.387 156.433C277.591 157.684 274.359 162.167 274.776 167.068L275.089 171.343C275.61 177.495 281.553 181.771 287.601 180.311Z" fill="url(#paint38_linear)"/>
<path d="M300.932 166.71C301.652 163.922 299.976 161.078 297.189 160.358C294.401 159.638 291.557 161.314 290.837 164.101C290.116 166.889 291.792 169.733 294.58 170.454C297.368 171.174 300.211 169.498 300.932 166.71Z" fill="url(#paint39_linear)"/>
<path d="M288.019 176.244L287.185 175.619C287.289 175.41 290.834 170.927 286.559 166.13L287.289 165.4C292.294 170.822 288.123 176.14 288.019 176.244Z" fill="url(#paint40_linear)"/>
<path d="M285.724 157.058C285.724 157.058 282.7 162.898 289.165 169.258C292.293 172.282 289.165 175.827 289.165 175.827H308.766C308.766 175.827 312.624 166.651 304.804 163.94C299.07 161.959 302.719 157.475 291.25 154.347L285.724 157.058Z" fill="url(#paint41_linear)"/>
<path d="M288.019 168.007C286.559 166.651 283.64 164.67 281.867 159.352C281.867 159.352 280.825 162.376 277.28 164.045C272.171 166.547 274.777 171.761 274.777 171.761C274.777 171.761 269.251 159.457 274.152 154.452C274.152 154.452 282.284 151.845 291.251 154.452C291.251 154.452 290.73 170.509 288.019 168.007Z" fill="url(#paint42_linear)"/>
<path d="M294.482 217.223L288.852 225.773L274.881 213.886L276.966 207.943L294.482 217.223Z" fill="url(#paint43_linear)"/>
<path d="M276.966 207.943C276.966 207.943 271.023 204.502 269.355 204.189C267.686 203.876 261.535 204.502 259.45 204.189C257.469 203.876 260.492 207.63 265.393 207.943C265.393 207.943 263.099 209.507 259.241 208.777C255.383 208.047 251.943 206.587 252.672 208.047C253.402 209.507 262.473 213.261 264.037 213.469C265.601 213.678 271.753 212.635 277.175 214.825L276.966 207.943Z" fill="url(#paint44_linear)"/>
<path d="M310.018 177.913C310.018 177.913 329.307 195.43 323.573 226.503C318.881 251.946 278.426 224.731 278.426 224.731L287.08 209.924C287.08 209.924 305.118 217.327 308.037 217.849L310.018 177.913Z" fill="url(#paint45_linear)"/>
<path d="M287.173 209.567L286.914 210.25L307.879 218.189L308.137 217.506L287.173 209.567Z" fill="#2BDC72"/>
<path d="M305.639 370.398C305.639 370.398 287.184 379.157 284.056 382.494L319.297 381.347L317.837 369.981C317.837 369.981 313.875 369.668 310.122 371.441C307.411 372.692 305.639 370.398 305.639 370.398Z" fill="url(#paint46_linear)"/>
<path d="M319.298 381.347L284.056 382.494L283.639 385.726L319.402 384.579L319.298 381.347Z" fill="url(#paint47_linear)"/>
<path d="M284.056 382.91L319.297 381.764C319.61 381.764 319.714 381.555 319.714 381.242C319.714 380.93 319.506 380.825 319.193 380.825L283.952 381.972C283.639 381.972 283.535 382.181 283.535 382.493C283.639 382.806 283.847 383.015 284.056 382.91Z" fill="#2BDC72"/>
<path d="M296.672 378.322C296.776 378.322 296.881 378.322 296.985 378.218C297.089 378.114 297.193 377.905 297.089 377.801L296.463 375.507L299.591 376.758C299.8 376.863 299.904 376.758 300.113 376.654C300.217 376.55 300.321 376.341 300.321 376.237L299.8 373.526L303.345 374.464C303.553 374.569 303.866 374.36 303.97 374.151C304.075 373.943 303.866 373.63 303.658 373.526L299.383 372.483C299.279 372.483 299.07 372.483 298.966 372.587C298.862 372.692 298.757 372.9 298.862 373.005L299.383 375.611L296.151 374.36C295.942 374.256 295.838 374.36 295.629 374.464C295.525 374.569 295.421 374.777 295.525 374.986L296.151 377.384L292.918 376.341C292.71 376.237 292.397 376.341 292.293 376.654C292.189 376.863 292.293 377.175 292.606 377.28L296.672 378.635C296.568 378.322 296.568 378.322 296.672 378.322Z" fill="#2BDC72"/>
<path d="M184.534 426.777L215.811 431.99L212.37 443.459L180.468 440.748L184.534 426.777Z" fill="url(#paint48_linear)"/>
<path d="M214.246 431.677L205.384 429.696L202.986 443.459L214.246 445.127V431.677Z" fill="url(#paint49_linear)"/>
<path d="M177.235 497.364H163.994V516.549H177.235V497.364Z" fill="url(#paint50_linear)"/>
<path d="M178.278 505.393H162.952V516.653H178.278V505.393Z" fill="url(#paint51_linear)"/>
<path d="M155.967 358.066L129.798 365.886L126.143 414.871L188.391 428.616V373.914L155.967 358.066Z" fill="url(#paint52_linear)"/>
<path fill-rule="evenodd" clip-rule="evenodd" d="M149.548 363.345C148.137 362.771 147.017 361.524 146.688 359.943C146.166 357.336 147.835 354.938 150.337 354.417C152.357 353.996 154.377 355.002 155.354 356.722L160.553 355.146C160.557 355.146 160.57 355.145 160.594 355.143C161.294 355.081 170.637 354.257 172.856 361.924C172.856 361.924 171.396 368.492 167.434 374.54C162.434 382.233 148.211 381.855 149.548 363.345Z" fill="url(#paint53_linear)"/>
<path d="M150.337 354.312C150.337 354.312 147.626 359.943 149.92 361.715C149.92 361.715 151.692 360.881 154.403 358.275C154.403 358.275 155.028 362.132 158.26 361.402C161.492 360.777 159.824 367.45 164.829 366.407C169.833 365.365 169.624 372.663 176.61 367.554C183.595 362.549 177.027 359.421 176.61 357.336C176.193 355.251 183.595 347.222 173.899 340.862C164.203 334.502 161.492 333.981 157.948 336.17C154.403 338.256 149.503 336.17 148.669 345.971C147.73 355.876 147.522 351.706 147.313 356.398C147.313 356.502 148.46 354.417 150.337 354.312Z" fill="url(#paint54_linear)"/>
<path d="M115.626 403.06C115.626 403.06 114.778 407.743 116.444 419.89L132.549 426.657L131.427 410.594L115.626 403.06Z" fill="url(#paint55_linear)"/>
<path d="M133.892 410.729L131.398 414.021C131.398 414.021 126.781 414.219 122.492 414.967" stroke="#C2D1F8" stroke-width="0.5" stroke-miterlimit="10"/>
<path d="M129.777 365.834C129.777 365.834 117.704 374.161 114.234 409.316L132.087 410.784L129.777 365.834Z" fill="url(#paint56_linear)"/>
<path d="M181.354 414.483L184.431 413.597L199.351 415.288L198.874 422.3L171.012 432.331L181.354 414.483Z" fill="url(#paint57_linear)"/>
<path d="M180.591 410.041L181.831 413.981C181.831 413.981 186.112 415.721 189.898 417.87" stroke="#C2D1F8" stroke-width="0.5" stroke-miterlimit="10"/>
<path d="M174.892 404.332L166.458 407.337C166.174 407.438 165.974 407.748 165.869 408.023L164.491 416.137C164.364 416.896 165.08 417.594 165.838 417.324L174.272 414.319C174.556 414.218 174.756 413.909 174.861 413.633L176.24 405.519C176.366 404.76 175.555 404.096 174.892 404.332Z" fill="url(#paint58_linear)"/>
<path d="M177.164 405.948L176.333 404.7L174.935 406.859L177.164 405.948Z" fill="#0538FB"/>
<path d="M175.804 405.546L167.371 408.55C167.087 408.651 166.887 408.961 166.782 409.236L165.404 417.349C165.277 418.108 165.993 418.806 166.751 418.536L175.184 415.532C175.469 415.431 175.669 415.121 175.774 414.845L177.152 406.733C177.184 406.007 176.468 405.31 175.804 405.546Z" fill="#0538FB"/>
<path d="M188.473 374.007C188.473 374.007 200.129 383.957 200.772 416.108L183.724 414.128L188.473 374.007Z" fill="url(#paint59_linear)"/>
<path d="M157.217 444.502C157.217 444.502 142.963 444.345 137.391 441.618C126.685 436.377 125.132 428.244 129.797 414.16L168.998 421.042L180.467 440.748C180.467 440.748 180.467 464.208 180.467 470.672C180.467 477.137 184.011 478.179 181.926 481.724C179.737 485.269 184.741 488.814 180.571 492.881H161.179C161.179 492.881 161.179 459.516 161.179 455.658C161.179 451.8 157.009 452.53 157.738 448.776C158.468 445.023 157.217 444.502 157.217 444.502Z" fill="url(#paint60_linear)"/>
<path d="M184.532 492.985H158.364V501.848H184.532V492.985Z" fill="url(#paint61_linear)"/>
<path d="M181.387 391.467H133.892C132.235 391.467 130.892 392.81 130.892 394.467V420.415C130.892 422.072 132.235 423.415 133.892 423.415H181.387C183.044 423.415 184.387 422.072 184.387 420.415V394.467C184.387 392.81 183.044 391.467 181.387 391.467Z" fill="url(#paint62_linear)"/>
<path fill-rule="evenodd" clip-rule="evenodd" d="M157.639 401.125C154.353 401.125 151.695 403.791 151.695 407.069C151.695 410.348 154.36 413.013 157.639 413.013C160.917 413.013 163.583 410.348 163.583 407.069C163.583 403.791 160.925 401.125 157.639 401.125ZM161.009 410.411C160.586 410.834 160.078 411.166 159.507 411.413C158.929 411.659 158.316 411.779 157.667 411.779C157.004 411.779 156.384 411.659 155.806 411.413C155.227 411.166 154.727 410.834 154.297 410.411C153.874 409.988 153.535 409.488 153.288 408.917C153.042 408.346 152.915 407.732 152.915 407.076C152.915 406.421 153.042 405.807 153.288 405.236C153.535 404.665 153.874 404.171 154.297 403.748C154.72 403.325 155.227 403.001 155.806 402.754C156.384 402.514 157.004 402.388 157.667 402.388C158.316 402.388 158.929 402.507 159.507 402.754C160.085 402.994 160.586 403.325 161.009 403.748C161.432 404.171 161.771 404.665 162.017 405.236C162.264 405.807 162.391 406.421 162.391 407.076C162.391 407.732 162.264 408.346 162.017 408.917C161.771 409.488 161.439 409.988 161.009 410.411ZM157.639 403.304C155.559 403.304 153.874 404.989 153.874 407.069C153.874 409.149 155.559 410.834 157.639 410.834C159.719 410.834 161.404 409.149 161.404 407.069C161.404 404.989 159.719 403.304 157.639 403.304ZM157.639 409.72C156.18 409.72 154.995 408.536 154.995 407.076C154.995 405.617 156.18 404.432 157.639 404.432C159.099 404.432 160.283 405.617 160.283 407.076C160.283 408.536 159.099 409.72 157.639 409.72ZM159.184 407.048C159.184 407.881 158.508 408.557 157.675 408.557C156.842 408.557 156.166 407.881 156.166 407.048C156.166 406.215 156.842 405.539 157.675 405.539C158.508 405.539 159.184 406.215 159.184 407.048Z" fill="url(#paint63_linear)"/>
<path d="M129.798 414.161C129.798 414.161 134.594 409.886 147.105 412.701C159.72 415.412 190.789 424.274 190.789 424.274L186.201 441.895C186.201 441.895 175.671 446.9 174.212 442.729C173.273 440.227 161.388 445.44 160.658 440.018C160.137 436.369 141.162 437.412 135.219 431.573C129.172 425.63 126.983 422.085 129.798 414.161Z" fill="url(#paint64_linear)"/>
<path d="M177.339 444.71C176.609 444.71 175.879 444.606 175.358 444.398C174.628 444.085 174.107 443.563 173.794 442.834C173.481 442.104 171.188 442.417 169.102 442.625C165.349 443.042 160.658 443.668 160.136 440.018C159.928 438.663 155.445 437.933 151.066 437.203C145.227 436.265 138.034 435.014 134.802 431.781L135.323 431.26C138.451 434.284 145.54 435.535 151.17 436.473C156.696 437.412 160.658 438.037 160.866 440.018C161.283 442.938 165.349 442.417 168.894 441.999C171.709 441.687 173.898 441.374 174.42 442.729C174.628 443.251 174.941 443.668 175.566 443.876C178.694 445.127 185.888 441.687 185.888 441.687L186.201 442.417C186.096 442.312 180.988 444.71 177.339 444.71Z" fill="#0538FB"/>
<path d="M190.163 421.98L185.471 443.772L190.788 445.649L196.21 422.815L190.163 421.98Z" fill="url(#paint65_linear)"/>
<path d="M221.858 458.994L225.403 460.037C225.403 460.037 231.971 445.544 225.403 433.762L220.086 432.198L221.858 458.994Z" fill="url(#paint66_linear)"/>
<path d="M212.579 431.364L219.981 432.199C219.981 432.199 228.009 437.203 221.858 458.995C221.858 458.995 216.332 453.26 210.703 444.919C210.703 444.919 208.513 439.81 212.996 438.037C215.915 436.89 212.579 431.364 212.579 431.364Z" fill="url(#paint67_linear)"/>
<path d="M222.275 459.099L221.545 458.786C228.218 440.54 219.877 432.511 219.773 432.407L220.294 431.781C220.711 432.198 229.052 440.331 222.275 459.099Z" fill="#0538FB"/>
<path d="M215.811 450.966C215.707 450.966 215.707 450.966 215.602 450.862C215.498 450.758 215.394 450.549 215.394 450.445L217.062 445.544L214.143 447.838C214.039 447.942 213.83 447.942 213.726 447.838C213.622 447.734 213.517 447.63 213.517 447.421L214.456 442.833L212.162 446.066L211.536 445.649L214.873 440.852C214.977 440.748 215.185 440.644 215.394 440.748C215.602 440.852 215.707 440.957 215.602 441.165L214.56 446.587L217.688 444.189C217.792 444.085 218 444.085 218.105 444.189C218.209 444.293 218.313 444.502 218.209 444.606L216.645 449.194L219.147 446.691L219.669 447.213L216.019 450.862C216.019 450.966 215.915 450.966 215.811 450.966Z" fill="#0538FB"/>
<path d="M150.024 528.435V532.71C150.024 532.71 168.582 535.421 179.842 524.265V517.696L150.024 528.435Z" fill="url(#paint68_linear)"/>
<path d="M178.487 508.938L179.946 517.592C179.946 517.592 176.818 528.331 150.024 528.331C150.024 528.331 154.82 520.198 162.431 511.127C162.431 511.127 167.435 506.956 170.98 511.544C173.169 514.464 178.487 508.938 178.487 508.938Z" fill="url(#paint69_linear)"/>
<path d="M154.299 528.956C152.943 528.956 151.484 528.956 150.024 528.748L150.128 528.018C173.169 529.686 179.529 517.592 179.633 517.487L180.363 517.8C180.155 518.009 174.316 528.956 154.299 528.956Z" fill="#0538FB"/>
<path d="M162.743 522.075L157.321 519.051C157.113 518.947 157.113 518.739 157.113 518.634C157.113 518.426 157.321 518.321 157.53 518.321L163.89 518.634L160.136 515.819C160.032 515.715 159.928 515.506 160.032 515.402C160.032 515.298 160.241 515.089 160.345 515.089L166.183 514.568L161.387 513.004L161.596 512.274L168.164 514.464C168.373 514.568 168.477 514.672 168.477 514.881C168.477 515.089 168.268 515.194 168.164 515.194L161.492 515.715L165.453 518.634C165.558 518.739 165.662 518.947 165.558 519.051C165.453 519.26 165.349 519.364 165.141 519.26L159.198 518.947L163.16 521.137L162.743 522.075Z" fill="#0538FB"/>
<path d="M97.1821 265.816H75.2867C75.0781 265.816 74.9739 265.711 74.9739 265.503V253.616C74.9739 253.407 75.0781 253.303 75.2867 253.303H97.1821C97.3907 253.303 97.4949 253.407 97.4949 253.616V265.399C97.5992 265.607 97.3907 265.816 97.1821 265.816Z" fill="#0538FB"/>
<path d="M95.4096 265.816H73.5141C73.3056 265.816 73.2013 265.711 73.2013 265.503V253.616C73.2013 253.407 73.3056 253.303 73.5141 253.303H95.4096C95.6181 253.303 95.7224 253.407 95.7224 253.616V265.398C95.7224 265.607 95.5138 265.816 95.4096 265.816Z" fill="url(#paint70_linear)"/>
<path d="M74.1397 256.222C74.4276 256.222 74.661 255.989 74.661 255.701C74.661 255.413 74.4276 255.18 74.1397 255.18C73.8518 255.18 73.6184 255.413 73.6184 255.701C73.6184 255.989 73.8518 256.222 74.1397 256.222Z" fill="#0538FB"/>
<path d="M74.1391 262.479C73.8263 262.479 73.6178 262.27 73.6178 261.958V257.161C73.6178 256.848 73.8263 256.64 74.1391 256.64C74.4519 256.64 74.6604 256.848 74.6604 257.161V261.958C74.6604 262.27 74.4519 262.479 74.1391 262.479Z" fill="#0538FB"/>
<path d="M93.3247 264.668H75.4955C75.287 264.668 75.1827 264.564 75.1827 264.355V254.867C75.1827 254.658 75.287 254.554 75.4955 254.554H93.3247C93.5332 254.554 93.6375 254.658 93.6375 254.867V264.355C93.6375 264.46 93.5332 264.668 93.3247 264.668Z" fill="url(#paint71_linear)"/>
<path d="M100.519 275.826L87.9026 307.003L76.6421 301.685L91.5519 271.968L100.519 275.826Z" fill="url(#paint72_linear)"/>
<path d="M91.2389 273.74C91.2389 273.74 88.6323 267.901 88.3195 266.441C88.0067 264.877 87.3812 261.54 90.4048 260.914C90.4048 260.914 91.7603 255.492 93.637 255.388C95.5138 255.284 95.0967 258.933 95.0967 258.933C95.0967 258.933 96.5564 254.762 98.0161 255.284C99.4758 255.701 98.8502 257.891 98.8502 257.891C98.8502 257.891 100.727 257.995 101.04 259.663C101.04 259.663 102.395 260.08 102.708 261.436C103.021 262.791 101.144 273.74 100.518 275.825C99.7886 277.911 91.2389 273.74 91.2389 273.74Z" fill="url(#paint73_linear)"/>
<path d="M95.0968 258.83C95.0968 258.83 96.765 254.033 95.4096 253.095C94.0541 252.156 91.9689 253.303 91.9689 253.303C91.9689 253.303 92.4902 254.972 91.239 258.308L95.0968 258.83Z" fill="url(#paint74_linear)"/>
<path d="M90.405 260.811C90.405 260.811 89.4667 257.161 87.1729 257.37C84.879 257.578 85.8174 259.247 86.6515 259.872C87.5899 260.498 88.007 265.19 88.007 265.19L90.405 260.811Z" fill="url(#paint75_linear)"/>
<path d="M35.3541 444.954H22.8424V466.956H35.3541V444.954Z" fill="url(#paint76_linear)"/>
<path d="M35.8758 462.785C35.8758 462.785 54.7476 471.022 57.9798 474.255H20.2362L21.0703 465.496C21.0703 465.496 23.2599 462.785 31.2882 465.183C34.2076 466.017 35.8758 462.785 35.8758 462.785Z" fill="url(#paint77_linear)"/>
<path d="M20.2362 474.255H57.9798L58.5012 477.486H20.2362V474.255Z" fill="url(#paint78_linear)"/>
<path d="M57.9798 473.942H20.2362V474.567H57.9798V473.942Z" fill="#2BDC72"/>
<path d="M44.7381 470.501L45.4679 467.268L41.5059 469.041L42.1315 465.391L38.378 466.434L38.1694 465.809L42.9656 464.453L42.34 467.894L46.4063 466.121L45.5722 469.458L49.1172 468.207L49.3257 468.832L44.7381 470.501Z" fill="#2BDC72"/>
<path d="M78.8316 444.954H66.3199V466.955H78.8316V444.954Z" fill="url(#paint79_linear)"/>
<path d="M79.353 462.784C79.353 462.784 98.2248 471.022 101.457 474.254H63.8176L64.6517 465.495C64.6517 465.495 66.8413 462.784 74.8696 465.183C77.789 466.017 79.353 462.784 79.353 462.784Z" fill="url(#paint80_linear)"/>
<path d="M63.8174 474.254H101.457L102.082 477.486H63.8174V474.254Z" fill="url(#paint81_linear)"/>
<path d="M101.561 473.942H63.8174V474.567H101.561V473.942Z" fill="#2BDC72"/>
<path d="M88.2151 470.5L88.945 467.268L84.9829 469.04L85.6085 465.391L81.855 466.434L81.6465 465.808L86.4426 464.453L85.8171 467.893L89.8833 466.121L89.1535 469.458L92.5942 468.206L92.8027 468.832L88.2151 470.5Z" fill="#2BDC72"/>
<path d="M37.9615 456.633H17.8385C17.8385 456.633 18.3598 419.825 24.1986 397.928L20.6536 347.148H49.8476L37.9615 456.633Z" fill="url(#paint82_linear)"/>
<path d="M44.5299 395.113L47.6578 368.523L35.3546 360.599L44.5299 395.113Z" fill="#1AC9EF"/>
<path d="M65.4869 345.375C65.4869 345.375 78.2072 382.183 80.7095 397.615C83.2118 412.943 82.899 456.633 82.899 456.633H61.1078L59.8567 399.805L27.7433 348.399L65.4869 345.375Z" fill="url(#paint83_linear)"/>
<path d="M29.3069 261.437C29.3069 261.437 19.4018 267.901 11.7905 293.448C4.17923 318.994 7.61994 322.644 26.596 327.128L29.3069 261.437Z" fill="#0538FB"/>
<path d="M68.9276 276.973L45.1554 255.388C32.4352 255.388 21.9045 265.398 21.2789 278.12L17.6296 351.318H68.1978L68.9276 276.973Z" fill="url(#paint84_linear)"/>
<path d="M35.9793 278.641C33.1642 275.096 30.0363 264.043 33.2684 258.517C36.8134 256.431 40.8797 255.284 45.2588 255.284C58.9174 255.284 69.8652 266.754 69.1353 280.414L68.614 321.705C68.4055 321.288 66.8415 317.326 66.7372 316.909L53.9127 279.997C44.3204 291.571 38.5859 281.874 35.9793 278.641Z" fill="#0538FB"/>
<path d="M45.155 276.034L71.0125 314.406C72.6808 317.534 75.8087 319.516 79.3537 319.516C82.8987 319.516 86.1309 317.534 87.6948 314.302L101.562 286.879L84.6712 278.433L79.1452 289.59L61.6288 260.498L45.155 276.034Z" fill="url(#paint85_linear)"/>
<path d="M55.9979 245.274H43.2776L38.2729 262.166L50.889 262.375L55.9979 245.274Z" fill="url(#paint86_linear)"/>
<path d="M61.838 254.137C67.364 252.678 71.0133 247.464 70.492 241.833L70.0749 236.933C69.4493 229.738 62.4636 224.837 55.4779 226.714C49.9519 228.174 46.3027 233.387 46.824 239.018L47.241 243.919C47.9709 251.113 54.8523 255.91 61.838 254.137Z" fill="url(#paint87_linear)"/>
<path d="M56.2072 246.63C56.2072 246.63 62.2545 242.98 60.1692 234.43C60.1692 234.43 65.591 233.283 65.6952 229.842C65.6952 229.842 75.1833 227.131 71.7426 220.458C68.9274 215.035 58.9181 213.471 56.4157 222.022C52.1409 220.875 39.0036 226.505 39.942 228.799C42.9656 236.098 42.2358 248.09 42.2358 248.09L56.2072 246.63Z" fill="url(#paint88_linear)"/>
<path d="M54.9557 247.985C57.7773 247.985 60.0647 245.698 60.0647 242.876C60.0647 240.054 57.7773 237.767 54.9557 237.767C52.1342 237.767 49.8468 240.054 49.8468 242.876C49.8468 245.698 52.1342 247.985 54.9557 247.985Z" fill="url(#paint89_linear)"/>
<path d="M57.7716 268.214C57.7716 268.214 68.9278 264.669 60.0654 257.682C54.8522 253.616 36.8145 251.009 31.7055 255.597C26.5966 260.185 30.0373 273.323 33.1652 277.181C36.3974 281.248 44.2172 294.699 57.7716 268.214Z" fill="url(#paint90_linear)"/>
<path d="M23.2593 284.898C23.2593 284.898 23.6764 271.446 25.9702 264.669L20.9655 270.925C20.9655 270.925 17.629 280.622 17.9418 288.13L23.2593 284.898Z" fill="#2BDC72"/>
<path d="M53.4957 327.128L68.5097 314.615L68.614 310.131L48.3867 320.037L53.4957 327.128Z" fill="#2BDC72"/>
<path d="M25.9704 282.499L55.4771 329.526L43.6953 330.673L20.9657 293.031L25.9704 282.499Z" fill="#2BDC72"/>
<path d="M20.9657 293.031L2.71948 306.586L25.2405 346.522L43.6953 330.673L20.9657 293.031Z" fill="url(#paint91_linear)"/>
<path d="M55.4776 329.526L32.748 348.19L25.241 346.522L43.6957 330.673L55.4776 329.526Z" fill="#2BDC72"/>
<path d="M0.00865324 304.814C0.00865324 304.814 3.34511 313.155 7.41141 312.947C11.4777 312.842 25.6576 301.581 24.1979 298.244C21.07 291.258 25.9704 282.395 25.9704 282.395C25.9704 282.395 21.2785 282.604 12.3118 291.884C3.34511 301.164 -0.199875 301.581 0.00865324 304.814Z" fill="url(#paint92_linear)"/>
<path d="M7.41125 312.947C11.4776 312.843 26.2831 300.956 24.8234 297.619" stroke="#2BDC72" stroke-miterlimit="10"/>
<path d="M23.6766 316.283V320.037L20.1316 318.786L12.8331 307.42L16.0653 304.501L23.6766 316.283Z" fill="#2BDC72"/>
<path d="M22.1125 312.947L18.0462 316.179L16.1694 313.259L20.2357 310.131L22.1125 312.947Z" fill="url(#paint93_linear)"/>
<path d="M60.273 234.43C60.273 234.43 61.4199 242.042 62.3582 243.814C63.2966 245.587 69.6567 247.255 69.6567 247.255C69.6567 247.255 67.8842 253.199 63.4009 254.554C59.0218 256.014 58.6047 252.886 58.6047 252.886V238.705L60.273 234.43Z" fill="url(#paint94_linear)"/>
<path fill-rule="evenodd" clip-rule="evenodd" d="M252.252 203.792C251.007 204.23 250.868 205.211 251.935 205.982C253.003 206.754 254.881 207.025 256.123 206.588C257.366 206.152 257.508 205.169 256.44 204.398C255.373 203.627 253.498 203.354 252.252 203.792ZM256.553 205.527C256.531 205.683 256.446 205.829 256.31 205.963C256.171 206.098 255.978 206.208 255.732 206.294C255.481 206.383 255.207 206.437 254.907 206.456C254.608 206.475 254.31 206.464 254.01 206.422C253.711 206.379 253.42 206.306 253.141 206.204C252.861 206.103 252.613 205.976 252.4 205.821C252.186 205.667 252.035 205.506 251.942 205.339C251.85 205.171 251.817 205.01 251.84 204.854C251.863 204.698 251.949 204.555 252.088 204.419C252.229 204.286 252.423 204.173 252.674 204.085C252.92 203.999 253.191 203.945 253.491 203.926C253.788 203.906 254.086 203.917 254.384 203.96C254.682 204.003 254.971 204.074 255.25 204.176C255.53 204.277 255.777 204.404 255.991 204.559C256.204 204.713 256.356 204.874 256.449 205.041C256.541 205.209 256.578 205.37 256.553 205.527ZM252.962 204.304C252.174 204.582 252.084 205.203 252.761 205.692C253.438 206.181 254.626 206.353 255.414 206.076C256.202 205.799 256.292 205.178 255.615 204.688C254.937 204.199 253.75 204.027 252.962 204.304ZM255.051 205.814C254.498 206.008 253.663 205.888 253.188 205.544C252.713 205.201 252.776 204.764 253.329 204.57C253.882 204.375 254.717 204.496 255.192 204.84C255.667 205.183 255.604 205.619 255.051 205.814ZM254.766 204.979C255.038 205.175 255.002 205.424 254.686 205.535C254.37 205.646 253.894 205.578 253.623 205.382C253.351 205.185 253.387 204.937 253.703 204.826C254.019 204.714 254.495 204.783 254.766 204.979Z" fill="url(#paint95_linear)"/>
<path fill-rule="evenodd" clip-rule="evenodd" d="M29 322C25.6832 322 23 324.69 23 328C23 331.31 25.6904 334 29 334C32.3096 334 35 331.31 35 328C35 324.69 32.3167 322 29 322ZM32.4021 331.374C31.9751 331.801 31.4626 332.135 30.8861 332.384C30.3025 332.633 29.6833 332.754 29.0284 332.754C28.3594 332.754 27.7331 332.633 27.1494 332.384C26.5658 332.135 26.0605 331.801 25.6263 331.374C25.1993 330.947 24.8576 330.441 24.6085 329.865C24.3594 329.288 24.2313 328.669 24.2313 328.007C24.2313 327.345 24.3594 326.726 24.6085 326.149C24.8576 325.573 25.1993 325.075 25.6263 324.648C26.0534 324.221 26.5658 323.893 27.1494 323.644C27.7331 323.402 28.3594 323.274 29.0284 323.274C29.6833 323.274 30.3025 323.395 30.8861 323.644C31.4697 323.886 31.9751 324.221 32.4021 324.648C32.8292 325.075 33.1708 325.573 33.4199 326.149C33.669 326.726 33.7971 327.345 33.7971 328.007C33.7971 328.669 33.669 329.288 33.4199 329.865C33.1708 330.441 32.8363 330.947 32.4021 331.374ZM29.0002 324.199C26.9005 324.199 25.1995 325.9 25.1995 328C25.1995 330.099 26.9005 331.8 29.0002 331.8C31.0998 331.8 32.8009 330.099 32.8009 328C32.8009 325.9 31.0998 324.199 29.0002 324.199ZM29.0002 330.676C27.5269 330.676 26.3311 329.48 26.3311 328.007C26.3311 326.533 27.5269 325.338 29.0002 325.338C30.4735 325.338 31.6692 326.533 31.6692 328.007C31.6692 329.48 30.4735 330.676 29.0002 330.676ZM30.5597 327.979C30.5597 328.82 29.8777 329.502 29.0365 329.502C28.1954 329.502 27.5134 328.82 27.5134 327.979C27.5134 327.137 28.1954 326.455 29.0365 326.455C29.8777 326.455 30.5597 327.137 30.5597 327.979Z" fill="url(#paint96_linear)"/>
<path d="M104.078 161V151.13H105.87V155.246H110.952V151.13H112.744V161H110.952V156.744H105.87V161H104.078ZM117.09 161.14C116.595 161.14 116.152 161.047 115.76 160.86C115.377 160.664 115.074 160.403 114.85 160.076C114.635 159.749 114.528 159.381 114.528 158.97C114.528 158.466 114.659 158.069 114.92 157.78C115.181 157.481 115.606 157.267 116.194 157.136C116.782 157.005 117.571 156.94 118.56 156.94H119.05V156.646C119.05 156.179 118.947 155.843 118.742 155.638C118.537 155.433 118.191 155.33 117.706 155.33C117.323 155.33 116.931 155.391 116.53 155.512C116.129 155.624 115.723 155.801 115.312 156.044L114.808 154.854C115.051 154.686 115.335 154.541 115.662 154.42C115.998 154.289 116.348 154.191 116.712 154.126C117.085 154.051 117.435 154.014 117.762 154.014C118.761 154.014 119.503 154.247 119.988 154.714C120.473 155.171 120.716 155.885 120.716 156.856V161H119.078V159.908C118.919 160.291 118.667 160.594 118.322 160.818C117.977 161.033 117.566 161.14 117.09 161.14ZM117.454 159.936C117.911 159.936 118.289 159.777 118.588 159.46C118.896 159.143 119.05 158.741 119.05 158.256V157.948H118.574C117.697 157.948 117.085 158.018 116.74 158.158C116.404 158.289 116.236 158.531 116.236 158.886C116.236 159.194 116.343 159.446 116.558 159.642C116.773 159.838 117.071 159.936 117.454 159.936ZM121.592 161L123.034 158.452C123.211 158.135 123.388 157.873 123.566 157.668C123.752 157.463 123.958 157.309 124.182 157.206L121.9 154.154H123.776L125.764 156.814H126.59V154.154H128.34V156.814H129.166L131.14 154.154H133.016L130.748 157.206C130.972 157.318 131.172 157.477 131.35 157.682C131.536 157.878 131.718 158.135 131.896 158.452L133.324 161H131.462L130.314 158.984C130.136 158.657 129.954 158.443 129.768 158.34C129.581 158.228 129.338 158.172 129.04 158.172H128.34V161H126.59V158.172H125.89C125.582 158.172 125.339 158.228 125.162 158.34C124.984 158.443 124.802 158.657 124.616 158.984L123.468 161H121.592ZM134.236 161V154.154H135.678L138.044 158.2L140.41 154.154H141.838V161H140.298V156.744L138.45 159.88H137.624L135.776 156.744V161H134.236ZM143.82 161V154.154H145.402V158.718L148.832 154.154H150.288V161H148.706V156.436L145.276 161H143.82ZM152.479 158.074L151.933 151.13H154.089L153.543 158.074H152.479ZM152.031 161V159.054H153.991V161H152.031Z" fill="black"/>
<path d="M106.12 179V171.392H103.048V170.54H110.188V171.392H107.116V179H106.12ZM110.996 181.16L111.992 178.904L109.532 173.168H110.588L112.52 177.896L114.464 173.168H115.484L112.016 181.16H110.996ZM117.852 179V173.948H115.74V173.168H120.948V173.948H118.824V179H117.852ZM125.054 179V173.168H125.858L128.054 177.068L130.25 173.168H131.042V179H130.178V174.752L128.294 178.064H127.802L125.918 174.752V179H125.054ZM135.4 179.108C134.832 179.108 134.34 178.984 133.924 178.736C133.508 178.488 133.184 178.14 132.952 177.692C132.728 177.236 132.616 176.7 132.616 176.084C132.616 175.468 132.728 174.936 132.952 174.488C133.184 174.032 133.508 173.68 133.924 173.432C134.34 173.184 134.832 173.06 135.4 173.06C135.96 173.06 136.448 173.184 136.864 173.432C137.288 173.68 137.612 174.032 137.836 174.488C138.068 174.936 138.184 175.468 138.184 176.084C138.184 176.7 138.068 177.236 137.836 177.692C137.612 178.14 137.288 178.488 136.864 178.736C136.448 178.984 135.96 179.108 135.4 179.108ZM135.4 178.328C135.944 178.328 136.38 178.136 136.708 177.752C137.036 177.36 137.2 176.804 137.2 176.084C137.2 175.356 137.036 174.8 136.708 174.416C136.38 174.032 135.944 173.84 135.4 173.84C134.848 173.84 134.408 174.032 134.08 174.416C133.76 174.8 133.6 175.356 133.6 176.084C133.6 176.804 133.76 177.36 134.08 177.752C134.408 178.136 134.848 178.328 135.4 178.328ZM139.761 179V173.168H143.853V173.948H140.733V179H139.761ZM150.518 179.108C149.654 179.108 148.97 178.824 148.466 178.256C147.962 177.688 147.71 176.864 147.71 175.784V174.884C147.71 173.724 147.942 172.844 148.406 172.244C148.87 171.636 149.574 171.204 150.518 170.948L152.594 170.36L152.918 171.164L150.59 171.788C149.942 171.964 149.454 172.28 149.126 172.736C148.806 173.184 148.646 173.736 148.646 174.392V174.416C148.83 174.024 149.102 173.716 149.462 173.492C149.822 173.26 150.246 173.144 150.734 173.144C151.238 173.144 151.682 173.264 152.066 173.504C152.45 173.744 152.746 174.088 152.954 174.536C153.17 174.976 153.278 175.496 153.278 176.096C153.278 176.704 153.162 177.236 152.93 177.692C152.706 178.14 152.386 178.488 151.97 178.736C151.562 178.984 151.078 179.108 150.518 179.108ZM150.482 178.328C151.05 178.328 151.494 178.14 151.814 177.764C152.134 177.38 152.294 176.832 152.294 176.12C152.294 175.424 152.134 174.884 151.814 174.5C151.494 174.116 151.054 173.924 150.494 173.924C149.934 173.924 149.494 174.112 149.174 174.488C148.854 174.864 148.694 175.38 148.694 176.036C148.694 176.788 148.85 177.36 149.162 177.752C149.474 178.136 149.914 178.328 150.482 178.328ZM154.855 179V173.168H155.827V175.244H157.591C158.335 175.244 158.899 175.408 159.283 175.736C159.667 176.056 159.859 176.512 159.859 177.104C159.859 177.688 159.659 178.152 159.259 178.496C158.867 178.832 158.311 179 157.591 179H154.855ZM160.723 179V173.168H161.695V179H160.723ZM155.827 178.304H157.495C157.943 178.304 158.291 178.208 158.539 178.016C158.795 177.824 158.923 177.524 158.923 177.116C158.923 176.716 158.799 176.42 158.551 176.228C158.303 176.036 157.951 175.94 157.495 175.94H155.827V178.304ZM164.832 179V173.948H162.72V173.168H167.928V173.948H165.804V179H164.832ZM168.952 179V173.168H169.924V175.244H171.688C172.432 175.244 172.996 175.408 173.38 175.736C173.764 176.056 173.956 176.512 173.956 177.104C173.956 177.688 173.756 178.152 173.356 178.496C172.964 178.832 172.408 179 171.688 179H168.952ZM169.924 178.304H171.592C172.04 178.304 172.388 178.208 172.636 178.016C172.892 177.824 173.02 177.524 173.02 177.116C173.02 176.716 172.896 176.42 172.648 176.228C172.4 176.036 172.048 175.94 171.592 175.94H169.924V178.304ZM178.48 179V173.168H181.324C182.012 173.168 182.52 173.3 182.848 173.564C183.176 173.82 183.34 174.2 183.34 174.704C183.34 175.008 183.252 175.272 183.076 175.496C182.908 175.72 182.676 175.884 182.38 175.988C182.74 176.076 183.02 176.244 183.22 176.492C183.428 176.74 183.532 177.04 183.532 177.392C183.532 177.888 183.348 178.28 182.98 178.568C182.612 178.856 182.092 179 181.42 179H178.48ZM179.404 175.7H181.276C181.644 175.7 181.928 175.62 182.128 175.46C182.328 175.292 182.428 175.056 182.428 174.752C182.428 174.456 182.328 174.228 182.128 174.068C181.928 173.908 181.644 173.828 181.276 173.828H179.404V175.7ZM179.404 178.34H181.384C181.784 178.34 182.088 178.256 182.296 178.088C182.504 177.92 182.608 177.672 182.608 177.344C182.608 177.024 182.504 176.78 182.296 176.612C182.088 176.444 181.784 176.36 181.384 176.36H179.404V178.34ZM186.89 179.108C186.49 179.108 186.13 179.032 185.81 178.88C185.498 178.72 185.25 178.504 185.066 178.232C184.882 177.96 184.79 177.656 184.79 177.32C184.79 176.896 184.898 176.56 185.114 176.312C185.338 176.064 185.702 175.888 186.206 175.784C186.718 175.672 187.414 175.616 188.294 175.616H188.678V175.244C188.678 174.748 188.574 174.392 188.366 174.176C188.166 173.952 187.842 173.84 187.394 173.84C187.042 173.84 186.702 173.892 186.374 173.996C186.046 174.092 185.71 174.252 185.366 174.476L185.03 173.768C185.334 173.552 185.702 173.38 186.134 173.252C186.574 173.124 186.994 173.06 187.394 173.06C188.146 173.06 188.702 173.244 189.062 173.612C189.43 173.98 189.614 174.552 189.614 175.328V179H188.702V177.992C188.55 178.336 188.314 178.608 187.994 178.808C187.682 179.008 187.314 179.108 186.89 179.108ZM187.046 178.376C187.526 178.376 187.918 178.212 188.222 177.884C188.526 177.548 188.678 177.124 188.678 176.612V176.252H188.306C187.658 176.252 187.146 176.284 186.77 176.348C186.402 176.404 186.142 176.508 185.99 176.66C185.846 176.804 185.774 177.004 185.774 177.26C185.774 177.588 185.886 177.856 186.11 178.064C186.342 178.272 186.654 178.376 187.046 178.376ZM191.511 179V173.168H192.447V178.22H194.883V173.168H195.807V178.22H198.243V173.168H199.179V179H191.511ZM204.179 179V173.168H209.267V179H208.295V173.948H205.151V179H204.179ZM211.199 181.16V173.168H212.147V174.212C212.323 173.852 212.583 173.572 212.927 173.372C213.279 173.164 213.687 173.06 214.151 173.06C214.671 173.06 215.123 173.184 215.507 173.432C215.899 173.672 216.199 174.02 216.407 174.476C216.623 174.924 216.731 175.46 216.731 176.084C216.731 176.7 216.623 177.236 216.407 177.692C216.199 178.14 215.899 178.488 215.507 178.736C215.123 178.984 214.671 179.108 214.151 179.108C213.703 179.108 213.303 179.008 212.951 178.808C212.599 178.608 212.339 178.332 212.171 177.98V181.16H211.199ZM213.947 178.328C214.491 178.328 214.927 178.136 215.255 177.752C215.583 177.36 215.747 176.804 215.747 176.084C215.747 175.356 215.583 174.8 215.255 174.416C214.927 174.032 214.491 173.84 213.947 173.84C213.403 173.84 212.967 174.032 212.639 174.416C212.311 174.8 212.147 175.356 212.147 176.084C212.147 176.804 212.311 177.36 212.639 177.752C212.967 178.136 213.403 178.328 213.947 178.328ZM220.736 179.108C220.168 179.108 219.676 178.984 219.26 178.736C218.844 178.488 218.52 178.14 218.288 177.692C218.064 177.236 217.952 176.7 217.952 176.084C217.952 175.468 218.064 174.936 218.288 174.488C218.52 174.032 218.844 173.68 219.26 173.432C219.676 173.184 220.168 173.06 220.736 173.06C221.296 173.06 221.784 173.184 222.2 173.432C222.624 173.68 222.948 174.032 223.172 174.488C223.404 174.936 223.52 175.468 223.52 176.084C223.52 176.7 223.404 177.236 223.172 177.692C222.948 178.14 222.624 178.488 222.2 178.736C221.784 178.984 221.296 179.108 220.736 179.108ZM220.736 178.328C221.28 178.328 221.716 178.136 222.044 177.752C222.372 177.36 222.536 176.804 222.536 176.084C222.536 175.356 222.372 174.8 222.044 174.416C221.716 174.032 221.28 173.84 220.736 173.84C220.184 173.84 219.744 174.032 219.416 174.416C219.096 174.8 218.936 175.356 218.936 176.084C218.936 176.804 219.096 177.36 219.416 177.752C219.744 178.136 220.184 178.328 220.736 178.328ZM224.461 180.56V178.22H225.073C225.353 177.812 225.553 177.344 225.673 176.816C225.793 176.28 225.853 175.636 225.853 174.884V173.168H229.981V178.22H230.905V180.56H230.065V179H225.289V180.56H224.461ZM226.009 178.22H229.057V173.936H226.717V175.052C226.717 175.652 226.657 176.232 226.537 176.792C226.417 177.352 226.241 177.828 226.009 178.22ZM232.882 181.16L233.878 178.904L231.418 173.168H232.474L234.406 177.896L236.35 173.168H237.37L233.902 181.16H232.882ZM238.491 179V173.168H239.463V175.604H240.555L242.463 173.168H243.531L241.503 175.796C241.711 175.876 241.899 176.008 242.067 176.192C242.235 176.376 242.423 176.64 242.631 176.984L243.831 179H242.787L241.731 177.236C241.531 176.892 241.339 176.664 241.155 176.552C240.971 176.44 240.711 176.384 240.375 176.384H239.463V179H238.491ZM246.02 179V173.948H243.908V173.168H249.116V173.948H246.992V179H246.02Z" fill="black"/>
</g>
<defs>
<filter id="filter0_d" x="86.4868" y="192.552" width="216.296" height="121.438" filterUnits="userSpaceOnUse" color-interpolation-filters="sRGB">
<feFlood flood-opacity="0" result="BackgroundImageFix"/>
<feColorMatrix in="SourceAlpha" type="matrix" values="0 0 0 0 0 0 0 0 0 0 0 0 0 0 0 0 0 0 127 0"/>
<feOffset dx="3" dy="6"/>
<feGaussianBlur stdDeviation="12"/>
<feColorMatrix type="matrix" values="0 0 0 0 0.0431373 0 0 0 0 0 0 0 0 0 0.301961 0 0 0 0.16 0"/>
<feBlend mode="normal" in2="BackgroundImageFix" result="effect1_dropShadow"/>
<feBlend mode="normal" in="SourceGraphic" in2="effect1_dropShadow" result="shape"/>
</filter>
<filter id="filter1_d" x="88.0884" y="1.48682" width="196.425" height="112.573" filterUnits="userSpaceOnUse" color-interpolation-filters="sRGB">
<feFlood flood-opacity="0" result="BackgroundImageFix"/>
<feColorMatrix in="SourceAlpha" type="matrix" values="0 0 0 0 0 0 0 0 0 0 0 0 0 0 0 0 0 0 127 0"/>
<feOffset dx="3" dy="6"/>
<feGaussianBlur stdDeviation="12"/>
<feColorMatrix type="matrix" values="0 0 0 0 0.0431373 0 0 0 0 0 0 0 0 0 0.301961 0 0 0 0.16 0"/>
<feBlend mode="normal" in2="BackgroundImageFix" result="effect1_dropShadow"/>
<feBlend mode="normal" in="SourceGraphic" in2="effect1_dropShadow" result="shape"/>
</filter>
<filter id="filter2_d" x="46.6278" y="239.792" width="196.303" height="99.413" filterUnits="userSpaceOnUse" color-interpolation-filters="sRGB">
<feFlood flood-opacity="0" result="BackgroundImageFix"/>
<feColorMatrix in="SourceAlpha" type="matrix" values="0 0 0 0 0 0 0 0 0 0 0 0 0 0 0 0 0 0 127 0"/>
<feOffset dx="3" dy="6"/>
<feGaussianBlur stdDeviation="12"/>
<feColorMatrix type="matrix" values="0 0 0 0 0.0431373 0 0 0 0 0 0 0 0 0 0.301961 0 0 0 0.16 0"/>
<feBlend mode="normal" in2="BackgroundImageFix" result="effect1_dropShadow"/>
<feBlend mode="normal" in="SourceGraphic" in2="effect1_dropShadow" result="shape"/>
</filter>
<filter id="filter3_d" x="2.79175" y="76.1329" width="215.975" height="106.369" filterUnits="userSpaceOnUse" color-interpolation-filters="sRGB">
<feFlood flood-opacity="0" result="BackgroundImageFix"/>
<feColorMatrix in="SourceAlpha" type="matrix" values="0 0 0 0 0 0 0 0 0 0 0 0 0 0 0 0 0 0 127 0"/>
<feOffset dx="3" dy="6"/>
<feGaussianBlur stdDeviation="12"/>
<feColorMatrix type="matrix" values="0 0 0 0 0.0431373 0 0 0 0 0 0 0 0 0 0.301961 0 0 0 0.16 0"/>
<feBlend mode="normal" in2="BackgroundImageFix" result="effect1_dropShadow"/>
<feBlend mode="normal" in="SourceGraphic" in2="effect1_dropShadow" result="shape"/>
</filter>
<filter id="filter4_d" x="27" y="118" width="278.769" height="107.553" filterUnits="userSpaceOnUse" color-interpolation-filters="sRGB">
<feFlood flood-opacity="0" result="BackgroundImageFix"/>
<feColorMatrix in="SourceAlpha" type="matrix" values="0 0 0 0 0 0 0 0 0 0 0 0 0 0 0 0 0 0 127 0"/>
<feOffset dx="3" dy="6"/>
<feGaussianBlur stdDeviation="12"/>
<feColorMatrix type="matrix" values="0 0 0 0 0.0431373 0 0 0 0 0 0 0 0 0 0.301961 0 0 0 0.16 0"/>
<feBlend mode="normal" in2="BackgroundImageFix" result="effect1_dropShadow"/>
<feBlend mode="normal" in="SourceGraphic" in2="effect1_dropShadow" result="shape"/>
</filter>
<linearGradient id="paint0_linear" x1="117.392" y1="242.439" x2="142.795" y2="225.942" gradientUnits="userSpaceOnUse">
<stop stop-color="#B3CFFF"/>
<stop offset="0.5625" stop-color="#DAE8FF"/>
<stop offset="1" stop-color="#E2EDFF"/>
</linearGradient>
<linearGradient id="paint1_linear" x1="121.608" y1="74.5639" x2="136.191" y2="52.1082" gradientUnits="userSpaceOnUse">
<stop stop-color="#B3CFFF"/>
<stop offset="0.5625" stop-color="#DAE8FF"/>
<stop offset="1" stop-color="#E2EDFF"/>
</linearGradient>
<linearGradient id="paint2_linear" x1="76.0633" y1="286.11" x2="96.8719" y2="269.259" gradientUnits="userSpaceOnUse">
<stop stop-color="#B3CFFF"/>
<stop offset="0.5625" stop-color="#DAE8FF"/>
<stop offset="1" stop-color="#E2EDFF"/>
</linearGradient>
<linearGradient id="paint3_linear" x1="35.6774" y1="141.664" x2="54.7392" y2="118.123" gradientUnits="userSpaceOnUse">
<stop stop-color="#B3CFFF"/>
<stop offset="0.5625" stop-color="#DAE8FF"/>
<stop offset="1" stop-color="#E2EDFF"/>
</linearGradient>
<linearGradient id="paint4_linear" x1="76.7325" y1="170.508" x2="99.1299" y2="170.508" gradientUnits="userSpaceOnUse">
<stop stop-color="#2297FC"/>
<stop offset="1" stop-color="#0538FB"/>
</linearGradient>
<linearGradient id="paint5_linear" x1="77.1326" y1="176.415" x2="77.1326" y2="156.214" gradientUnits="userSpaceOnUse">
<stop stop-color="#0538FB" stop-opacity="0"/>
<stop offset="1" stop-color="#0538FB"/>
</linearGradient>
<linearGradient id="paint6_linear" x1="77.133" y1="166.883" x2="77.133" y2="179.107" gradientUnits="userSpaceOnUse">
<stop offset="0.035" stop-color="#37D9FC"/>
<stop offset="1" stop-color="#1CD6FF"/>
</linearGradient>
<linearGradient id="paint7_linear" x1="86.4394" y1="175.53" x2="78.7383" y2="155.33" gradientUnits="userSpaceOnUse">
<stop stop-color="#0538FB" stop-opacity="0"/>
<stop offset="1" stop-color="#0538FB"/>
</linearGradient>
<linearGradient id="paint8_linear" x1="74.5513" y1="158.894" x2="92.2403" y2="176.582" gradientUnits="userSpaceOnUse">
<stop stop-color="#2297FC"/>
<stop offset="1" stop-color="#0538FB"/>
</linearGradient>
<linearGradient id="paint9_linear" x1="76.1672" y1="160.509" x2="82.782" y2="167.124" gradientUnits="userSpaceOnUse">
<stop offset="0.035" stop-color="#37D9FC"/>
<stop offset="1" stop-color="#1CD6FF"/>
</linearGradient>
<linearGradient id="paint10_linear" x1="89.2693" y1="174.585" x2="82.8485" y2="154.384" gradientUnits="userSpaceOnUse">
<stop stop-color="#0538FB" stop-opacity="0"/>
<stop offset="1" stop-color="#0538FB"/>
</linearGradient>
<linearGradient id="paint11_linear" x1="80.2349" y1="164.631" x2="79.0146" y2="153.31" gradientUnits="userSpaceOnUse">
<stop stop-color="#0538FB" stop-opacity="0"/>
<stop offset="1" stop-color="#0538FB"/>
</linearGradient>
<linearGradient id="paint12_linear" x1="73.2924" y1="156.602" x2="66.3399" y2="150.849" gradientUnits="userSpaceOnUse">
<stop offset="0.035" stop-color="#37D9FC"/>
<stop offset="1" stop-color="#1CD6FF"/>
</linearGradient>
<linearGradient id="paint13_linear" x1="72.9767" y1="158.552" x2="72.807" y2="154.737" gradientUnits="userSpaceOnUse">
<stop stop-color="#0538FB" stop-opacity="0"/>
<stop offset="1" stop-color="#0538FB"/>
</linearGradient>
<linearGradient id="paint14_linear" x1="72.667" y1="155.261" x2="79.0719" y2="150.137" gradientUnits="userSpaceOnUse">
<stop stop-color="#0538FB" stop-opacity="0"/>
<stop offset="1" stop-color="#0538FB"/>
</linearGradient>
<linearGradient id="paint15_linear" x1="80.9737" y1="156.602" x2="87.9261" y2="150.849" gradientUnits="userSpaceOnUse">
<stop offset="0.035" stop-color="#37D9FC"/>
<stop offset="1" stop-color="#1CD6FF"/>
</linearGradient>
<linearGradient id="paint16_linear" x1="81.2886" y1="158.552" x2="81.4577" y2="154.737" gradientUnits="userSpaceOnUse">
<stop stop-color="#0538FB" stop-opacity="0"/>
<stop offset="1" stop-color="#0538FB"/>
</linearGradient>
<linearGradient id="paint17_linear" x1="81.5977" y1="155.26" x2="75.1935" y2="150.137" gradientUnits="userSpaceOnUse">
<stop stop-color="#0538FB" stop-opacity="0"/>
<stop offset="1" stop-color="#0538FB"/>
</linearGradient>
<linearGradient id="paint18_linear" x1="82.6088" y1="155.846" x2="73.8782" y2="154.659" gradientUnits="userSpaceOnUse">
<stop stop-color="#0538FB" stop-opacity="0"/>
<stop offset="1" stop-color="#0538FB"/>
</linearGradient>
<linearGradient id="paint19_linear" x1="73.6078" y1="151.228" x2="79.1912" y2="156.812" gradientUnits="userSpaceOnUse">
<stop stop-color="#37D9FC"/>
<stop offset="0.966" stop-color="#1CD6FF"/>
</linearGradient>
<linearGradient id="paint20_linear" x1="289.155" y1="252.05" x2="289.155" y2="367.583" gradientUnits="userSpaceOnUse">
<stop stop-color="#C2D1F8"/>
<stop offset="1" stop-color="#EEF3FF"/>
</linearGradient>
<linearGradient id="paint21_linear" x1="292.867" y1="361.431" x2="292.867" y2="382.911" gradientUnits="userSpaceOnUse">
<stop stop-color="#2BDC72"/>
<stop offset="1" stop-color="#6CF089"/>
</linearGradient>
<linearGradient id="paint22_linear" x1="293.388" y1="371.858" x2="293.388" y2="386.143" gradientUnits="userSpaceOnUse">
<stop stop-color="#2BDC72"/>
<stop offset="1" stop-color="#6CF089"/>
</linearGradient>
<linearGradient id="paint23_linear" x1="307.417" y1="252.05" x2="307.417" y2="372.692" gradientUnits="userSpaceOnUse">
<stop stop-color="#C2D1F8"/>
<stop offset="1" stop-color="white"/>
</linearGradient>
<linearGradient id="paint24_linear" x1="294.431" y1="231.196" x2="294.431" y2="291.778" gradientUnits="userSpaceOnUse">
<stop stop-color="#0538FB"/>
<stop offset="1" stop-color="#37D9FC"/>
</linearGradient>
<linearGradient id="paint25_linear" x1="285.933" y1="185.733" x2="285.933" y2="222.228" gradientUnits="userSpaceOnUse">
<stop stop-color="#2BDC72"/>
<stop offset="1" stop-color="#8BFF89"/>
</linearGradient>
<linearGradient id="paint26_linear" x1="275.716" y1="207.526" x2="275.716" y2="231.3" gradientUnits="userSpaceOnUse">
<stop stop-color="#C2D1F8"/>
<stop offset="1" stop-color="#EEF3FF"/>
</linearGradient>
<linearGradient id="paint27_linear" x1="271.587" y1="200.858" x2="271.587" y2="207.734" gradientUnits="userSpaceOnUse">
<stop stop-color="#C2D1F8"/>
<stop offset="1" stop-color="#EEF3FF"/>
</linearGradient>
<linearGradient id="paint28_linear" x1="258.825" y1="199.887" x2="258.825" y2="209.429" gradientUnits="userSpaceOnUse">
<stop stop-color="#0538FB"/>
<stop offset="1" stop-color="#37D9FC"/>
</linearGradient>
<linearGradient id="paint29_linear" x1="248.398" y1="201.582" x2="248.398" y2="204.084" gradientUnits="userSpaceOnUse">
<stop stop-color="#0538FB"/>
<stop offset="1" stop-color="#37D9FC"/>
</linearGradient>
<linearGradient id="paint30_linear" x1="300.411" y1="177.913" x2="300.411" y2="235.888" gradientUnits="userSpaceOnUse">
<stop stop-color="#2BDC72"/>
<stop offset="1" stop-color="#8BFF89"/>
</linearGradient>
<linearGradient id="paint31_linear" x1="278.113" y1="228.497" x2="278.113" y2="241.645" gradientUnits="userSpaceOnUse">
<stop stop-color="#2BDC72"/>
<stop offset="1" stop-color="#8BFF89"/>
</linearGradient>
<linearGradient id="paint32_linear" x1="286.564" y1="227.442" x2="286.564" y2="247.253" gradientUnits="userSpaceOnUse">
<stop stop-color="#2BDC72"/>
<stop offset="1" stop-color="#8BFF89"/>
</linearGradient>
<linearGradient id="paint33_linear" x1="290.781" y1="163.732" x2="290.781" y2="192.198" gradientUnits="userSpaceOnUse">
<stop stop-color="#C2D1F8"/>
<stop offset="1" stop-color="white"/>
</linearGradient>
<linearGradient id="paint34_linear" x1="291.354" y1="173.95" x2="291.354" y2="182.813" gradientUnits="userSpaceOnUse">
<stop stop-color="#C2D1F8"/>
<stop offset="1" stop-color="#EEF3FF"/>
</linearGradient>
<linearGradient id="paint35_linear" x1="296.776" y1="167.726" x2="287.207" y2="137.439" gradientUnits="userSpaceOnUse">
<stop stop-color="#2AF6FF"/>
<stop offset="0.6557" stop-color="#52D8F9"/>
<stop offset="1" stop-color="#61CDF6"/>
</linearGradient>
<linearGradient id="paint36_linear" x1="286.972" y1="148.21" x2="286.972" y2="166.495" gradientUnits="userSpaceOnUse">
<stop stop-color="#0538FB"/>
<stop offset="1" stop-color="#37D9FC"/>
</linearGradient>
<linearGradient id="paint37_linear" x1="274.168" y1="158.518" x2="274.168" y2="178.225" gradientUnits="userSpaceOnUse">
<stop stop-color="#0538FB"/>
<stop offset="1" stop-color="#37D9FC"/>
</linearGradient>
<linearGradient id="paint38_linear" x1="284.994" y1="156.108" x2="284.994" y2="180.598" gradientUnits="userSpaceOnUse">
<stop stop-color="#C2D1F8"/>
<stop offset="1" stop-color="white"/>
</linearGradient>
<linearGradient id="paint39_linear" x1="290.837" y1="164.101" x2="300.932" y2="166.71" gradientUnits="userSpaceOnUse">
<stop stop-color="#C2D1F8"/>
<stop offset="1" stop-color="white"/>
</linearGradient>
<linearGradient id="paint40_linear" x1="288.153" y1="165.4" x2="288.153" y2="176.244" gradientUnits="userSpaceOnUse">
<stop stop-color="#0538FB"/>
<stop offset="1" stop-color="#37D9FC"/>
</linearGradient>
<linearGradient id="paint41_linear" x1="297.368" y1="154.347" x2="297.368" y2="175.827" gradientUnits="userSpaceOnUse">
<stop stop-color="#0538FB"/>
<stop offset="1" stop-color="#37D9FC"/>
</linearGradient>
<linearGradient id="paint42_linear" x1="281.688" y1="153.293" x2="281.688" y2="171.761" gradientUnits="userSpaceOnUse">
<stop stop-color="#0538FB"/>
<stop offset="1" stop-color="#37D9FC"/>
</linearGradient>
<linearGradient id="paint43_linear" x1="284.682" y1="207.943" x2="284.682" y2="225.773" gradientUnits="userSpaceOnUse">
<stop stop-color="#C2D1F8"/>
<stop offset="1" stop-color="white"/>
</linearGradient>
<linearGradient id="paint44_linear" x1="264.874" y1="204.099" x2="264.874" y2="214.825" gradientUnits="userSpaceOnUse">
<stop stop-color="#C2D1F8"/>
<stop offset="1" stop-color="white"/>
</linearGradient>
<linearGradient id="paint45_linear" x1="301.532" y1="177.913" x2="301.532" y2="237.369" gradientUnits="userSpaceOnUse">
<stop stop-color="#2BDC72"/>
<stop offset="1" stop-color="#8BFF89"/>
</linearGradient>
<linearGradient id="paint46_linear" x1="301.677" y1="369.96" x2="301.677" y2="382.494" gradientUnits="userSpaceOnUse">
<stop stop-color="#2BDC72"/>
<stop offset="1" stop-color="#6CF089"/>
</linearGradient>
<linearGradient id="paint47_linear" x1="301.52" y1="381.347" x2="301.52" y2="385.726" gradientUnits="userSpaceOnUse">
<stop stop-color="#2BDC72"/>
<stop offset="1" stop-color="#6CF089"/>
</linearGradient>
<linearGradient id="paint48_linear" x1="198.139" y1="426.777" x2="198.139" y2="443.459" gradientUnits="userSpaceOnUse">
<stop stop-color="#C2D1F8"/>
<stop offset="1" stop-color="white"/>
</linearGradient>
<linearGradient id="paint49_linear" x1="212.565" y1="452.735" x2="197.782" y2="432.498" gradientUnits="userSpaceOnUse">
<stop stop-color="#2AF6FF"/>
<stop offset="0.6557" stop-color="#52D8F9"/>
<stop offset="1" stop-color="#61CDF6"/>
</linearGradient>
<linearGradient id="paint50_linear" x1="170.615" y1="497.364" x2="170.615" y2="516.549" gradientUnits="userSpaceOnUse">
<stop stop-color="#C2D1F8"/>
<stop offset="1" stop-color="white"/>
</linearGradient>
<linearGradient id="paint51_linear" x1="175.99" y1="522.205" x2="168.299" y2="502.568" gradientUnits="userSpaceOnUse">
<stop stop-color="#2AF6FF"/>
<stop offset="0.6557" stop-color="#52D8F9"/>
<stop offset="1" stop-color="#61CDF6"/>
</linearGradient>
<linearGradient id="paint52_linear" x1="179.644" y1="452.247" x2="124.872" y2="356.804" gradientUnits="userSpaceOnUse">
<stop stop-color="#2AF6FF"/>
<stop offset="0.145833" stop-color="#61CDF6"/>
</linearGradient>
<linearGradient id="paint53_linear" x1="151.275" y1="354.321" x2="162.658" y2="382.931" gradientUnits="userSpaceOnUse">
<stop stop-color="#C2D1F8"/>
<stop offset="1" stop-color="white"/>
</linearGradient>
<linearGradient id="paint54_linear" x1="163.561" y1="335" x2="163.561" y2="369.388" gradientUnits="userSpaceOnUse">
<stop stop-color="#0538FB"/>
<stop offset="1" stop-color="#37D9FC"/>
</linearGradient>
<linearGradient id="paint55_linear" x1="130.52" y1="414.499" x2="113.803" y2="414.499" gradientUnits="userSpaceOnUse">
<stop stop-color="#C2D1F8"/>
<stop offset="1" stop-color="white"/>
</linearGradient>
<linearGradient id="paint56_linear" x1="124.699" y1="434.287" x2="87.7163" y2="392.9" gradientUnits="userSpaceOnUse">
<stop stop-color="#2AF6FF"/>
<stop offset="0.6557" stop-color="#52D8F9"/>
<stop offset="1" stop-color="#61CDF6"/>
</linearGradient>
<linearGradient id="paint57_linear" x1="183.642" y1="418.214" x2="199.616" y2="418.957" gradientUnits="userSpaceOnUse">
<stop stop-color="#C2D1F8"/>
<stop offset="1" stop-color="white"/>
</linearGradient>
<linearGradient id="paint58_linear" x1="168.631" y1="406.563" x2="171.718" y2="415.229" gradientUnits="userSpaceOnUse">
<stop stop-color="#0538FB"/>
<stop offset="1" stop-color="#37D9FC"/>
</linearGradient>
<linearGradient id="paint59_linear" x1="211.18" y1="435.194" x2="156.012" y2="413.696" gradientUnits="userSpaceOnUse">
<stop stop-color="#2AF6FF"/>
<stop offset="0.6557" stop-color="#52D8F9"/>
<stop offset="1" stop-color="#61CDF6"/>
</linearGradient>
<linearGradient id="paint60_linear" x1="154.532" y1="414.16" x2="154.532" y2="492.881" gradientUnits="userSpaceOnUse">
<stop stop-color="#0538FB"/>
<stop offset="1" stop-color="#37D9FC"/>
</linearGradient>
<linearGradient id="paint61_linear" x1="171.448" y1="492.985" x2="171.448" y2="501.848" gradientUnits="userSpaceOnUse">
<stop stop-color="#2BDC72"/>
<stop offset="1" stop-color="#8BFF89"/>
</linearGradient>
<linearGradient id="paint62_linear" x1="149.014" y1="427.873" x2="155.835" y2="390.612" gradientUnits="userSpaceOnUse">
<stop stop-color="white"/>
<stop offset="1" stop-color="#C2D1F8"/>
</linearGradient>
<linearGradient id="paint63_linear" x1="165.44" y1="406.326" x2="130.52" y2="406.326" gradientUnits="userSpaceOnUse">
<stop stop-color="white"/>
<stop offset="1" stop-color="#C2D1F8"/>
</linearGradient>
<linearGradient id="paint64_linear" x1="159.686" y1="411.741" x2="159.686" y2="444.389" gradientUnits="userSpaceOnUse">
<stop stop-color="#0538FB"/>
<stop offset="1" stop-color="#37D9FC"/>
</linearGradient>
<linearGradient id="paint65_linear" x1="190.84" y1="421.98" x2="190.84" y2="445.649" gradientUnits="userSpaceOnUse">
<stop stop-color="#2BDC72"/>
<stop offset="1" stop-color="#8BFF89"/>
</linearGradient>
<linearGradient id="paint66_linear" x1="224.204" y1="432.198" x2="224.204" y2="460.037" gradientUnits="userSpaceOnUse">
<stop stop-color="#0538FB"/>
<stop offset="1" stop-color="#37D9FC"/>
</linearGradient>
<linearGradient id="paint67_linear" x1="217.173" y1="431.364" x2="217.173" y2="458.995" gradientUnits="userSpaceOnUse">
<stop stop-color="#0538FB"/>
<stop offset="1" stop-color="#37D9FC"/>
</linearGradient>
<linearGradient id="paint68_linear" x1="164.933" y1="517.696" x2="164.933" y2="533" gradientUnits="userSpaceOnUse">
<stop stop-color="#0538FB"/>
<stop offset="1" stop-color="#37D9FC"/>
</linearGradient>
<linearGradient id="paint69_linear" x1="164.985" y1="508.938" x2="164.985" y2="528.331" gradientUnits="userSpaceOnUse">
<stop stop-color="#0538FB"/>
<stop offset="1" stop-color="#37D9FC"/>
</linearGradient>
<linearGradient id="paint70_linear" x1="84.4618" y1="253.303" x2="84.4618" y2="265.816" gradientUnits="userSpaceOnUse">
<stop stop-color="#0538FB"/>
<stop offset="1" stop-color="#37D9FC"/>
</linearGradient>
<linearGradient id="paint71_linear" x1="90.8825" y1="269.655" x2="85.4068" y2="250.912" gradientUnits="userSpaceOnUse">
<stop stop-color="#2AF6FF"/>
<stop offset="0.6557" stop-color="#52D8F9"/>
<stop offset="1" stop-color="#61CDF6"/>
</linearGradient>
<linearGradient id="paint72_linear" x1="88.5803" y1="271.968" x2="88.5803" y2="307.003" gradientUnits="userSpaceOnUse">
<stop stop-color="#C2D1F8"/>
<stop offset="1" stop-color="white"/>
</linearGradient>
<linearGradient id="paint73_linear" x1="95.3937" y1="255.239" x2="95.3937" y2="276.409" gradientUnits="userSpaceOnUse">
<stop stop-color="#C2D1F8"/>
<stop offset="1" stop-color="white"/>
</linearGradient>
<linearGradient id="paint74_linear" x1="93.5897" y1="252.726" x2="93.5897" y2="258.83" gradientUnits="userSpaceOnUse">
<stop stop-color="#C2D1F8"/>
<stop offset="1" stop-color="white"/>
</linearGradient>
<linearGradient id="paint75_linear" x1="88.0696" y1="257.361" x2="88.0696" y2="265.19" gradientUnits="userSpaceOnUse">
<stop stop-color="#C2D1F8"/>
<stop offset="1" stop-color="white"/>
</linearGradient>
<linearGradient id="paint76_linear" x1="29.0983" y1="444.954" x2="29.0983" y2="466.956" gradientUnits="userSpaceOnUse">
<stop stop-color="#C2D1F8"/>
<stop offset="1" stop-color="#EEF3FF"/>
</linearGradient>
<linearGradient id="paint77_linear" x1="39.108" y1="462.785" x2="39.108" y2="474.255" gradientUnits="userSpaceOnUse">
<stop stop-color="#2BDC72"/>
<stop offset="1" stop-color="#6CF089"/>
</linearGradient>
<linearGradient id="paint78_linear" x1="39.3687" y1="474.255" x2="39.3687" y2="477.486" gradientUnits="userSpaceOnUse">
<stop stop-color="#2BDC72"/>
<stop offset="1" stop-color="#6CF089"/>
</linearGradient>
<linearGradient id="paint79_linear" x1="72.5758" y1="444.954" x2="72.5758" y2="466.955" gradientUnits="userSpaceOnUse">
<stop stop-color="#C2D1F8"/>
<stop offset="1" stop-color="white"/>
</linearGradient>
<linearGradient id="paint80_linear" x1="82.6373" y1="462.784" x2="82.6373" y2="474.254" gradientUnits="userSpaceOnUse">
<stop stop-color="#2BDC72"/>
<stop offset="1" stop-color="#6CF089"/>
</linearGradient>
<linearGradient id="paint81_linear" x1="82.9499" y1="474.254" x2="82.9499" y2="477.486" gradientUnits="userSpaceOnUse">
<stop stop-color="#2BDC72"/>
<stop offset="1" stop-color="#6CF089"/>
</linearGradient>
<linearGradient id="paint82_linear" x1="45.0691" y1="510.612" x2="-47.7784" y2="459.688" gradientUnits="userSpaceOnUse">
<stop stop-color="#2AF6FF"/>
<stop offset="0.6557" stop-color="#52D8F9"/>
<stop offset="1" stop-color="#61CDF6"/>
</linearGradient>
<linearGradient id="paint83_linear" x1="74.6758" y1="511.486" x2="-36.9193" y2="407.676" gradientUnits="userSpaceOnUse">
<stop stop-color="#2AF6FF"/>
<stop offset="0.6557" stop-color="#52D8F9"/>
<stop offset="1" stop-color="#61CDF6"/>
</linearGradient>
<linearGradient id="paint84_linear" x1="43.2786" y1="255.388" x2="43.2786" y2="351.318" gradientUnits="userSpaceOnUse">
<stop stop-color="#37D9FC"/>
<stop offset="1" stop-color="#0538FB"/>
</linearGradient>
<linearGradient id="paint85_linear" x1="73.3585" y1="260.498" x2="73.3585" y2="319.516" gradientUnits="userSpaceOnUse">
<stop stop-color="#0538FB"/>
<stop offset="1" stop-color="#37D9FC"/>
</linearGradient>
<linearGradient id="paint86_linear" x1="47.1354" y1="245.274" x2="47.1354" y2="262.375" gradientUnits="userSpaceOnUse">
<stop stop-color="#C2D1F8"/>
<stop offset="1" stop-color="white"/>
</linearGradient>
<linearGradient id="paint87_linear" x1="58.658" y1="226.311" x2="58.658" y2="254.507" gradientUnits="userSpaceOnUse">
<stop stop-color="#C2D1F8"/>
<stop offset="1" stop-color="white"/>
</linearGradient>
<linearGradient id="paint88_linear" x1="56.1942" y1="216" x2="56.1942" y2="248.09" gradientUnits="userSpaceOnUse">
<stop stop-color="#0538FB"/>
<stop offset="1" stop-color="#37D9FC"/>
</linearGradient>
<linearGradient id="paint89_linear" x1="54.9557" y1="237.767" x2="54.9557" y2="247.985" gradientUnits="userSpaceOnUse">
<stop stop-color="#C2D1F8"/>
<stop offset="1" stop-color="white"/>
</linearGradient>
<linearGradient id="paint90_linear" x1="46.2917" y1="253.168" x2="46.2917" y2="284.214" gradientUnits="userSpaceOnUse">
<stop stop-color="#0538FB"/>
<stop offset="1" stop-color="#37D9FC"/>
</linearGradient>
<linearGradient id="paint91_linear" x1="23.2074" y1="293.031" x2="23.2074" y2="346.522" gradientUnits="userSpaceOnUse">
<stop stop-color="#2BDC72"/>
<stop offset="1" stop-color="#8BFF89"/>
</linearGradient>
<linearGradient id="paint92_linear" x1="12.9852" y1="282.395" x2="12.9852" y2="312.951" gradientUnits="userSpaceOnUse">
<stop stop-color="#2BDC72"/>
<stop offset="1" stop-color="#8BFF89"/>
</linearGradient>
<linearGradient id="paint93_linear" x1="19.141" y1="310.131" x2="19.141" y2="316.179" gradientUnits="userSpaceOnUse">
<stop stop-color="#2BDC72"/>
<stop offset="1" stop-color="#8BFF89"/>
</linearGradient>
<linearGradient id="paint94_linear" x1="64.1307" y1="234.43" x2="64.1307" y2="254.942" gradientUnits="userSpaceOnUse">
<stop stop-color="#2297FC"/>
<stop offset="1" stop-color="#37D9FC"/>
</linearGradient>
<linearGradient id="paint95_linear" x1="256.902" y1="203.976" x2="250.155" y2="213.315" gradientUnits="userSpaceOnUse">
<stop stop-color="white"/>
<stop offset="1" stop-color="#C2D1F8"/>
</linearGradient>
<linearGradient id="paint96_linear" x1="36.8749" y1="327.25" x2="1.62511" y2="327.25" gradientUnits="userSpaceOnUse">
<stop stop-color="white"/>
<stop offset="1" stop-color="#C2D1F8"/>
</linearGradient>
<clipPath id="clip0">
<rect width="325" height="533" fill="white"/>
</clipPath>
</defs>
</svg>
