<svg width="325" height="533" viewBox="0 0 325 533" fill="none" xmlns="http://www.w3.org/2000/svg">
<g opacity="0.6">
<g filter="url(#filter0_d)">
<path d="M113.243 216.891C114.162 212.569 118.41 209.81 122.731 210.729L269.444 241.914C273.766 242.832 276.524 247.08 275.606 251.402L270.026 277.652C269.108 281.974 264.859 284.732 260.538 283.814L113.825 252.629C109.504 251.71 106.745 247.462 107.663 243.141L113.243 216.891Z" fill="white"/>
</g>
<rect x="152.477" y="228.684" width="34.1351" height="6.69315" transform="rotate(12 152.477 228.684)" fill="#CEE0FF"/>
<rect x="149.693" y="241.778" width="73.6246" height="6.69315" transform="rotate(12 149.693 241.778)" fill="#E1ECFF"/>
<rect x="225.637" y="257.92" width="20.7488" height="6.69315" transform="rotate(12 225.637 257.92)" fill="#E1ECFF"/>
<rect x="121.845" y="221.489" width="21.4181" height="21.4181" rx="8" transform="rotate(12 121.845 221.489)" fill="url(#paint0_linear)"/>
</g>
<g opacity="0.2">
<g filter="url(#filter1_d)">
<path d="M109.265 56.3325C108.346 52.0108 111.105 47.7626 115.427 46.844L243.302 19.6633C247.624 18.7447 251.872 21.5035 252.79 25.8252L257.337 47.2137C258.255 51.5354 255.496 55.7836 251.175 56.7022L123.3 83.8829C118.978 84.8015 114.73 82.0427 113.811 77.721L109.265 56.3325Z" fill="white"/>
</g>
<rect x="144.995" y="50.8419" width="33.7247" height="5.91661" transform="rotate(-12 144.995 50.8419)" fill="#CEE0FF"/>
<rect x="147.456" y="62.4165" width="77.5076" height="5.91661" transform="rotate(-12 147.456 62.4165)" fill="#E1ECFF"/>
<rect x="117.672" y="56.0446" width="18.9332" height="18.9332" rx="8" transform="rotate(-12 117.672 56.0446)" fill="url(#paint1_linear)"/>
</g>
<g opacity="0.2">
<g filter="url(#filter2_d)">
<path d="M69.958 264.956C70.4198 260.562 74.3563 257.374 78.7504 257.836L208.766 271.501C213.16 271.963 216.348 275.9 215.886 280.294L213.6 302.04C213.139 306.434 209.202 309.622 204.808 309.16L74.7923 295.495C70.3982 295.033 67.2105 291.097 67.6723 286.703L69.958 264.956Z" fill="white"/>
</g>
<rect x="105.636" y="270.776" width="47.3329" height="5.91661" transform="rotate(6 105.636 270.776)" fill="#CEE0FF"/>
<rect x="156.241" y="276.094" width="24.2581" height="5.91661" transform="rotate(6 156.241 276.094)" fill="#CEE0FF"/>
<rect x="104.399" y="282.544" width="33.7247" height="5.91661" transform="rotate(6 104.399 282.544)" fill="#E1ECFF"/>
<rect x="78.0425" y="267.28" width="18.9332" height="18.9332" rx="8" transform="rotate(6 78.0425 267.28)" fill="url(#paint2_linear)"/>
</g>
<g opacity="0.6">
<g filter="url(#filter3_d)">
<path d="M23.8362 118.648C23.3744 114.254 26.5621 110.318 30.9562 109.856L180.125 94.1774C184.519 93.7156 188.455 96.9033 188.917 101.297L191.722 127.987C192.184 132.381 188.996 136.317 184.602 136.779L35.4338 152.457C31.0397 152.919 27.1032 149.731 26.6414 145.337L23.8362 118.648Z" fill="white"/>
</g>
<rect x="64.7935" y="117.74" width="19.4101" height="6.69315" transform="rotate(-6 64.7935 117.74)" fill="#CEE0FF"/>
<rect x="88.0917" y="115.291" width="69.6087" height="6.69315" transform="rotate(-6 88.0917 115.291)" fill="#CEE0FF"/>
<rect x="66.1932" y="131.053" width="62.9156" height="6.69315" transform="rotate(-6 66.1932 131.053)" fill="#E1ECFF"/>
<rect x="33.4385" y="120.362" width="21.4181" height="21.4181" rx="8" transform="rotate(-6 33.4385 120.362)" fill="url(#paint3_linear)"/>
</g>
<g filter="url(#filter4_d)">
<path d="M48 144C48 139.582 51.5817 136 56 136H270.769C275.187 136 278.769 139.582 278.769 144V187.553C278.769 191.972 275.187 195.553 270.769 195.553H56C51.5817 195.553 48 191.972 48 187.553V144Z" fill="white"/>
</g>
<path d="M108.99 161.558C108.087 161.558 107.297 161.367 106.619 160.985C105.951 160.594 105.434 160.043 105.069 159.331C104.713 158.619 104.535 157.789 104.535 156.843C104.535 155.896 104.713 155.071 105.069 154.367C105.434 153.655 105.951 153.108 106.619 152.726C107.297 152.335 108.087 152.14 108.99 152.14C109.607 152.14 110.189 152.235 110.736 152.426C111.283 152.617 111.743 152.887 112.117 153.234L111.557 154.459C111.14 154.129 110.727 153.89 110.319 153.742C109.911 153.586 109.477 153.508 109.016 153.508C108.13 153.508 107.444 153.794 106.958 154.367C106.48 154.941 106.241 155.766 106.241 156.843C106.241 157.928 106.48 158.758 106.958 159.331C107.444 159.904 108.13 160.191 109.016 160.191C109.477 160.191 109.911 160.117 110.319 159.969C110.727 159.813 111.14 159.57 111.557 159.24L112.117 160.464C111.743 160.812 111.283 161.081 110.736 161.272C110.189 161.463 109.607 161.558 108.99 161.558Z" fill="black"/>
<path d="M113.507 152.257H115.136V161.441H113.507V152.257Z" fill="black"/>
<path d="M116.815 155.071H118.443V161.441H116.815V155.071ZM118.522 152.114V153.716H116.724V152.114H118.522Z" fill="black"/>
<path d="M123.028 161.545C122.359 161.545 121.777 161.411 121.282 161.142C120.796 160.872 120.422 160.49 120.162 159.995C119.901 159.5 119.771 158.923 119.771 158.263C119.771 157.602 119.906 157.021 120.175 156.517C120.453 156.004 120.844 155.609 121.347 155.331C121.851 155.053 122.433 154.915 123.093 154.915C123.544 154.915 123.983 154.988 124.409 155.136C124.843 155.275 125.19 155.466 125.451 155.709L124.982 156.856C124.713 156.638 124.426 156.473 124.122 156.361C123.827 156.248 123.531 156.191 123.236 156.191C122.672 156.191 122.233 156.369 121.92 156.725C121.608 157.073 121.451 157.576 121.451 158.236C121.451 158.888 121.608 159.392 121.92 159.748C122.233 160.095 122.672 160.269 123.236 160.269C123.531 160.269 123.827 160.212 124.122 160.099C124.426 159.986 124.713 159.821 124.982 159.604L125.451 160.738C125.173 160.99 124.817 161.189 124.383 161.337C123.948 161.476 123.497 161.545 123.028 161.545Z" fill="black"/>
<path d="M130.848 161.441L128.112 158.536V161.441H126.484V152.257H128.112V157.859L130.678 155.084H132.659L129.793 158.132L132.867 161.441H130.848Z" fill="black"/>
<path d="M144.574 154.915C145.294 154.915 145.833 155.132 146.189 155.566C146.545 155.991 146.723 156.647 146.723 157.533V161.441H145.095V157.598C145.095 157.112 145.012 156.76 144.847 156.543C144.682 156.317 144.417 156.204 144.052 156.204C143.618 156.204 143.28 156.352 143.036 156.647C142.793 156.942 142.672 157.355 142.672 157.885V161.441H141.043V157.598C141.043 157.112 140.961 156.76 140.796 156.543C140.639 156.317 140.374 156.204 140.001 156.204C139.575 156.204 139.241 156.352 138.998 156.647C138.755 156.942 138.633 157.355 138.633 157.885V161.441H137.005V155.071H138.594V155.97C138.785 155.622 139.05 155.362 139.389 155.188C139.727 155.006 140.114 154.915 140.548 154.915C141.512 154.915 142.15 155.314 142.463 156.113C142.663 155.74 142.949 155.449 143.323 155.24C143.696 155.023 144.113 154.915 144.574 154.915Z" fill="black"/>
<path d="M153.967 158.549H149.629C149.681 159.14 149.859 159.578 150.163 159.865C150.467 160.151 150.901 160.295 151.466 160.295C152.169 160.295 152.812 160.069 153.394 159.617L153.863 160.738C153.567 160.981 153.194 161.176 152.742 161.324C152.299 161.472 151.852 161.545 151.4 161.545C150.358 161.545 149.533 161.25 148.925 160.66C148.326 160.069 148.026 159.261 148.026 158.236C148.026 157.585 148.157 157.008 148.417 156.504C148.678 156 149.043 155.609 149.511 155.331C149.989 155.053 150.528 154.915 151.127 154.915C152.004 154.915 152.694 155.197 153.198 155.761C153.711 156.326 153.967 157.103 153.967 158.093V158.549ZM151.166 156.061C150.732 156.061 150.38 156.2 150.111 156.478C149.85 156.756 149.69 157.155 149.629 157.676H152.573C152.556 157.147 152.425 156.747 152.182 156.478C151.939 156.2 151.6 156.061 151.166 156.061Z" fill="black"/>
<path d="M155.064 152.244L157.071 152.257L156.563 158.679H155.572L155.064 152.244ZM156.979 159.643V161.441H155.156V159.643H156.979Z" fill="black"/>
<path d="M107.639 175.403V179.121H106.723V175.392L103.63 171.249H104.691L107.192 174.644L109.694 171.249H110.732L107.639 175.403Z" fill="black"/>
<path d="M112.78 179.199C112.266 179.199 111.812 179.084 111.418 178.853C111.031 178.622 110.729 178.295 110.513 177.871C110.305 177.439 110.201 176.94 110.201 176.374C110.201 175.809 110.305 175.313 110.513 174.889C110.729 174.457 111.031 174.126 111.418 173.895C111.812 173.665 112.266 173.549 112.78 173.549C113.294 173.549 113.748 173.665 114.142 173.895C114.537 174.126 114.838 174.457 115.047 174.889C115.263 175.313 115.371 175.809 115.371 176.374C115.371 176.94 115.263 177.439 115.047 177.871C114.838 178.295 114.537 178.622 114.142 178.853C113.748 179.084 113.294 179.199 112.78 179.199ZM112.78 178.451C113.316 178.451 113.725 178.276 114.008 177.926C114.299 177.569 114.444 177.052 114.444 176.374C114.444 175.712 114.299 175.202 114.008 174.844C113.718 174.48 113.309 174.297 112.78 174.297C112.251 174.297 111.842 174.48 111.552 174.844C111.261 175.202 111.116 175.712 111.116 176.374C111.116 177.044 111.258 177.558 111.541 177.915C111.831 178.273 112.244 178.451 112.78 178.451Z" fill="black"/>
<path d="M121.296 173.683V179.121H120.414V178.194C120.243 178.522 120.001 178.771 119.688 178.943C119.383 179.114 119.037 179.199 118.65 179.199C118.002 179.199 117.515 179.021 117.187 178.663C116.86 178.299 116.696 177.763 116.696 177.055V173.683H117.6V177.033C117.6 177.517 117.697 177.874 117.891 178.105C118.084 178.328 118.389 178.44 118.806 178.44C119.283 178.44 119.666 178.287 119.956 177.982C120.247 177.67 120.392 177.26 120.392 176.754V173.683H121.296Z" fill="black"/>
<path d="M126.059 174.331L125.467 174.387C124.909 174.439 124.503 174.614 124.25 174.911C124.005 175.209 123.882 175.578 123.882 176.017V179.121H122.977V173.683H123.86V174.632C124.165 174 124.764 173.646 125.657 173.572L125.981 173.549L126.059 174.331Z" fill="black"/>
<path d="M132.528 173.549C133.005 173.549 133.425 173.668 133.79 173.907C134.155 174.145 134.438 174.48 134.639 174.911C134.84 175.336 134.94 175.831 134.94 176.397C134.94 176.962 134.84 177.457 134.639 177.882C134.438 178.299 134.155 178.622 133.79 178.853C133.433 179.084 133.012 179.199 132.528 179.199C132.104 179.199 131.732 179.106 131.412 178.92C131.099 178.734 130.861 178.47 130.697 178.127V181.131H129.793V173.683H130.697V174.621C130.861 174.279 131.099 174.014 131.412 173.828C131.732 173.642 132.104 173.549 132.528 173.549ZM132.35 178.451C132.878 178.451 133.288 178.273 133.578 177.915C133.868 177.558 134.014 177.052 134.014 176.397C134.014 175.742 133.868 175.232 133.578 174.867C133.288 174.495 132.878 174.309 132.35 174.309C131.821 174.309 131.412 174.487 131.122 174.844C130.839 175.202 130.697 175.712 130.697 176.374C130.697 177.037 130.839 177.55 131.122 177.915C131.412 178.273 131.821 178.451 132.35 178.451Z" fill="black"/>
<path d="M139.374 174.331L138.782 174.387C138.224 174.439 137.818 174.614 137.565 174.911C137.319 175.209 137.196 175.578 137.196 176.017V179.121H136.292V173.683H137.174V174.632C137.479 174 138.078 173.646 138.972 173.572L139.296 173.549L139.374 174.331Z" fill="black"/>
<path d="M142.375 179.199C141.861 179.199 141.407 179.084 141.013 178.853C140.626 178.622 140.324 178.295 140.108 177.871C139.9 177.439 139.796 176.94 139.796 176.374C139.796 175.809 139.9 175.313 140.108 174.889C140.324 174.457 140.626 174.126 141.013 173.895C141.407 173.665 141.861 173.549 142.375 173.549C142.889 173.549 143.343 173.665 143.737 173.895C144.132 174.126 144.433 174.457 144.642 174.889C144.858 175.313 144.965 175.809 144.965 176.374C144.965 176.94 144.858 177.439 144.642 177.871C144.433 178.295 144.132 178.622 143.737 178.853C143.343 179.084 142.889 179.199 142.375 179.199ZM142.375 178.451C142.911 178.451 143.32 178.276 143.603 177.926C143.894 177.569 144.039 177.052 144.039 176.374C144.039 175.712 143.894 175.202 143.603 174.844C143.313 174.48 142.903 174.297 142.375 174.297C141.846 174.297 141.437 174.48 141.147 174.844C140.856 175.202 140.711 175.712 140.711 176.374C140.711 177.044 140.853 177.558 141.135 177.915C141.426 178.273 141.839 178.451 142.375 178.451Z" fill="black"/>
<path d="M151.137 171.249V179.121H150.232V178.127C150.069 178.47 149.827 178.734 149.507 178.92C149.194 179.106 148.826 179.199 148.401 179.199C147.925 179.199 147.504 179.08 147.139 178.842C146.775 178.604 146.492 178.273 146.291 177.848C146.09 177.416 145.989 176.918 145.989 176.352C145.989 175.794 146.09 175.302 146.291 174.878C146.492 174.454 146.775 174.126 147.139 173.895C147.504 173.665 147.925 173.549 148.401 173.549C148.826 173.549 149.194 173.642 149.507 173.828C149.827 174.014 150.069 174.279 150.232 174.621V171.249H151.137ZM148.58 178.451C149.108 178.451 149.514 178.273 149.797 177.915C150.087 177.55 150.232 177.037 150.232 176.374C150.232 175.712 150.087 175.202 149.797 174.844C149.514 174.487 149.108 174.309 148.58 174.309C148.051 174.309 147.638 174.487 147.34 174.844C147.05 175.202 146.905 175.704 146.905 176.352C146.905 177.014 147.05 177.532 147.34 177.904C147.638 178.269 148.051 178.451 148.58 178.451Z" fill="black"/>
<path d="M157.39 173.683V179.121H156.508V178.194C156.337 178.522 156.095 178.771 155.782 178.943C155.477 179.114 155.131 179.199 154.744 179.199C154.096 179.199 153.609 179.021 153.281 178.663C152.954 178.299 152.79 177.763 152.79 177.055V173.683H153.694V177.033C153.694 177.517 153.791 177.874 153.985 178.105C154.178 178.328 154.483 178.44 154.9 178.44C155.377 178.44 155.76 178.287 156.05 177.982C156.341 177.67 156.486 177.26 156.486 176.754V173.683H157.39Z" fill="black"/>
<path d="M161.372 179.199C160.836 179.199 160.37 179.084 159.976 178.853C159.581 178.622 159.276 178.299 159.06 177.882C158.852 177.457 158.748 176.962 158.748 176.397C158.748 175.831 158.856 175.336 159.071 174.911C159.295 174.48 159.604 174.145 159.998 173.907C160.4 173.668 160.869 173.549 161.405 173.549C161.77 173.549 162.127 173.616 162.477 173.75C162.827 173.877 163.11 174.048 163.326 174.264L163.024 174.934C162.511 174.517 161.99 174.309 161.461 174.309C160.903 174.309 160.467 174.491 160.155 174.856C159.842 175.22 159.686 175.734 159.686 176.397C159.686 177.052 159.842 177.558 160.155 177.915C160.467 178.273 160.903 178.451 161.461 178.451C161.99 178.451 162.511 178.243 163.024 177.826L163.326 178.496C163.095 178.712 162.805 178.883 162.455 179.009C162.105 179.136 161.744 179.199 161.372 179.199Z" fill="black"/>
<path d="M166.815 178.474C166.979 178.474 167.143 178.462 167.306 178.44L167.262 179.155C167.091 179.184 166.904 179.199 166.703 179.199C166.048 179.199 165.553 179.028 165.218 178.686C164.891 178.343 164.727 177.867 164.727 177.256V174.398H163.666V173.683H164.727V172.031H165.631V173.683H167.172V174.398H165.631V177.189C165.631 178.045 166.026 178.474 166.815 178.474Z" fill="black"/>
<path d="M173.835 173.549C175.138 173.549 175.789 174.268 175.789 175.704V179.121H174.884V175.76C174.884 175.254 174.784 174.885 174.583 174.655C174.389 174.424 174.077 174.309 173.645 174.309C173.146 174.309 172.748 174.461 172.45 174.766C172.152 175.072 172.004 175.485 172.004 176.006V179.121H171.099V171.249H172.004V174.554C172.182 174.227 172.428 173.977 172.741 173.806C173.061 173.635 173.425 173.549 173.835 173.549Z" fill="black"/>
<path d="M182.001 176.542H178.026C178.056 177.175 178.227 177.655 178.54 177.982C178.852 178.302 179.295 178.462 179.869 178.462C180.501 178.462 181.082 178.246 181.611 177.815L181.912 178.474C181.674 178.697 181.369 178.876 180.996 179.009C180.624 179.136 180.245 179.199 179.857 179.199C179.009 179.199 178.339 178.95 177.848 178.451C177.364 177.952 177.122 177.264 177.122 176.385C177.122 175.827 177.23 175.336 177.446 174.911C177.661 174.48 177.963 174.145 178.35 173.907C178.745 173.668 179.191 173.549 179.69 173.549C180.412 173.549 180.978 173.787 181.387 174.264C181.797 174.733 182.001 175.38 182.001 176.207V176.542ZM179.701 174.253C179.225 174.253 178.841 174.402 178.551 174.699C178.268 174.997 178.101 175.418 178.049 175.961H181.209C181.194 175.41 181.056 174.99 180.795 174.699C180.535 174.402 180.17 174.253 179.701 174.253Z" fill="black"/>
<path d="M186.416 174.331L185.824 174.387C185.266 174.439 184.86 174.614 184.607 174.911C184.361 175.209 184.238 175.578 184.238 176.017V179.121H183.334V173.683H184.216V174.632C184.521 174 185.121 173.646 186.014 173.572L186.338 173.549L186.416 174.331Z" fill="black"/>
<path d="M191.717 176.542H187.742C187.772 177.175 187.943 177.655 188.256 177.982C188.568 178.302 189.011 178.462 189.585 178.462C190.217 178.462 190.798 178.246 191.326 177.815L191.628 178.474C191.39 178.697 191.085 178.876 190.712 179.009C190.34 179.136 189.96 179.199 189.573 179.199C188.725 179.199 188.055 178.95 187.563 178.451C187.08 177.952 186.838 177.264 186.838 176.385C186.838 175.827 186.946 175.336 187.161 174.911C187.377 174.48 187.679 174.145 188.066 173.907C188.46 173.668 188.907 173.549 189.406 173.549C190.128 173.549 190.694 173.787 191.103 174.264C191.513 174.733 191.717 175.38 191.717 176.207V176.542ZM189.417 174.253C188.941 174.253 188.557 174.402 188.267 174.699C187.984 174.997 187.817 175.418 187.764 175.961H190.925C190.91 175.41 190.772 174.99 190.511 174.699C190.251 174.402 189.886 174.253 189.417 174.253Z" fill="black"/>
<path d="M85.7146 182.107H68.5513C67.3004 182.107 66.2428 181.18 66.0778 179.941L63.6548 161.734C63.4557 160.238 64.6194 158.909 66.1282 158.909H88.1376C89.6465 158.909 90.8101 160.238 90.6111 161.734L88.188 179.941C88.023 181.18 86.9654 182.107 85.7146 182.107Z" fill="url(#paint4_linear)"/>
<path d="M85.7146 182.107C86.9654 182.107 88.023 181.18 88.188 179.941L90.6111 161.734C90.8101 160.238 89.6465 158.909 88.1376 158.909H66.1282C64.6194 158.909 63.4557 160.238 63.6548 161.734L64.226 166.025L64.2438 166.031L80.3197 182.107H85.7146Z" fill="url(#paint5_linear)"/>
<path d="M79.1921 158.909H75.0747V182.107H79.1921V158.909Z" fill="url(#paint6_linear)"/>
<path d="M90.6119 161.734L88.1883 179.941C88.0237 181.18 86.9661 182.107 85.715 182.107H79.1924V158.909H88.1377C89.6466 158.909 90.8109 160.238 90.6119 161.734Z" fill="url(#paint7_linear)"/>
<path d="M89.5279 166.092H64.7386C63.6179 166.092 62.7095 165.184 62.7095 164.063V158.886C62.7095 157.766 63.6179 156.857 64.7386 156.857H89.5278C90.6485 156.857 91.557 157.766 91.557 158.886V164.063C91.557 165.184 90.6485 166.092 89.5279 166.092Z" fill="url(#paint8_linear)"/>
<path d="M79.1921 156.857H75.0747V166.093H79.1921V156.857Z" fill="url(#paint9_linear)"/>
<path d="M91.5573 158.885V164.063C91.5573 165.184 90.6489 166.092 89.5281 166.092H79.1924V156.856H89.5281C90.649 156.856 91.5573 157.765 91.5573 158.885Z" fill="url(#paint10_linear)"/>
<path d="M86.4916 156.857H67.7838C67.8402 157.178 67.9084 157.5 67.9888 157.822C68.1109 158.311 68.3758 158.72 68.7248 159.023L75.7937 166.092H89.528C90.6487 166.092 91.5571 165.184 91.5571 164.063V161.922L86.4916 156.857Z" fill="url(#paint11_linear)"/>
<path d="M67.9902 151.343C68.3447 149.925 69.899 149.167 71.2367 149.757C72.1946 150.18 73.1159 150.735 73.9584 151.198C74.7488 151.633 75.321 152.074 75.8417 152.509C77.1358 153.588 77.1358 155.578 75.8417 156.657C75.321 157.091 74.7488 157.533 73.9584 157.968C73.1158 158.431 72.1946 158.985 71.2367 159.408C69.899 159.999 68.3446 159.241 67.9902 157.822C67.4493 155.657 67.4492 153.509 67.9902 151.343Z" fill="url(#paint12_linear)"/>
<path d="M75.8408 156.657C76.2529 156.313 76.5333 155.877 76.6829 155.407C74.2979 155.62 70.5718 156.429 69.1658 159.328C69.7806 159.656 70.5375 159.716 71.2357 159.408C72.1936 158.985 73.1149 158.431 73.9575 157.967C74.7478 157.533 75.3201 157.091 75.8408 156.657Z" fill="url(#paint13_linear)"/>
<path d="M69.8348 154.394C69.8348 155.348 69.9479 157.973 72.5758 158.737C73.0539 158.477 73.5169 158.21 73.9579 157.967C74.7482 157.532 75.3204 157.091 75.8411 156.656C76.5665 156.051 76.8851 155.16 76.7973 154.304C76.7973 154.304 75.4196 153.56 74.8078 153.264C71.5019 151.663 69.8348 153.052 69.8348 154.394Z" fill="url(#paint14_linear)"/>
<path d="M86.2764 151.343C85.9219 149.925 84.3676 149.167 83.0299 149.757C82.072 150.18 81.1507 150.734 80.3081 151.198C79.5178 151.632 78.9456 152.074 78.4248 152.509C77.1307 153.588 77.1307 155.577 78.4248 156.657C78.9456 157.091 79.5178 157.533 80.3081 157.968C81.1507 158.431 82.072 158.985 83.0299 159.408C84.3675 159.999 85.9219 159.241 86.2764 157.822C86.8173 155.657 86.8174 153.509 86.2764 151.343Z" fill="url(#paint15_linear)"/>
<path d="M78.425 156.657C78.0129 156.313 77.7325 155.877 77.5829 155.407C79.9679 155.62 83.694 156.429 85.1 159.328C84.4852 159.656 83.7283 159.716 83.0301 159.408C82.0722 158.985 81.1509 158.431 80.3083 157.967C79.518 157.533 78.9457 157.091 78.425 156.657Z" fill="url(#paint16_linear)"/>
<path d="M84.4309 154.394C84.4309 155.348 84.3178 157.973 81.69 158.737C81.2119 158.477 80.7488 158.21 80.3079 157.967C79.5175 157.532 78.9453 157.091 78.4246 156.656C77.6992 156.051 77.3807 155.16 77.4685 154.304C77.4685 154.304 78.8461 153.56 79.458 153.264C82.7638 151.663 84.4309 153.052 84.4309 154.394Z" fill="url(#paint17_linear)"/>
<path d="M78.4248 156.657C78.9455 157.091 79.5177 157.533 80.308 157.967C81.1507 158.43 82.0719 158.985 83.0298 159.408C84.1575 159.906 85.4392 159.445 86.0261 158.438L79.8407 152.253C79.6879 152.087 79.5194 151.937 79.3387 151.801C79.0017 152.038 78.7056 152.274 78.4248 152.508C77.1307 153.588 77.1307 155.577 78.4248 156.657Z" fill="url(#paint18_linear)"/>
<path d="M77.1326 158.437C79.1679 158.437 80.8179 156.787 80.8179 154.752C80.8179 152.717 79.1679 151.067 77.1326 151.067C75.0972 151.067 73.4473 152.717 73.4473 154.752C73.4473 156.787 75.0972 158.437 77.1326 158.437Z" fill="url(#paint19_linear)"/>
<path d="M277.696 252.05C277.696 252.05 269.772 290.005 272.691 301.891C275.61 313.674 295.003 367.583 295.003 367.583L306.264 361.848C306.264 361.848 292.188 310.442 291.041 301.787C289.999 293.133 298.653 256.221 298.653 256.221L277.696 252.05Z" fill="url(#paint20_linear)"/>
<path d="M293.44 365.184C293.44 365.184 278.218 378.74 276.132 382.911L309.601 371.858L305.013 361.431C305.013 361.431 301.156 362.265 298.028 364.976C295.734 366.853 293.44 365.184 293.44 365.184Z" fill="url(#paint21_linear)"/>
<path d="M309.601 371.858L276.132 382.911L276.653 386.143L310.644 374.882L309.601 371.858Z" fill="url(#paint22_linear)"/>
<path d="M276.237 383.328L309.706 372.275C309.914 372.171 310.123 371.962 310.018 371.649C309.914 371.441 309.706 371.232 309.393 371.337L275.924 382.389C275.715 382.494 275.507 382.702 275.611 383.015C275.715 383.224 276.028 383.432 276.237 383.328Z" fill="#2BDC72"/>
<path d="M286.977 375.299C287.081 375.299 287.185 375.195 287.185 375.09C287.289 374.986 287.289 374.778 287.185 374.569L285.934 372.484L289.375 372.796C289.583 372.796 289.687 372.692 289.792 372.588C289.896 372.484 289.896 372.275 289.792 372.066L288.436 369.564L292.086 369.46C292.398 369.46 292.503 369.251 292.503 368.938C292.503 368.626 292.294 368.521 291.981 368.521L287.602 368.626C287.394 368.626 287.289 368.73 287.185 368.834C287.081 368.938 287.081 369.147 287.185 369.251L288.436 371.649L284.996 371.337C284.787 371.337 284.683 371.441 284.579 371.545C284.474 371.649 284.474 371.858 284.579 372.066L285.83 374.152L282.493 374.048C282.285 374.048 281.972 374.256 281.972 374.465C281.972 374.778 282.18 374.986 282.389 374.986L286.664 375.195C286.872 375.299 286.977 375.299 286.977 375.299Z" fill="#2BDC72"/>
<path d="M306.16 372.275L317.421 372.692C317.421 372.692 317.317 335.676 315.961 318.888C314.918 306.167 318.463 259.766 318.463 259.766L296.464 252.05C296.359 252.05 295.108 304.394 306.16 372.275Z" fill="url(#paint23_linear)"/>
<path d="M310.436 233.177L281.972 231.196C281.972 231.196 273.422 261.122 267.062 291.777H308.142L310.957 277.909L313.668 291.777H321.8C321.696 291.882 321.905 244.542 310.436 233.177Z" fill="url(#paint24_linear)"/>
<path d="M281.971 185.733C278.426 191.155 277.801 222.228 277.801 222.228H294.066L281.971 185.733Z" fill="url(#paint25_linear)"/>
<path d="M262.995 207.526L281.971 231.3L288.436 219.413L278.426 211.488L262.995 207.526Z" fill="url(#paint26_linear)"/>
<path d="M274.464 207.526C274.464 207.526 273.004 203.668 272.483 202.834C272.066 201.999 268.416 200.123 268.729 201.165C269.042 202.208 269.772 203.146 269.98 204.085C270.189 205.023 270.502 207.734 270.502 207.734L274.464 207.526Z" fill="url(#paint27_linear)"/>
<path d="M270.189 208.673L263.099 209.403C262.057 209.507 261.014 209.298 260.18 208.881L247.147 202.521C246.209 202.104 246.521 200.748 247.46 200.644L254.55 199.914C255.592 199.81 256.635 200.018 257.469 200.435L270.502 206.796C271.44 207.213 271.128 208.569 270.189 208.673Z" fill="url(#paint28_linear)"/>
<path d="M270.607 209.819L271.024 208.047L267.062 207.526L270.607 209.819Z" fill="#0538FB"/>
<path d="M246.417 201.582L246 203.667L250.796 204.084L246.417 201.582Z" fill="url(#paint29_linear)"/>
<path d="M269.772 210.654L262.682 211.383C261.639 211.488 260.597 211.279 259.763 210.862L246.73 204.502C245.791 204.084 246.104 202.729 247.042 202.625L254.132 201.895C255.175 201.79 256.218 201.999 257.052 202.416L270.085 208.777C271.023 209.194 270.71 210.549 269.772 210.654Z" fill="#0538FB"/>
<path d="M281.97 185.733L310.017 177.913C310.017 177.913 326.908 205.336 313.979 235.888L281.97 231.3C281.97 231.3 287.392 208.986 281.97 185.733Z" fill="url(#paint30_linear)"/>
<path d="M309.184 195.222L302.72 217.64L317.317 221.081L309.184 195.222Z" fill="#2BDC72"/>
<path d="M284.682 228.589C284.682 228.589 278.322 227.442 276.653 233.281C274.985 239.12 271.544 241.518 271.544 241.518C271.544 241.518 278.634 242.352 280.407 239.746C282.388 237.035 284.682 228.589 284.682 228.589Z" fill="url(#paint31_linear)"/>
<path d="M283.221 227.442C283.221 227.442 288.33 229.944 290.207 234.741C291.979 239.641 286.141 243.708 286.453 247.253C286.453 247.253 282.7 245.168 282.596 240.997C282.491 238.39 283.221 227.442 283.221 227.442Z" fill="url(#paint32_linear)"/>
<path d="M291.771 163.732H280.719L289.373 182.813L289.999 192.198L300.842 180.519L291.771 163.732Z" fill="url(#paint33_linear)"/>
<path d="M288.122 180.207L294.586 173.95L289.373 182.813L288.122 180.207Z" fill="url(#paint34_linear)"/>
<path d="M273.004 154.035L280.511 144.442C280.511 144.442 289.478 140.479 297.193 145.693L300.947 159.561L273.004 154.035Z" fill="url(#paint35_linear)"/>
<path d="M272.066 162.793C267.687 160.916 263.621 152.992 272.066 149.551C280.512 146.11 303.658 149.238 306.578 159.561C309.601 169.884 281.346 166.651 272.066 162.793Z" fill="url(#paint36_linear)"/>
<path d="M279.678 178.225H269.251C269.251 178.225 267.166 174.367 270.815 171.448C274.569 168.528 269.772 162.48 277.175 158.518L279.678 178.225Z" fill="url(#paint37_linear)"/>
<path d="M287.601 180.311C292.397 179.059 295.629 174.576 295.212 169.675L294.899 165.4C294.378 159.144 288.435 154.868 282.387 156.433C277.591 157.684 274.359 162.167 274.776 167.068L275.089 171.343C275.61 177.495 281.553 181.771 287.601 180.311Z" fill="url(#paint38_linear)"/>
<path d="M300.932 166.71C301.652 163.922 299.976 161.078 297.189 160.358C294.401 159.638 291.557 161.314 290.837 164.101C290.116 166.889 291.792 169.733 294.58 170.454C297.368 171.174 300.211 169.498 300.932 166.71Z" fill="url(#paint39_linear)"/>
<path d="M288.019 176.244L287.185 175.619C287.289 175.41 290.834 170.927 286.559 166.13L287.289 165.4C292.294 170.822 288.123 176.14 288.019 176.244Z" fill="url(#paint40_linear)"/>
<path d="M285.724 157.058C285.724 157.058 282.7 162.898 289.165 169.258C292.293 172.282 289.165 175.827 289.165 175.827H308.766C308.766 175.827 312.624 166.651 304.804 163.94C299.07 161.959 302.719 157.475 291.25 154.347L285.724 157.058Z" fill="url(#paint41_linear)"/>
<path d="M288.019 168.007C286.559 166.651 283.64 164.67 281.867 159.352C281.867 159.352 280.825 162.376 277.28 164.045C272.171 166.547 274.777 171.761 274.777 171.761C274.777 171.761 269.251 159.457 274.152 154.452C274.152 154.452 282.284 151.845 291.251 154.452C291.251 154.452 290.73 170.509 288.019 168.007Z" fill="url(#paint42_linear)"/>
<path d="M294.482 217.223L288.852 225.773L274.881 213.886L276.966 207.943L294.482 217.223Z" fill="url(#paint43_linear)"/>
<path d="M276.966 207.943C276.966 207.943 271.023 204.502 269.355 204.189C267.686 203.876 261.535 204.502 259.45 204.189C257.469 203.876 260.492 207.63 265.393 207.943C265.393 207.943 263.099 209.507 259.241 208.777C255.383 208.047 251.943 206.587 252.672 208.047C253.402 209.507 262.473 213.261 264.037 213.469C265.601 213.678 271.753 212.635 277.175 214.825L276.966 207.943Z" fill="url(#paint44_linear)"/>
<path d="M310.018 177.913C310.018 177.913 329.307 195.43 323.573 226.503C318.881 251.946 278.426 224.731 278.426 224.731L287.08 209.924C287.08 209.924 305.118 217.327 308.037 217.849L310.018 177.913Z" fill="url(#paint45_linear)"/>
<path d="M287.173 209.567L286.914 210.25L307.879 218.189L308.137 217.506L287.173 209.567Z" fill="#2BDC72"/>
<path d="M305.639 370.398C305.639 370.398 287.184 379.157 284.056 382.494L319.297 381.347L317.837 369.981C317.837 369.981 313.875 369.668 310.122 371.441C307.411 372.692 305.639 370.398 305.639 370.398Z" fill="url(#paint46_linear)"/>
<path d="M319.298 381.347L284.056 382.494L283.639 385.726L319.402 384.579L319.298 381.347Z" fill="url(#paint47_linear)"/>
<path d="M284.056 382.91L319.297 381.764C319.61 381.764 319.714 381.555 319.714 381.242C319.714 380.93 319.506 380.825 319.193 380.825L283.952 381.972C283.639 381.972 283.535 382.181 283.535 382.493C283.639 382.806 283.847 383.015 284.056 382.91Z" fill="#2BDC72"/>
<path d="M296.672 378.322C296.776 378.322 296.881 378.322 296.985 378.218C297.089 378.114 297.193 377.905 297.089 377.801L296.463 375.507L299.591 376.758C299.8 376.863 299.904 376.758 300.113 376.654C300.217 376.55 300.321 376.341 300.321 376.237L299.8 373.526L303.345 374.464C303.553 374.569 303.866 374.36 303.97 374.151C304.075 373.943 303.866 373.63 303.658 373.526L299.383 372.483C299.279 372.483 299.07 372.483 298.966 372.587C298.862 372.692 298.757 372.9 298.862 373.005L299.383 375.611L296.151 374.36C295.942 374.256 295.838 374.36 295.629 374.464C295.525 374.569 295.421 374.777 295.525 374.986L296.151 377.384L292.918 376.341C292.71 376.237 292.397 376.341 292.293 376.654C292.189 376.863 292.293 377.175 292.606 377.28L296.672 378.635C296.568 378.322 296.568 378.322 296.672 378.322Z" fill="#2BDC72"/>
<path d="M184.534 426.777L215.811 431.99L212.37 443.459L180.468 440.748L184.534 426.777Z" fill="url(#paint48_linear)"/>
<path d="M214.246 431.677L205.384 429.696L202.986 443.459L214.246 445.127V431.677Z" fill="url(#paint49_linear)"/>
<path d="M177.235 497.364H163.994V516.549H177.235V497.364Z" fill="url(#paint50_linear)"/>
<path d="M178.278 505.393H162.952V516.653H178.278V505.393Z" fill="url(#paint51_linear)"/>
<path d="M155.967 358.066L129.798 365.886L126.143 414.871L188.391 428.616V373.914L155.967 358.066Z" fill="url(#paint52_linear)"/>
<path fill-rule="evenodd" clip-rule="evenodd" d="M149.548 363.345C148.137 362.771 147.017 361.524 146.688 359.943C146.166 357.336 147.835 354.938 150.337 354.417C152.357 353.996 154.377 355.002 155.354 356.722L160.553 355.146C160.557 355.146 160.57 355.145 160.594 355.143C161.294 355.081 170.637 354.257 172.856 361.924C172.856 361.924 171.396 368.492 167.434 374.54C162.434 382.233 148.211 381.855 149.548 363.345Z" fill="url(#paint53_linear)"/>
<path d="M150.337 354.312C150.337 354.312 147.626 359.943 149.92 361.715C149.92 361.715 151.692 360.881 154.403 358.275C154.403 358.275 155.028 362.132 158.26 361.402C161.492 360.777 159.824 367.45 164.829 366.407C169.833 365.365 169.624 372.663 176.61 367.554C183.595 362.549 177.027 359.421 176.61 357.336C176.193 355.251 183.595 347.222 173.899 340.862C164.203 334.502 161.492 333.981 157.948 336.17C154.403 338.256 149.503 336.17 148.669 345.971C147.73 355.876 147.522 351.706 147.313 356.398C147.313 356.502 148.46 354.417 150.337 354.312Z" fill="url(#paint54_linear)"/>
<path d="M115.626 403.06C115.626 403.06 114.778 407.743 116.444 419.89L132.549 426.657L131.427 410.594L115.626 403.06Z" fill="url(#paint55_linear)"/>
<path d="M133.892 410.729L131.398 414.021C131.398 414.021 126.781 414.219 122.492 414.967" stroke="#C2D1F8" stroke-width="0.5" stroke-miterlimit="10"/>
<path d="M129.777 365.834C129.777 365.834 117.704 374.161 114.234 409.316L132.087 410.784L129.777 365.834Z" fill="url(#paint56_linear)"/>
<path d="M181.354 414.483L184.431 413.597L199.351 415.288L198.874 422.3L171.012 432.331L181.354 414.483Z" fill="url(#paint57_linear)"/>
<path d="M180.591 410.041L181.831 413.981C181.831 413.981 186.112 415.721 189.898 417.87" stroke="#C2D1F8" stroke-width="0.5" stroke-miterlimit="10"/>
<path d="M174.892 404.332L166.458 407.337C166.174 407.438 165.974 407.748 165.869 408.023L164.491 416.137C164.364 416.896 165.08 417.594 165.838 417.324L174.272 414.319C174.556 414.218 174.756 413.909 174.861 413.633L176.24 405.519C176.366 404.76 175.555 404.096 174.892 404.332Z" fill="url(#paint58_linear)"/>
<path d="M177.164 405.948L176.333 404.7L174.935 406.859L177.164 405.948Z" fill="#0538FB"/>
<path d="M175.804 405.546L167.371 408.55C167.087 408.651 166.887 408.961 166.782 409.236L165.404 417.349C165.277 418.108 165.993 418.806 166.751 418.536L175.184 415.532C175.469 415.431 175.669 415.121 175.774 414.845L177.152 406.733C177.184 406.007 176.468 405.31 175.804 405.546Z" fill="#0538FB"/>
<path d="M188.473 374.007C188.473 374.007 200.129 383.957 200.772 416.108L183.724 414.128L188.473 374.007Z" fill="url(#paint59_linear)"/>
<path d="M157.217 444.502C157.217 444.502 142.963 444.345 137.391 441.618C126.685 436.377 125.132 428.244 129.797 414.16L168.998 421.042L180.467 440.748C180.467 440.748 180.467 464.208 180.467 470.672C180.467 477.137 184.011 478.179 181.926 481.724C179.737 485.269 184.741 488.814 180.571 492.881H161.179C161.179 492.881 161.179 459.516 161.179 455.658C161.179 451.8 157.009 452.53 157.738 448.776C158.468 445.023 157.217 444.502 157.217 444.502Z" fill="url(#paint60_linear)"/>
<path d="M184.532 492.985H158.364V501.848H184.532V492.985Z" fill="url(#paint61_linear)"/>
<rect x="130.892" y="391.467" width="53.4947" height="31.9482" rx="3" fill="url(#paint62_linear)"/>
<path fill-rule="evenodd" clip-rule="evenodd" d="M157.639 401.125C154.353 401.125 151.695 403.791 151.695 407.069C151.695 410.348 154.36 413.013 157.639 413.013C160.917 413.013 163.583 410.348 163.583 407.069C163.583 403.791 160.925 401.125 157.639 401.125ZM161.009 410.411C160.586 410.834 160.078 411.166 159.507 411.413C158.929 411.659 158.316 411.779 157.667 411.779C157.004 411.779 156.384 411.659 155.806 411.413C155.227 411.166 154.727 410.834 154.297 410.411C153.874 409.988 153.535 409.488 153.288 408.917C153.042 408.346 152.915 407.732 152.915 407.076C152.915 406.421 153.042 405.807 153.288 405.236C153.535 404.665 153.874 404.171 154.297 403.748C154.72 403.325 155.227 403.001 155.806 402.754C156.384 402.514 157.004 402.388 157.667 402.388C158.316 402.388 158.929 402.507 159.507 402.754C160.085 402.994 160.586 403.325 161.009 403.748C161.432 404.171 161.771 404.665 162.017 405.236C162.264 405.807 162.391 406.421 162.391 407.076C162.391 407.732 162.264 408.346 162.017 408.917C161.771 409.488 161.439 409.988 161.009 410.411ZM157.639 403.304C155.559 403.304 153.874 404.989 153.874 407.069C153.874 409.149 155.559 410.834 157.639 410.834C159.719 410.834 161.404 409.149 161.404 407.069C161.404 404.989 159.719 403.304 157.639 403.304ZM157.639 409.72C156.18 409.72 154.995 408.536 154.995 407.076C154.995 405.617 156.18 404.432 157.639 404.432C159.099 404.432 160.283 405.617 160.283 407.076C160.283 408.536 159.099 409.72 157.639 409.72ZM159.184 407.048C159.184 407.881 158.508 408.557 157.675 408.557C156.842 408.557 156.166 407.881 156.166 407.048C156.166 406.215 156.842 405.539 157.675 405.539C158.508 405.539 159.184 406.215 159.184 407.048Z" fill="url(#paint63_linear)"/>
<path d="M129.798 414.161C129.798 414.161 134.594 409.886 147.105 412.701C159.72 415.412 190.789 424.274 190.789 424.274L186.201 441.895C186.201 441.895 175.671 446.9 174.212 442.729C173.273 440.227 161.388 445.44 160.658 440.018C160.137 436.369 141.162 437.412 135.219 431.573C129.172 425.63 126.983 422.085 129.798 414.161Z" fill="url(#paint64_linear)"/>
<path d="M177.339 444.71C176.609 444.71 175.879 444.606 175.358 444.398C174.628 444.085 174.107 443.563 173.794 442.834C173.481 442.104 171.188 442.417 169.102 442.625C165.349 443.042 160.658 443.668 160.136 440.018C159.928 438.663 155.445 437.933 151.066 437.203C145.227 436.265 138.034 435.014 134.802 431.781L135.323 431.26C138.451 434.284 145.54 435.535 151.17 436.473C156.696 437.412 160.658 438.037 160.866 440.018C161.283 442.938 165.349 442.417 168.894 441.999C171.709 441.687 173.898 441.374 174.42 442.729C174.628 443.251 174.941 443.668 175.566 443.876C178.694 445.127 185.888 441.687 185.888 441.687L186.201 442.417C186.096 442.312 180.988 444.71 177.339 444.71Z" fill="#0538FB"/>
<path d="M190.163 421.98L185.471 443.772L190.788 445.649L196.21 422.815L190.163 421.98Z" fill="url(#paint65_linear)"/>
<path d="M221.858 458.994L225.403 460.037C225.403 460.037 231.971 445.544 225.403 433.762L220.086 432.198L221.858 458.994Z" fill="url(#paint66_linear)"/>
<path d="M212.579 431.364L219.981 432.199C219.981 432.199 228.009 437.203 221.858 458.995C221.858 458.995 216.332 453.26 210.703 444.919C210.703 444.919 208.513 439.81 212.996 438.037C215.915 436.89 212.579 431.364 212.579 431.364Z" fill="url(#paint67_linear)"/>
<path d="M222.275 459.099L221.545 458.786C228.218 440.54 219.877 432.511 219.773 432.407L220.294 431.781C220.711 432.198 229.052 440.331 222.275 459.099Z" fill="#0538FB"/>
<path d="M215.811 450.966C215.707 450.966 215.707 450.966 215.602 450.862C215.498 450.758 215.394 450.549 215.394 450.445L217.062 445.544L214.143 447.838C214.039 447.942 213.83 447.942 213.726 447.838C213.622 447.734 213.517 447.63 213.517 447.421L214.456 442.833L212.162 446.066L211.536 445.649L214.873 440.852C214.977 440.748 215.185 440.644 215.394 440.748C215.602 440.852 215.707 440.957 215.602 441.165L214.56 446.587L217.688 444.189C217.792 444.085 218 444.085 218.105 444.189C218.209 444.293 218.313 444.502 218.209 444.606L216.645 449.194L219.147 446.691L219.669 447.213L216.019 450.862C216.019 450.966 215.915 450.966 215.811 450.966Z" fill="#0538FB"/>
<path d="M150.024 528.435V532.71C150.024 532.71 168.582 535.421 179.842 524.265V517.696L150.024 528.435Z" fill="url(#paint68_linear)"/>
<path d="M178.487 508.938L179.946 517.592C179.946 517.592 176.818 528.331 150.024 528.331C150.024 528.331 154.82 520.198 162.431 511.127C162.431 511.127 167.435 506.956 170.98 511.544C173.169 514.464 178.487 508.938 178.487 508.938Z" fill="url(#paint69_linear)"/>
<path d="M154.299 528.956C152.943 528.956 151.484 528.956 150.024 528.748L150.128 528.018C173.169 529.686 179.529 517.592 179.633 517.487L180.363 517.8C180.155 518.009 174.316 528.956 154.299 528.956Z" fill="#0538FB"/>
<path d="M162.743 522.075L157.321 519.051C157.113 518.947 157.113 518.739 157.113 518.634C157.113 518.426 157.321 518.321 157.53 518.321L163.89 518.634L160.136 515.819C160.032 515.715 159.928 515.506 160.032 515.402C160.032 515.298 160.241 515.089 160.345 515.089L166.183 514.568L161.387 513.004L161.596 512.274L168.164 514.464C168.373 514.568 168.477 514.672 168.477 514.881C168.477 515.089 168.268 515.194 168.164 515.194L161.492 515.715L165.453 518.634C165.558 518.739 165.662 518.947 165.558 519.051C165.453 519.26 165.349 519.364 165.141 519.26L159.198 518.947L163.16 521.137L162.743 522.075Z" fill="#0538FB"/>
<path d="M97.1821 265.816H75.2867C75.0781 265.816 74.9739 265.711 74.9739 265.503V253.616C74.9739 253.407 75.0781 253.303 75.2867 253.303H97.1821C97.3907 253.303 97.4949 253.407 97.4949 253.616V265.399C97.5992 265.607 97.3907 265.816 97.1821 265.816Z" fill="#0538FB"/>
<path d="M95.4096 265.816H73.5141C73.3056 265.816 73.2013 265.711 73.2013 265.503V253.616C73.2013 253.407 73.3056 253.303 73.5141 253.303H95.4096C95.6181 253.303 95.7224 253.407 95.7224 253.616V265.398C95.7224 265.607 95.5138 265.816 95.4096 265.816Z" fill="url(#paint70_linear)"/>
<path d="M74.1397 256.222C74.4276 256.222 74.661 255.989 74.661 255.701C74.661 255.413 74.4276 255.18 74.1397 255.18C73.8518 255.18 73.6184 255.413 73.6184 255.701C73.6184 255.989 73.8518 256.222 74.1397 256.222Z" fill="#0538FB"/>
<path d="M74.1391 262.479C73.8263 262.479 73.6178 262.27 73.6178 261.958V257.161C73.6178 256.848 73.8263 256.64 74.1391 256.64C74.4519 256.64 74.6604 256.848 74.6604 257.161V261.958C74.6604 262.27 74.4519 262.479 74.1391 262.479Z" fill="#0538FB"/>
<path d="M93.3247 264.668H75.4955C75.287 264.668 75.1827 264.564 75.1827 264.355V254.867C75.1827 254.658 75.287 254.554 75.4955 254.554H93.3247C93.5332 254.554 93.6375 254.658 93.6375 254.867V264.355C93.6375 264.46 93.5332 264.668 93.3247 264.668Z" fill="url(#paint71_linear)"/>
<path d="M100.519 275.826L87.9026 307.003L76.6421 301.685L91.5519 271.968L100.519 275.826Z" fill="url(#paint72_linear)"/>
<path d="M91.2389 273.74C91.2389 273.74 88.6323 267.901 88.3195 266.441C88.0067 264.877 87.3812 261.54 90.4048 260.914C90.4048 260.914 91.7603 255.492 93.637 255.388C95.5138 255.284 95.0967 258.933 95.0967 258.933C95.0967 258.933 96.5564 254.762 98.0161 255.284C99.4758 255.701 98.8502 257.891 98.8502 257.891C98.8502 257.891 100.727 257.995 101.04 259.663C101.04 259.663 102.395 260.08 102.708 261.436C103.021 262.791 101.144 273.74 100.518 275.825C99.7886 277.911 91.2389 273.74 91.2389 273.74Z" fill="url(#paint73_linear)"/>
<path d="M95.0968 258.83C95.0968 258.83 96.765 254.033 95.4096 253.095C94.0541 252.156 91.9689 253.303 91.9689 253.303C91.9689 253.303 92.4902 254.972 91.239 258.308L95.0968 258.83Z" fill="url(#paint74_linear)"/>
<path d="M90.405 260.811C90.405 260.811 89.4667 257.161 87.1729 257.37C84.879 257.578 85.8174 259.247 86.6515 259.872C87.5899 260.498 88.007 265.19 88.007 265.19L90.405 260.811Z" fill="url(#paint75_linear)"/>
<path d="M35.3541 444.954H22.8424V466.956H35.3541V444.954Z" fill="url(#paint76_linear)"/>
<path d="M35.8758 462.785C35.8758 462.785 54.7476 471.022 57.9798 474.255H20.2362L21.0703 465.496C21.0703 465.496 23.2599 462.785 31.2882 465.183C34.2076 466.017 35.8758 462.785 35.8758 462.785Z" fill="url(#paint77_linear)"/>
<path d="M20.2362 474.255H57.9798L58.5012 477.486H20.2362V474.255Z" fill="url(#paint78_linear)"/>
<path d="M57.9798 473.942H20.2362V474.567H57.9798V473.942Z" fill="#2BDC72"/>
<path d="M44.7381 470.501L45.4679 467.268L41.5059 469.041L42.1315 465.391L38.378 466.434L38.1694 465.809L42.9656 464.453L42.34 467.894L46.4063 466.121L45.5722 469.458L49.1172 468.207L49.3257 468.832L44.7381 470.501Z" fill="#2BDC72"/>
<path d="M78.8316 444.954H66.3199V466.955H78.8316V444.954Z" fill="url(#paint79_linear)"/>
<path d="M79.353 462.784C79.353 462.784 98.2248 471.022 101.457 474.254H63.8176L64.6517 465.495C64.6517 465.495 66.8413 462.784 74.8696 465.183C77.789 466.017 79.353 462.784 79.353 462.784Z" fill="url(#paint80_linear)"/>
<path d="M63.8174 474.254H101.457L102.082 477.486H63.8174V474.254Z" fill="url(#paint81_linear)"/>
<path d="M101.561 473.942H63.8174V474.567H101.561V473.942Z" fill="#2BDC72"/>
<path d="M88.2151 470.5L88.945 467.268L84.9829 469.04L85.6085 465.391L81.855 466.434L81.6465 465.808L86.4426 464.453L85.8171 467.893L89.8833 466.121L89.1535 469.458L92.5942 468.206L92.8027 468.832L88.2151 470.5Z" fill="#2BDC72"/>
<path d="M37.9615 456.633H17.8385C17.8385 456.633 18.3598 419.825 24.1986 397.928L20.6536 347.148H49.8476L37.9615 456.633Z" fill="url(#paint82_linear)"/>
<path d="M44.5299 395.113L47.6578 368.523L35.3546 360.599L44.5299 395.113Z" fill="#1AC9EF"/>
<path d="M65.4869 345.375C65.4869 345.375 78.2072 382.183 80.7095 397.615C83.2118 412.943 82.899 456.633 82.899 456.633H61.1078L59.8567 399.805L27.7433 348.399L65.4869 345.375Z" fill="url(#paint83_linear)"/>
<path d="M29.3069 261.437C29.3069 261.437 19.4018 267.901 11.7905 293.448C4.17923 318.994 7.61994 322.644 26.596 327.128L29.3069 261.437Z" fill="#0538FB"/>
<path d="M68.9276 276.973L45.1554 255.388C32.4352 255.388 21.9045 265.398 21.2789 278.12L17.6296 351.318H68.1978L68.9276 276.973Z" fill="url(#paint84_linear)"/>
<path d="M35.9793 278.641C33.1642 275.096 30.0363 264.043 33.2684 258.517C36.8134 256.431 40.8797 255.284 45.2588 255.284C58.9174 255.284 69.8652 266.754 69.1353 280.414L68.614 321.705C68.4055 321.288 66.8415 317.326 66.7372 316.909L53.9127 279.997C44.3204 291.571 38.5859 281.874 35.9793 278.641Z" fill="#0538FB"/>
<path d="M45.155 276.034L71.0125 314.406C72.6808 317.534 75.8087 319.516 79.3537 319.516C82.8987 319.516 86.1309 317.534 87.6948 314.302L101.562 286.879L84.6712 278.433L79.1452 289.59L61.6288 260.498L45.155 276.034Z" fill="url(#paint85_linear)"/>
<path d="M55.9979 245.274H43.2776L38.2729 262.166L50.8889 262.375L55.9979 245.274Z" fill="url(#paint86_linear)"/>
<path d="M61.838 254.137C67.364 252.678 71.0133 247.464 70.492 241.833L70.0749 236.933C69.4493 229.738 62.4636 224.837 55.4779 226.714C49.9519 228.174 46.3027 233.387 46.824 239.018L47.241 243.919C47.9709 251.113 54.8523 255.91 61.838 254.137Z" fill="url(#paint87_linear)"/>
<path d="M56.2072 246.63C56.2072 246.63 62.2545 242.98 60.1692 234.43C60.1692 234.43 65.591 233.283 65.6952 229.842C65.6952 229.842 75.1833 227.131 71.7426 220.458C68.9274 215.035 58.9181 213.471 56.4157 222.022C52.1409 220.875 39.0036 226.505 39.942 228.799C42.9656 236.098 42.2358 248.09 42.2358 248.09L56.2072 246.63Z" fill="url(#paint88_linear)"/>
<path d="M54.9557 247.985C57.7773 247.985 60.0647 245.698 60.0647 242.876C60.0647 240.054 57.7773 237.767 54.9557 237.767C52.1342 237.767 49.8468 240.054 49.8468 242.876C49.8468 245.698 52.1342 247.985 54.9557 247.985Z" fill="url(#paint89_linear)"/>
<path d="M57.7716 268.214C57.7716 268.214 68.9278 264.669 60.0654 257.682C54.8522 253.616 36.8145 251.009 31.7055 255.597C26.5966 260.185 30.0373 273.323 33.1652 277.181C36.3974 281.248 44.2172 294.699 57.7716 268.214Z" fill="url(#paint90_linear)"/>
<path d="M23.2593 284.898C23.2593 284.898 23.6764 271.446 25.9702 264.669L20.9655 270.925C20.9655 270.925 17.629 280.622 17.9418 288.13L23.2593 284.898Z" fill="#2BDC72"/>
<path d="M53.4957 327.128L68.5097 314.615L68.614 310.131L48.3867 320.037L53.4957 327.128Z" fill="#2BDC72"/>
<path d="M25.9704 282.499L55.4771 329.526L43.6953 330.673L20.9657 293.031L25.9704 282.499Z" fill="#2BDC72"/>
<path d="M20.9657 293.031L2.71948 306.586L25.2405 346.522L43.6953 330.673L20.9657 293.031Z" fill="url(#paint91_linear)"/>
<path d="M55.4776 329.526L32.748 348.19L25.241 346.522L43.6957 330.673L55.4776 329.526Z" fill="#2BDC72"/>
<path d="M0.00865325 304.814C0.00865325 304.814 3.34511 313.155 7.41141 312.947C11.4777 312.842 25.6576 301.581 24.1979 298.244C21.07 291.258 25.9704 282.395 25.9704 282.395C25.9704 282.395 21.2785 282.604 12.3118 291.884C3.34511 301.164 -0.199875 301.581 0.00865325 304.814Z" fill="url(#paint92_linear)"/>
<path d="M7.41125 312.947C11.4776 312.843 26.2831 300.956 24.8234 297.619" stroke="#2BDC72" stroke-miterlimit="10"/>
<path d="M23.6766 316.283V320.037L20.1316 318.786L12.8331 307.42L16.0653 304.501L23.6766 316.283Z" fill="#2BDC72"/>
<path d="M22.1125 312.947L18.0462 316.179L16.1694 313.259L20.2357 310.131L22.1125 312.947Z" fill="url(#paint93_linear)"/>
<path d="M60.273 234.43C60.273 234.43 61.4199 242.042 62.3582 243.814C63.2966 245.587 69.6567 247.255 69.6567 247.255C69.6567 247.255 67.8842 253.199 63.4009 254.554C59.0218 256.014 58.6047 252.886 58.6047 252.886V238.705L60.273 234.43Z" fill="url(#paint94_linear)"/>
<path fill-rule="evenodd" clip-rule="evenodd" d="M252.252 203.792C251.007 204.23 250.868 205.211 251.935 205.982C253.003 206.754 254.881 207.025 256.123 206.588C257.366 206.152 257.508 205.169 256.44 204.398C255.373 203.627 253.498 203.354 252.252 203.792ZM256.553 205.527C256.531 205.683 256.446 205.829 256.31 205.963C256.171 206.098 255.978 206.208 255.732 206.294C255.481 206.383 255.207 206.437 254.907 206.456C254.608 206.475 254.31 206.464 254.01 206.422C253.711 206.379 253.42 206.306 253.141 206.204C252.861 206.103 252.613 205.976 252.4 205.821C252.186 205.667 252.035 205.506 251.942 205.339C251.85 205.171 251.817 205.01 251.84 204.854C251.863 204.698 251.949 204.555 252.088 204.419C252.229 204.286 252.423 204.173 252.674 204.085C252.92 203.999 253.191 203.945 253.491 203.926C253.788 203.906 254.086 203.917 254.384 203.96C254.682 204.003 254.971 204.074 255.25 204.176C255.53 204.277 255.777 204.404 255.991 204.559C256.204 204.713 256.356 204.874 256.449 205.041C256.541 205.209 256.578 205.37 256.553 205.527ZM252.962 204.304C252.174 204.582 252.084 205.203 252.761 205.692C253.438 206.181 254.626 206.353 255.414 206.076C256.202 205.799 256.292 205.178 255.615 204.688C254.937 204.199 253.75 204.027 252.962 204.304ZM255.051 205.814C254.498 206.008 253.663 205.888 253.188 205.544C252.713 205.201 252.776 204.764 253.329 204.57C253.882 204.375 254.717 204.496 255.192 204.84C255.667 205.183 255.604 205.619 255.051 205.814ZM254.766 204.979C255.038 205.175 255.002 205.424 254.686 205.535C254.37 205.646 253.894 205.578 253.623 205.382C253.351 205.185 253.387 204.937 253.703 204.826C254.019 204.714 254.495 204.783 254.766 204.979Z" fill="url(#paint95_linear)"/>
<path fill-rule="evenodd" clip-rule="evenodd" d="M29 322C25.6832 322 23 324.69 23 328C23 331.31 25.6904 334 29 334C32.3096 334 35 331.31 35 328C35 324.69 32.3167 322 29 322ZM32.4021 331.374C31.9751 331.801 31.4626 332.135 30.8861 332.384C30.3025 332.633 29.6833 332.754 29.0284 332.754C28.3594 332.754 27.7331 332.633 27.1494 332.384C26.5658 332.135 26.0605 331.801 25.6263 331.374C25.1993 330.947 24.8576 330.441 24.6085 329.865C24.3594 329.288 24.2313 328.669 24.2313 328.007C24.2313 327.345 24.3594 326.726 24.6085 326.149C24.8576 325.573 25.1993 325.075 25.6263 324.648C26.0534 324.221 26.5658 323.893 27.1494 323.644C27.7331 323.402 28.3594 323.274 29.0284 323.274C29.6833 323.274 30.3025 323.395 30.8861 323.644C31.4697 323.886 31.9751 324.221 32.4021 324.648C32.8292 325.075 33.1708 325.573 33.4199 326.149C33.669 326.726 33.7971 327.345 33.7971 328.007C33.7971 328.669 33.669 329.288 33.4199 329.865C33.1708 330.441 32.8363 330.947 32.4021 331.374ZM29.0002 324.199C26.9005 324.199 25.1995 325.9 25.1995 328C25.1995 330.099 26.9005 331.8 29.0002 331.8C31.0998 331.8 32.8009 330.099 32.8009 328C32.8009 325.9 31.0998 324.199 29.0002 324.199ZM29.0002 330.676C27.5269 330.676 26.3311 329.48 26.3311 328.007C26.3311 326.533 27.5269 325.338 29.0002 325.338C30.4735 325.338 31.6692 326.533 31.6692 328.007C31.6692 329.48 30.4735 330.676 29.0002 330.676ZM30.5597 327.979C30.5597 328.82 29.8777 329.502 29.0365 329.502C28.1954 329.502 27.5134 328.82 27.5134 327.979C27.5134 327.137 28.1954 326.455 29.0365 326.455C29.8777 326.455 30.5597 327.137 30.5597 327.979Z" fill="url(#paint96_linear)"/>
<defs>
<filter id="filter0_d" x="85.0001" y="191.066" width="219.269" height="124.411" filterUnits="userSpaceOnUse" color-interpolation-filters="sRGB">
<feFlood flood-opacity="0" result="BackgroundImageFix"/>
<feColorMatrix in="SourceAlpha" type="matrix" values="0 0 0 0 0 0 0 0 0 0 0 0 0 0 0 0 0 0 127 0"/>
<feOffset dx="3" dy="6"/>
<feGaussianBlur stdDeviation="12"/>
<feColorMatrix type="matrix" values="0 0 0 0 0.0431373 0 0 0 0 0 0 0 0 0 0.301961 0 0 0 0.16 0"/>
<feBlend mode="normal" in2="BackgroundImageFix" result="effect1_dropShadow"/>
<feBlend mode="normal" in="SourceGraphic" in2="effect1_dropShadow" result="shape"/>
</filter>
<filter id="filter1_d" x="86.6016" y="0" width="199.398" height="115.546" filterUnits="userSpaceOnUse" color-interpolation-filters="sRGB">
<feFlood flood-opacity="0" result="BackgroundImageFix"/>
<feColorMatrix in="SourceAlpha" type="matrix" values="0 0 0 0 0 0 0 0 0 0 0 0 0 0 0 0 0 0 127 0"/>
<feOffset dx="3" dy="6"/>
<feGaussianBlur stdDeviation="12"/>
<feColorMatrix type="matrix" values="0 0 0 0 0.0431373 0 0 0 0 0 0 0 0 0 0.301961 0 0 0 0.16 0"/>
<feBlend mode="normal" in2="BackgroundImageFix" result="effect1_dropShadow"/>
<feBlend mode="normal" in="SourceGraphic" in2="effect1_dropShadow" result="shape"/>
</filter>
<filter id="filter2_d" x="45.8361" y="239" width="197.886" height="100.997" filterUnits="userSpaceOnUse" color-interpolation-filters="sRGB">
<feFlood flood-opacity="0" result="BackgroundImageFix"/>
<feColorMatrix in="SourceAlpha" type="matrix" values="0 0 0 0 0 0 0 0 0 0 0 0 0 0 0 0 0 0 127 0"/>
<feOffset dx="3" dy="6"/>
<feGaussianBlur stdDeviation="12"/>
<feColorMatrix type="matrix" values="0 0 0 0 0.0431373 0 0 0 0 0 0 0 0 0 0.301961 0 0 0 0.16 0"/>
<feBlend mode="normal" in2="BackgroundImageFix" result="effect1_dropShadow"/>
<feBlend mode="normal" in="SourceGraphic" in2="effect1_dropShadow" result="shape"/>
</filter>
<filter id="filter3_d" x="2" y="75.3412" width="217.558" height="107.952" filterUnits="userSpaceOnUse" color-interpolation-filters="sRGB">
<feFlood flood-opacity="0" result="BackgroundImageFix"/>
<feColorMatrix in="SourceAlpha" type="matrix" values="0 0 0 0 0 0 0 0 0 0 0 0 0 0 0 0 0 0 127 0"/>
<feOffset dx="3" dy="6"/>
<feGaussianBlur stdDeviation="12"/>
<feColorMatrix type="matrix" values="0 0 0 0 0.0431373 0 0 0 0 0 0 0 0 0 0.301961 0 0 0 0.16 0"/>
<feBlend mode="normal" in2="BackgroundImageFix" result="effect1_dropShadow"/>
<feBlend mode="normal" in="SourceGraphic" in2="effect1_dropShadow" result="shape"/>
</filter>
<filter id="filter4_d" x="27" y="118" width="278.769" height="107.553" filterUnits="userSpaceOnUse" color-interpolation-filters="sRGB">
<feFlood flood-opacity="0" result="BackgroundImageFix"/>
<feColorMatrix in="SourceAlpha" type="matrix" values="0 0 0 0 0 0 0 0 0 0 0 0 0 0 0 0 0 0 127 0"/>
<feOffset dx="3" dy="6"/>
<feGaussianBlur stdDeviation="12"/>
<feColorMatrix type="matrix" values="0 0 0 0 0.0431373 0 0 0 0 0 0 0 0 0 0.301961 0 0 0 0.16 0"/>
<feBlend mode="normal" in2="BackgroundImageFix" result="effect1_dropShadow"/>
<feBlend mode="normal" in="SourceGraphic" in2="effect1_dropShadow" result="shape"/>
</filter>
<linearGradient id="paint0_linear" x1="121.845" y1="242.907" x2="143.263" y2="221.489" gradientUnits="userSpaceOnUse">
<stop stop-color="#B3CFFF"/>
<stop offset="0.5625" stop-color="#DAE8FF"/>
<stop offset="1" stop-color="#E2EDFF"/>
</linearGradient>
<linearGradient id="paint1_linear" x1="117.672" y1="74.9777" x2="136.605" y2="56.0446" gradientUnits="userSpaceOnUse">
<stop stop-color="#B3CFFF"/>
<stop offset="0.5625" stop-color="#DAE8FF"/>
<stop offset="1" stop-color="#E2EDFF"/>
</linearGradient>
<linearGradient id="paint2_linear" x1="78.0425" y1="286.214" x2="96.9756" y2="267.28" gradientUnits="userSpaceOnUse">
<stop stop-color="#B3CFFF"/>
<stop offset="0.5625" stop-color="#DAE8FF"/>
<stop offset="1" stop-color="#E2EDFF"/>
</linearGradient>
<linearGradient id="paint3_linear" x1="33.4385" y1="141.781" x2="54.8565" y2="120.362" gradientUnits="userSpaceOnUse">
<stop stop-color="#B3CFFF"/>
<stop offset="0.5625" stop-color="#DAE8FF"/>
<stop offset="1" stop-color="#E2EDFF"/>
</linearGradient>
<linearGradient id="paint4_linear" x1="76.7325" y1="170.508" x2="99.1299" y2="170.508" gradientUnits="userSpaceOnUse">
<stop stop-color="#2297FC"/>
<stop offset="1" stop-color="#0538FB"/>
</linearGradient>
<linearGradient id="paint5_linear" x1="77.1326" y1="176.415" x2="77.1326" y2="156.214" gradientUnits="userSpaceOnUse">
<stop stop-color="#0538FB" stop-opacity="0"/>
<stop offset="1" stop-color="#0538FB"/>
</linearGradient>
<linearGradient id="paint6_linear" x1="77.133" y1="166.883" x2="77.133" y2="179.107" gradientUnits="userSpaceOnUse">
<stop offset="0.035" stop-color="#37D9FC"/>
<stop offset="1" stop-color="#1CD6FF"/>
</linearGradient>
<linearGradient id="paint7_linear" x1="86.4394" y1="175.53" x2="78.7383" y2="155.33" gradientUnits="userSpaceOnUse">
<stop stop-color="#0538FB" stop-opacity="0"/>
<stop offset="1" stop-color="#0538FB"/>
</linearGradient>
<linearGradient id="paint8_linear" x1="74.5513" y1="158.894" x2="92.2403" y2="176.582" gradientUnits="userSpaceOnUse">
<stop stop-color="#2297FC"/>
<stop offset="1" stop-color="#0538FB"/>
</linearGradient>
<linearGradient id="paint9_linear" x1="76.1672" y1="160.509" x2="82.782" y2="167.124" gradientUnits="userSpaceOnUse">
<stop offset="0.035" stop-color="#37D9FC"/>
<stop offset="1" stop-color="#1CD6FF"/>
</linearGradient>
<linearGradient id="paint10_linear" x1="89.2693" y1="174.585" x2="82.8485" y2="154.384" gradientUnits="userSpaceOnUse">
<stop stop-color="#0538FB" stop-opacity="0"/>
<stop offset="1" stop-color="#0538FB"/>
</linearGradient>
<linearGradient id="paint11_linear" x1="80.2349" y1="164.631" x2="79.0146" y2="153.31" gradientUnits="userSpaceOnUse">
<stop stop-color="#0538FB" stop-opacity="0"/>
<stop offset="1" stop-color="#0538FB"/>
</linearGradient>
<linearGradient id="paint12_linear" x1="73.2924" y1="156.602" x2="66.3399" y2="150.849" gradientUnits="userSpaceOnUse">
<stop offset="0.035" stop-color="#37D9FC"/>
<stop offset="1" stop-color="#1CD6FF"/>
</linearGradient>
<linearGradient id="paint13_linear" x1="72.9767" y1="158.552" x2="72.807" y2="154.737" gradientUnits="userSpaceOnUse">
<stop stop-color="#0538FB" stop-opacity="0"/>
<stop offset="1" stop-color="#0538FB"/>
</linearGradient>
<linearGradient id="paint14_linear" x1="72.667" y1="155.261" x2="79.0719" y2="150.137" gradientUnits="userSpaceOnUse">
<stop stop-color="#0538FB" stop-opacity="0"/>
<stop offset="1" stop-color="#0538FB"/>
</linearGradient>
<linearGradient id="paint15_linear" x1="80.9737" y1="156.602" x2="87.9261" y2="150.849" gradientUnits="userSpaceOnUse">
<stop offset="0.035" stop-color="#37D9FC"/>
<stop offset="1" stop-color="#1CD6FF"/>
</linearGradient>
<linearGradient id="paint16_linear" x1="81.2886" y1="158.552" x2="81.4577" y2="154.737" gradientUnits="userSpaceOnUse">
<stop stop-color="#0538FB" stop-opacity="0"/>
<stop offset="1" stop-color="#0538FB"/>
</linearGradient>
<linearGradient id="paint17_linear" x1="81.5977" y1="155.26" x2="75.1935" y2="150.137" gradientUnits="userSpaceOnUse">
<stop stop-color="#0538FB" stop-opacity="0"/>
<stop offset="1" stop-color="#0538FB"/>
</linearGradient>
<linearGradient id="paint18_linear" x1="82.6088" y1="155.846" x2="73.8782" y2="154.659" gradientUnits="userSpaceOnUse">
<stop stop-color="#0538FB" stop-opacity="0"/>
<stop offset="1" stop-color="#0538FB"/>
</linearGradient>
<linearGradient id="paint19_linear" x1="73.6078" y1="151.228" x2="79.1912" y2="156.812" gradientUnits="userSpaceOnUse">
<stop stop-color="#37D9FC"/>
<stop offset="0.966" stop-color="#1CD6FF"/>
</linearGradient>
<linearGradient id="paint20_linear" x1="289.155" y1="252.05" x2="289.155" y2="367.583" gradientUnits="userSpaceOnUse">
<stop stop-color="#C2D1F8"/>
<stop offset="1" stop-color="#EEF3FF"/>
</linearGradient>
<linearGradient id="paint21_linear" x1="292.867" y1="361.431" x2="292.867" y2="382.911" gradientUnits="userSpaceOnUse">
<stop stop-color="#2BDC72"/>
<stop offset="1" stop-color="#6CF089"/>
</linearGradient>
<linearGradient id="paint22_linear" x1="293.388" y1="371.858" x2="293.388" y2="386.143" gradientUnits="userSpaceOnUse">
<stop stop-color="#2BDC72"/>
<stop offset="1" stop-color="#6CF089"/>
</linearGradient>
<linearGradient id="paint23_linear" x1="307.417" y1="252.05" x2="307.417" y2="372.692" gradientUnits="userSpaceOnUse">
<stop stop-color="#C2D1F8"/>
<stop offset="1" stop-color="white"/>
</linearGradient>
<linearGradient id="paint24_linear" x1="294.431" y1="231.196" x2="294.431" y2="291.778" gradientUnits="userSpaceOnUse">
<stop stop-color="#0538FB"/>
<stop offset="1" stop-color="#37D9FC"/>
</linearGradient>
<linearGradient id="paint25_linear" x1="285.933" y1="185.733" x2="285.933" y2="222.228" gradientUnits="userSpaceOnUse">
<stop stop-color="#2BDC72"/>
<stop offset="1" stop-color="#8BFF89"/>
</linearGradient>
<linearGradient id="paint26_linear" x1="275.716" y1="207.526" x2="275.716" y2="231.3" gradientUnits="userSpaceOnUse">
<stop stop-color="#C2D1F8"/>
<stop offset="1" stop-color="#EEF3FF"/>
</linearGradient>
<linearGradient id="paint27_linear" x1="271.587" y1="200.858" x2="271.587" y2="207.734" gradientUnits="userSpaceOnUse">
<stop stop-color="#C2D1F8"/>
<stop offset="1" stop-color="#EEF3FF"/>
</linearGradient>
<linearGradient id="paint28_linear" x1="258.825" y1="199.887" x2="258.825" y2="209.429" gradientUnits="userSpaceOnUse">
<stop stop-color="#0538FB"/>
<stop offset="1" stop-color="#37D9FC"/>
</linearGradient>
<linearGradient id="paint29_linear" x1="248.398" y1="201.582" x2="248.398" y2="204.084" gradientUnits="userSpaceOnUse">
<stop stop-color="#0538FB"/>
<stop offset="1" stop-color="#37D9FC"/>
</linearGradient>
<linearGradient id="paint30_linear" x1="300.411" y1="177.913" x2="300.411" y2="235.888" gradientUnits="userSpaceOnUse">
<stop stop-color="#2BDC72"/>
<stop offset="1" stop-color="#8BFF89"/>
</linearGradient>
<linearGradient id="paint31_linear" x1="278.113" y1="228.497" x2="278.113" y2="241.645" gradientUnits="userSpaceOnUse">
<stop stop-color="#2BDC72"/>
<stop offset="1" stop-color="#8BFF89"/>
</linearGradient>
<linearGradient id="paint32_linear" x1="286.564" y1="227.442" x2="286.564" y2="247.253" gradientUnits="userSpaceOnUse">
<stop stop-color="#2BDC72"/>
<stop offset="1" stop-color="#8BFF89"/>
</linearGradient>
<linearGradient id="paint33_linear" x1="290.781" y1="163.732" x2="290.781" y2="192.198" gradientUnits="userSpaceOnUse">
<stop stop-color="#C2D1F8"/>
<stop offset="1" stop-color="white"/>
</linearGradient>
<linearGradient id="paint34_linear" x1="291.354" y1="173.95" x2="291.354" y2="182.813" gradientUnits="userSpaceOnUse">
<stop stop-color="#C2D1F8"/>
<stop offset="1" stop-color="#EEF3FF"/>
</linearGradient>
<linearGradient id="paint35_linear" x1="296.776" y1="167.726" x2="287.207" y2="137.439" gradientUnits="userSpaceOnUse">
<stop stop-color="#2AF6FF"/>
<stop offset="0.6557" stop-color="#52D8F9"/>
<stop offset="1" stop-color="#61CDF6"/>
</linearGradient>
<linearGradient id="paint36_linear" x1="286.972" y1="148.21" x2="286.972" y2="166.495" gradientUnits="userSpaceOnUse">
<stop stop-color="#0538FB"/>
<stop offset="1" stop-color="#37D9FC"/>
</linearGradient>
<linearGradient id="paint37_linear" x1="274.168" y1="158.518" x2="274.168" y2="178.225" gradientUnits="userSpaceOnUse">
<stop stop-color="#0538FB"/>
<stop offset="1" stop-color="#37D9FC"/>
</linearGradient>
<linearGradient id="paint38_linear" x1="284.994" y1="156.108" x2="284.994" y2="180.598" gradientUnits="userSpaceOnUse">
<stop stop-color="#C2D1F8"/>
<stop offset="1" stop-color="white"/>
</linearGradient>
<linearGradient id="paint39_linear" x1="290.837" y1="164.101" x2="300.932" y2="166.71" gradientUnits="userSpaceOnUse">
<stop stop-color="#C2D1F8"/>
<stop offset="1" stop-color="white"/>
</linearGradient>
<linearGradient id="paint40_linear" x1="288.153" y1="165.4" x2="288.153" y2="176.244" gradientUnits="userSpaceOnUse">
<stop stop-color="#0538FB"/>
<stop offset="1" stop-color="#37D9FC"/>
</linearGradient>
<linearGradient id="paint41_linear" x1="297.368" y1="154.347" x2="297.368" y2="175.827" gradientUnits="userSpaceOnUse">
<stop stop-color="#0538FB"/>
<stop offset="1" stop-color="#37D9FC"/>
</linearGradient>
<linearGradient id="paint42_linear" x1="281.688" y1="153.293" x2="281.688" y2="171.761" gradientUnits="userSpaceOnUse">
<stop stop-color="#0538FB"/>
<stop offset="1" stop-color="#37D9FC"/>
</linearGradient>
<linearGradient id="paint43_linear" x1="284.682" y1="207.943" x2="284.682" y2="225.773" gradientUnits="userSpaceOnUse">
<stop stop-color="#C2D1F8"/>
<stop offset="1" stop-color="white"/>
</linearGradient>
<linearGradient id="paint44_linear" x1="264.874" y1="204.099" x2="264.874" y2="214.825" gradientUnits="userSpaceOnUse">
<stop stop-color="#C2D1F8"/>
<stop offset="1" stop-color="white"/>
</linearGradient>
<linearGradient id="paint45_linear" x1="301.532" y1="177.913" x2="301.532" y2="237.369" gradientUnits="userSpaceOnUse">
<stop stop-color="#2BDC72"/>
<stop offset="1" stop-color="#8BFF89"/>
</linearGradient>
<linearGradient id="paint46_linear" x1="301.677" y1="369.96" x2="301.677" y2="382.494" gradientUnits="userSpaceOnUse">
<stop stop-color="#2BDC72"/>
<stop offset="1" stop-color="#6CF089"/>
</linearGradient>
<linearGradient id="paint47_linear" x1="301.52" y1="381.347" x2="301.52" y2="385.726" gradientUnits="userSpaceOnUse">
<stop stop-color="#2BDC72"/>
<stop offset="1" stop-color="#6CF089"/>
</linearGradient>
<linearGradient id="paint48_linear" x1="198.139" y1="426.777" x2="198.139" y2="443.459" gradientUnits="userSpaceOnUse">
<stop stop-color="#C2D1F8"/>
<stop offset="1" stop-color="white"/>
</linearGradient>
<linearGradient id="paint49_linear" x1="212.565" y1="452.735" x2="197.782" y2="432.498" gradientUnits="userSpaceOnUse">
<stop stop-color="#2AF6FF"/>
<stop offset="0.6557" stop-color="#52D8F9"/>
<stop offset="1" stop-color="#61CDF6"/>
</linearGradient>
<linearGradient id="paint50_linear" x1="170.615" y1="497.364" x2="170.615" y2="516.549" gradientUnits="userSpaceOnUse">
<stop stop-color="#C2D1F8"/>
<stop offset="1" stop-color="white"/>
</linearGradient>
<linearGradient id="paint51_linear" x1="175.99" y1="522.205" x2="168.299" y2="502.568" gradientUnits="userSpaceOnUse">
<stop stop-color="#2AF6FF"/>
<stop offset="0.6557" stop-color="#52D8F9"/>
<stop offset="1" stop-color="#61CDF6"/>
</linearGradient>
<linearGradient id="paint52_linear" x1="179.644" y1="452.247" x2="124.872" y2="356.804" gradientUnits="userSpaceOnUse">
<stop stop-color="#2AF6FF"/>
<stop offset="0.145833" stop-color="#61CDF6"/>
</linearGradient>
<linearGradient id="paint53_linear" x1="151.275" y1="354.321" x2="162.658" y2="382.931" gradientUnits="userSpaceOnUse">
<stop stop-color="#C2D1F8"/>
<stop offset="1" stop-color="white"/>
</linearGradient>
<linearGradient id="paint54_linear" x1="163.561" y1="335" x2="163.561" y2="369.388" gradientUnits="userSpaceOnUse">
<stop stop-color="#0538FB"/>
<stop offset="1" stop-color="#37D9FC"/>
</linearGradient>
<linearGradient id="paint55_linear" x1="130.52" y1="414.499" x2="113.803" y2="414.499" gradientUnits="userSpaceOnUse">
<stop stop-color="#C2D1F8"/>
<stop offset="1" stop-color="white"/>
</linearGradient>
<linearGradient id="paint56_linear" x1="124.699" y1="434.287" x2="87.7163" y2="392.9" gradientUnits="userSpaceOnUse">
<stop stop-color="#2AF6FF"/>
<stop offset="0.6557" stop-color="#52D8F9"/>
<stop offset="1" stop-color="#61CDF6"/>
</linearGradient>
<linearGradient id="paint57_linear" x1="183.642" y1="418.214" x2="199.616" y2="418.957" gradientUnits="userSpaceOnUse">
<stop stop-color="#C2D1F8"/>
<stop offset="1" stop-color="white"/>
</linearGradient>
<linearGradient id="paint58_linear" x1="168.631" y1="406.563" x2="171.718" y2="415.229" gradientUnits="userSpaceOnUse">
<stop stop-color="#0538FB"/>
<stop offset="1" stop-color="#37D9FC"/>
</linearGradient>
<linearGradient id="paint59_linear" x1="211.18" y1="435.194" x2="156.012" y2="413.696" gradientUnits="userSpaceOnUse">
<stop stop-color="#2AF6FF"/>
<stop offset="0.6557" stop-color="#52D8F9"/>
<stop offset="1" stop-color="#61CDF6"/>
</linearGradient>
<linearGradient id="paint60_linear" x1="154.532" y1="414.16" x2="154.532" y2="492.881" gradientUnits="userSpaceOnUse">
<stop stop-color="#0538FB"/>
<stop offset="1" stop-color="#37D9FC"/>
</linearGradient>
<linearGradient id="paint61_linear" x1="171.448" y1="492.985" x2="171.448" y2="501.848" gradientUnits="userSpaceOnUse">
<stop stop-color="#2BDC72"/>
<stop offset="1" stop-color="#8BFF89"/>
</linearGradient>
<linearGradient id="paint62_linear" x1="149.014" y1="427.873" x2="155.835" y2="390.612" gradientUnits="userSpaceOnUse">
<stop stop-color="white"/>
<stop offset="1" stop-color="#C2D1F8"/>
</linearGradient>
<linearGradient id="paint63_linear" x1="165.44" y1="406.326" x2="130.52" y2="406.326" gradientUnits="userSpaceOnUse">
<stop stop-color="white"/>
<stop offset="1" stop-color="#C2D1F8"/>
</linearGradient>
<linearGradient id="paint64_linear" x1="159.686" y1="411.741" x2="159.686" y2="444.389" gradientUnits="userSpaceOnUse">
<stop stop-color="#0538FB"/>
<stop offset="1" stop-color="#37D9FC"/>
</linearGradient>
<linearGradient id="paint65_linear" x1="190.84" y1="421.98" x2="190.84" y2="445.649" gradientUnits="userSpaceOnUse">
<stop stop-color="#2BDC72"/>
<stop offset="1" stop-color="#8BFF89"/>
</linearGradient>
<linearGradient id="paint66_linear" x1="224.204" y1="432.198" x2="224.204" y2="460.037" gradientUnits="userSpaceOnUse">
<stop stop-color="#0538FB"/>
<stop offset="1" stop-color="#37D9FC"/>
</linearGradient>
<linearGradient id="paint67_linear" x1="217.173" y1="431.364" x2="217.173" y2="458.995" gradientUnits="userSpaceOnUse">
<stop stop-color="#0538FB"/>
<stop offset="1" stop-color="#37D9FC"/>
</linearGradient>
<linearGradient id="paint68_linear" x1="164.933" y1="517.696" x2="164.933" y2="533" gradientUnits="userSpaceOnUse">
<stop stop-color="#0538FB"/>
<stop offset="1" stop-color="#37D9FC"/>
</linearGradient>
<linearGradient id="paint69_linear" x1="164.985" y1="508.938" x2="164.985" y2="528.331" gradientUnits="userSpaceOnUse">
<stop stop-color="#0538FB"/>
<stop offset="1" stop-color="#37D9FC"/>
</linearGradient>
<linearGradient id="paint70_linear" x1="84.4618" y1="253.303" x2="84.4618" y2="265.816" gradientUnits="userSpaceOnUse">
<stop stop-color="#0538FB"/>
<stop offset="1" stop-color="#37D9FC"/>
</linearGradient>
<linearGradient id="paint71_linear" x1="90.8825" y1="269.655" x2="85.4068" y2="250.912" gradientUnits="userSpaceOnUse">
<stop stop-color="#2AF6FF"/>
<stop offset="0.6557" stop-color="#52D8F9"/>
<stop offset="1" stop-color="#61CDF6"/>
</linearGradient>
<linearGradient id="paint72_linear" x1="88.5803" y1="271.968" x2="88.5803" y2="307.003" gradientUnits="userSpaceOnUse">
<stop stop-color="#C2D1F8"/>
<stop offset="1" stop-color="white"/>
</linearGradient>
<linearGradient id="paint73_linear" x1="95.3937" y1="255.239" x2="95.3937" y2="276.409" gradientUnits="userSpaceOnUse">
<stop stop-color="#C2D1F8"/>
<stop offset="1" stop-color="white"/>
</linearGradient>
<linearGradient id="paint74_linear" x1="93.5897" y1="252.726" x2="93.5897" y2="258.83" gradientUnits="userSpaceOnUse">
<stop stop-color="#C2D1F8"/>
<stop offset="1" stop-color="white"/>
</linearGradient>
<linearGradient id="paint75_linear" x1="88.0696" y1="257.361" x2="88.0696" y2="265.19" gradientUnits="userSpaceOnUse">
<stop stop-color="#C2D1F8"/>
<stop offset="1" stop-color="white"/>
</linearGradient>
<linearGradient id="paint76_linear" x1="29.0983" y1="444.954" x2="29.0983" y2="466.956" gradientUnits="userSpaceOnUse">
<stop stop-color="#C2D1F8"/>
<stop offset="1" stop-color="#EEF3FF"/>
</linearGradient>
<linearGradient id="paint77_linear" x1="39.108" y1="462.785" x2="39.108" y2="474.255" gradientUnits="userSpaceOnUse">
<stop stop-color="#2BDC72"/>
<stop offset="1" stop-color="#6CF089"/>
</linearGradient>
<linearGradient id="paint78_linear" x1="39.3687" y1="474.255" x2="39.3687" y2="477.486" gradientUnits="userSpaceOnUse">
<stop stop-color="#2BDC72"/>
<stop offset="1" stop-color="#6CF089"/>
</linearGradient>
<linearGradient id="paint79_linear" x1="72.5758" y1="444.954" x2="72.5758" y2="466.955" gradientUnits="userSpaceOnUse">
<stop stop-color="#C2D1F8"/>
<stop offset="1" stop-color="white"/>
</linearGradient>
<linearGradient id="paint80_linear" x1="82.6373" y1="462.784" x2="82.6373" y2="474.254" gradientUnits="userSpaceOnUse">
<stop stop-color="#2BDC72"/>
<stop offset="1" stop-color="#6CF089"/>
</linearGradient>
<linearGradient id="paint81_linear" x1="82.9499" y1="474.254" x2="82.9499" y2="477.486" gradientUnits="userSpaceOnUse">
<stop stop-color="#2BDC72"/>
<stop offset="1" stop-color="#6CF089"/>
</linearGradient>
<linearGradient id="paint82_linear" x1="45.0691" y1="510.612" x2="-47.7784" y2="459.688" gradientUnits="userSpaceOnUse">
<stop stop-color="#2AF6FF"/>
<stop offset="0.6557" stop-color="#52D8F9"/>
<stop offset="1" stop-color="#61CDF6"/>
</linearGradient>
<linearGradient id="paint83_linear" x1="74.6758" y1="511.486" x2="-36.9193" y2="407.676" gradientUnits="userSpaceOnUse">
<stop stop-color="#2AF6FF"/>
<stop offset="0.6557" stop-color="#52D8F9"/>
<stop offset="1" stop-color="#61CDF6"/>
</linearGradient>
<linearGradient id="paint84_linear" x1="43.2786" y1="255.388" x2="43.2786" y2="351.318" gradientUnits="userSpaceOnUse">
<stop stop-color="#37D9FC"/>
<stop offset="1" stop-color="#0538FB"/>
</linearGradient>
<linearGradient id="paint85_linear" x1="73.3585" y1="260.498" x2="73.3585" y2="319.516" gradientUnits="userSpaceOnUse">
<stop stop-color="#0538FB"/>
<stop offset="1" stop-color="#37D9FC"/>
</linearGradient>
<linearGradient id="paint86_linear" x1="47.1354" y1="245.274" x2="47.1354" y2="262.375" gradientUnits="userSpaceOnUse">
<stop stop-color="#C2D1F8"/>
<stop offset="1" stop-color="white"/>
</linearGradient>
<linearGradient id="paint87_linear" x1="58.658" y1="226.311" x2="58.658" y2="254.507" gradientUnits="userSpaceOnUse">
<stop stop-color="#C2D1F8"/>
<stop offset="1" stop-color="white"/>
</linearGradient>
<linearGradient id="paint88_linear" x1="56.1942" y1="216" x2="56.1942" y2="248.09" gradientUnits="userSpaceOnUse">
<stop stop-color="#0538FB"/>
<stop offset="1" stop-color="#37D9FC"/>
</linearGradient>
<linearGradient id="paint89_linear" x1="54.9557" y1="237.767" x2="54.9557" y2="247.985" gradientUnits="userSpaceOnUse">
<stop stop-color="#C2D1F8"/>
<stop offset="1" stop-color="white"/>
</linearGradient>
<linearGradient id="paint90_linear" x1="46.2917" y1="253.168" x2="46.2917" y2="284.214" gradientUnits="userSpaceOnUse">
<stop stop-color="#0538FB"/>
<stop offset="1" stop-color="#37D9FC"/>
</linearGradient>
<linearGradient id="paint91_linear" x1="23.2074" y1="293.031" x2="23.2074" y2="346.522" gradientUnits="userSpaceOnUse">
<stop stop-color="#2BDC72"/>
<stop offset="1" stop-color="#8BFF89"/>
</linearGradient>
<linearGradient id="paint92_linear" x1="12.9852" y1="282.395" x2="12.9852" y2="312.951" gradientUnits="userSpaceOnUse">
<stop stop-color="#2BDC72"/>
<stop offset="1" stop-color="#8BFF89"/>
</linearGradient>
<linearGradient id="paint93_linear" x1="19.141" y1="310.131" x2="19.141" y2="316.179" gradientUnits="userSpaceOnUse">
<stop stop-color="#2BDC72"/>
<stop offset="1" stop-color="#8BFF89"/>
</linearGradient>
<linearGradient id="paint94_linear" x1="64.1307" y1="234.43" x2="64.1307" y2="254.942" gradientUnits="userSpaceOnUse">
<stop stop-color="#2297FC"/>
<stop offset="1" stop-color="#37D9FC"/>
</linearGradient>
<linearGradient id="paint95_linear" x1="256.902" y1="203.976" x2="250.155" y2="213.315" gradientUnits="userSpaceOnUse">
<stop stop-color="white"/>
<stop offset="1" stop-color="#C2D1F8"/>
</linearGradient>
<linearGradient id="paint96_linear" x1="36.8749" y1="327.25" x2="1.62511" y2="327.25" gradientUnits="userSpaceOnUse">
<stop stop-color="white"/>
<stop offset="1" stop-color="#C2D1F8"/>
</linearGradient>
</defs>
</svg>
