<svg width="100%" height="100%" preserveAspectRatio="none" viewBox="0 0 360 1105" fill="none" xmlns="http://www.w3.org/2000/svg">
<mask id="mask0" mask-type="alpha" maskUnits="userSpaceOnUse" x="0" y="0" width="100%" height="100%">
<rect width="100%" height="100%" fill="#C4C4C4"/>
</mask>
<g mask="url(#mask0)">
<rect y="816" width="100%" height="100%" fill="url(#paint0_linear)" fill-opacity="0.1"/>
<path d="M184.83 994.23C288.808 980.151 363.847 1040.69 363.847 1095.7L400 2066.81H-40L-34.8484 960.009C-15.806 987.239 27.8904 1015.48 184.83 994.23Z" fill="white"/>
<path d="M185.283 907.784C80.3324 936.581 32.5047 918.435 -10 881.907V-91H370V919.303C327.972 894.293 290.234 878.987 185.283 907.784Z" fill="url(#paint1_linear)" fill-opacity="0.9"/>
<path d="M183.456 884.7C81.6074 923.106 32.5047 875.983 -10 839.291V-33H370V854.111C319.709 823.521 250.748 859.325 183.456 884.7Z" fill="url(#paint2_linear)"/>
</g>
<defs>
<linearGradient id="paint0_linear" x1="9" y1="1189" x2="479.245" y2="1184.68" gradientUnits="userSpaceOnUse">
<stop stop-color="white"/>
<stop offset="1"/>
</linearGradient>
<linearGradient id="paint1_linear" x1="-10.0004" y1="887.74" x2="462.589" y2="730.756" gradientUnits="userSpaceOnUse">
<stop stop-color="#0538FB"/>
<stop offset="1" stop-color="#37D9FC"/>
</linearGradient>
<linearGradient id="paint2_linear" x1="-9.99991" y1="867.35" x2="602.858" y2="564.212" gradientUnits="userSpaceOnUse">
<stop stop-color="#0538FB"/>
<stop offset="1" stop-color="#37D9FC"/>
</linearGradient>
</defs>
</svg>
