<svg width="571" height="571" viewBox="0 0 571 571" fill="none" xmlns="http://www.w3.org/2000/svg">
<path fill-rule="evenodd" clip-rule="evenodd" d="M285.499 571.001C127.678 571.001 0 442.983 0 285.501C0 128.018 128.017 0 285.499 0C442.982 0 571 128.018 571 285.501C571 442.983 443.32 571.001 285.499 571.001ZM447.384 124.97C427.064 104.65 402.68 88.7325 375.248 76.8798C347.476 65.0255 318.012 59.2684 286.854 59.2684C255.019 59.2684 225.216 65.0255 197.444 76.8798C169.674 88.7325 145.628 104.65 124.97 124.97C104.648 145.291 88.3921 169.337 76.5394 196.768C64.685 224.202 58.5893 253.666 58.5893 285.162C58.5893 316.659 64.685 346.123 76.5394 373.556C88.3921 400.987 104.648 424.695 124.97 445.016C145.289 465.335 169.674 480.914 197.444 492.769C225.216 504.283 255.019 510.379 286.854 510.379C318.012 510.379 347.476 504.621 375.248 492.769C403.018 481.253 427.064 465.335 447.384 445.016C467.705 424.695 483.961 400.987 495.814 373.556C507.668 346.123 513.764 316.659 513.764 285.162C513.764 253.666 507.668 224.202 495.814 196.768C483.961 169.337 468.044 145.291 447.384 124.97ZM285.502 466.356C185.594 466.356 104.651 385.414 104.651 285.505C104.651 185.597 185.594 104.656 285.502 104.656C385.409 104.656 466.353 185.597 466.353 285.505C466.353 385.414 385.409 466.356 285.502 466.356ZM285.502 158.166C215.397 158.166 158.5 215.061 158.5 285.168C158.5 355.273 215.397 412.168 285.502 412.168C355.607 412.168 412.504 355.273 412.504 285.168C412.504 215.061 355.607 158.166 285.502 158.166ZM359.672 286.517C359.672 246.491 327.223 214.043 287.195 214.043C247.169 214.043 214.719 246.491 214.719 286.517C214.719 326.545 247.169 358.993 287.195 358.993C327.223 358.993 359.672 326.545 359.672 286.517Z" fill="url(#paint0_linear)" fill-opacity="0.1"/>
<defs>
<linearGradient id="paint0_linear" x1="789.459" y1="285.703" x2="155.987" y2="285.703" gradientUnits="userSpaceOnUse">
<stop stop-color="#1CD6FF" stop-opacity="0"/>
<stop offset="1" stop-color="#32A9FF"/>
</linearGradient>
</defs>
</svg>
