<svg width="1317" height="1317" viewBox="0 0 1317 1317" fill="none" xmlns="http://www.w3.org/2000/svg">
<path fill-rule="evenodd" clip-rule="evenodd" d="M658.307 1316.62C294.401 1316.62 0 1021.44 0 658.311C0 295.186 295.182 0 658.307 0C1021.43 0 1316.62 295.186 1316.62 658.311C1316.62 1021.44 1022.21 1316.62 658.307 1316.62ZM1031.58 288.156C984.728 241.303 928.502 204.6 865.25 177.27C801.213 149.936 733.275 136.662 661.431 136.662C588.025 136.662 519.306 149.936 455.269 177.27C391.236 204.6 335.791 241.303 288.156 288.156C241.299 335.013 203.815 390.458 176.485 453.71C149.151 516.966 135.096 584.905 135.096 657.53C135.096 730.154 149.151 798.093 176.485 861.349C203.815 924.601 241.299 979.265 288.156 1026.12C335.009 1072.97 391.236 1108.9 455.269 1136.23C519.306 1162.78 588.025 1176.84 661.431 1176.84C733.275 1176.84 801.213 1163.56 865.25 1136.23C929.283 1109.68 984.728 1072.97 1031.58 1026.12C1078.44 979.265 1115.92 924.601 1143.25 861.349C1170.59 798.093 1184.64 730.154 1184.64 657.53C1184.64 584.905 1170.59 516.966 1143.25 453.71C1115.92 390.458 1079.22 335.013 1031.58 288.156ZM658.313 1075.33C427.944 1075.33 241.305 888.692 241.305 658.32C241.305 427.952 427.944 241.316 658.313 241.316C888.681 241.316 1075.32 427.952 1075.32 658.32C1075.32 888.692 888.681 1075.33 658.313 1075.33ZM658.313 364.7C496.664 364.7 365.47 495.89 365.47 657.542C365.47 819.191 496.664 950.381 658.313 950.381C819.961 950.381 951.155 819.191 951.155 657.542C951.155 495.89 819.961 364.7 658.313 364.7ZM829.334 660.654C829.334 568.361 754.515 493.542 662.218 493.542C569.925 493.542 495.102 568.361 495.102 660.654C495.102 752.951 569.925 827.77 662.218 827.77C754.515 827.77 829.334 752.951 829.334 660.654Z" fill="url(#paint0_linear)" fill-opacity="0.1"/>
<defs>
<linearGradient id="paint0_linear" x1="658.309" y1="1316.62" x2="658.309" y2="0" gradientUnits="userSpaceOnUse">
<stop stop-color="#1CD6FF"/>
<stop offset="1" stop-color="#32A9FF" stop-opacity="0"/>
</linearGradient>
</defs>
</svg>
