<svg width="16" height="16" viewBox="0 0 16 16" fill="none" xmlns="http://www.w3.org/2000/svg">
<path d="M8 0C3.58911 0 0 3.58911 0 8C0 12.4109 3.58911 16 8 16C12.4109 16 16 12.4109 16 8C16 3.58911 12.4109 0 8 0ZM12.0549 6.30493L7.72192 10.6379C7.59204 10.7681 7.4209 10.833 7.25098 10.833C7.08008 10.833 6.90991 10.7681 6.78003 10.6379L4.61304 8.47095C4.35303 8.21094 4.35303 7.78906 4.61304 7.52808C4.87305 7.26709 5.29492 7.26807 5.55591 7.52808L7.25098 9.2229L11.113 5.36108C11.373 5.10107 11.7949 5.10107 12.0559 5.36108C12.3169 5.62109 12.3149 6.04395 12.0549 6.30493V6.30493Z" fill="#6CF089"/>
</svg>
