<svg width="96" height="62" viewBox="0 0 96 62" fill="none" xmlns="http://www.w3.org/2000/svg">
    <g opacity="0.5">
        <path opacity="0.25" d="M91.7635 36.2559C90.5053 50.097 81.0682 61.6731 66.3463 61.799C58.2933 61.9248 52.2535 57.2691 46.5913 52.1102C42.3131 48.2095 37.7833 44.4347 32.2468 42.5473C26.0813 40.2824 19.9157 41.1632 13.4985 41.5406C1.41895 42.2956 -3.61418 28.9578 2.80306 19.7724C10.6044 8.44785 26.2071 3.41471 39.0416 1.02398C63.0747 -3.50584 94.4059 7.06374 91.7635 36.2559Z" fill="url(#paint0_linear)"/>
        <path opacity="0.49" d="M24.4455 39.7772C22.9356 40.0289 21.5515 40.4064 20.2932 41.0355C24.3197 40.7839 28.3462 41.0355 32.3727 42.4196C37.7833 44.4329 42.439 48.2077 46.7171 51.9826C52.3794 57.1415 58.4191 61.7972 66.4721 61.6713C81.0682 61.5455 90.5053 50.0952 91.8894 36.1282C93.2735 20.6514 85.2205 10.4593 73.6443 4.92285C67.7304 8.06856 63.4523 13.3533 59.5516 19.0156C55.7767 24.552 51.4986 29.9627 45.7105 33.7375C39.1674 38.0157 31.8694 38.6448 24.4455 39.7772Z" fill="url(#paint1_linear)"/>
        <path opacity="0.5" d="M76.0352 39.5254C76.0352 32.9823 81.9491 27.8234 88.4921 29.8366C94.6577 31.7241 97.6776 39.5254 94.1544 44.936C92.267 47.8301 88.9955 49.5916 85.5981 49.5916C79.3067 49.7175 76.161 44.6843 76.0352 39.5254Z" fill="url(#paint2_linear)"/>
        <path opacity="0.5" d="M6.45201 16.7506C-1.72682 8.57175 11.2335 -4.89186 19.664 3.53862C27.9686 11.8433 14.8825 25.1811 6.45201 16.7506Z" fill="url(#paint3_linear)"/>
        <path opacity="0.25" d="M56.5317 35.499C64.5847 44.8102 78.3 33.8632 89.4987 20.9029C83.2073 6.181 65.2139 -0.362067 48.2271 0.0154171C40.5515 11.2141 42.9423 19.6446 56.5317 35.499Z" fill="url(#paint4_linear)"/>
        <path opacity="0.49" d="M70.3729 61.4197C70.1213 50.4727 61.1875 41.7905 50.2404 41.7905C45.8365 41.7905 41.6841 43.1746 38.4126 45.6912C41.3066 47.5786 43.949 49.8435 46.4656 52.1084C52.1279 57.2674 58.1676 61.923 66.2206 61.7972C67.7305 61.7972 69.1147 61.6714 70.3729 61.4197Z" fill="url(#paint5_linear)"/>
    </g>
    <path d="M71.686 31.6568C71.686 45.1013 60.7874 56 47.3428 56C33.8986 56 23 45.1013 23 31.6568C23 18.2126 33.8986 7.31396 47.3428 7.31396C60.7874 7.31396 71.686 18.2126 71.686 31.6568Z" fill="url(#paint6_radial)"/>
    <path d="M52.0949 31.6569C52.0949 34.2814 49.9672 36.4091 47.3427 36.4091C44.7185 36.4091 42.5908 34.2814 42.5908 31.6569C42.5908 29.0327 44.7185 26.905 47.3427 26.905C49.9672 26.905 52.0949 29.0327 52.0949 31.6569Z" fill="url(#paint7_radial)"/>
    <path d="M47.3428 7.31396C33.8986 7.31396 23 18.2126 23 31.6568C23 45.1013 33.8986 56 47.3428 56C60.7874 56 71.686 45.1013 71.686 31.6568C71.686 18.2126 60.7874 7.31396 47.3428 7.31396ZM47.3428 51.4733C36.3989 51.4733 27.5267 42.6011 27.5267 31.6568C27.5267 20.7128 36.3989 11.8406 47.3428 11.8406C58.2871 11.8406 67.1593 20.7128 67.1593 31.6568C67.1593 42.6011 58.2871 51.4733 47.3428 51.4733Z" fill="url(#paint8_radial)"/>
    <path d="M47.3429 16.5332C38.9902 16.5332 32.2192 23.3042 32.2192 31.6569C32.2192 40.0095 38.9902 46.781 47.3429 46.781C55.696 46.781 62.467 40.01 62.467 31.6569C62.467 23.3042 55.696 16.5332 47.3429 16.5332ZM47.3429 42.1607C41.5422 42.1607 36.8395 37.458 36.8395 31.6569C36.8395 25.8561 41.5422 21.1534 47.3429 21.1534C53.1441 21.1534 57.8468 25.8561 57.8468 31.6569C57.8468 37.458 53.1441 42.1607 47.3429 42.1607Z" fill="url(#paint9_radial)"/>
    <path d="M46.9117 31.0582L51.5383 25.9304L53.0696 27.4617L47.9418 32.0883C47.2565 32.695 46.305 31.7435 46.9117 31.0582Z" fill="url(#paint10_linear)"/>
    <path d="M72.7216 6.27835V0.896752C72.7216 0.0995107 71.7578 -0.299965 71.1942 0.264L67.038 4.42025C65.7866 5.67123 65.0837 7.36825 65.0837 9.13748L65.1034 13.897L72.7216 6.27835Z" fill="url(#paint11_linear)"/>
    <path d="M72.7215 6.27832H78.1035C78.9003 6.27832 79.2998 7.24219 78.7363 7.80573L74.58 11.962C73.3286 13.2134 71.632 13.9162 69.8624 13.9162L65.1033 13.8965L72.7215 6.27832Z" fill="url(#paint12_linear)"/>
    <path d="M73.6913 12.7054V6.27832H72.7215L65.1033 13.8965L69.8624 13.9162C71.2419 13.9162 72.5767 13.4868 73.6913 12.7054Z" fill="url(#paint13_linear)"/>
    <path d="M67.257 12.9114L66.0889 11.7433L72.2822 5.54955C72.6048 5.22697 73.1278 5.22697 73.4503 5.54955C73.7729 5.87212 73.7729 6.39507 73.4503 6.71764L67.257 12.9114Z" fill="url(#paint14_linear)"/>
    <path d="M50.6948 26.8648V29.6039L53.0695 27.4617L51.5382 25.9304L50.6948 26.8648Z" fill="#0239FC"/>
    <path d="M60.7002 22.1791C55.8087 27.0707 52.0472 29.0954 50.9757 28.0243C49.9046 26.9528 51.9293 23.1913 56.8208 18.2997C61.7124 13.4086 66.5458 10.3115 67.6169 11.3831C68.6884 12.4542 65.5913 17.288 60.7002 22.1791Z" fill="url(#paint15_linear)"/>
    <path d="M55.801 26.4285C55.404 25.7953 54.9281 25.1895 54.3692 24.6307C53.8104 24.0718 53.2046 23.5959 52.5714 23.199C50.8534 25.6125 50.3019 27.3505 50.9756 28.0243C51.6494 28.6976 53.3874 28.1465 55.801 26.4285Z" fill="url(#paint16_linear)"/>
    <path d="M53.3796 22.1228C53.2441 22.295 53.1151 22.4629 52.9895 22.6295C53.6389 23.0679 54.261 23.5763 54.8425 24.1573C55.4235 24.7384 55.9315 25.3605 56.3703 26.0099C56.5365 25.8843 56.7048 25.7557 56.877 25.6198C56.428 24.9456 55.9037 24.3 55.3018 23.6981C54.6993 23.0956 54.0542 22.5718 53.3796 22.1228Z" fill="url(#paint17_linear)"/>
    <defs>
        <linearGradient id="paint0_linear" x1="91.9199" y1="30.8737" x2="-0.0355003" y2="30.8737" gradientUnits="userSpaceOnUse">
            <stop stop-color="#37D9FC" stop-opacity="0"/>
            <stop offset="1" stop-color="#0538FB"/>
        </linearGradient>
        <linearGradient id="paint1_linear" x1="57.3217" y1="106.645" x2="55.1959" y2="-11.6848" gradientUnits="userSpaceOnUse">
            <stop stop-color="#37D9FC" stop-opacity="0"/>
            <stop offset="1" stop-color="#37D9FC"/>
        </linearGradient>
        <linearGradient id="paint2_linear" x1="85.8808" y1="27.1024" x2="85.8808" y2="49.9019" gradientUnits="userSpaceOnUse">
            <stop stop-color="#0538FB" stop-opacity="0"/>
            <stop offset="1" stop-color="#0538FB"/>
        </linearGradient>
        <linearGradient id="paint3_linear" x1="7.63678" y1="5.4756" x2="19.8287" y2="15.8745" gradientUnits="userSpaceOnUse">
            <stop stop-color="#0538FB" stop-opacity="0"/>
            <stop offset="1" stop-color="#0C4BF4"/>
        </linearGradient>
        <linearGradient id="paint4_linear" x1="65.7714" y1="46.8107" x2="67.5428" y2="-8.10289" gradientUnits="userSpaceOnUse">
            <stop stop-color="#37D9FC" stop-opacity="0"/>
            <stop offset="0.0001" stop-color="#37D9FC" stop-opacity="0"/>
            <stop offset="1" stop-color="#0538FB"/>
        </linearGradient>
        <linearGradient id="paint5_linear" x1="73.9051" y1="67.0724" x2="43.9093" y2="39.6746" gradientUnits="userSpaceOnUse">
            <stop stop-color="#37D9FC" stop-opacity="0"/>
            <stop offset="1" stop-color="#37D9FC"/>
        </linearGradient>
        <radialGradient id="paint6_radial" cx="0" cy="0" r="1" gradientUnits="userSpaceOnUse" gradientTransform="translate(42.9831 16.7605) scale(38.0993)">
            <stop stop-color="#FFFCF8"/>
            <stop offset="0.2239" stop-color="#FBF9F7"/>
            <stop offset="0.4254" stop-color="#F0F1F3"/>
            <stop offset="0.6183" stop-color="#DEE3ED"/>
            <stop offset="0.8059" stop-color="#C4D0E4"/>
            <stop offset="1" stop-color="#A3B7D9"/>
        </radialGradient>
        <radialGradient id="paint7_radial" cx="0" cy="0" r="1" gradientUnits="userSpaceOnUse" gradientTransform="translate(46.4918 28.7492) scale(7.4372)">
            <stop stop-color="#37D9FC"/>
            <stop offset="1" stop-color="#0538FB"/>
        </radialGradient>
        <radialGradient id="paint8_radial" cx="0" cy="0" r="1" gradientUnits="userSpaceOnUse" gradientTransform="translate(42.9831 16.7605) scale(38.0993)">
            <stop stop-color="#37D9FC"/>
            <stop offset="1" stop-color="#0538FB"/>
        </radialGradient>
        <radialGradient id="paint9_radial" cx="0" cy="0" r="1" gradientUnits="userSpaceOnUse" gradientTransform="translate(44.6343 22.4021) scale(23.6705)">
            <stop stop-color="#37D9FC"/>
            <stop offset="1" stop-color="#0538FB"/>
        </radialGradient>
        <linearGradient id="paint10_linear" x1="49.4525" y1="32.2515" x2="50.3364" y2="25.9618" gradientUnits="userSpaceOnUse">
            <stop stop-color="white"/>
            <stop offset="1" stop-color="#C2D1F8"/>
        </linearGradient>
        <linearGradient id="paint11_linear" x1="66.5801" y1="4.87773" x2="70.3512" y2="8.6488" gradientUnits="userSpaceOnUse">
            <stop stop-color="#37D9FC"/>
            <stop offset="1" stop-color="#0538FB"/>
        </linearGradient>
        <linearGradient id="paint12_linear" x1="74.1221" y1="12.4198" x2="70.351" y2="8.64876" gradientUnits="userSpaceOnUse">
            <stop stop-color="#37D9FC"/>
            <stop offset="0.9999" stop-color="#0538FB"/>
            <stop offset="1" stop-color="#FFA700"/>
        </linearGradient>
        <linearGradient id="paint13_linear" x1="69.3972" y1="12.2763" x2="69.3972" y2="1.66527" gradientUnits="userSpaceOnUse">
            <stop stop-color="#37D9FC" stop-opacity="0"/>
            <stop offset="1" stop-color="#0538FB"/>
        </linearGradient>
        <linearGradient id="paint14_linear" x1="69.4776" y1="8.35458" x2="70.6457" y2="9.52267" gradientUnits="userSpaceOnUse">
            <stop stop-color="#37D9FC"/>
            <stop offset="1" stop-color="#0538FB"/>
        </linearGradient>
        <linearGradient id="paint15_linear" x1="58.0723" y1="28.2213" x2="60.4566" y2="11.2558" gradientUnits="userSpaceOnUse">
            <stop stop-color="white"/>
            <stop offset="1" stop-color="#C2D1F8"/>
        </linearGradient>
        <linearGradient id="paint16_linear" x1="52.3295" y1="25.9846" x2="53.5294" y2="27.1844" gradientUnits="userSpaceOnUse">
            <stop stop-color="#37D9FC"/>
            <stop offset="1" stop-color="#0538FB"/>
        </linearGradient>
        <linearGradient id="paint17_linear" x1="53.2423" y1="22.2603" x2="56.7395" y2="25.7575" gradientUnits="userSpaceOnUse">
            <stop stop-color="#37D9FC"/>
            <stop offset="1" stop-color="#0538FB"/>
        </linearGradient>
    </defs>
</svg>
