<svg width="29" height="11" viewBox="0 0 29 11" fill="none" xmlns="http://www.w3.org/2000/svg">
    <path d="M7.37856 0.821087C7.41424 1.62986 8.11305 4.71617 8.11305 4.71617C8.36983 5.34127 8.59094 4.71617 8.59094 4.71617C9.43637 2.18067 7.70866 0.711314 7.70866 0.711314C7.26762 0.453552 7.37856 0.821087 7.37856 0.821087ZM17.41 0.380436C17.41 0.380436 18.2558 0.968295 17.41 1.07846C17.41 1.07846 14.2496 1.4458 11.898 3.6512C11.898 3.6512 8.36983 6.73693 7.0473 10.1179C7.0473 10.1179 6.60625 10.1179 6.75385 9.45669C6.90067 8.79532 7.78217 5.89209 11.7137 2.32827C11.7137 2.32827 15.4998 -1.12616 17.41 0.380436Z" fill="#A7A9AC"/>
    <path d="M1.3319 5.27238C1.4715 5.30182 1.59687 5.31625 1.78093 5.31625C2.50177 5.31625 2.98746 4.85259 2.98746 4.26376C2.98746 3.734 2.61232 3.54292 2.12702 3.54292C1.91313 3.54292 1.7513 3.55774 1.64835 3.58679L1.3319 5.27238ZM0.927123 2.97612C1.22895 2.90222 1.67799 2.85835 2.11942 2.85835C2.58327 2.85835 3.06896 2.9537 3.39263 3.21165C3.67964 3.43237 3.84888 3.75564 3.84888 4.19785C3.84888 4.7863 3.56908 5.26517 3.21578 5.54457C2.81861 5.86102 2.25142 6.01564 1.66278 6.01564C1.48593 6.01564 1.3319 5.99322 1.19931 5.97879L0.838603 7.85565H0L0.927123 2.97612Z" fill="#A7A9AC"/>
    <path d="M6.12222 4.88928C6.03409 4.86685 5.92393 4.85262 5.76931 4.85262C4.98179 4.85262 4.36351 5.74348 4.36351 6.56044C4.36351 6.93519 4.50331 7.24462 4.87884 7.24462C5.28323 7.24462 5.76931 6.7445 5.93855 5.83161L6.12222 4.88928ZM5.77652 7.85568C5.77652 7.64179 5.80577 7.35517 5.8356 7.05295H5.82078C5.46768 7.70847 4.989 7.9364 4.53275 7.9364C3.89264 7.9364 3.47266 7.43589 3.47266 6.71486C3.47266 5.49313 4.32647 4.19028 5.99724 4.19028C6.3872 4.19028 6.80679 4.26379 7.08658 4.35211L6.71125 6.22157C6.60791 6.75132 6.54922 7.42868 6.56404 7.85568H5.77652Z" fill="#A7A9AC"/>
    <path d="M11.9576 6.43526C11.9576 6.92778 12.2151 7.27464 12.6568 7.27464C13.2971 7.27464 13.7241 6.391 13.7241 5.67719C13.7241 5.30887 13.5544 4.85262 13.0397 4.85262C12.3551 4.85262 11.9576 5.76551 11.9576 6.43526ZM14.6071 5.67017C14.6071 6.89151 13.7605 7.9364 12.5392 7.9364C11.6335 7.9364 11.0747 7.31091 11.0747 6.4569C11.0747 5.24297 11.9209 4.19047 13.1426 4.19047C14.1066 4.19047 14.6071 4.88226 14.6071 5.67017Z" fill="#A7A9AC"/>
    <path d="M14.7683 7.85565L15.2322 5.38254C15.3203 4.95554 15.3718 4.58021 15.416 4.27136H16.1819L16.1008 4.91167H16.1152C16.4461 4.433 16.9027 4.19025 17.4033 4.19025C17.9182 4.19025 18.3158 4.49968 18.3158 5.17665C18.3158 5.33828 18.2869 5.58844 18.2498 5.76529L17.8591 7.85565H16.9981L17.3804 5.83158C17.4033 5.69919 17.4251 5.54457 17.4251 5.40458C17.4251 5.10275 17.3147 4.88925 16.9762 4.88925C16.5863 4.88925 16.0856 5.36012 15.9312 6.1997L15.6221 7.85565H14.7683Z" fill="#A7A9AC"/>
    <path d="M20.5964 4.83059C20.0588 4.83059 19.7059 5.30887 19.603 5.74348C20.4858 5.75069 21.053 5.63293 21.053 5.1989C21.053 4.97078 20.8689 4.83059 20.5964 4.83059ZM21.4133 7.64939C21.0598 7.83326 20.5819 7.9364 20.1473 7.9364C19.1547 7.9364 18.676 7.32592 18.676 6.44989C18.676 5.36795 19.4704 4.19047 20.7069 4.19047C21.4133 4.19047 21.8624 4.59505 21.8624 5.1989C21.8624 6.11862 20.8986 6.41284 19.515 6.38359C19.5 6.50857 19.5294 6.75132 19.6106 6.89132C19.7506 7.13445 20.0073 7.25944 20.3464 7.25944C20.7516 7.25944 21.0748 7.15629 21.3332 7.0239L21.4133 7.64939Z" fill="#A7A9AC"/>
    <path d="M23.9296 4.83059C23.3927 4.83059 23.0392 5.30887 22.9362 5.74348C23.8191 5.75069 24.3863 5.63293 24.3863 5.1989C24.3863 4.97078 24.2022 4.83059 23.9296 4.83059ZM24.7466 7.64939C24.3937 7.83326 23.9152 7.9364 23.4814 7.9364C22.4879 7.9364 22.0093 7.32592 22.0093 6.44989C22.0093 5.36795 22.8036 4.19047 24.0402 4.19047C24.7466 4.19047 25.1964 4.59505 25.1964 5.1989C25.1964 6.11862 24.2318 6.41284 22.8483 6.38359C22.8331 6.50857 22.8627 6.75132 22.9438 6.89132C23.0838 7.13445 23.3412 7.25944 23.6797 7.25944C24.0848 7.25944 24.4081 7.15629 24.6664 7.0239L24.7466 7.64939Z" fill="#A7A9AC"/>
    <path d="M25.2471 7.85565L25.6665 5.64752C25.762 5.1398 25.8135 4.58781 25.8497 4.27136H26.5934C26.5714 4.51411 26.5495 4.76427 26.5125 5.02222H26.5343C26.7782 4.54355 27.1674 4.19025 27.6535 4.19025C27.7202 4.19025 27.7861 4.19785 27.8452 4.19785L27.6755 5.03685C27.6315 5.02924 27.5726 5.02924 27.5135 5.02924C26.9022 5.02924 26.5125 5.64752 26.3731 6.41281L26.1005 7.85565H25.2471Z" fill="#A7A9AC"/>
    <path d="M28.4965 4.59952H28.5593C28.6236 4.59952 28.6661 4.56364 28.6661 4.50944C28.6661 4.44841 28.6215 4.4217 28.5571 4.4217C28.5275 4.4217 28.5064 4.42384 28.4965 4.42618V4.59952ZM28.4351 4.38329C28.4663 4.37763 28.5109 4.37354 28.5524 4.37354C28.6176 4.37354 28.6608 4.38679 28.6895 4.41253C28.7131 4.43339 28.7267 4.46596 28.7267 4.50339C28.7267 4.56501 28.6879 4.60673 28.638 4.6233V4.62564C28.6743 4.63812 28.6955 4.67224 28.7076 4.72138C28.7228 4.78689 28.7342 4.8331 28.7441 4.85162H28.6805C28.6729 4.8372 28.6622 4.79722 28.6501 4.73815C28.6357 4.67263 28.6094 4.64846 28.554 4.64612H28.4965V4.85162H28.4351V4.38329Z" fill="#A7A9AC"/>
    <path d="M28.5759 4.19022C28.342 4.19022 28.1519 4.38033 28.1519 4.6143C28.1519 4.84828 28.342 5.03857 28.5759 5.03857C28.8099 5.03857 29 4.84828 29 4.6143C29 4.38033 28.8099 4.19022 28.5759 4.19022ZM28.5759 4.25574C28.7736 4.25574 28.9341 4.41581 28.9341 4.6143C28.9341 4.81259 28.7736 4.97326 28.5759 4.97326C28.3776 4.97326 28.217 4.81259 28.217 4.6143C28.217 4.41581 28.3776 4.25574 28.5759 4.25574Z" fill="#A7A9AC"/>
</svg>
