<svg width="16" height="19" viewBox="0 0 16 19" fill="none" xmlns="http://www.w3.org/2000/svg">
    <path d="M4.36916 16.2294C3.21582 16.2336 2.06251 16.2377 0.909557 16.2336C0.598933 16.2336 0.401995 15.9589 0.452104 15.6401C0.645112 14.4156 0.825492 13.1932 1.01847 11.9686C1.19452 10.8697 1.37923 9.77306 1.5553 8.67024C1.68121 7.8755 1.79016 7.08078 1.91606 6.28189C2.1004 5.10961 2.29737 3.93969 2.48208 2.76546C2.59105 2.09229 2.69168 1.41714 2.79666 0.74399C2.85943 0.303691 3.20756 0.00588591 3.66067 0.00588591C5.60656 0.00588591 7.55643 -0.0108892 9.50234 0.0122003C10.5633 0.024829 11.6203 0.154884 12.585 0.647486C13.5871 1.15291 14.1993 1.96857 14.3967 3.07985C14.4887 3.5979 14.4551 4.11576 14.3588 4.63362C13.9436 4.42186 13.5074 4.28568 13.0547 4.19747C12.4927 4.08636 11.914 4.05497 11.3436 4.04866C9.89665 4.03405 8.4457 4.0382 6.99873 4.04866C6.68851 4.05281 6.41575 4.17871 6.2942 4.49113C6.2397 4.63796 6.21881 4.80137 6.19786 4.96083C6.09721 5.5669 6.00054 6.17693 5.90854 6.78514C5.83277 7.25682 5.74908 7.72455 5.68198 8.19623C5.58965 8.79184 5.51426 9.39157 5.40098 9.98501C5.36309 10.18 5.2794 10.3791 5.34217 10.5909C5.29599 10.7231 5.25415 10.8573 5.2332 10.9976C5.12821 11.6834 5.0236 12.3671 4.91428 13.0505C4.78442 13.881 4.66284 14.7112 4.52035 15.5395C4.47813 15.7702 4.49509 16.0155 4.36916 16.2294Z" fill="#939598"/>
    <path d="M4.36922 16.2294C4.49513 16.0197 4.47819 15.7702 4.51605 15.5395C4.65459 14.7112 4.77616 13.8851 4.90605 13.0505C5.015 12.3671 5.11998 11.6834 5.22497 10.9976C5.24587 10.8573 5.28771 10.7231 5.33391 10.5909C5.53091 10.2807 5.81194 10.1443 6.1853 10.1465C7.133 10.1465 8.07674 10.1946 9.01612 10.0772C9.85487 9.97437 10.6601 9.75629 11.4021 9.35802C12.5555 8.73932 13.3398 7.7958 13.8304 6.60059C14.0652 6.03222 14.2499 5.44314 14.3297 4.82877C14.3336 4.81397 14.338 4.80135 14.3463 4.78891C14.3546 4.75121 14.3632 4.71549 14.3672 4.6778C15.2478 5.14533 15.7175 5.89192 15.8434 6.86685C15.9484 7.67206 15.8268 8.45219 15.6255 9.22797C15.466 9.84648 15.2229 10.4273 14.8748 10.9599C14.3084 11.8344 13.5201 12.4403 12.5389 12.7884C12.0313 12.9688 11.5072 13.0716 10.9703 13.1366C10.5215 13.1869 10.0728 13.1869 9.624 13.1932C9.17522 13.1932 8.8859 13.4385 8.82314 13.8851C8.6846 14.8204 8.54641 15.7556 8.38696 16.6929C8.32817 17.0094 8.2863 17.3303 8.23183 17.6469C8.1604 18.0307 7.8837 18.2593 7.49769 18.2593C6.55432 18.2593 5.61058 18.2593 4.66725 18.2593C4.30649 18.2593 4.1344 18.0536 4.19321 17.7057C4.26464 17.2778 4.33573 16.8521 4.40716 16.4223C4.4154 16.351 4.43237 16.2818 4.36922 16.2294Z" fill="#A7A9AC"/>
    <path d="M14.3714 4.67137C14.3631 4.70906 14.3587 4.74261 14.3505 4.78248C14.3418 4.79709 14.3378 4.81188 14.3296 4.82234C14.2538 5.43671 14.0694 6.02381 13.8346 6.59416C13.344 7.78934 12.5597 8.73289 11.4064 9.35159C10.66 9.75005 9.85475 9.96596 9.01995 10.0686C8.07659 10.1819 7.13719 10.14 6.19344 10.14C5.8161 10.14 5.53507 10.2721 5.3381 10.5825C5.27929 10.3749 5.359 10.1714 5.39653 9.97642C5.50583 9.38514 5.58954 8.78539 5.67756 8.18978C5.749 7.71809 5.8287 7.25037 5.90409 6.77869C6.00043 6.16847 6.09277 5.5624 6.19775 4.95237C6.21867 4.79706 6.23529 4.63345 6.28976 4.48465C6.41567 4.17007 6.6884 4.04218 6.99431 4.04218C8.44131 4.03172 9.89226 4.02757 11.3392 4.04218C11.9096 4.04849 12.4842 4.0779 13.0503 4.19118C13.503 4.2792 13.9435 4.41557 14.3544 4.62733C14.3631 4.64828 14.3671 4.65874 14.3714 4.67137Z" fill="#6D6E71"/>
    <path d="M14.3335 4.82432C14.3418 4.81188 14.3461 4.79708 14.3544 4.78662C14.3461 4.79708 14.3418 4.81188 14.3335 4.82432Z" fill="#263A83"/>
</svg>
