<svg width="123" height="85" viewBox="0 0 123 85" fill="none" xmlns="http://www.w3.org/2000/svg">
<g opacity="0.5">
<path opacity="0.25" d="M121.172 50.5163C119.511 68.7932 107.049 84.0794 87.6092 84.2455C76.9753 84.4117 68.9999 78.264 61.523 71.4517C55.8738 66.3009 49.8922 61.3163 42.5815 58.824C34.4399 55.8332 26.2983 56.9963 17.8245 57.4947C1.8737 58.4916 -4.77246 40.8793 3.70139 28.7501C14.0029 13.7962 34.6061 7.15007 51.5538 3.99314C83.2892 -1.9884 124.828 11.9685 121.172 50.5163Z" fill="url(#paint0_linear)"/>
<path opacity="0.49" d="M32.2799 55.1658C30.2861 55.4981 28.4584 55.9965 26.7969 56.8273C32.1138 56.495 37.4307 56.8273 42.7476 58.655C49.8922 61.3135 56.04 66.2981 61.6892 71.2827C69.1661 78.095 77.1415 84.2427 87.7754 84.0766C107.049 83.9104 119.511 68.7904 121.338 50.3473C123.166 29.9104 112.532 16.4519 97.2462 9.14111C89.4369 13.295 83.7877 20.2734 78.6369 27.7504C73.6523 35.0611 68.003 42.2058 60.36 47.1904C51.7199 52.8396 42.083 53.6704 32.2799 55.1658Z" fill="url(#paint1_linear)"/>
<path opacity="0.5" d="M105.886 34.8953C112.952 34.8953 118.68 29.1673 118.68 22.1015C118.68 15.0356 112.952 9.30762 105.886 9.30762C98.8201 9.30762 93.0922 15.0356 93.0922 22.1015C93.0922 29.1673 98.8201 34.8953 105.886 34.8953Z" fill="url(#paint2_linear)"/>
<path opacity="0.5" d="M116.188 74.274C119.95 74.274 123 71.2241 123 67.4617C123 63.6994 119.95 60.6494 116.188 60.6494C112.425 60.6494 109.375 63.6994 109.375 67.4617C109.375 71.2241 112.425 74.274 116.188 74.274Z" fill="url(#paint3_linear)"/>
<path opacity="0.5" d="M30.6184 70.1196C39.5196 70.1196 46.7354 62.9038 46.7354 54.0027C46.7354 45.1015 39.5196 37.8857 30.6184 37.8857C21.7173 37.8857 14.5015 45.1015 14.5015 54.0027C14.5015 62.9038 21.7173 70.1196 30.6184 70.1196Z" fill="url(#paint4_linear)"/>
<path opacity="0.25" d="M74.8156 49.5169C85.4494 61.8123 103.56 47.3569 118.348 30.243C110.04 10.803 86.2802 2.16301 63.8494 2.66147C53.714 17.4492 56.871 28.5815 74.8156 49.5169Z" fill="url(#paint5_linear)"/>
<path opacity="0.49" d="M93.0923 83.7442C92.76 69.2888 80.963 57.8242 66.5076 57.8242C60.6922 57.8242 55.2092 59.6519 50.8892 62.975C54.7107 65.4673 58.1999 68.4581 61.523 71.4488C68.9999 78.2612 76.9753 84.4089 87.6091 84.2427C89.603 84.2427 91.4307 84.0766 93.0923 83.7442Z" fill="url(#paint6_linear)"/>
</g>
<path d="M86.5283 38.294C86.5283 51.8062 75.5749 62.7596 62.0627 62.7596C48.5505 62.7596 37.597 51.8062 37.597 38.294C37.597 24.7818 48.5505 13.8284 62.0627 13.8284C75.5749 13.8284 86.5283 24.7818 86.5283 38.294Z" fill="url(#paint7_radial)"/>
<path d="M37.597 38.2942C37.597 47.0264 42.1728 54.6887 49.0564 59.0181H75.069C81.9526 54.6887 86.5283 47.0264 86.5283 38.2942C86.5283 29.562 81.9526 21.8997 75.069 17.5703H49.0564C42.1728 21.8997 37.597 29.562 37.597 38.2942Z" fill="url(#paint8_linear)"/>
<path d="M37.597 38.2939C37.597 44.5235 39.9265 50.2076 43.7601 54.5272H80.3652C84.1988 50.2076 86.5283 44.5235 86.5283 38.2939C86.5283 32.0644 84.1988 26.3803 80.3652 22.061H43.7601C39.9265 26.3803 37.597 32.0644 37.597 38.2939V38.2939Z" fill="url(#paint9_linear)"/>
<path d="M37.597 38.2939C37.597 41.9348 38.3933 45.3891 39.8198 48.494H84.3056C85.732 45.3891 86.5283 41.9348 86.5283 38.2939C86.5283 34.6529 85.732 31.1986 84.3056 28.0938H39.8198C38.3933 31.1986 37.597 34.6529 37.597 38.2939Z" fill="url(#paint10_linear)"/>
<path d="M37.597 38.2939C37.597 40.4013 37.8643 42.4459 38.3653 44.3969H85.76C86.261 42.4459 86.5283 40.4013 86.5283 38.2939C86.5283 36.1865 86.261 34.1419 85.76 32.1909H38.3653C37.8643 34.1419 37.597 36.1865 37.597 38.2939V38.2939Z" fill="url(#paint11_linear)"/>
<path d="M60.1199 13.9033C47.5164 14.8937 37.597 25.4343 37.597 38.2924C37.597 51.1505 47.5164 61.6911 60.1199 62.6815C72.7235 61.6911 82.6428 51.1505 82.6428 38.2924C82.6428 25.4343 72.7235 14.8937 60.1199 13.9033Z" fill="url(#paint12_radial)"/>
<path d="M61.3865 16.144C60.5465 16.0298 59.6939 16.0298 58.8535 16.144C47.946 17.628 39.5397 26.9791 39.5397 38.294C39.5397 49.6088 47.946 58.96 58.8535 60.4439C59.6939 60.5582 60.5465 60.5582 61.3865 60.4439C72.2944 58.96 80.7007 49.6088 80.7007 38.294C80.7007 26.9791 72.2944 17.628 61.3865 16.144Z" fill="url(#paint13_radial)"/>
<path d="M76.3806 38.2941C76.3806 28.4356 69.0557 20.4436 60.0204 20.4436C50.9846 20.4436 43.6598 28.4356 43.6598 38.2941C43.6598 48.1526 50.9846 56.1446 60.0204 56.1446C69.0557 56.1446 76.3806 48.1526 76.3806 38.2941Z" fill="url(#paint14_radial)"/>
<path d="M64.5124 21.1257C62.4756 20.4926 60.2999 20.4926 58.2631 21.1257C51.4117 23.2555 46.3943 30.135 46.3943 38.2938C46.3943 46.612 51.6099 53.6009 58.6674 55.5813C60.4448 56.0801 62.3308 56.0801 64.1081 55.5813C71.1657 53.6009 76.3809 46.6124 76.3809 38.2938C76.3809 30.135 71.3639 23.2555 64.5124 21.1257Z" fill="url(#paint15_radial)"/>
<path d="M76.1943 40.9969L65.3644 30.1667C65.1676 29.8243 64.7592 29.5414 64.138 29.3181C63.5004 29.0893 62.821 28.9336 62.1012 28.8477L61.1507 27.9999C61.1317 27.8659 61.0533 27.7442 60.9077 27.6367C60.7397 27.5135 60.5587 27.4512 60.3649 27.4512C60.1532 27.4512 59.9718 27.5135 59.8221 27.6367C59.672 27.7603 59.597 27.9014 59.597 28.0601V28.828C58.1672 28.987 56.9711 29.4633 56.0094 30.2578C55.047 31.0522 54.5662 32.2162 54.5662 33.7494C54.5662 34.2955 54.6278 34.7932 54.7517 35.2427C54.8749 35.6917 55.078 36.0837 55.3606 36.4182C55.6428 36.7531 55.9124 37.0394 56.1681 37.2772C56.1815 37.2899 56.1968 37.3022 56.211 37.3149L59.597 40.7087V45.1381C58.8149 45.0851 58.1258 44.8828 57.53 44.5304C56.9345 44.1783 56.4664 43.848 56.1255 43.5396C55.7847 43.2312 55.5096 43.0771 55.3005 43.0771C54.9843 43.0771 54.7036 43.2443 54.4579 43.5792C54.2123 43.914 54.0898 44.2485 54.0898 44.5834C54.0898 45.1318 54.4079 45.6724 55.0418 46.2047L64.3482 55.5111C70.5087 53.6721 75.2188 48.0041 76.1943 40.9969Z" fill="url(#paint16_linear)"/>
<path d="M54.0898 44.5835C54.0898 44.2486 54.2127 43.9141 54.4583 43.5793C54.7039 43.2448 54.9847 43.0772 55.3009 43.0772C55.5099 43.0772 55.7851 43.2314 56.1259 43.5397C56.4667 43.8484 56.9349 44.1785 57.5303 44.5305C58.1261 44.8833 58.8153 45.0856 59.5974 45.1383V38.9289C59.068 38.7355 58.6615 38.581 58.3796 38.4663C58.097 38.3525 57.7218 38.1849 57.2541 37.9646C56.7863 37.7447 56.4242 37.5155 56.1685 37.2777C55.9127 37.0395 55.6432 36.7536 55.3614 36.4187C55.0784 36.0838 54.8757 35.6922 54.7521 35.2428C54.6285 34.7937 54.5669 34.296 54.5669 33.7499C54.5669 32.2167 55.0474 31.0523 56.0098 30.2582C56.9718 29.4638 58.1676 28.9871 59.5974 28.8284V28.0605C59.5974 27.9015 59.6724 27.7604 59.8225 27.6368C59.9722 27.5136 60.1536 27.4517 60.3653 27.4517C60.5594 27.4517 60.7401 27.5136 60.9081 27.6368C61.0757 27.7604 61.1597 27.9015 61.1597 28.0605V28.7754C62.236 28.8109 63.229 28.9916 64.1384 29.3182C65.0474 29.6449 65.5021 30.0992 65.5021 30.6816C65.5021 30.9993 65.395 31.3304 65.1814 31.6746C64.9679 32.0188 64.6827 32.1909 64.3269 32.1909C64.1862 32.1909 63.7994 32.0412 63.1674 31.7407C62.5346 31.4409 61.8656 31.264 61.1597 31.2113V36.577C61.8619 36.8413 62.4454 37.0925 62.9106 37.3303C63.3757 37.5681 63.8674 37.8985 64.3855 38.3211C64.9033 38.7441 65.2938 39.2768 65.557 39.9197C65.8202 40.5625 65.952 41.3159 65.952 42.179C65.952 43.7559 65.5219 45.0095 64.6618 45.9394C63.8013 46.8697 62.6343 47.4409 61.1597 47.6537V48.538C61.1597 48.6941 61.0757 48.8326 60.9081 48.9543C60.7401 49.0756 60.5594 49.1361 60.3657 49.1361C60.1536 49.1361 59.9726 49.0752 59.8225 48.9547C59.6724 48.833 59.5977 48.6945 59.5977 48.5384V47.7328C58.0619 47.7153 56.7598 47.364 55.6921 46.6786C54.6237 45.9939 54.0898 45.2954 54.0898 44.5835ZM57.188 33.4859C57.188 34.1728 57.4019 34.697 57.8297 35.058C58.2575 35.419 58.9 35.7583 59.756 36.0753V31.2617C58.044 31.4734 57.188 32.2148 57.188 33.4859ZM61.0007 45.0852C62.5537 44.8034 63.3309 43.9317 63.3309 42.4694C63.3309 41.6948 63.1274 41.0867 62.7217 40.6465C62.3155 40.2064 61.7421 39.8275 61.0007 39.5101V45.0852Z" fill="white"/>
<path fill-rule="evenodd" clip-rule="evenodd" d="M57.8678 0H66.2574C67.966 0 69.002 1.88502 68.0864 3.32712L63.8915 9.9352C63.0407 11.2756 61.0844 11.2756 60.2337 9.9352L56.0388 3.32712C55.1232 1.88502 56.1592 0 57.8678 0ZM57.8678 76.5882H66.2574C67.966 76.5882 69.002 74.7031 68.0864 73.261L63.8915 66.653C63.0407 65.3125 61.0844 65.3125 60.2337 66.653L56.0388 73.261C55.1232 74.7031 56.1592 76.5882 57.8678 76.5882ZM23.7687 42.4891V34.0994C23.7687 32.3909 25.6537 31.3549 27.0958 32.2705L33.7039 36.4653C35.0443 37.3161 35.0443 39.2724 33.7039 40.1232L27.0958 44.318C25.6537 45.2336 23.7687 44.1976 23.7687 42.4891ZM100.357 34.0994V42.4891C100.357 44.1976 98.4715 45.2336 97.0294 44.318L90.4213 40.1232C89.0809 39.2724 89.0809 37.3161 90.4213 36.4653L97.0294 32.2705C98.4715 31.3549 100.357 32.3909 100.357 34.0994Z" fill="url(#paint17_linear)" fill-opacity="0.9"/>
<defs>
<linearGradient id="paint0_linear" x1="121.465" y1="43.4092" x2="0.0390248" y2="43.4092" gradientUnits="userSpaceOnUse">
<stop stop-color="#37D9FC" stop-opacity="0"/>
<stop offset="1" stop-color="#0538FB"/>
</linearGradient>
<linearGradient id="paint1_linear" x1="65.3735" y1="9.75372" x2="83.6185" y2="91.6226" gradientUnits="userSpaceOnUse">
<stop stop-color="#37D9FC" stop-opacity="0"/>
<stop offset="1" stop-color="#37D9FC"/>
</linearGradient>
<linearGradient id="paint2_linear" x1="105.839" y1="6.31103" x2="105.839" y2="35.0834" gradientUnits="userSpaceOnUse">
<stop offset="0.2479" stop-color="#0538FB" stop-opacity="0"/>
<stop offset="1" stop-color="#0538FB"/>
</linearGradient>
<linearGradient id="paint3_linear" x1="115.114" y1="52.8462" x2="117.921" y2="91.2076" gradientUnits="userSpaceOnUse">
<stop stop-color="#0538FB" stop-opacity="0"/>
<stop offset="1" stop-color="#0538FB"/>
</linearGradient>
<linearGradient id="paint4_linear" x1="29.612" y1="40.9408" x2="31.9154" y2="69.9624" gradientUnits="userSpaceOnUse">
<stop stop-color="#0538FB" stop-opacity="0"/>
<stop offset="1" stop-color="#0538FB"/>
</linearGradient>
<linearGradient id="paint5_linear" x1="86.9363" y1="64.4538" x2="89.2755" y2="-8.05862" gradientUnits="userSpaceOnUse">
<stop stop-color="#37D9FC" stop-opacity="0"/>
<stop offset="1" stop-color="#0538FB"/>
</linearGradient>
<linearGradient id="paint6_linear" x1="97.6761" y1="91.2085" x2="58.0672" y2="55.0302" gradientUnits="userSpaceOnUse">
<stop stop-color="#37D9FC" stop-opacity="0"/>
<stop offset="1" stop-color="#37D9FC"/>
</linearGradient>
<radialGradient id="paint7_radial" cx="0" cy="0" r="1" gradientUnits="userSpaceOnUse" gradientTransform="translate(60.8747 37.4507) scale(25.4819)">
<stop stop-color="#37D9FC"/>
<stop offset="1" stop-color="#0538FB"/>
</radialGradient>
<linearGradient id="paint8_linear" x1="62.0627" y1="34.4288" x2="62.0627" y2="78.1479" gradientUnits="userSpaceOnUse">
<stop stop-color="#0538FB" stop-opacity="0"/>
<stop offset="1" stop-color="#0538FB"/>
</linearGradient>
<linearGradient id="paint9_linear" x1="62.0627" y1="44.2144" x2="62.0627" y2="0.034491" gradientUnits="userSpaceOnUse">
<stop offset="0.4671" stop-color="#0538FB" stop-opacity="0.466667"/>
<stop offset="1" stop-color="#0538FB"/>
</linearGradient>
<linearGradient id="paint10_linear" x1="62.0627" y1="39.0336" x2="62.0627" y2="53.163" gradientUnits="userSpaceOnUse">
<stop stop-color="#0538FB" stop-opacity="0"/>
<stop offset="1" stop-color="#0538FB"/>
</linearGradient>
<linearGradient id="paint11_linear" x1="62.0627" y1="43.6387" x2="62.0627" y2="19.5784" gradientUnits="userSpaceOnUse">
<stop stop-color="#0538FB" stop-opacity="0"/>
<stop offset="1" stop-color="#0538FB"/>
</linearGradient>
<radialGradient id="paint12_radial" cx="0" cy="0" r="1" gradientUnits="userSpaceOnUse" gradientTransform="translate(52.9597 31.6928) scale(56.5663)">
<stop stop-color="#37D9FC"/>
<stop offset="1" stop-color="#0538FB"/>
</radialGradient>
<radialGradient id="paint13_radial" cx="0" cy="0" r="1" gradientUnits="userSpaceOnUse" gradientTransform="translate(60.1202 38.294) scale(21.424)">
<stop stop-color="#FFFCF8"/>
<stop offset="0.9485" stop-color="#FFFCF8" stop-opacity="0.05098"/>
<stop offset="1" stop-color="#FFFCF8" stop-opacity="0"/>
</radialGradient>
<radialGradient id="paint14_radial" cx="0" cy="0" r="1" gradientUnits="userSpaceOnUse" gradientTransform="translate(61.6951 36.0052) scale(25.6052 27.938)">
<stop stop-color="#37D9FC"/>
<stop offset="1" stop-color="#0538FB"/>
</radialGradient>
<radialGradient id="paint15_radial" cx="0" cy="0" r="1" gradientUnits="userSpaceOnUse" gradientTransform="translate(55.1516 32.1543) scale(55.8425)">
<stop stop-color="#37D9FC"/>
<stop offset="1" stop-color="#0538FB"/>
</radialGradient>
<linearGradient id="paint16_linear" x1="69.3678" y1="43.0907" x2="52.7696" y2="39.253" gradientUnits="userSpaceOnUse">
<stop stop-color="#0538FB" stop-opacity="0"/>
<stop offset="1" stop-color="#0538FB"/>
</linearGradient>
<linearGradient id="paint17_linear" x1="31.6469" y1="74.8606" x2="100.485" y2="62.3974" gradientUnits="userSpaceOnUse">
<stop stop-color="#37D9FC"/>
<stop offset="1" stop-color="#0538FB"/>
</linearGradient>
</defs>
</svg>
