<svg width="95" height="62" viewBox="0 0 95 62" fill="none" xmlns="http://www.w3.org/2000/svg">
<g opacity="0.5">
<path opacity="0.25" d="M2.26506 25.5456C3.52334 11.7045 12.9604 0.128321 27.6823 0.00249328C35.7353 -0.123335 41.7751 4.5323 47.4374 9.69126C51.7155 13.5919 56.2453 17.3668 61.7818 19.2542C67.9473 21.5191 74.1129 20.6383 80.5302 20.2608C92.6096 19.5058 97.6428 32.8436 91.2255 42.0291C83.4242 53.3536 67.8215 58.3867 54.987 60.7775C30.9539 65.4331 -0.377335 54.7377 2.26506 25.5456Z" fill="url(#paint0_linear)"/>
<path opacity="0.49" d="M69.5831 22.0223C71.093 21.7707 72.4771 21.3932 73.7354 20.764C69.7089 21.0157 65.6824 20.764 61.6559 19.3799C56.2453 17.3667 51.5897 13.5918 47.3115 9.817C41.6492 4.65804 35.6095 0.00239757 27.5565 0.128226C12.9604 0.254054 3.5233 11.7044 2.26502 25.5455C0.880911 41.0224 8.93391 51.2144 20.5101 56.7509C26.424 53.6052 30.7022 48.3204 34.6029 42.6581C38.3777 37.1217 42.6559 31.7111 48.444 27.9362C54.8612 23.9097 62.1592 23.2806 69.5831 22.0223Z" fill="url(#paint1_linear)"/>
<path opacity="0.5" d="M13.212 60.2743C20.5087 60.2743 26.4239 54.3591 26.4239 47.0623C26.4239 39.7655 20.5087 33.8503 13.212 33.8503C5.91519 33.8503 0 39.7655 0 47.0623C0 54.3591 5.91519 60.2743 13.212 60.2743Z" fill="url(#paint2_linear)"/>
<path opacity="0.5" d="M68.9536 39.3867C79.2386 39.3867 87.5762 31.0491 87.5762 20.7642C87.5762 10.4792 79.2386 2.1416 68.9536 2.1416C58.6687 2.1416 50.3311 10.4792 50.3311 20.7642C50.3311 31.0491 58.6687 39.3867 68.9536 39.3867Z" fill="url(#paint3_linear)"/>
<path opacity="0.25" d="M37.3713 26.4265C29.3183 17.1152 15.603 28.0623 4.4043 41.0226C10.6957 55.6186 28.6891 62.2875 45.6759 61.91C53.3514 50.5855 50.9607 42.2809 37.3713 26.4265Z" fill="url(#paint4_linear)"/>
<path opacity="0.49" d="M23.5298 0.379972C23.7814 11.327 32.7152 20.0092 43.6623 20.0092C48.0663 20.0092 52.2186 18.6251 55.4901 16.1085C52.5961 14.2211 49.9537 11.9562 47.4371 9.69126C41.7749 4.5323 35.7351 -0.123335 27.6821 0.00249328C26.1722 0.128321 24.9139 0.254144 23.5298 0.379972Z" fill="url(#paint5_linear)"/>
</g>
<path opacity="0.5" d="M6.92076 22.0224C10.1869 22.0224 12.8347 19.3747 12.8347 16.1085C12.8347 12.8423 10.1869 10.1946 6.92076 10.1946C3.65459 10.1946 1.00684 12.8423 1.00684 16.1085C1.00684 19.3747 3.65459 22.0224 6.92076 22.0224Z" fill="url(#paint6_linear)"/>
<path d="M46.9798 48.8934C56.569 48.8934 64.3425 41.1199 64.3425 31.5308C64.3425 21.9417 56.569 14.1682 46.9798 14.1682C37.3907 14.1682 29.6172 21.9417 29.6172 31.5308C29.6172 41.1199 37.3907 48.8934 46.9798 48.8934Z" fill="url(#paint7_linear)"/>
<path d="M46.9807 48.0344C56.0954 48.0344 63.4843 40.6455 63.4843 31.5308C63.4843 22.4161 56.0954 15.0272 46.9807 15.0272C37.866 15.0272 30.4771 22.4161 30.4771 31.5308C30.4771 40.6455 37.866 48.0344 46.9807 48.0344Z" fill="url(#paint8_linear)"/>
<path d="M46.9792 44.8473C54.3338 44.8473 60.2959 38.8853 60.2959 31.5307C60.2959 24.1761 54.3338 18.2141 46.9792 18.2141C39.6247 18.2141 33.6626 24.1761 33.6626 31.5307C33.6626 38.8853 39.6247 44.8473 46.9792 44.8473Z" fill="url(#paint9_linear)"/>
<path d="M60.2794 32.2088L51.9868 23.9162C51.8025 23.5952 51.4197 23.3301 50.8376 23.1208C50.2403 22.9064 49.6038 22.7605 48.9294 22.6801L48.0389 21.8856C48.0211 21.76 47.9475 21.646 47.8109 21.5454C47.6536 21.43 47.4842 21.3718 47.3025 21.3718C47.1041 21.3718 46.9343 21.43 46.7939 21.5454C46.6532 21.6613 46.583 21.7936 46.583 21.9423V22.6618C45.2434 22.8106 44.1228 23.257 43.2215 24.0013C42.3199 24.7456 41.8694 25.8363 41.8694 27.2729C41.8694 27.7846 41.9271 28.2508 42.043 28.6718C42.1586 29.0927 42.3489 29.4599 42.6137 29.7736C42.8781 30.0871 43.1305 30.3554 43.3703 30.5783C43.3829 30.5901 43.3971 30.6019 43.4104 30.6136L46.5829 33.7934V37.9437C45.85 37.8941 45.2046 37.7045 44.6462 37.3742C44.0881 37.0444 43.6497 36.735 43.3304 36.4459C43.0109 36.1571 42.7532 36.0124 42.5571 36.0124C42.2608 36.0124 41.9981 36.1694 41.7678 36.4829C41.5377 36.7964 41.4229 37.1101 41.4229 37.4237C41.4229 37.9377 41.721 38.444 42.315 38.9429L48.1661 44.794C54.7424 44.2136 59.9461 38.8534 60.2794 32.2088Z" fill="url(#paint10_linear)"/>
<path d="M41.4229 37.4238C41.4229 37.1102 41.5377 36.7966 41.7678 36.483C41.998 36.1694 42.261 36.0125 42.5571 36.0125C42.7531 36.0125 43.0109 36.157 43.3304 36.4459C43.6498 36.7349 44.0881 37.0444 44.6463 37.3742C45.2045 37.7044 45.8499 37.8941 46.5829 37.9437V32.1257C46.0869 31.9443 45.7061 31.7997 45.4419 31.6923C45.1771 31.5853 44.8255 31.4282 44.3874 31.2221C43.9491 31.0159 43.6099 30.8012 43.3703 30.5783C43.1304 30.3554 42.878 30.0871 42.6137 29.7736C42.3488 29.46 42.1587 29.0928 42.043 28.6718C41.9271 28.251 41.8694 27.7846 41.8694 27.2729C41.8694 25.8363 42.3199 24.7456 43.2215 24.0013C44.1227 23.257 45.2434 22.8106 46.583 22.6618V21.9423C46.583 21.7934 46.6532 21.6613 46.7939 21.5454C46.9343 21.43 47.104 21.3718 47.3025 21.3718C47.4843 21.3718 47.6538 21.43 47.8109 21.5454C47.968 21.6613 48.0467 21.7936 48.0467 21.9423V22.612C49.0553 22.6453 49.9858 22.8148 50.8378 23.1206C51.6895 23.4267 52.1154 23.8523 52.1154 24.3982C52.1154 24.6959 52.015 25.006 51.815 25.3286C51.6151 25.6511 51.3479 25.8123 51.0145 25.8123C50.8827 25.8123 50.5203 25.6719 49.9281 25.3905C49.3353 25.1094 48.7082 24.9439 48.0467 24.8943V29.9218C48.7046 30.1695 49.2516 30.4048 49.6872 30.6276C50.1229 30.8505 50.5838 31.1598 51.0691 31.5559C51.5544 31.952 51.9204 32.4513 52.1671 33.0537C52.4136 33.6561 52.5371 34.3619 52.5371 35.1705C52.5371 36.6481 52.134 37.8227 51.3281 38.694C50.5218 39.5654 49.4282 40.1007 48.0468 40.2999V41.1287C48.0468 41.2748 47.9682 41.4047 47.8111 41.5186C47.6537 41.6322 47.4843 41.6892 47.3027 41.6892C47.1042 41.6892 46.9344 41.6322 46.794 41.5191C46.6533 41.4051 46.5832 41.2753 46.5832 41.1291V40.3744C45.1443 40.3578 43.9244 40.0287 42.9239 39.3868C41.923 38.7453 41.4229 38.0909 41.4229 37.4238ZM44.3255 27.0258C44.3255 27.6695 44.5259 28.1607 44.9271 28.4988C45.3278 28.8371 45.9296 29.155 46.7319 29.4519V24.9419C45.1275 25.1403 44.3255 25.8349 44.3255 27.0258ZM47.8979 37.8941C49.3532 37.63 50.0811 36.8129 50.0811 35.4431C50.0811 34.7171 49.8907 34.1476 49.5104 33.7352C49.1298 33.3228 48.5926 32.9677 47.8979 32.6704V37.8941Z" fill="white"/>
<path d="M76.3298 14.4623C75.0801 14.0036 73.7121 14.5272 73.0619 15.6397C71.012 12.2455 68.3057 9.27593 65.046 6.8765C59.8225 3.03203 53.6279 1 47.1318 1C40.6356 1 34.4409 3.03203 29.2175 6.8765C24.1017 10.6418 20.3466 15.8104 18.3579 21.8229C17.8864 23.2486 18.6563 24.7878 20.0776 25.2608C21.4994 25.734 23.0335 24.9614 23.5048 23.5357C25.1373 18.6002 28.222 14.356 32.4256 11.2621C36.7122 8.10702 41.7974 6.43925 47.1318 6.43925C52.4661 6.43925 57.5512 8.10702 61.8379 11.2622C64.3413 13.1047 66.4477 15.3553 68.0869 17.9168C66.8396 17.7288 65.5906 18.4382 65.1404 19.6727C64.6256 21.0834 65.3486 22.6454 66.755 23.1616L72.4006 25.2337C72.4141 25.2386 72.4278 25.2419 72.4414 25.2466C72.4888 25.2632 72.5366 25.2782 72.5848 25.2921C72.6107 25.2995 72.6364 25.3071 72.6622 25.3139C72.711 25.3264 72.7601 25.3369 72.8096 25.3467C72.8348 25.3517 72.86 25.3575 72.8851 25.3617C72.9376 25.3706 72.9905 25.3767 73.0437 25.3827C73.0653 25.385 73.0869 25.3886 73.1085 25.3903C73.1825 25.3965 73.2569 25.4 73.3317 25.4C73.3317 25.4 73.3317 25.4 73.3319 25.4H73.332C73.4023 25.4 73.4725 25.3971 73.542 25.3916C73.5586 25.3903 73.5752 25.3875 73.5918 25.3859C73.6454 25.3807 73.6989 25.3752 73.7518 25.3667C73.7723 25.3634 73.7927 25.3586 73.8134 25.3548C73.8627 25.3459 73.9119 25.3365 73.9605 25.3249C73.9833 25.3195 74.0059 25.3125 74.0287 25.3063C74.0748 25.2941 74.1205 25.2815 74.1656 25.2668C74.1724 25.2646 74.1792 25.2632 74.186 25.261C74.1994 25.2565 74.212 25.2504 74.2254 25.2458C74.2851 25.2247 74.3441 25.2019 74.4023 25.1769C74.4273 25.1662 74.4521 25.1555 74.4765 25.1441C74.5332 25.1176 74.5889 25.0889 74.6437 25.0585C74.661 25.0489 74.6791 25.0403 74.6963 25.0304C74.7622 24.992 74.8261 24.95 74.8888 24.9061C74.9133 24.8889 74.9366 24.8706 74.9602 24.8527C75.002 24.8212 75.043 24.7888 75.0831 24.7549C75.105 24.7362 75.1268 24.7176 75.1481 24.6982C75.1937 24.6569 75.2379 24.6139 75.2807 24.5694C75.2926 24.5571 75.3054 24.5453 75.317 24.5327C75.3728 24.4726 75.4263 24.4096 75.4769 24.344C75.4804 24.3394 75.4835 24.3346 75.487 24.33C75.532 24.2707 75.5747 24.2089 75.6152 24.1454C75.6259 24.1283 75.6362 24.111 75.6465 24.0937C75.6778 24.0421 75.7074 23.9894 75.7355 23.9353C75.7469 23.9131 75.7585 23.8909 75.7694 23.8683C75.7939 23.8176 75.8165 23.7657 75.8381 23.713C75.8481 23.6885 75.8588 23.6644 75.8681 23.6397C75.8712 23.6312 75.8752 23.6231 75.8784 23.6145L77.9442 17.9515C78.4589 16.5406 77.736 14.9785 76.3298 14.4623Z" fill="url(#paint11_radial)"/>
<path d="M17.7805 48.5377C19.0303 48.9964 20.3982 48.4728 21.0485 47.3603C23.0984 50.7545 25.8046 53.7241 29.0644 56.1235C34.2878 59.968 40.4824 62 46.9786 62C53.4748 62 59.6695 59.968 64.8928 56.1235C70.0086 52.3582 73.7638 47.1896 75.7525 41.1771C76.224 39.7514 75.454 38.2122 74.0328 37.7392C72.611 37.266 71.0769 38.0386 70.6055 39.4643C68.9731 44.3998 65.8883 48.644 61.6847 51.7379C57.3981 54.893 52.313 56.5608 46.9786 56.5608C41.6442 56.5608 36.5592 54.893 32.2725 51.7378C29.769 49.8953 27.6627 47.6447 26.0234 45.0832C27.2708 45.2712 28.5197 44.5618 28.97 43.3273C29.4847 41.9166 28.7617 40.3546 27.3554 39.8384L21.7098 37.7663C21.6963 37.7614 21.6825 37.7581 21.669 37.7534C21.6216 37.7368 21.5738 37.7218 21.5255 37.7079C21.4997 37.7005 21.474 37.6929 21.4482 37.6861C21.3994 37.6736 21.3503 37.6631 21.3008 37.6533C21.2756 37.6483 21.2504 37.6425 21.2253 37.6383C21.1728 37.6294 21.1199 37.6233 21.0667 37.6173C21.0451 37.615 21.0235 37.6114 21.0019 37.6097C20.9279 37.6035 20.8534 37.6 20.7786 37.6C20.7786 37.6 20.7786 37.6 20.7785 37.6L20.7784 37.6C20.708 37.6 20.6379 37.6029 20.5684 37.6084C20.5517 37.6097 20.5352 37.6125 20.5185 37.6141C20.465 37.6193 20.4115 37.6248 20.3585 37.6333C20.338 37.6366 20.3176 37.6414 20.297 37.6452C20.2476 37.6541 20.1985 37.6635 20.1499 37.6751C20.1271 37.6805 20.1045 37.6875 20.0817 37.6937C20.0356 37.7059 19.9898 37.7185 19.9447 37.7332C19.9379 37.7354 19.9312 37.7368 19.9243 37.739C19.9109 37.7435 19.8984 37.7496 19.885 37.7542C19.8252 37.7753 19.7662 37.7981 19.708 37.8231C19.6831 37.8338 19.6582 37.8445 19.6338 37.8559C19.5771 37.8824 19.5215 37.9111 19.4667 37.9415C19.4493 37.9511 19.4312 37.9597 19.4141 37.9696C19.3482 38.008 19.2842 38.05 19.2216 38.0939C19.1971 38.1111 19.1738 38.1294 19.1501 38.1473C19.1084 38.1788 19.0674 38.2112 19.0273 38.2451C19.0053 38.2638 18.9836 38.2824 18.9622 38.3018C18.9166 38.3431 18.8725 38.3861 18.8296 38.4306C18.8178 38.4429 18.805 38.4547 18.7934 38.4673C18.7375 38.5274 18.6841 38.5904 18.6335 38.656C18.63 38.6606 18.6269 38.6654 18.6234 38.67C18.5783 38.7293 18.5356 38.7911 18.4952 38.8546C18.4845 38.8717 18.4742 38.889 18.4638 38.9063C18.4326 38.9579 18.403 39.0106 18.3749 39.0647C18.3634 39.0869 18.3518 39.1091 18.341 39.1317C18.3165 39.1824 18.2939 39.2343 18.2723 39.287C18.2623 39.3115 18.2515 39.3356 18.2423 39.3603C18.2391 39.3688 18.2351 39.3769 18.232 39.3855L16.1662 45.0485C15.6515 46.4594 16.3743 48.0215 17.7805 48.5377Z" fill="url(#paint12_radial)"/>
<defs>
<linearGradient id="paint0_linear" x1="2.0743" y1="30.9847" x2="94.0297" y2="30.9847" gradientUnits="userSpaceOnUse">
<stop stop-color="#37D9FC" stop-opacity="0"/>
<stop offset="1" stop-color="#0538FB"/>
</linearGradient>
<linearGradient id="paint1_linear" x1="36.6726" y1="-44.7886" x2="38.7983" y2="73.5413" gradientUnits="userSpaceOnUse">
<stop stop-color="#37D9FC" stop-opacity="0"/>
<stop offset="1" stop-color="#37D9FC"/>
</linearGradient>
<linearGradient id="paint2_linear" x1="13.2496" y1="63.3335" x2="13.2496" y2="33.5638" gradientUnits="userSpaceOnUse">
<stop stop-color="#0538FB" stop-opacity="0"/>
<stop offset="1" stop-color="#0538FB"/>
</linearGradient>
<linearGradient id="paint3_linear" x1="69.006" y1="6.25077" x2="69.006" y2="30.4405" gradientUnits="userSpaceOnUse">
<stop stop-color="#0538FB" stop-opacity="0"/>
<stop offset="1" stop-color="#0538FB"/>
</linearGradient>
<linearGradient id="paint4_linear" x1="28.2231" y1="15.0459" x2="26.4517" y2="69.9594" gradientUnits="userSpaceOnUse">
<stop stop-color="#37D9FC" stop-opacity="0"/>
<stop offset="1" stop-color="#0538FB"/>
</linearGradient>
<linearGradient id="paint5_linear" x1="20.0891" y1="-5.21585" x2="50.0849" y2="22.182" gradientUnits="userSpaceOnUse">
<stop stop-color="#37D9FC" stop-opacity="0"/>
<stop offset="1" stop-color="#51B3FF"/>
</linearGradient>
<linearGradient id="paint6_linear" x1="6.56806" y1="4.54326" x2="7.2766" y2="30.9372" gradientUnits="userSpaceOnUse">
<stop offset="0.2106" stop-color="#0538FB" stop-opacity="0"/>
<stop offset="1" stop-color="#0538FB"/>
</linearGradient>
<linearGradient id="paint7_linear" x1="46.9792" y1="39.0208" x2="46.9792" y2="3.77771" gradientUnits="userSpaceOnUse">
<stop stop-color="#37D9FC"/>
<stop offset="1" stop-color="#0538FB"/>
</linearGradient>
<linearGradient id="paint8_linear" x1="46.98" y1="24.4127" x2="46.98" y2="57.913" gradientUnits="userSpaceOnUse">
<stop stop-color="#37D9FC"/>
<stop offset="1" stop-color="#0538FB"/>
</linearGradient>
<linearGradient id="paint9_linear" x1="53.0197" y1="37.5724" x2="32.6554" y2="17.208" gradientUnits="userSpaceOnUse">
<stop stop-color="#37D9FC"/>
<stop offset="1" stop-color="#0538FB"/>
</linearGradient>
<linearGradient id="paint10_linear" x1="60.7003" y1="40.0432" x2="34.3894" y2="25.6841" gradientUnits="userSpaceOnUse">
<stop stop-color="#0538FB" stop-opacity="0"/>
<stop offset="1" stop-color="#0538FB"/>
</linearGradient>
<radialGradient id="paint11_radial" cx="0" cy="0" r="1" gradientUnits="userSpaceOnUse" gradientTransform="translate(39.602 31.1902) scale(37.918 38.0353)">
<stop stop-color="#0538FB"/>
<stop offset="1" stop-color="#62E1FB"/>
</radialGradient>
<radialGradient id="paint12_radial" cx="0" cy="0" r="1" gradientUnits="userSpaceOnUse" gradientTransform="translate(57.6138 31.8098) rotate(180) scale(41.0234 41.1504)">
<stop stop-color="#0538FB"/>
<stop offset="1" stop-color="#62E1FB"/>
</radialGradient>
</defs>
</svg>
