<svg width="122" height="81" viewBox="0 0 122 81" fill="none" xmlns="http://www.w3.org/2000/svg">
<g opacity="0.5">
<path opacity="0.25" d="M2.93886 33.1449C4.57145 15.1864 16.8159 0.166494 35.9173 0.00323498C46.3659 -0.160024 54.2023 5.88057 61.549 12.5742C67.0998 17.6352 72.9771 22.533 80.1605 24.9819C88.1602 27.9206 96.16 26.7778 104.486 26.288C120.159 25.3084 126.689 42.6139 118.363 54.5319C108.241 69.2252 87.997 75.7556 71.3445 78.8575C40.162 84.8981 -0.489591 71.021 2.93886 33.1449Z" fill="url(#paint0_linear)"/>
<path opacity="0.49" d="M90.2826 28.5735C92.2417 28.2469 94.0376 27.7572 95.6701 26.9409C90.4458 27.2674 85.2216 26.9409 79.9973 25.145C72.9771 22.5329 66.9365 17.6351 61.3857 12.7373C54.039 6.04366 46.2026 0.00306155 35.754 0.166321C16.8159 0.32958 4.57143 15.1862 2.93884 33.1447C1.14299 53.2256 11.5916 66.4496 26.6114 73.633C34.2846 69.5516 39.8355 62.6947 44.8965 55.348C49.7943 48.1646 55.3451 41.1444 62.855 36.2466C71.1813 31.0223 80.6503 30.206 90.2826 28.5735Z" fill="url(#paint1_linear)"/>
<path opacity="0.5" d="M17.1422 78.2046C26.6096 78.2046 34.2845 70.5298 34.2845 61.0624C34.2845 51.595 26.6096 43.9202 17.1422 43.9202C7.67484 43.9202 0 51.595 0 61.0624C0 70.5298 7.67484 78.2046 17.1422 78.2046Z" fill="url(#paint2_linear)"/>
<path opacity="0.5" d="M89.4658 51.1033C102.81 51.1033 113.628 40.2855 113.628 26.941C113.628 13.5964 102.81 2.77856 89.4658 2.77856C76.1213 2.77856 65.3035 13.5964 65.3035 26.941C65.3035 40.2855 76.1213 51.1033 89.4658 51.1033Z" fill="url(#paint3_linear)"/>
<path opacity="0.25" d="M48.4878 34.2874C38.0392 22.2062 20.244 36.4098 5.71387 53.2255C13.8768 72.3269 37.2229 80.8163 59.2629 80.3266C69.2218 65.6332 66.1198 54.8581 48.4878 34.2874Z" fill="url(#paint4_linear)"/>
<path opacity="0.49" d="M30.5294 0.493013C30.8559 14.6966 42.4474 25.9615 56.6509 25.9615C62.365 25.9615 67.7525 24.1656 71.9973 20.9004C68.2423 18.4515 64.8139 15.5129 61.5487 12.5742C54.202 5.88057 46.3656 -0.160024 35.917 0.00323498C33.9579 0.166494 32.3253 0.329754 30.5294 0.493013Z" fill="url(#paint5_linear)"/>
</g>
<path opacity="0.5" d="M8.97952 28.5737C13.2173 28.5737 16.6527 25.1383 16.6527 20.9005C16.6527 16.6627 13.2173 13.2273 8.97952 13.2273C4.74173 13.2273 1.30634 16.6627 1.30634 20.9005C1.30634 25.1383 4.74173 28.5737 8.97952 28.5737Z" fill="url(#paint6_linear)"/>
<path d="M88.1961 31.8724H87.4821C85.1406 31.8724 83.969 29.0429 85.6238 27.3863L86.1283 26.8822C87.1551 25.8554 87.1551 24.1925 86.1283 23.1657L78.0372 15.075C77.0108 14.0481 75.3478 14.0481 74.321 15.075L73.8169 15.579C72.1604 17.2342 69.3308 16.0626 69.3308 13.7212V13.0072C69.3313 11.5565 68.1542 10.3798 66.7034 10.3798H55.2595C53.8088 10.3798 52.6321 11.5565 52.6321 13.0077V13.7212C52.6321 16.0631 49.8026 17.2342 48.146 15.5795L47.6419 15.075C46.6151 14.0486 44.9522 14.0486 43.9258 15.075L35.8347 23.1661C34.8078 24.1925 34.8078 25.8554 35.8347 26.8822L36.3392 27.3868C37.9939 29.0429 36.8223 31.8724 34.4809 31.8724H33.7669C32.3162 31.8724 31.1395 33.0491 31.1395 34.4998V45.9437C31.1395 47.3945 32.3162 48.5711 33.7674 48.5711H34.4809C36.8228 48.5711 37.9944 51.4007 36.3392 53.0572L35.8347 53.5613C34.8083 54.5881 34.8083 56.2511 35.8347 57.2779L43.9258 65.3686C44.9526 66.3954 46.6156 66.3954 47.6419 65.3686L48.1465 64.8645C49.8026 63.2093 52.6321 64.3805 52.6321 66.7224V67.4364C52.6321 68.8871 53.8088 70.0637 55.2595 70.0637H66.7034C67.7908 70.0637 68.7216 69.4026 69.1204 68.4614C69.1232 68.455 69.1255 68.4486 69.1282 68.4422C69.1473 68.3962 69.166 68.3502 69.1824 68.3029C69.2024 68.2469 69.2206 68.19 69.2366 68.1321C69.2443 68.1048 69.2507 68.0766 69.2589 68.0479C69.273 67.9923 69.2844 67.9354 69.2935 67.8785C69.2985 67.8489 69.3026 67.8202 69.3062 67.792C69.314 67.7392 69.3194 67.6859 69.3231 67.6317C69.3258 67.6121 69.3272 67.5903 69.3272 67.5698C69.3299 67.5256 69.3308 67.4805 69.3308 67.4364V66.7228C69.3308 64.3809 72.1604 63.2093 73.8169 64.8645L74.321 65.3691C75.3478 66.3954 77.0108 66.3954 78.0372 65.3691L86.1283 57.2779C87.1551 56.2511 87.1551 54.5881 86.1283 53.5618L85.6238 53.0572C83.969 51.4011 85.1406 48.5716 87.4821 48.5716H88.1961C88.2398 48.5716 88.2849 48.5702 88.329 48.5675C88.35 48.5675 88.3718 48.5666 88.3909 48.5638C88.4456 48.5602 88.4984 48.5547 88.5512 48.547C88.5799 48.5433 88.6082 48.5392 88.6382 48.5342C88.6947 48.5251 88.7516 48.5133 88.8071 48.4992C88.8358 48.4914 88.8641 48.4851 88.8914 48.4773C88.9492 48.4609 89.0061 48.4427 89.0621 48.4227C89.1095 48.4063 89.1555 48.3876 89.2015 48.3689C89.2079 48.3662 89.2147 48.3635 89.2206 48.3607C90.1623 47.9614 90.8234 47.0307 90.8234 45.9437V34.4998C90.8234 33.0491 89.6468 31.8724 88.1961 31.8724ZM52.5698 40.2218C52.5698 35.5758 56.3355 31.8101 60.9815 31.8101C65.6274 31.8101 69.3932 35.5758 69.3932 40.2218C69.3932 44.8677 65.6274 48.6335 60.9815 48.6335C56.3355 48.6335 52.5698 44.8677 52.5698 40.2218Z" fill="url(#paint7_radial)"/>
<path d="M60.9818 61.8903C72.9494 61.8903 82.6502 52.1894 82.6502 40.2218C82.6502 28.2542 72.9494 18.5534 60.9818 18.5534C60.6148 18.5534 60.2487 18.5625 59.8867 18.5807C48.7906 19.1326 39.8926 28.0307 39.3407 39.1267C39.3225 39.4887 39.3134 39.8548 39.3134 40.2218C39.3134 52.1894 49.0142 61.8903 60.9818 61.8903ZM60.9818 48.6336C56.3358 48.6336 52.57 44.8678 52.57 40.2218C52.57 35.5759 56.3358 31.8101 60.9818 31.8101C65.6278 31.8101 69.3935 35.5759 69.3935 40.2218C69.3935 44.8678 65.6278 48.6336 60.9818 48.6336Z" fill="url(#paint8_radial)"/>
<path d="M71.5396 30.2341C71.5396 30.2328 71.5383 30.2328 71.5383 30.2328C71.3739 30.0579 71.2045 29.8876 71.0301 29.7219C70.9436 29.6381 70.8539 29.5566 70.766 29.4751C70.6772 29.3936 70.5866 29.3148 70.496 29.2346C70.4946 29.2333 70.4946 29.2319 70.4932 29.2319C70.4026 29.1545 70.3111 29.078 70.2191 29.002C69.9427 28.7715 69.6568 28.5543 69.3631 28.3476C69.3462 28.3349 69.3285 28.3217 69.3116 28.3112C69.2324 28.2556 69.1536 28.2014 69.0748 28.1486C68.9469 28.0616 68.8175 27.9779 68.6869 27.8977C68.6067 27.8472 68.5266 27.7966 68.4451 27.7488C68.3444 27.6883 68.2433 27.63 68.1423 27.5717C68.1231 27.5599 68.1026 27.5485 68.0817 27.538C68.0093 27.4966 67.9369 27.4565 67.8631 27.4178C67.8089 27.3882 67.7548 27.3581 67.6992 27.3313C67.6423 27.3003 67.5854 27.2716 67.5284 27.2434C67.4975 27.2265 67.4665 27.2111 67.4342 27.1956C67.3577 27.1564 67.2803 27.1204 67.2038 27.084C67.1623 27.0635 67.1195 27.043 67.0772 27.0248C67.0098 26.9925 66.9415 26.9615 66.8727 26.9315C66.839 26.916 66.8053 26.9019 66.7716 26.8877C66.697 26.8541 66.6205 26.8217 66.5444 26.7908C66.5003 26.7725 66.4565 26.7543 66.4124 26.7375C66.3436 26.7093 66.2753 26.6819 66.2056 26.656C66.1706 26.6405 66.1342 26.6277 66.0995 26.6159C66.0194 26.5849 65.9393 26.5553 65.8591 26.5271C65.8186 26.5112 65.7785 26.4971 65.7375 26.4843C65.6483 26.4533 65.5577 26.4224 65.4657 26.3937C65.458 26.39 65.4516 26.3887 65.4438 26.386C65.3441 26.3536 65.2421 26.3227 65.141 26.2917C65.1137 26.284 65.0855 26.2748 65.0572 26.2671C64.9871 26.2462 64.9161 26.227 64.845 26.2075C64.784 26.1906 64.7235 26.1742 64.6615 26.1583C64.6019 26.1428 64.5409 26.1273 64.4803 26.1132C64.4352 26.1004 64.3883 26.0886 64.3419 26.0795C64.2504 26.0563 64.1584 26.0353 64.0664 26.0162C64.0418 26.0112 64.0172 26.0048 63.9917 26.0007C63.9216 25.9852 63.8519 25.9711 63.7818 25.9579C63.7085 25.9424 63.6347 25.9297 63.561 25.9165C63.5505 25.9137 63.5405 25.9128 63.53 25.9115C63.4253 25.8919 63.3192 25.8741 63.2144 25.8582C63.1061 25.8413 62.9986 25.8259 62.8898 25.8118C62.8083 25.8013 62.7258 25.7913 62.6416 25.7822C62.5888 25.7758 62.5355 25.7694 62.4813 25.7639C62.4503 25.7612 62.4194 25.7576 62.3871 25.7562C62.2923 25.7457 62.1967 25.7366 62.1011 25.7302C61.7313 25.702 61.3575 25.6874 60.9814 25.6874C52.954 25.6874 46.447 32.1944 46.447 40.2219C46.447 40.5984 46.4611 40.9718 46.4898 41.342C46.4961 41.4376 46.5052 41.5333 46.5157 41.6275C46.5166 41.6599 46.5207 41.6908 46.5235 41.7222C46.5285 41.7764 46.5348 41.8292 46.5412 41.8825C46.5503 41.9663 46.5608 42.0492 46.5713 42.1307C46.5854 42.2391 46.6009 42.3465 46.6177 42.4554C46.6332 42.5601 46.6514 42.6662 46.6705 42.7709C46.6719 42.7809 46.6733 42.7914 46.676 42.8019C46.6888 42.8756 46.702 42.949 46.7174 43.0227C46.7302 43.0929 46.7443 43.1625 46.7598 43.2322C46.7639 43.2581 46.7703 43.2827 46.7757 43.3073C46.7949 43.3993 46.8158 43.4908 46.839 43.5828C46.8481 43.6293 46.8595 43.6757 46.8723 43.7212C46.8868 43.7818 46.9023 43.8428 46.9178 43.902C46.9333 43.9639 46.9501 44.025 46.967 44.0855C46.9866 44.157 47.0057 44.228 47.0262 44.2977C47.0339 44.3264 47.043 44.3546 47.0508 44.382C47.0822 44.4826 47.1131 44.585 47.1455 44.6843C47.1477 44.6921 47.1491 44.6989 47.1532 44.7066C47.1814 44.7981 47.2124 44.8888 47.2434 44.978C47.2566 45.0195 47.2707 45.0595 47.2862 45.0996C47.3149 45.1797 47.3445 45.2599 47.3754 45.34C47.3873 45.3751 47.4 45.4115 47.4155 45.4461C47.4415 45.5162 47.4688 45.5845 47.497 45.6533C47.5139 45.697 47.5321 45.7412 47.5503 45.7849C47.5812 45.8614 47.6136 45.9374 47.6473 46.0126C47.6614 46.0463 47.6755 46.08 47.691 46.1137C47.7206 46.182 47.752 46.2507 47.7843 46.3177C47.8025 46.3605 47.823 46.4033 47.8435 46.4447C47.88 46.5208 47.9159 46.5986 47.9551 46.6747C47.9706 46.707 47.9861 46.738 48.0029 46.7694C48.0311 46.8263 48.0598 46.8828 48.0908 46.9397C48.1177 46.9952 48.1477 47.0499 48.1773 47.1041C48.216 47.1778 48.2561 47.2502 48.2975 47.3226C48.308 47.3431 48.3194 47.3641 48.3312 47.3832C48.3895 47.4843 48.4473 47.5849 48.5083 47.686C48.5562 47.7675 48.6067 47.8476 48.6572 47.9278C48.7993 48.1577 48.9491 48.3827 49.1071 48.604C49.3139 48.8972 49.5311 49.1832 49.7615 49.4601C49.8375 49.5516 49.914 49.6436 49.9914 49.7342C49.9914 49.7355 49.9928 49.7355 49.9942 49.7369C50.0743 49.8275 50.1531 49.9177 50.2346 50.0069C50.3161 50.0948 50.3976 50.1841 50.4814 50.2706C50.6471 50.4454 50.8179 50.6148 50.9923 50.7792C50.9923 50.7792 50.9923 50.7801 50.9937 50.7801C53.5978 53.2449 57.1122 54.7567 60.9814 54.7567C69.0088 54.7567 75.5158 48.2497 75.5158 40.2223C75.5158 36.3527 74.004 32.8383 71.5396 30.2341ZM60.9814 48.6336C56.3354 48.6336 52.5696 44.8678 52.5696 40.2219C52.5696 35.5759 56.3354 31.8101 60.9814 31.8101C65.6273 31.8101 69.3931 35.5759 69.3931 40.2219C69.3931 44.8678 65.6273 48.6336 60.9814 48.6336Z" fill="url(#paint9_radial)"/>
<defs>
<linearGradient id="paint0_linear" x1="2.69135" y1="40.2019" x2="122.002" y2="40.2019" gradientUnits="userSpaceOnUse">
<stop stop-color="#37D9FC" stop-opacity="0"/>
<stop offset="1" stop-color="#0538FB"/>
</linearGradient>
<linearGradient id="paint1_linear" x1="47.5819" y1="-58.1124" x2="50.3399" y2="95.4182" gradientUnits="userSpaceOnUse">
<stop stop-color="#37D9FC" stop-opacity="0"/>
<stop offset="1" stop-color="#37D9FC"/>
</linearGradient>
<linearGradient id="paint2_linear" x1="17.1911" y1="82.174" x2="17.1911" y2="43.5484" gradientUnits="userSpaceOnUse">
<stop stop-color="#0538FB" stop-opacity="0"/>
<stop offset="1" stop-color="#0538FB"/>
</linearGradient>
<linearGradient id="paint3_linear" x1="89.5338" y1="8.11013" x2="89.5338" y2="39.4958" gradientUnits="userSpaceOnUse">
<stop stop-color="#0538FB" stop-opacity="0"/>
<stop offset="1" stop-color="#0538FB"/>
</linearGradient>
<linearGradient id="paint4_linear" x1="36.6182" y1="19.5213" x2="34.3198" y2="90.7704" gradientUnits="userSpaceOnUse">
<stop stop-color="#37D9FC" stop-opacity="0"/>
<stop offset="1" stop-color="#0538FB"/>
</linearGradient>
<linearGradient id="paint5_linear" x1="26.0653" y1="-6.76746" x2="64.9842" y2="28.7806" gradientUnits="userSpaceOnUse">
<stop stop-color="#37D9FC" stop-opacity="0"/>
<stop offset="1" stop-color="#37D9FC"/>
</linearGradient>
<linearGradient id="paint6_linear" x1="9.04238" y1="14.505" x2="8.73594" y2="31.6661" gradientUnits="userSpaceOnUse">
<stop stop-color="#0538FB" stop-opacity="0"/>
<stop offset="1" stop-color="#0538FB"/>
</linearGradient>
<radialGradient id="paint7_radial" cx="0" cy="0" r="1" gradientUnits="userSpaceOnUse" gradientTransform="translate(51.413 22.5155) scale(47.5087)">
<stop stop-color="#37D9FC"/>
<stop offset="1" stop-color="#0538FB"/>
</radialGradient>
<radialGradient id="paint8_radial" cx="0" cy="0" r="1" gradientUnits="userSpaceOnUse" gradientTransform="translate(67.9297 53.0784) rotate(180) scale(34.4963)">
<stop stop-color="#37D9FC"/>
<stop offset="1" stop-color="#0538FB"/>
</radialGradient>
<radialGradient id="paint9_radial" cx="0" cy="0" r="1" gradientUnits="userSpaceOnUse" gradientTransform="translate(56.3211 31.5981) scale(23.1389)">
<stop stop-color="#37D9FC"/>
<stop offset="1" stop-color="#0538FB"/>
</radialGradient>
</defs>
</svg>
