<svg width="100%" height="551" viewBox="0 0 1280 551" fill="none" preserveAspectRatio="none" xmlns="http://www.w3.org/2000/svg">
<rect x="-320" width="1920" height="551" fill="url(#paint0_linear)"/>
<mask id="mask0" mask-type="alpha" maskUnits="userSpaceOnUse" x="-320" y="0" width="1920" height="551">
<rect x="-320" width="1920" height="551" fill="url(#paint1_linear)"/>
</mask>
<g mask="url(#mask0)">
<path d="M587.5 399.5C-73 582 -374 467 -641.5 235.5V-586H1750V472.5C1485.5 314 1248 217 587.5 399.5Z" fill="url(#paint2_linear)" fill-opacity="0.1"/>
<path d="M-671.93 4.92621L-673 4V-671H1718.5V314.5C1454 156 1216.5 132 556 314.5C-103.619 496.757 -404.697 236.197 -671.93 4.92621Z" fill="url(#paint3_linear)" fill-opacity="0.1"/>
</g>
<defs>
<linearGradient id="paint0_linear" x1="1626.5" y1="-25.5" x2="-44.6349" y2="999.812" gradientUnits="userSpaceOnUse">
<stop stop-color="#37D9FC"/>
<stop offset="1" stop-color="#0538FB"/>
</linearGradient>
<linearGradient id="paint1_linear" x1="1600" y1="0" x2="-52.8055" y2="994.889" gradientUnits="userSpaceOnUse">
<stop stop-color="#37D9FC"/>
<stop offset="1" stop-color="#0538FB"/>
</linearGradient>
<linearGradient id="paint2_linear" x1="-395.5" y1="469" x2="1670" y2="-586" gradientUnits="userSpaceOnUse">
<stop stop-color="white"/>
<stop offset="1" stop-color="white"/>
</linearGradient>
<linearGradient id="paint3_linear" x1="-415.5" y1="237" x2="1597.5" y2="-692.5" gradientUnits="userSpaceOnUse">
<stop stop-color="white"/>
<stop offset="1" stop-color="white" stop-opacity="0"/>
</linearGradient>
</defs>
</svg>
