<svg width="140" height="140" viewBox="0 0 140 140" fill="none" xmlns="http://www.w3.org/2000/svg">
<circle cx="70" cy="70" r="69.5" stroke="white"/>
<mask id="mask0" mask-type="alpha" maskUnits="userSpaceOnUse" x="14" y="22" width="112" height="97">
<path d="M16.1718 117.833C15.3376 117.833 15.12 117.632 15.1744 116.808C15.2469 115.727 15.1925 114.665 15.1925 113.585C15.9542 111.058 18.0033 109.483 19.5628 107.56C22.6274 105.198 26.1635 103.971 29.8266 102.982C32.8187 102.177 35.8652 101.554 38.7666 100.474C40.2717 99.9243 41.8675 99.6313 43.2094 98.6791C45.2041 98.1114 47.09 97.2507 48.9578 96.2985C49.8101 95.859 50.2635 95.1998 50.5355 94.3025C51.0432 92.6545 51.3152 90.9515 51.8411 89.3034C52.0043 88.4611 52.5846 88.516 53.2555 88.5343C53.9265 88.5526 54.5975 89.3217 55.2865 88.5892C56.5922 84.7987 55.5223 81.4293 53.5276 78.2064C53.4913 78.0966 53.4732 77.9867 53.455 77.8768C53.4369 76.7598 52.7478 75.9358 52.3307 74.9835C51.9862 73.8116 51.5328 72.6763 51.279 71.486C51.1157 70.7352 50.7168 70.2408 49.9915 69.9661C49.1029 69.6548 48.6858 69.0688 48.4863 68.0434C48.1962 66.5052 47.6884 64.9853 46.8543 63.6119C46.3284 62.0004 45.8569 60.3707 45.4036 58.7226C45.0772 57.5507 45.1134 56.3787 45.2766 55.2068C45.4217 54.0714 45.8932 53.1375 47.0356 52.7347C47.9423 52.4234 48.1962 51.7824 48.1237 50.8302C47.9786 49.1089 47.9786 47.3693 47.489 45.6846C47.489 43.6886 46.9631 41.7109 47.3802 39.7149C47.4346 39.6051 47.5071 39.4952 47.5978 39.4036C47.6703 39.3487 47.7247 39.3304 47.7972 39.2938C47.5252 36.84 48.4863 34.9172 50.2453 33.2509C51.1883 32.3536 52.1131 31.383 52.7478 30.1928C53.0742 29.5702 53.5457 29.0574 54.1441 28.6729C54.1441 28.618 54.126 28.563 54.1078 28.5264C59.3848 23.9667 65.4234 22.4469 72.2236 23.8203C75.4877 24.4795 78.7336 25.2486 81.7257 26.7868C85.2618 28.5996 88.0726 31.2549 90.1036 34.7158C91.1554 36.5104 91.3729 38.5613 91.5906 40.5756C91.6994 41.4362 91.7719 42.2786 91.8444 43.1209C91.8807 43.1759 91.8807 43.2308 91.8444 43.2857C91.8988 43.359 91.917 43.4506 91.8807 43.5421C91.7175 46.3438 91.5543 49.1455 91.3729 51.9289C91.3185 52.6431 91.4636 53.0826 92.2615 53.284C93.1138 53.5038 93.5309 54.2545 93.5672 55.1335C93.5853 55.7744 93.549 56.397 93.5127 57.0379C93.5671 57.0746 93.6215 57.1112 93.676 57.1478C93.7485 57.2394 93.8029 57.3309 93.8392 57.4591C93.8754 57.7704 93.7848 58.0634 93.8029 58.3564C93.7485 59.858 93.0413 61.1764 92.7511 62.6047C91.8082 64.5641 91.2098 66.6517 90.5932 68.7209C90.3937 69.4167 89.886 69.8562 89.2513 69.8745C88.1995 69.9112 87.8368 70.5887 87.6192 71.3761C86.6581 74.9103 85.4794 78.3529 83.8655 81.6491C82.4874 82.7295 82.705 84.2676 82.7775 85.7143C82.8138 86.3735 82.9951 87.0327 83.0858 87.692C83.2127 88.5892 83.6842 88.8639 84.5365 88.6808C84.9536 88.6076 85.3888 88.3878 85.824 88.6076C86.2955 88.7357 86.3861 89.102 86.4768 89.5231C86.64 90.2739 86.64 91.043 86.912 91.7755C87.1115 92.4897 87.3291 93.2221 87.4923 93.9546C87.6192 94.5223 87.9094 94.8519 88.3627 95.0899C88.7073 95.3829 89.1244 95.6027 89.5052 95.859C90.1399 96.6831 90.974 97.1775 91.9714 97.4339C92.334 97.5254 92.6242 97.7635 92.9687 97.855C93.4221 98.4044 94.0749 98.5692 94.7459 98.6791C96.668 99.8693 98.826 100.474 100.875 101.316C101.637 101.939 102.471 102.287 103.468 102.232C106.243 103.074 109.035 103.843 111.846 104.484C112.753 104.685 113.551 105.161 114.367 105.546C117.196 106.901 119.771 108.659 121.711 111.168C122.944 112.743 123.941 114.482 124.649 116.368C124.866 116.918 124.993 117.412 124.431 117.815" stroke="white"/>
</mask>
<g mask="url(#mask0)">
<circle cx="70.0001" cy="70" r="70" fill="white"/>
</g>
<g clip-path="url(#clip0)">
<circle cx="117.115" cy="117.115" r="18.8462" fill="#6CF089"/>
<path d="M123.398 113.974L114.76 122.612L110.834 118.686" stroke="white" stroke-width="2" stroke-linecap="round" stroke-linejoin="round"/>
</g>
<defs>
<clipPath id="clip0">
<rect width="37.6923" height="37.6923" fill="white" transform="translate(98.2692 98.2693)"/>
</clipPath>
</defs>
</svg>
