<svg width="140" height="140" viewBox="0 0 140 140" fill="none" xmlns="http://www.w3.org/2000/svg">
<circle cx="70" cy="70" r="69.5" stroke="white"/>
<mask id="mask0" mask-type="alpha" maskUnits="userSpaceOnUse" x="0" y="0" width="140" height="140">
<circle cx="70" cy="70" r="70" fill="white"/>
</mask>
<g mask="url(#mask0)">
<path d="M46.4422 100.961C46.4422 103.935 41.3193 106.346 34.9999 106.346C28.6805 106.346 23.5576 103.935 23.5576 100.961" stroke="white"/>
<path d="M46.4422 117.115C46.4422 120.089 41.3193 122.5 34.9999 122.5C28.6805 122.5 23.5576 120.089 23.5576 117.115" stroke="white"/>
<path d="M46.4422 133.269C46.4422 136.243 41.3193 138.654 34.9999 138.654C28.6805 138.654 23.5576 136.243 23.5576 133.269" stroke="white"/>
<path d="M46.4422 109.039C46.4422 112.012 41.3193 114.423 34.9999 114.423C28.6805 114.423 23.5576 112.012 23.5576 109.039" stroke="white"/>
<path d="M46.4422 125.192C46.4422 128.166 41.3193 130.577 34.9999 130.577C28.6805 130.577 23.5576 128.166 23.5576 125.192" stroke="white"/>
<path d="M46.4422 96.9231C46.4422 99.8969 41.3193 102.308 34.9999 102.308C28.6805 102.308 23.5576 99.8969 23.5576 96.9231" stroke="white"/>
<path d="M46.4422 113.077C46.4422 116.051 41.3193 118.462 34.9999 118.462C28.6805 118.462 23.5576 116.051 23.5576 113.077" stroke="white"/>
<path d="M46.4422 129.231C46.4422 132.205 41.3193 134.615 34.9999 134.615C28.6805 134.615 23.5576 132.205 23.5576 129.231" stroke="white"/>
<path d="M46.4422 105C46.4422 107.974 41.3193 110.385 34.9999 110.385C28.6805 110.385 23.5576 107.974 23.5576 105" stroke="white"/>
<path d="M46.4422 121.154C46.4422 124.128 41.3193 126.538 34.9999 126.538C28.6805 126.538 23.5576 124.128 23.5576 121.154" stroke="white"/>
<path d="M46.4422 137.308C46.4422 140.281 41.3193 142.692 34.9999 142.692C28.6805 142.692 23.5576 140.281 23.5576 137.308" stroke="white"/>
<ellipse cx="34.9999" cy="92.8846" rx="11.4423" ry="5.38462" fill="#208FFC" stroke="white"/>
<line x1="23.3845" y1="92.8845" x2="23.3845" y2="160.192" stroke="white"/>
<line x1="46.2691" y1="92.8845" x2="46.2691" y2="160.192" stroke="white"/>
<path d="M82.1155 80.7693C82.1155 83.7431 76.9926 86.1539 70.6731 86.1539C64.3537 86.1539 59.2308 83.7431 59.2308 80.7693" stroke="white"/>
<path d="M82.1155 96.9231C82.1155 99.8969 76.9926 102.308 70.6731 102.308C64.3537 102.308 59.2308 99.8969 59.2308 96.9231" stroke="white"/>
<path d="M82.1155 113.077C82.1155 116.051 76.9926 118.462 70.6731 118.462C64.3537 118.462 59.2308 116.051 59.2308 113.077" stroke="white"/>
<path d="M82.1155 129.231C82.1155 132.205 76.9926 134.615 70.6731 134.615C64.3537 134.615 59.2308 132.205 59.2308 129.231" stroke="white"/>
<path d="M82.1155 88.8462C82.1155 91.82 76.9926 94.2308 70.6731 94.2308C64.3537 94.2308 59.2308 91.82 59.2308 88.8462" stroke="white"/>
<path d="M82.1155 105C82.1155 107.974 76.9926 110.385 70.6731 110.385C64.3537 110.385 59.2308 107.974 59.2308 105" stroke="white"/>
<path d="M82.1155 121.154C82.1155 124.128 76.9926 126.538 70.6731 126.538C64.3537 126.538 59.2308 124.128 59.2308 121.154" stroke="white"/>
<path d="M82.1155 137.308C82.1155 140.281 76.9926 142.692 70.6731 142.692C64.3537 142.692 59.2308 140.281 59.2308 137.308" stroke="white"/>
<path d="M82.1155 76.7307C82.1155 79.7046 76.9926 82.1153 70.6731 82.1153C64.3537 82.1153 59.2308 79.7046 59.2308 76.7307" stroke="white"/>
<path d="M82.1155 92.8845C82.1155 95.8584 76.9926 98.2691 70.6731 98.2691C64.3537 98.2691 59.2308 95.8584 59.2308 92.8845" stroke="white"/>
<path d="M82.1155 109.038C82.1155 112.012 76.9926 114.423 70.6731 114.423C64.3537 114.423 59.2308 112.012 59.2308 109.038" stroke="white"/>
<path d="M82.1155 125.192C82.1155 128.166 76.9926 130.577 70.6731 130.577C64.3537 130.577 59.2308 128.166 59.2308 125.192" stroke="white"/>
<path d="M82.1155 84.8076C82.1155 87.7815 76.9926 90.1922 70.6731 90.1922C64.3537 90.1922 59.2308 87.7815 59.2308 84.8076" stroke="white"/>
<path d="M82.1155 100.961C82.1155 103.935 76.9926 106.346 70.6731 106.346C64.3537 106.346 59.2308 103.935 59.2308 100.961" stroke="white"/>
<path d="M82.1155 117.115C82.1155 120.089 76.9926 122.5 70.6731 122.5C64.3537 122.5 59.2308 120.089 59.2308 117.115" stroke="white"/>
<path d="M82.1155 133.269C82.1155 136.243 76.9926 138.654 70.6731 138.654C64.3537 138.654 59.2308 136.243 59.2308 133.269" stroke="white"/>
<ellipse cx="70.6731" cy="72.6922" rx="11.4423" ry="5.38462" fill="#208FFC" stroke="white"/>
<line x1="59.0577" y1="72.6921" x2="59.0577" y2="140" stroke="white"/>
<line x1="81.9424" y1="72.6921" x2="81.9424" y2="140" stroke="white"/>
<path d="M118.461 60.5769C118.461 63.5507 113.339 65.9615 107.019 65.9615C100.7 65.9615 95.5768 63.5507 95.5768 60.5769" stroke="white"/>
<path d="M118.461 76.7307C118.461 79.7046 113.339 82.1153 107.019 82.1153C100.7 82.1153 95.5768 79.7046 95.5768 76.7307" stroke="white"/>
<path d="M118.461 92.8848C118.461 95.8586 113.339 98.2694 107.019 98.2694C100.7 98.2694 95.5768 95.8586 95.5768 92.8848" stroke="white"/>
<path d="M118.461 125.192C118.461 128.166 113.339 130.577 107.019 130.577C100.7 130.577 95.5768 128.166 95.5768 125.192" stroke="white"/>
<path d="M118.461 109.039C118.461 112.012 113.339 114.423 107.019 114.423C100.7 114.423 95.5768 112.012 95.5768 109.039" stroke="white"/>
<path d="M118.461 68.6538C118.461 71.6276 113.339 74.0384 107.019 74.0384C100.7 74.0384 95.5768 71.6276 95.5768 68.6538" stroke="white"/>
<path d="M118.461 84.8076C118.461 87.7815 113.339 90.1922 107.019 90.1922C100.7 90.1922 95.5768 87.7815 95.5768 84.8076" stroke="white"/>
<path d="M118.461 100.962C118.461 103.936 113.339 106.346 107.019 106.346C100.7 106.346 95.5768 103.936 95.5768 100.962" stroke="white"/>
<path d="M118.461 133.269C118.461 136.243 113.339 138.654 107.019 138.654C100.7 138.654 95.5768 136.243 95.5768 133.269" stroke="white"/>
<path d="M118.461 117.115C118.461 120.089 113.339 122.5 107.019 122.5C100.7 122.5 95.5768 120.089 95.5768 117.115" stroke="white"/>
<path d="M118.461 56.5386C118.461 59.5124 113.339 61.9232 107.019 61.9232C100.7 61.9232 95.5768 59.5124 95.5768 56.5386" stroke="white"/>
<path d="M118.461 72.6924C118.461 75.6662 113.339 78.077 107.019 78.077C100.7 78.077 95.5768 75.6662 95.5768 72.6924" stroke="white"/>
<path d="M118.461 88.8462C118.461 91.82 113.339 94.2308 107.019 94.2308C100.7 94.2308 95.5768 91.82 95.5768 88.8462" stroke="white"/>
<path d="M118.461 121.154C118.461 124.128 113.339 126.538 107.019 126.538C100.7 126.538 95.5768 124.128 95.5768 121.154" stroke="white"/>
<path d="M118.461 105C118.461 107.974 113.339 110.385 107.019 110.385C100.7 110.385 95.5768 107.974 95.5768 105" stroke="white"/>
<path d="M118.461 137.308C118.461 140.281 113.339 142.692 107.019 142.692C100.7 142.692 95.5768 140.281 95.5768 137.308" stroke="white"/>
<path d="M118.461 64.6155C118.461 67.5893 113.339 70.0001 107.019 70.0001C100.7 70.0001 95.5768 67.5893 95.5768 64.6155" stroke="white"/>
<path d="M118.461 80.7693C118.461 83.7431 113.339 86.1539 107.019 86.1539C100.7 86.1539 95.5768 83.7431 95.5768 80.7693" stroke="white"/>
<path d="M118.461 96.9231C118.461 99.8969 113.339 102.308 107.019 102.308C100.7 102.308 95.5768 99.8969 95.5768 96.9231" stroke="white"/>
<path d="M118.461 129.231C118.461 132.205 113.339 134.615 107.019 134.615C100.7 134.615 95.5768 132.205 95.5768 129.231" stroke="white"/>
<path d="M118.461 113.077C118.461 116.051 113.339 118.462 107.019 118.462C100.7 118.462 95.5768 116.051 95.5768 113.077" stroke="white"/>
<ellipse cx="107.019" cy="52.5001" rx="11.4423" ry="5.38462" fill="#208FFC" stroke="white"/>
<line x1="95.4038" y1="52.5" x2="95.4038" y2="160.192" stroke="white"/>
<line x1="118.288" y1="52.5" x2="118.288" y2="160.192" stroke="white"/>
<path d="M1.34613 95.577L78.0769 18.8462" stroke="white" stroke-linecap="round" stroke-linejoin="round"/>
<path d="M64.6153 18.8462H78.0768V32.3077" stroke="white" stroke-linecap="round" stroke-linejoin="round"/>
</g>
<g clip-path="url(#clip0)">
<circle cx="117.115" cy="117.115" r="18.8462" fill="#6CF089"/>
<path d="M117.115 107.244V126.987" stroke="white" stroke-width="2" stroke-linecap="round" stroke-linejoin="round"/>
<path d="M121.603 110.833H114.872C114.039 110.833 113.24 111.164 112.651 111.753C112.062 112.343 111.731 113.141 111.731 113.975C111.731 114.808 112.062 115.607 112.651 116.196C113.24 116.785 114.039 117.116 114.872 117.116H119.359C120.192 117.116 120.991 117.446 121.58 118.036C122.169 118.625 122.5 119.424 122.5 120.257C122.5 121.09 122.169 121.889 121.58 122.478C120.991 123.067 120.192 123.398 119.359 123.398H111.731" stroke="white" stroke-width="2" stroke-linecap="round" stroke-linejoin="round"/>
</g>
<defs>
<clipPath id="clip0">
<rect width="37.6923" height="37.6923" fill="white" transform="translate(98.2692 98.2693)"/>
</clipPath>
</defs>
</svg>
