<svg width="100%" height="910" viewBox="0 0 768 910" fill="none" preserveAspectRatio="none" xmlns="http://www.w3.org/2000/svg">
<mask id="mask0" mask-type="alpha" maskUnits="userSpaceOnUse" x="0" y="0" width="100%" height="910">
<rect width="100%" height="910" fill="#C4C4C4"/>
</mask>
<g mask="url(#mask0)">
<path fill-rule="evenodd" clip-rule="evenodd" d="M938.102 177.944L937.653 177.555C825.61 80.5906 699.377 -28.6546 422.818 47.7603C145.889 124.277 46.3126 114.215 -64.5846 47.7603V392.78H-3.99994V1251.88H839V392.78H938.102V177.944Z" fill="#F6F6F6"/>
<path fill-rule="evenodd" clip-rule="evenodd" d="M938.102 177.944L937.653 177.555C825.61 80.5906 699.377 -28.6546 422.818 47.7603C145.889 124.277 46.3126 114.215 -64.5846 47.7603V392.78H-3.99994V1251.88H839V392.78H938.102V177.944Z" fill="url(#paint0_linear)"/>
<path d="M422.818 37.7603C699.746 -38.7567 825.947 9.45959 938.102 106.521V1243.38H-64.5845V7.15356C46.3126 73.608 145.889 114.277 422.818 37.7603Z" fill="url(#paint1_linear)" fill-opacity="0.9"/>
<path d="M1037.39 736.892C413.765 909.29 129.568 800.656 -123 581.969V-280H2135V805.851C1885.27 656.124 1661.02 564.493 1037.39 736.892Z" fill="url(#paint2_linear)" fill-opacity="0.05"/>
<path d="M-156.263 502.929L-157 502.292V38H1489V715.867C1306.95 606.844 1143.49 590.336 688.885 715.867C234.888 841.23 27.6655 662.006 -156.263 502.929Z" fill="url(#paint3_linear)" fill-opacity="0.03"/>
<path d="M-53.6172 220.151L-53.9999 219.819V-303H801V331.056C706.437 274.273 621.527 265.675 385.388 331.056C149.563 396.349 41.923 303.003 -53.6172 220.151Z" fill="url(#paint4_linear)" fill-opacity="0.1"/>
</g>
<defs>
<linearGradient id="paint0_linear" x1="830.139" y1="80.2533" x2="-13.8532" y2="469.965" gradientUnits="userSpaceOnUse">
<stop stop-color="#37D9FC"/>
<stop offset="1" stop-color="#0239FC"/>
</linearGradient>
<linearGradient id="paint1_linear" x1="938" y1="-59.5" x2="-446.501" y2="986.999" gradientUnits="userSpaceOnUse">
<stop stop-color="#37D9FC"/>
<stop offset="1" stop-color="#0538FB"/>
</linearGradient>
<linearGradient id="paint2_linear" x1="109.268" y1="802.545" x2="2059.87" y2="-193.269" gradientUnits="userSpaceOnUse">
<stop stop-color="white"/>
<stop offset="1" stop-color="white"/>
</linearGradient>
<linearGradient id="paint3_linear" x1="20.2299" y1="662.559" x2="1405.41" y2="22.5518" gradientUnits="userSpaceOnUse">
<stop stop-color="white"/>
<stop offset="1" stop-color="white" stop-opacity="0"/>
</linearGradient>
<linearGradient id="paint4_linear" x1="38.0606" y1="303.291" x2="758.259" y2="-28.5778" gradientUnits="userSpaceOnUse">
<stop stop-color="white"/>
<stop offset="1" stop-color="white" stop-opacity="0"/>
</linearGradient>
</defs>
</svg>
