<svg width="104" height="104" viewBox="0 0 104 104" fill="none" xmlns="http://www.w3.org/2000/svg">
<path d="M17 69C17 66.477 20.953 64.5 26 64.5C31.047 64.5 35 66.477 35 69V100.615C37.736 101.572 40.576 102.304 43.5 102.789V54C43.5 51.477 47.453 49.5 52.5 49.5C57.547 49.5 61.5 51.477 61.5 54V102.611C64.607 102.031 67.615 101.173 70.5 100.062V39C70.5 36.477 74.453 34.5 79.5 34.5C84.547 34.5 88.5 36.477 88.5 39V88.328C97.77 79.016 103.5 66.178 103.5 52C103.5 23.558 80.443 0.5 52 0.5C23.559 0.5 0.5 23.557 0.5 52C0.5 66.926 6.855 80.361 17 89.768V69Z" fill="white"/>
<circle cx="52" cy="52" r="51.5" stroke="white"/>
<mask id="mask0" mask-type="alpha" maskUnits="userSpaceOnUse" x="0" y="0" width="104" height="104">
<circle cx="52" cy="52" r="52" fill="white"/>
</mask>
<g mask="url(#mask0)">
<path d="M34.5 75C34.5 77.2091 30.6944 79 26 79C21.3056 79 17.5 77.2091 17.5 75" stroke="white"/>
<path d="M34.5 87C34.5 89.2091 30.6944 91 26 91C21.3056 91 17.5 89.2091 17.5 87" stroke="white"/>
<path d="M34.5 99C34.5 101.209 30.6944 103 26 103C21.3056 103 17.5 101.209 17.5 99" stroke="white"/>
<path d="M34.5 81C34.5 83.2091 30.6944 85 26 85C21.3056 85 17.5 83.2091 17.5 81" stroke="white"/>
<path d="M34.5 93C34.5 95.2091 30.6944 97 26 97C21.3056 97 17.5 95.2091 17.5 93" stroke="white"/>
<path d="M34.5 72C34.5 74.2091 30.6944 76 26 76C21.3056 76 17.5 74.2091 17.5 72" stroke="white"/>
<path d="M34.5 84C34.5 86.2091 30.6944 88 26 88C21.3056 88 17.5 86.2091 17.5 84" stroke="white"/>
<path d="M34.5 96C34.5 98.2091 30.6944 100 26 100C21.3056 100 17.5 98.2091 17.5 96" stroke="white"/>
<path d="M34.5 78C34.5 80.2091 30.6944 82 26 82C21.3056 82 17.5 80.2091 17.5 78" stroke="white"/>
<path d="M34.5 90C34.5 92.2091 30.6944 94 26 94C21.3056 94 17.5 92.2091 17.5 90" stroke="white"/>
<path d="M34.5 102C34.5 104.209 30.6944 106 26 106C21.3056 106 17.5 104.209 17.5 102" stroke="white"/>
<ellipse cx="26" cy="69" rx="8.5" ry="4" fill="#3CACFC" stroke="white"/>
<line x1="17.5" y1="69" x2="17.5" y2="119" stroke="white"/>
<line x1="34.5" y1="69" x2="34.5" y2="119" stroke="white"/>
<path d="M61 60C61 62.2091 57.1944 64 52.5 64C47.8056 64 44 62.2091 44 60" stroke="white"/>
<path d="M61 72C61 74.2091 57.1944 76 52.5 76C47.8056 76 44 74.2091 44 72" stroke="white"/>
<path d="M61 84C61 86.2091 57.1944 88 52.5 88C47.8056 88 44 86.2091 44 84" stroke="white"/>
<path d="M61 96C61 98.2091 57.1944 100 52.5 100C47.8056 100 44 98.2091 44 96" stroke="white"/>
<path d="M61 66C61 68.2091 57.1944 70 52.5 70C47.8056 70 44 68.2091 44 66" stroke="white"/>
<path d="M61 78C61 80.2091 57.1944 82 52.5 82C47.8056 82 44 80.2091 44 78" stroke="white"/>
<path d="M61 90C61 92.2091 57.1944 94 52.5 94C47.8056 94 44 92.2091 44 90" stroke="white"/>
<path d="M61 102C61 104.209 57.1944 106 52.5 106C47.8056 106 44 104.209 44 102" stroke="white"/>
<path d="M61 57C61 59.2091 57.1944 61 52.5 61C47.8056 61 44 59.2091 44 57" stroke="white"/>
<path d="M61 69C61 71.2091 57.1944 73 52.5 73C47.8056 73 44 71.2091 44 69" stroke="white"/>
<path d="M61 81C61 83.2091 57.1944 85 52.5 85C47.8056 85 44 83.2091 44 81" stroke="white"/>
<path d="M61 93C61 95.2091 57.1944 97 52.5 97C47.8056 97 44 95.2091 44 93" stroke="white"/>
<path d="M61 63C61 65.2091 57.1944 67 52.5 67C47.8056 67 44 65.2091 44 63" stroke="white"/>
<path d="M61 75C61 77.2091 57.1944 79 52.5 79C47.8056 79 44 77.2091 44 75" stroke="white"/>
<path d="M61 87C61 89.2091 57.1944 91 52.5 91C47.8056 91 44 89.2091 44 87" stroke="white"/>
<path d="M61 99C61 101.209 57.1944 103 52.5 103C47.8056 103 44 101.209 44 99" stroke="white"/>
<ellipse cx="52.5" cy="54" rx="8.5" ry="4" fill="#3CACFC" stroke="white"/>
<line x1="44" y1="54" x2="44" y2="104" stroke="white"/>
<line x1="61" y1="54" x2="61" y2="104" stroke="white"/>
<path d="M88 45C88 47.2091 84.1944 49 79.5 49C74.8056 49 71 47.2091 71 45" stroke="white"/>
<path d="M88 57C88 59.2091 84.1944 61 79.5 61C74.8056 61 71 59.2091 71 57" stroke="white"/>
<path d="M88 69C88 71.2091 84.1944 73 79.5 73C74.8056 73 71 71.2091 71 69" stroke="white"/>
<path d="M88 93C88 95.2091 84.1944 97 79.5 97C74.8056 97 71 95.2091 71 93" stroke="white"/>
<path d="M88 81C88 83.2091 84.1944 85 79.5 85C74.8056 85 71 83.2091 71 81" stroke="white"/>
<path d="M88 51C88 53.2091 84.1944 55 79.5 55C74.8056 55 71 53.2091 71 51" stroke="white"/>
<path d="M88 63C88 65.2091 84.1944 67 79.5 67C74.8056 67 71 65.2091 71 63" stroke="white"/>
<path d="M88 75C88 77.2091 84.1944 79 79.5 79C74.8056 79 71 77.2091 71 75" stroke="white"/>
<path d="M88 99C88 101.209 84.1944 103 79.5 103C74.8056 103 71 101.209 71 99" stroke="white"/>
<path d="M88 87C88 89.2091 84.1944 91 79.5 91C74.8056 91 71 89.2091 71 87" stroke="white"/>
<path d="M88 42C88 44.2091 84.1944 46 79.5 46C74.8056 46 71 44.2091 71 42" stroke="white"/>
<path d="M88 54C88 56.2091 84.1944 58 79.5 58C74.8056 58 71 56.2091 71 54" stroke="white"/>
<path d="M88 66C88 68.2091 84.1944 70 79.5 70C74.8056 70 71 68.2091 71 66" stroke="white"/>
<path d="M88 90C88 92.2091 84.1944 94 79.5 94C74.8056 94 71 92.2091 71 90" stroke="white"/>
<path d="M88 78C88 80.2091 84.1944 82 79.5 82C74.8056 82 71 80.2091 71 78" stroke="white"/>
<path d="M88 102C88 104.209 84.1944 106 79.5 106C74.8056 106 71 104.209 71 102" stroke="white"/>
<path d="M88 48C88 50.2091 84.1944 52 79.5 52C74.8056 52 71 50.2091 71 48" stroke="white"/>
<path d="M88 60C88 62.2091 84.1944 64 79.5 64C74.8056 64 71 62.2091 71 60" stroke="white"/>
<path d="M88 72C88 74.2091 84.1944 76 79.5 76C74.8056 76 71 74.2091 71 72" stroke="white"/>
<path d="M88 96C88 98.2091 84.1944 100 79.5 100C74.8056 100 71 98.2091 71 96" stroke="white"/>
<path d="M88 84C88 86.2091 84.1944 88 79.5 88C74.8056 88 71 86.2091 71 84" stroke="white"/>
<ellipse cx="79.5" cy="39" rx="8.5" ry="4" fill="#3CACFC" stroke="white"/>
<line x1="71" y1="39" x2="71" y2="119" stroke="white"/>
<line x1="88" y1="39" x2="88" y2="119" stroke="white"/>
<path d="M1 71L58 14" stroke="white" stroke-linecap="round" stroke-linejoin="round"/>
<path d="M48 14H58V24" stroke="white" stroke-linecap="round" stroke-linejoin="round"/>
<path d="M1 71L58 14" stroke="#3CACFC" stroke-linecap="round" stroke-linejoin="round"/>
<path d="M48 14H58V24" stroke="#3CACFC" stroke-linecap="round" stroke-linejoin="round"/>
</g>
<circle cx="87" cy="87" r="14" fill="#6CF089"/>
<path d="M87 79.6667V94.3334" stroke="white" stroke-width="2" stroke-linecap="round" stroke-linejoin="round"/>
<path d="M90.3333 82.3334H85.3333C84.7145 82.3334 84.121 82.5792 83.6834 83.0168C83.2458 83.4544 83 84.0479 83 84.6667C83 85.2855 83.2458 85.879 83.6834 86.3166C84.121 86.7542 84.7145 87 85.3333 87H88.6667C89.2855 87 89.879 87.2459 90.3166 87.6835C90.7542 88.121 91 88.7145 91 89.3334C91 89.9522 90.7542 90.5457 90.3166 90.9833C89.879 91.4209 89.2855 91.6667 88.6667 91.6667H83" stroke="white" stroke-width="2" stroke-linecap="round" stroke-linejoin="round"/>
</svg>
