<svg width="50" height="50" viewBox="0 0 50 50" fill="none" xmlns="http://www.w3.org/2000/svg">
<g clip-path="url(#clip0_3_34)">
<path fill-rule="evenodd" clip-rule="evenodd" d="M0.666626 25C0.666626 11.7452 11.4118 1 24.6666 1C37.9215 1 48.6666 11.7452 48.6666 25C48.6666 38.2548 37.9215 49 24.6666 49C11.4118 49 0.666626 38.2548 0.666626 25Z" stroke="#EEEEEE"/>
<path d="M35.1984 14.5186C34.8878 14.2593 34.513 14.0893 34.1138 14.0268C33.7145 13.9643 33.3059 14.0116 32.9313 14.1636L13.3808 22.0854C12.9627 22.258 12.6068 22.5542 12.3603 22.9346C12.1138 23.315 11.9885 23.7616 12.0008 24.2152C12.0132 24.6687 12.1627 25.1078 12.4295 25.4741C12.6964 25.8404 13.0679 26.1165 13.4948 26.266L17.4494 27.6463L19.6536 34.9618C19.6836 35.0595 19.7271 35.1526 19.7828 35.2382C19.7912 35.2513 19.8032 35.2611 19.8122 35.2738C19.8765 35.364 19.9543 35.4437 20.0428 35.5101C20.068 35.5293 20.0921 35.5474 20.119 35.5645C20.2226 35.6334 20.3372 35.6838 20.458 35.7135L20.4709 35.7146L20.4782 35.7177C20.5508 35.7325 20.6247 35.7401 20.6987 35.7402C20.7059 35.7402 20.7122 35.7368 20.7193 35.7366C20.831 35.7347 20.9418 35.7154 21.0477 35.6794C21.0724 35.6709 21.0935 35.6568 21.1174 35.6467C21.1963 35.6138 21.2711 35.5717 21.3402 35.5213C21.3956 35.4745 21.4509 35.4277 21.5063 35.3809L24.4542 32.1145L28.851 35.5328C29.238 35.8352 29.7145 35.9996 30.205 36C30.7191 35.9993 31.2172 35.8213 31.616 35.4959C32.0149 35.1704 32.29 34.7172 32.3955 34.2123L35.9548 16.6763C36.0355 16.2816 36.0077 15.8723 35.8745 15.4923C35.7413 15.1122 35.5076 14.7757 35.1984 14.5186ZM21.1313 27.9949C20.9801 28.1461 20.8767 28.3388 20.8341 28.5487L20.4964 30.1954L19.6411 27.3563L24.076 25.0386L21.1313 27.9949ZM30.188 33.8017L24.9922 29.7622C24.7748 29.5937 24.5021 29.5135 24.2285 29.5376C23.9548 29.5618 23.7003 29.6886 23.5156 29.8927L22.5715 30.9385L22.9052 29.311L30.6323 21.5561C30.8167 21.3712 30.9291 21.1262 30.949 20.8654C30.969 20.6045 30.8952 20.3452 30.741 20.1342C30.5869 19.9233 30.3625 19.7747 30.1086 19.7154C29.8548 19.6562 29.5881 19.6901 29.357 19.8112L18.2673 25.6059L14.2043 24.1137L33.8177 16.2389L30.188 33.8017Z" fill="#C4C4C4"/>
</g>
<defs>
<clipPath id="clip0_3_34">
<rect width="50" height="50" fill="white"/>
</clipPath>
</defs>
</svg>
