<svg width="22" height="25" viewBox="0 0 22 25" fill="none" xmlns="http://www.w3.org/2000/svg">
<path d="M8.80899 0.487793L7.69092 7.04906H9.4791L10.5981 0.487793H8.80899Z" fill="black" fill-opacity="0.3"/>
<path d="M6.19151 0.495032L4.44012 4.96963L4.25339 4.294C3.90799 3.47994 2.92743 2.31081 1.77625 1.57401L3.3777 7.04573L5.26983 7.04251L8.08594 0.493652L6.19151 0.495032Z" fill="black" fill-opacity="0.3"/>
<path d="M3.57453 0.964692C3.47058 0.565019 3.16933 0.445898 2.79542 0.431641H0.0229962L0 0.562259C2.1575 1.08565 3.58511 2.34676 4.17749 3.86313L3.57453 0.964692Z" fill="black" fill-opacity="0.3"/>
<path d="M14.2222 1.74557C14.8072 1.73637 15.2313 1.86423 15.5606 1.99669L15.722 2.07258L15.964 0.650494C15.6098 0.517576 15.0547 0.375 14.362 0.375C12.595 0.375 11.3495 1.26495 11.3399 2.54032C11.3284 3.4827 12.2271 4.00886 12.9059 4.32298C13.6027 4.64493 13.8363 4.8496 13.8331 5.13705C13.8276 5.57628 13.2775 5.77772 12.7638 5.77772C12.0477 5.77772 11.6673 5.67884 11.08 5.43416L10.8496 5.3293L10.598 6.79783C11.0166 6.98134 11.7888 7.1391 12.5904 7.14738C14.4701 7.14738 15.6917 6.268 15.7046 4.90525C15.7124 4.15971 15.2354 3.59079 14.202 3.12396C13.5765 2.81949 13.1938 2.61713 13.1975 2.3099C13.1975 2.03716 13.5222 1.74557 14.2222 1.74557Z" fill="black" fill-opacity="0.3"/>
<path d="M20.5531 0.495117H19.1715C18.7424 0.495117 18.4232 0.611938 18.2346 1.03967L15.5795 7.05271H17.4573C17.4573 7.05271 17.7636 6.24416 17.8331 6.06709C18.0387 6.06709 19.8632 6.06985 20.1231 6.06985C20.1764 6.29889 20.3411 7.05271 20.3411 7.05271H22L20.5531 0.495117ZM18.3477 4.72412C18.4949 4.34744 19.0602 2.8904 19.0602 2.8904C19.0505 2.90834 19.206 2.51096 19.2984 2.26398L19.4189 2.82969C19.4189 2.82969 19.7616 4.39619 19.8333 4.72412H18.3477Z" fill="black" fill-opacity="0.3"/>
<g clip-path="url(#clip0)">
<path d="M13.9091 11.2842C12.8269 11.2842 11.8247 11.6245 11 12.2005C11.4931 12.5445 11.9222 12.9736 12.2662 13.466H9.73382C10.0778 12.9736 10.5069 12.5445 11 12.2005C10.1753 11.6245 9.17309 11.2842 8.09091 11.2842C5.27927 11.2842 3 13.5635 3 16.3751C3 19.1867 5.27927 21.466 8.09091 21.466C9.17309 21.466 10.1753 21.1256 11 20.5496C10.5069 20.2056 10.0778 19.7765 9.73382 19.2842H12.2669C11.9222 19.7765 11.4931 20.2056 11.0007 20.5496C11.8255 21.1256 12.8276 21.466 13.9098 21.466C16.7215 21.466 19.0007 19.1867 19.0007 16.3751C19 13.5635 16.7207 11.2842 13.9091 11.2842ZM12.9615 14.9205C13.032 15.1569 13.0895 15.3984 13.1251 15.6478H8.87491C8.91055 15.3984 8.968 15.1569 9.03855 14.9205H12.9615ZM9.03855 17.8296C8.968 17.5933 8.91055 17.3518 8.87491 17.1024H13.1258C13.0902 17.3518 13.0327 17.5933 12.9622 17.8296H9.03855Z" fill="black" fill-opacity="0.3"/>
</g>
<defs>
<clipPath id="clip0">
<rect x="3" y="8.375" width="16" height="16" fill="white"/>
</clipPath>
</defs>
</svg>
