<svg width="50" height="50" viewBox="0 0 50 50" fill="none" xmlns="http://www.w3.org/2000/svg">
<g clip-path="url(#clip0_88_769)">
<mask id="mask0_88_769" style="mask-type:luminance" maskUnits="userSpaceOnUse" x="0" y="0" width="50" height="50">
<path d="M50 0H0V50H50V0Z" fill="white"/>
</mask>
<g mask="url(#mask0_88_769)">
<path fill-rule="evenodd" clip-rule="evenodd" d="M0.666992 25C0.666992 11.7452 11.4122 1 24.667 1C37.9219 1 48.667 11.7452 48.667 25C48.667 38.2548 37.9219 49 24.667 49C11.4122 49 0.666992 38.2548 0.666992 25Z" stroke="#EEEEEE"/>
</g>
<path fill-rule="evenodd" clip-rule="evenodd" d="M37.7175 14.6741C39.1056 15.0457 40.1965 16.1365 40.5681 17.5245C41.2395 20.0378 41.2422 25.2847 41.2422 25.2847C41.2422 25.2847 41.2422 30.5316 40.5681 33.0451C40.1965 34.4331 39.1056 35.5238 37.7175 35.8953C35.2041 36.5695 25.121 36.5695 25.121 36.5695C25.121 36.5695 15.0381 36.5695 12.5247 35.8953C11.1366 35.5238 10.0457 34.4331 9.67414 33.0451C9 30.5316 9 25.2847 9 25.2847C9 25.2847 9 20.0378 9.67414 17.5245C10.0457 16.1365 11.1366 15.0457 12.5247 14.6741C15.0381 14 25.121 14 25.121 14C25.121 14 35.2041 14 37.7175 14.6741ZM30.2701 25.2852L21.8938 30.1207V20.4496L30.2701 25.2852Z" fill="#DBDBDB"/>
</g>
<defs>
<clipPath id="clip0_88_769">
<rect width="50" height="50" fill="white"/>
</clipPath>
</defs>
</svg>
